<?xml version="1.0" encoding="utf-8"?>
<!-- Generator: Adobe Illustrator 22.0.1, SVG Export Plug-In . SVG Version: 6.00 Build 0)  -->
<svg version="1.1" id="Capa_1" xmlns="http://www.w3.org/2000/svg" xmlns:xlink="http://www.w3.org/1999/xlink" x="0px" y="0px"
	 viewBox="0 0 420 200" style="enable-background:new 0 0 420 200;" xml:space="preserve">
<style type="text/css">
	.st0{fill:#222222;}
	.st1{fill-rule:evenodd;clip-rule:evenodd;fill:#FF9900;}
	.st2{fill-rule:evenodd;clip-rule:evenodd;fill:#FBFBFB;}
	.st3{fill:#FBFBFB;}
</style>
<g>
	<path class="st0" d="M395.3,0H24.7C11.1,0,0,11.1,0,24.8v150.5C0,188.9,11.1,200,24.7,200h370.6c13.6,0,24.7-11.1,24.7-24.8V24.8
		C420,11.1,408.9,0,395.3,0z"/>
	<g>
		<g>
			<path class="st1" d="M248.8,156.4c-18.3,13.5-44.7,20.6-67.5,20.6c-32,0-60.7-11.8-82.5-31.5c-1.7-1.5-0.2-3.7,1.9-2.5
				c23.5,13.7,52.5,21.9,82.5,21.9c20.2,0,42.5-4.2,63-12.9C249.2,150.8,251.8,154.1,248.8,156.4z"/>
			<path class="st1" d="M256.4,147.7c-2.3-3-15.4-1.4-21.3-0.7c-1.8,0.2-2.1-1.3-0.5-2.5c10.5-7.3,27.6-5.2,29.6-2.8
				c2,2.5-0.5,19.7-10.3,27.8c-1.5,1.3-2.9,0.6-2.3-1.1C253.8,163,258.7,150.7,256.4,147.7z"/>
		</g>
		<g>
			<path class="st2" d="M235.5,92.6v-7.1c0-1.1,0.8-1.8,1.8-1.8l32,0c1,0,1.8,0.7,1.8,1.8l0,6.1c0,1-0.9,2.4-2.4,4.5l-16.6,23.6
				c6.1-0.1,12.7,0.8,18.2,3.9c1.3,0.7,1.6,1.8,1.7,2.8v7.6c0,1-1.1,2.3-2.4,1.6c-9.8-5.2-22.9-5.7-33.8,0.1
				c-1.1,0.6-2.3-0.6-2.3-1.7v-7.2c0-1.2,0-3.1,1.2-4.9L254,94.4l-16.7,0C236.3,94.4,235.5,93.7,235.5,92.6z"/>
			<path class="st2" d="M118.8,137.2h-9.7c-0.9-0.1-1.7-0.8-1.7-1.6l0-49.9c0-1,0.8-1.8,1.9-1.8l9.1,0c0.9,0,1.7,0.8,1.8,1.7V92h0.2
				c2.4-6.3,6.8-9.2,12.8-9.2c6.1,0,9.9,2.9,12.6,9.2c2.4-6.3,7.7-9.2,13.4-9.2c4.1,0,8.5,1.7,11.3,5.5c3.1,4.2,2.5,10.3,2.5,15.7
				l0,31.5c0,1-0.8,1.8-1.9,1.8h-9.7c-1-0.1-1.7-0.8-1.7-1.8l0-26.5c0-2.1,0.2-7.4-0.3-9.4c-0.7-3.4-2.9-4.3-5.7-4.3
				c-2.4,0-4.8,1.6-5.8,4.1c-1,2.5-0.9,6.7-0.9,9.6v26.5c0,1-0.8,1.8-1.9,1.8h-9.7c-1-0.1-1.7-0.8-1.7-1.8l0-26.5
				c0-5.6,0.9-13.8-6-13.8c-7,0-6.7,8-6.7,13.8l0,26.5C120.7,136.4,119.9,137.2,118.8,137.2z"/>
			<path class="st2" d="M298.6,82.8c14.4,0,22.2,12.4,22.2,28.2c0,15.2-8.6,27.3-22.2,27.3c-14.2,0-21.9-12.4-21.9-27.8
				C276.7,94.9,284.6,82.8,298.6,82.8z M298.7,93c-7.2,0-7.6,9.8-7.6,15.9c0,6.1-0.1,19.1,7.5,19.1c7.5,0,7.9-10.5,7.9-16.9
				c0-4.2-0.2-9.2-1.5-13.2C304,94.3,301.8,93,298.7,93z"/>
			<path class="st2" d="M339.6,137.2h-9.7c-1-0.1-1.7-0.8-1.7-1.8l0-49.9c0.1-0.9,0.9-1.6,1.9-1.6l9,0c0.8,0,1.5,0.6,1.7,1.4v7.6
				h0.2c2.7-6.8,6.5-10.1,13.3-10.1c4.4,0,8.6,1.6,11.4,5.9c2.5,4,2.5,10.7,2.5,15.5v31.4c-0.1,0.9-0.9,1.6-1.9,1.6h-9.8
				c-0.9-0.1-1.6-0.7-1.7-1.6v-27.1c0-5.5,0.6-13.4-6.1-13.4c-2.4,0-4.5,1.6-5.6,4c-1.4,3-1.5,6.1-1.5,9.5v26.9
				C341.5,136.4,340.6,137.2,339.6,137.2z"/>
			<path class="st2" d="M210,113.4c0,3.8,0.1,6.9-1.8,10.3c-1.5,2.7-4,4.4-6.7,4.4c-3.7,0-5.9-2.8-5.9-7.1c0-8.3,7.4-9.8,14.5-9.8
				V113.4z M219.8,137.1c-0.6,0.6-1.6,0.6-2.3,0.2c-3.2-2.7-3.8-3.9-5.6-6.5c-5.3,5.4-9.1,7.1-16,7.1c-8.2,0-14.6-5.1-14.6-15.2
				c0-7.9,4.3-13.3,10.4-15.9c5.3-2.3,12.6-2.7,18.3-3.4v-1.3c0-2.3,0.2-5.1-1.2-7.1c-1.2-1.8-3.5-2.5-5.5-2.5c-3.7,0-7,1.9-7.8,5.8
				c-0.2,0.9-0.8,1.7-1.7,1.8l-9.4-1c-0.8-0.2-1.7-0.8-1.5-2c2.2-11.4,12.5-14.9,21.8-14.9c4.7,0,10.9,1.3,14.6,4.8
				c4.7,4.4,4.3,10.3,4.3,16.7V119c0,4.6,1.9,6.6,3.7,9c0.6,0.9,0.8,1.9,0,2.6C225.3,132.3,221.8,135.4,219.8,137.1L219.8,137.1z"/>
			<path class="st2" d="M82.5,113.4c0,3.8,0.1,6.9-1.8,10.3c-1.5,2.7-4,4.4-6.7,4.4c-3.7,0-5.9-2.8-5.9-7.1c0-8.3,7.4-9.8,14.5-9.8
				V113.4z M92.3,137.1c-0.6,0.6-1.6,0.6-2.3,0.2c-3.2-2.7-3.8-3.9-5.6-6.5c-5.3,5.4-9.1,7.1-16,7.1c-8.2,0-14.6-5.1-14.6-15.2
				c0-7.9,4.3-13.3,10.4-15.9c5.3-2.3,12.6-2.7,18.3-3.4v-1.3c0-2.3,0.2-5.1-1.2-7.1c-1.2-1.8-3.5-2.5-5.5-2.5c-3.7,0-7,1.9-7.8,5.8
				c-0.2,0.9-0.8,1.7-1.7,1.8l-9.4-1c-0.8-0.2-1.7-0.8-1.5-2c2.2-11.4,12.5-14.9,21.8-14.9c4.7,0,10.9,1.3,14.7,4.8
				c4.7,4.4,4.3,10.3,4.3,16.7V119c0,4.6,1.9,6.6,3.7,9c0.6,0.9,0.8,1.9,0,2.6C97.8,132.3,94.2,135.4,92.3,137.1L92.3,137.1z"/>
		</g>
	</g>
	<g>
		<path class="st3" d="M79,49.8c0,4.4-1.2,7.8-3.7,10.1c-2.4,2.3-6,3.5-10.6,3.5h-7.5V36.8h8.2c4.2,0,7.5,1.1,9.9,3.4
			C77.8,42.5,79,45.7,79,49.8z M74.4,50c0-6.4-3-9.6-9-9.6h-3.8v19.3h3.1C71.2,59.8,74.4,56.5,74.4,50z"/>
		<path class="st3" d="M84,37.9c0-0.8,0.2-1.4,0.6-1.8c0.4-0.4,1-0.6,1.8-0.6c0.8,0,1.3,0.2,1.8,0.6c0.4,0.4,0.6,1,0.6,1.8
			c0,0.7-0.2,1.3-0.6,1.7c-0.4,0.4-1,0.6-1.8,0.6c-0.8,0-1.4-0.2-1.8-0.6C84.2,39.2,84,38.7,84,37.9z M88.6,63.4h-4.3V43.3h4.3V63.4
			z"/>
		<path class="st3" d="M108.2,57.7c0,2-0.7,3.5-2.2,4.5c-1.4,1.1-3.5,1.6-6.2,1.6c-2.7,0-4.8-0.4-6.5-1.2v-3.7
			c2.4,1.1,4.6,1.6,6.6,1.6c2.6,0,4-0.8,4-2.4c0-0.5-0.1-0.9-0.4-1.3c-0.3-0.3-0.8-0.7-1.4-1.1c-0.7-0.4-1.6-0.8-2.8-1.2
			c-2.3-0.9-3.9-1.8-4.7-2.7c-0.8-0.9-1.2-2.1-1.2-3.5c0-1.7,0.7-3.1,2.1-4c1.4-1,3.3-1.4,5.7-1.4c2.4,0,4.6,0.5,6.7,1.4l-1.4,3.2
			c-2.2-0.9-4-1.3-5.5-1.3c-2.3,0-3.4,0.6-3.4,1.9c0,0.6,0.3,1.2,0.9,1.6c0.6,0.4,1.9,1,3.9,1.8c1.7,0.6,2.9,1.2,3.6,1.8
			c0.8,0.5,1.3,1.2,1.7,1.9C108.1,55.9,108.2,56.7,108.2,57.7z"/>
		<path class="st3" d="M123.1,63.8c-2.6,0-4.5-0.9-5.9-2.8h-0.3c0.2,1.7,0.3,2.7,0.3,3.1v8.3h-4.3V43.3h3.5c0.1,0.4,0.3,1.3,0.6,2.7
			h0.2c1.3-2,3.3-3.1,6-3.1c2.5,0,4.5,0.9,5.9,2.7c1.4,1.8,2.1,4.4,2.1,7.7c0,3.3-0.7,5.9-2.1,7.7C127.6,62.9,125.6,63.8,123.1,63.8
			z M122.1,46.4c-1.7,0-2.9,0.5-3.7,1.5c-0.8,1-1.2,2.6-1.2,4.8v0.6c0,2.5,0.4,4.2,1.2,5.3c0.8,1.1,2,1.6,3.8,1.6
			c1.5,0,2.6-0.6,3.4-1.8c0.8-1.2,1.2-2.9,1.2-5.2c0-2.3-0.4-4-1.2-5.1C124.8,47,123.6,46.4,122.1,46.4z"/>
		<path class="st3" d="M154,53.3c0,3.3-0.8,5.9-2.5,7.7c-1.7,1.8-4,2.8-7.1,2.8c-1.9,0-3.6-0.4-5-1.3c-1.4-0.9-2.6-2.1-3.3-3.7
			c-0.8-1.6-1.2-3.4-1.2-5.5c0-3.3,0.8-5.8,2.5-7.7c1.7-1.8,4-2.8,7.1-2.8c2.9,0,5.2,0.9,6.9,2.8C153.2,47.6,154,50.1,154,53.3z
			 M139.3,53.3c0,4.7,1.7,7,5.2,7c3.4,0,5.1-2.3,5.1-7c0-4.6-1.7-6.9-5.1-6.9c-1.8,0-3.1,0.6-3.9,1.8
			C139.7,49.4,139.3,51.1,139.3,53.3z"/>
		<path class="st3" d="M176.7,63.4h-4.3V51c0-1.6-0.3-2.7-0.9-3.5c-0.6-0.8-1.6-1.1-3-1.1c-1.8,0-3.1,0.5-4,1.6
			c-0.8,1.1-1.3,2.9-1.3,5.4v10h-4.3V43.3h3.4l0.6,2.6h0.2c0.6-1,1.5-1.7,2.6-2.2c1.1-0.5,2.4-0.8,3.7-0.8c4.8,0,7.3,2.5,7.3,7.4
			V63.4z"/>
		<path class="st3" d="M182.4,37.9c0-0.8,0.2-1.4,0.6-1.8c0.4-0.4,1-0.6,1.8-0.6c0.8,0,1.3,0.2,1.8,0.6c0.4,0.4,0.6,1,0.6,1.8
			c0,0.7-0.2,1.3-0.6,1.7c-0.4,0.4-1,0.6-1.8,0.6c-0.8,0-1.4-0.2-1.8-0.6C182.6,39.2,182.4,38.7,182.4,37.9z M186.9,63.4h-4.3V43.3
			h4.3V63.4z"/>
		<path class="st3" d="M203.4,42.9c2.5,0,4.5,0.9,5.9,2.7c1.4,1.8,2.1,4.4,2.1,7.7c0,3.3-0.7,5.9-2.1,7.7c-1.4,1.8-3.4,2.8-5.9,2.8
			c-2.6,0-4.5-0.9-5.9-2.8h-0.3l-0.8,2.4h-3.2V35.1h4.3v6.7c0,0.5,0,1.2-0.1,2.2c0,1-0.1,1.6-0.1,1.9h0.2
			C198.7,43.9,200.7,42.9,203.4,42.9z M202.3,46.4c-1.7,0-3,0.5-3.7,1.5c-0.8,1-1.2,2.7-1.2,5.1v0.3c0,2.5,0.4,4.2,1.2,5.3
			c0.8,1.1,2,1.6,3.8,1.6c1.5,0,2.7-0.6,3.5-1.8c0.8-1.2,1.2-2.9,1.2-5.2C207,48.7,205.4,46.4,202.3,46.4z"/>
		<path class="st3" d="M220.6,63.4h-4.3V35.1h4.3V63.4z"/>
		<path class="st3" d="M235.5,63.8c-3.1,0-5.6-0.9-7.4-2.7c-1.8-1.8-2.7-4.3-2.7-7.6c0-3.3,0.8-5.9,2.5-7.8c1.6-1.9,3.9-2.8,6.8-2.8
			c2.7,0,4.8,0.8,6.3,2.4c1.5,1.6,2.3,3.8,2.3,6.7v2.3h-13.4c0.1,2,0.6,3.5,1.6,4.5c1,1.1,2.4,1.6,4.2,1.6c1.2,0,2.3-0.1,3.3-0.3
			s2.1-0.6,3.3-1.1v3.5c-1,0.5-2.1,0.9-3.2,1.1C238.1,63.7,236.9,63.8,235.5,63.8z M234.8,46.1c-1.4,0-2.5,0.4-3.3,1.3
			c-0.8,0.9-1.3,2.1-1.5,3.8h9.2c0-1.7-0.4-2.9-1.2-3.8C237.2,46.6,236.1,46.1,234.8,46.1z"/>
		<path class="st3" d="M266.8,63.8c-3.1,0-5.6-0.9-7.4-2.7c-1.8-1.8-2.7-4.3-2.7-7.6c0-3.3,0.8-5.9,2.5-7.8c1.6-1.9,3.9-2.8,6.8-2.8
			c2.7,0,4.8,0.8,6.3,2.4c1.5,1.6,2.3,3.8,2.3,6.7v2.3h-13.4c0.1,2,0.6,3.5,1.6,4.5c1,1.1,2.4,1.6,4.2,1.6c1.2,0,2.3-0.1,3.3-0.3
			s2.1-0.6,3.3-1.1v3.5c-1,0.5-2.1,0.9-3.2,1.1C269.4,63.7,268.1,63.8,266.8,63.8z M266,46.1c-1.4,0-2.5,0.4-3.3,1.3
			c-0.8,0.9-1.3,2.1-1.5,3.8h9.2c0-1.7-0.4-2.9-1.2-3.8C268.4,46.6,267.3,46.1,266,46.1z"/>
		<path class="st3" d="M297.2,63.4h-4.3V51c0-1.6-0.3-2.7-0.9-3.5c-0.6-0.8-1.6-1.1-3-1.1c-1.8,0-3.1,0.5-4,1.6
			c-0.8,1.1-1.3,2.9-1.3,5.4v10h-4.3V43.3h3.4l0.6,2.6h0.2c0.6-1,1.5-1.7,2.6-2.2c1.1-0.5,2.4-0.8,3.7-0.8c4.8,0,7.3,2.5,7.3,7.4
			V63.4z"/>
	</g>
</g>
</svg>
