<?xml version="1.0" encoding="utf-8"?>
<!-- Generator: Adobe Illustrator 22.0.1, SVG Export Plug-In . SVG Version: 6.00 Build 0)  -->
<svg version="1.1" id="Capa_1" xmlns="http://www.w3.org/2000/svg" xmlns:xlink="http://www.w3.org/1999/xlink" x="0px" y="0px"
	 viewBox="0 0 512 243.3" style="enable-background:new 0 0 512 243.3;" xml:space="preserve">
<style type="text/css">
	.st0{fill:#FBFBFB;}
	.st1{fill:#FF9900;}
	.st2{fill:#222221;}
</style>
<g>
	<path class="st0" d="M481.9,0H30.1C13.5,0,0,13.5,0,30.1v183c0,16.6,13.5,30.1,30.1,30.1h451.8c16.6,0,30.1-13.5,30.1-30.1v-183
		C512,13.5,498.5,0,481.9,0z"/>
	<g>
		<path class="st1" d="M308.3,169.1c-24.7,18.2-60.4,27.9-91.2,27.9c-43.2,0-82.1-16-111.5-42.6c-2.3-2.1-0.2-4.9,2.6-3.3
			c31.8,18.4,71,29.6,111.6,29.6c27.3,0,57.4-5.7,85.1-17.4C308.9,161.6,312.4,166.1,308.3,169.1z"/>
		<path class="st1" d="M318.5,157.3c-3.1-4-20.9-1.9-28.8-1c-2.4,0.3-2.8-1.8-0.6-3.3c14.1-9.9,37.2-7.1,40-3.8
			c2.7,3.3-0.7,26.6-14,37.7c-2,1.7-4,0.8-3.1-1.4C315.1,178.1,321.8,161.4,318.5,157.3z"/>
		<path class="st2" d="M290.3,83v-9.7c0-1.4,1.1-2.4,2.4-2.4H336c1.3,0,2.4,1,2.4,2.4v8.2c0,1.3-1.2,3.2-3.2,6.1l-22.3,32
			c8.3-0.2,17.1,1,24.7,5.3c1.7,1,2.1,2.3,2.3,3.8v10.3c0,1.4-1.6,3.1-3.2,2.2c-13.3-7-31-7.8-45.7,0.1c-1.6,0.8-3.1-0.8-3.1-2.2
			v-9.8c0-1.6,0-4.2,1.6-6.7l25.9-37.2h-22.6C291.4,85.4,290.3,84.4,290.3,83z"/>
		<path class="st2" d="M132.6,143.2h-13.1c-1.2-0.1-2.2-1-2.3-2.2V73.5c0-1.3,1.1-2.4,2.6-2.4H132c1.3,0.1,2.3,1,2.4,2.2v8.8h0.2
			c3.2-8.6,9.2-12.4,17.3-12.4c8.2,0,13.3,4,17.1,12.4c3.2-8.6,10.4-12.4,18.1-12.4c5.6,0,11.6,2.2,15.2,7.3
			c4.2,5.7,3.3,13.9,3.3,21.1v42.6c0,1.3-1.1,2.4-2.6,2.4h-13.1c-1.3-0.1-2.3-1.1-2.3-2.4v-35.8c0-2.9,0.2-9.9-0.3-12.7
			c-1-4.6-3.9-5.8-7.8-5.8c-3.2,0-6.6,2.1-7.9,5.6s-1.2,9.1-1.2,12.9v35.8c0,1.3-1.1,2.4-2.6,2.4h-13.2c-1.3-0.1-2.3-1.1-2.3-2.4
			v-35.8c0-7.6,1.2-18.6-8.1-18.6c-9.4,0-9.1,10.8-9.1,18.6v35.8C135.2,142.1,134.1,143.2,132.6,143.2z"/>
		<path class="st2" d="M375.7,69.7c19.6,0,30.1,16.8,30.1,38c0,20.6-11.7,36.9-30.1,36.9c-19.1,0-29.6-16.8-29.6-37.7
			C346.1,86,356.7,69.7,375.7,69.7z M375.8,83.4c-9.7,0-10.3,13.2-10.3,21.4s-0.1,25.9,10.2,25.9c10.2,0,10.7-14.2,10.7-22.9
			c0-5.7-0.2-12.4-2-17.9C382.9,85.2,380,83.4,375.8,83.4z"/>
		<path class="st2" d="M431,143.2h-13.1c-1.3-0.1-2.3-1.1-2.3-2.4V73.3c0.1-1.2,1.2-2.2,2.6-2.2h12.2c1.1,0.1,2.1,0.9,2.3,1.9v10.3
			h0.2c3.7-9.2,8.8-13.7,17.9-13.7c5.9,0,11.7,2.1,15.3,8c3.4,5.4,3.4,14.4,3.4,21v42.4c-0.1,1.2-1.2,2.1-2.6,2.1h-13.2
			c-1.2-0.1-2.2-1-2.3-2.1v-36.7c0-7.3,0.9-18.2-8.2-18.2c-3.2,0-6.1,2.1-7.6,5.4c-1.9,4.1-2.1,8.2-2.1,12.8v36.3
			C433.6,142.1,432.4,143.2,431,143.2z"/>
		<path class="st2" d="M106.9,131c-2.4-3.3-5-6.1-5-12.2V98.3c0-8.7,0.7-16.7-5.8-22.7c-5-4.9-13.3-6.6-19.8-6.6
			c-12.6,0-26.6,4.7-29.4,20.1c-0.2,1.7,0.9,2.6,2,2.8l12.8,1.3c1.2-0.1,2.1-1.2,2.3-2.4c1.1-5.3,5.6-7.9,10.6-7.9
			c2.7,0,5.8,1,7.3,3.4c1.8,2.8,1.6,6.4,1.6,9.6v1.7c-7.6,0.9-17.6,1.4-24.7,4.6c-8.2,3.6-14,10.8-14,21.4
			c0,13.7,8.6,20.4,19.7,20.4c9.3,0,14.4-2.2,21.7-9.6c2.4,3.4,3.2,5.1,7.6,8.8c1,0.4,2.2,0.4,3.1-0.3c2.7-2.3,7.4-6.4,10.1-8.6
			C107.9,133.7,107.7,132.2,106.9,131z M81.1,124.9c-2.1,3.7-5.4,6-9.1,6c-5,0-8-3.9-8-9.6c0-11.2,10-13.2,19.6-13.2v2.9
			C83.5,116.1,83.6,120.4,81.1,124.9z"/>
		<path class="st2" d="M279.2,131c-2.4-3.3-5-6.1-5-12.2V98.3c0-8.7,0.7-16.7-5.8-22.7c-5-4.9-13.3-6.6-19.8-6.6
			c-12.6,0-26.6,4.7-29.4,20.1c-0.2,1.7,0.9,2.6,2,2.8l12.8,1.3c1.2-0.1,2.1-1.2,2.3-2.4c1.1-5.3,5.6-7.9,10.6-7.9
			c2.7,0,5.8,1,7.3,3.4c1.8,2.8,1.6,6.4,1.6,9.6v1.7c-7.6,0.9-17.6,1.4-24.7,4.6c-8.2,3.6-14,10.8-14,21.4
			c0,13.7,8.6,20.4,19.7,20.4c9.3,0,14.4-2.2,21.7-9.6c2.4,3.4,3.2,5.1,7.6,8.8c1,0.4,2.2,0.4,3.1-0.3c2.7-2.3,7.4-6.4,10.1-8.6
			C280.2,133.7,280.1,132.2,279.2,131z M253.4,124.9c-2.1,3.7-5.4,6-9.1,6c-5,0-8-3.9-8-9.6c0-11.2,10-13.2,19.6-13.2v2.9
			C255.9,116.1,256,120.4,253.4,124.9z"/>
	</g>
</g>
</svg>
