<?xml version="1.0" encoding="utf-8"?>
<!-- Generator: Adobe Illustrator 22.0.1, SVG Export Plug-In . SVG Version: 6.00 Build 0)  -->
<svg version="1.1" id="Capa_1" xmlns="http://www.w3.org/2000/svg" xmlns:xlink="http://www.w3.org/1999/xlink" x="0px" y="0px"
	 viewBox="0 0 512 243.3" style="enable-background:new 0 0 512 243.3;" xml:space="preserve">
<style type="text/css">
	.st0{fill:#FBFBFB;}
	.st1{fill:#222221;}
	.st2{fill:#B65514;}
</style>
<g>
	<path class="st0" d="M481.4,0H30.6c-16.5,0-30,13.5-30,30.2v183c0,16.5,13.5,30,30,30h450.7c16.5,0,30-13.5,30-30.2V30.2
		C511.4,13.5,497.9,0,481.4,0z"/>
	<path id="path3_3_" class="st1" d="M165.6,90.7c0,16.9-7.7,23-20.3,23h-18.2V33.5h18.2c14.2,0,17.9,8.3,17.9,21.9
		c0,10.1-3.6,15.4-9.9,15.8C160.2,70.9,165.6,77.7,165.6,90.7L165.6,90.7z M141.3,75.7V104h3.6c4.4,0,5.5-2.6,5.5-14.7
		c0-9-1.1-13.6-5.8-13.6L141.3,75.7L141.3,75.7z M141.3,42.7V66h3.6c3.6,0,4.4-3.5,4.4-10.3c0-9.4-0.7-12.9-5.5-12.9h-2.6v-0.1
		H141.3z"/>
	<path id="path5_3_" class="st1" d="M246,72.4c9.1,2.6,10.2,13.3,10.2,23c0,7.5,0.4,14.4,1.5,18.2h-15c-0.4-3.3-1.1-4.6-1.1-12.2
		c0-2.9,0-6.1,0-10.1c0-6.4-2.2-11.1-6.9-12.5H234v34.8h-15V33.3h21.8c10.2,0,17.1,5.7,17.1,20.4C257.9,66.3,252.6,71.6,246,72.4
		L246,72.4z M234,43.4v23.4h4.4c3.6,0,4.7-2.6,4.7-9.7c0-11.8-2.2-13.6-6.6-13.6L234,43.4L234,43.4z"/>
	<path id="path7_3_" class="st1" d="M282.8,69.9c0.7,10.7,0.7,13.6,0.7,23.4c0,6.1,0,20.4,0,20.4H270V33.5h13.5
		c0,0,6.2,23.7,7.7,28.7s2.6,9,3.3,12.5c-0.4-7.9-0.7-17.5-0.7-25.4c0-6.1,0-15.8,0-15.8h13.1v80.3h-12c0,0-7.3-24.7-8.8-29.8
		C284.9,79.9,283.9,75.7,282.8,69.9L282.8,69.9L282.8,69.9z"/>
	<polygon id="polygon9_3_" class="st1" points="334,101.4 351.8,101.4 351.8,113.6 319.9,113.6 319.9,33.3 349.7,33.3 349.7,45.5 
		334,45.5 334,67 347.8,67 347.8,78.1 334,78.1 	"/>
	<path id="path11_3_" class="st1" d="M372.9,95c0,9,2.2,10.5,5.5,10.5c2.6,0,4.4-1.5,4.4-10.5c0-7.9-5.5-13.6-11.3-20.8
		c-5.8-6.4-12-15.4-12-23c0-12.2,5.8-19,17.1-19S394,38.3,394,50.1c0,2.6-0.7,4.6-1.1,6.4h-12c0-1.5,0.4-3.3,0.4-5.7
		c0-7.5-1.1-10.1-4.4-10.1s-3.6,3.3-3.6,9c0,7.2,5.8,12.9,10.6,19c6.9,8.6,12.4,15.4,12.4,23.7c0,12.9-5.5,22.6-18.2,22.6
		c-10.9,0-18.2-5.7-18.2-19.7c0-3.3,0-6.1,0.7-8.6l13.1-0.4C373.2,89.6,372.9,91.3,372.9,95L372.9,95L372.9,95z"/>
	<path id="path13_3_" class="st1" d="M199.7,164.4c0.7,10.7,0.7,13.6,0.7,23.4c0,6.1,0,20.4,0,20.4h-13.5V128h13.5
		c0,0,6.2,23.7,7.7,28.7s2.6,9,2.9,12.5c-0.4-7.9-0.4-17.5-0.4-25.4c0-6.1,0-15.8,0-15.8h13.1v80.3h-12c0,0-7.3-24.7-8.8-29.8
		C201.8,174.4,200.8,170.2,199.7,164.4L199.7,164.4z"/>
	<path id="path15_3_" class="st1" d="M272.8,168c0,34.4-5.8,41.6-19.3,41.6c-12.4,0-19-5.4-19-41.6c0-35.1,5.1-41.2,19-41.2
		C267.7,126.7,272.8,132.8,272.8,168L272.8,168z M257.5,168c0-12.5,0-20.4-0.4-26.1c-0.4-5.7-1.5-6.8-3.6-6.8s-3.3,1.1-3.6,6.8
		s-0.4,13.6-0.4,26.1c0,14.7,0,20.4,0.4,25.8c0.4,6.1,1.5,6.8,3.6,6.8c2.6,0,3.3-0.4,3.6-6.8C257.5,188,257.5,182.7,257.5,168
		L257.5,168z"/>
	<path id="path17_3_" class="st1" d="M322.2,185.2c0,16.9-7.7,23-20.3,23h-18.2V128h18.2c14.2,0,17.9,8.3,17.9,21.9
		c0,10.1-3.6,15.4-9.9,15.8C316.7,165.5,322.2,172.3,322.2,185.2L322.2,185.2z M297.8,170.2v28.3h3.6c4.4,0,5.5-2.6,5.5-14.7
		c0-9-1.1-13.6-5.8-13.6H297.8L297.8,170.2z M297.8,137.2v23.4h3.6c3.6,0,4.4-3.5,4.4-10.3c0-9.4-1.1-12.9-5.5-12.9h-2.6v-0.2H297.8
		z"/>
	<polygon id="polygon19_3_" class="st1" points="347.3,195.9 364.4,195.9 364.4,208.1 332.4,208.1 332.4,127.8 347.3,127.8 	"/>
	<polygon id="polygon21_3_" class="st1" points="386.6,195.9 404.4,195.9 404.4,208.1 372.4,208.1 372.4,127.8 402.2,127.8 
		402.2,140 386.6,140 386.6,161.5 400.4,161.5 400.4,172.7 386.6,172.7 	"/>
	<path id="path23_3_" class="st1" d="M171.1,113.6L182.8,33H197l13.9,80.6h-15.3l-1.6-12.9h-9.1l-1.5,12.9H171.1L171.1,113.6z
		 M185.9,91.7h7.3c0,0-1.1-9.4-1.8-15.4c-0.4-3.5-1.8-15.4-2.2-23c-0.4,7.9-1.5,19.3-1.8,23C187,82.5,185.9,91.7,185.9,91.7
		L185.9,91.7z"/>
	<path class="st2" d="M169.8,166.1c-5.8,0-9.9,3.5-12.4,9c-2.6,5.4-5.5,12.2-7.3,15.8c-6.2-10.7-10.9-19-13.9-26.5
		c4.7-2.9,13.1-6.8,18.2-11.1c4.7-4.3,6.9-8.6,8-13.3c1.5-9-3.6-16.9-15.3-16.9c-9.9,0-21.4,7.5-23.6,20.1
		c-1.1,6.1,0.4,14.4,2.9,21.2c-8.8,5.7-16.4,12.2-18.5,22.3c-2.6,16.9,8,24.3,19.9,24.3c8,0,14.2-3.5,19.3-9c3.6,3.9,8.4,9,14.2,9
		c4.7,0,9.9-2.9,13.9-7.9l-1.8-2.6c-3.6,3.5-6.2,5-8.4,5c-4,0-7.7-3.5-11.3-8.6c-0.4-1.1-0.7-1.8-1.1-2.6c2.2-4.3,3.6-9,5.8-13.3
		c3.6-7.9,5.8-10.7,9.1-10.7c5.8,0,1.1,9.4,7.3,9.4c2.9,0,4.4-2.2,4.7-4.6C180,172,177.8,166.1,169.8,166.1z M133.4,141.1
		c0.7-5.7,5.8-11.8,13.5-11.8c5.8,0,9.9,4.3,8.4,11.1c-0.4,2.6-1.1,5-3.6,8.3c-2.9,3.3-12.4,9-16.8,11.4
		C132.7,153.6,131.9,147.5,133.4,141.1z M131.2,205.7c-11.3,0-15.3-9.4-14.2-16.5c1.5-9,5.8-14.4,11.3-19.3
		c4,9.7,9.1,19.3,16.4,29.4C140.7,203.8,137,205.7,131.2,205.7z M153.1,203.1c0,0-10.6-10.7-19.2-30.2c-10.9-23.4-3.3-35.1-3.3-35.1
		s-4,12.5,4.7,33.7C142.5,188.8,153.1,203.1,153.1,203.1z"/>
</g>
</svg>
