<?xml version="1.0" encoding="utf-8"?>
<!-- Generator: Adobe Illustrator 22.0.1, SVG Export Plug-In . SVG Version: 6.00 Build 0)  -->
<svg version="1.1" id="Capa_1" xmlns="http://www.w3.org/2000/svg" xmlns:xlink="http://www.w3.org/1999/xlink" x="0px" y="0px"
	 viewBox="0 0 420 200" style="enable-background:new 0 0 420 200;" xml:space="preserve">
<style type="text/css">
	.st0{fill:#222222;}
	.st1{fill:#FBFBFB;}
	.st2{fill:#B65514;}
</style>
<g>
	<path class="st0" d="M395.3,0H24.7C11.1,0,0,11.1,0,24.8v150.5C0,188.9,11.1,200,24.7,200h370.6c13.6,0,24.7-11.1,24.7-24.8V24.8
		C420,11.1,408.9,0,395.3,0z"/>
	<g>
		<g>
			<path id="path3_2_" class="st1" d="M135.7,74.6c0,13.9-6.3,18.9-16.7,18.9h-15v-66h15c11.7,0,14.7,6.8,14.7,18
				c0,8.3-3,12.7-8.1,13C131.2,58.3,135.7,63.9,135.7,74.6L135.7,74.6z M115.7,62.2v23.3h3c3.6,0,4.5-2.1,4.5-12.1
				c0-7.4-0.9-11.2-4.8-11.2H115.7L115.7,62.2z M115.7,35.1v19.2h3c3,0,3.6-2.9,3.6-8.5c0-7.7-0.6-10.6-4.5-10.6H115.7L115.7,35.1z"
				/>
			<path id="path5_2_" class="st1" d="M201.8,59.5c7.5,2.1,8.4,10.9,8.4,18.9c0,6.2,0.3,11.8,1.2,15h-12.3c-0.3-2.7-0.9-3.8-0.9-10
				c0-2.4,0-5,0-8.3c0-5.3-1.8-9.1-5.7-10.3h-0.6v28.6h-12.3v-66h17.9c8.4,0,14.1,4.7,14.1,16.8C211.6,54.5,207.2,58.9,201.8,59.5
				L201.8,59.5z M191.9,35.7v19.2h3.6c3,0,3.9-2.1,3.9-8c0-9.7-1.8-11.2-5.4-11.2H191.9L191.9,35.7z"/>
			<path id="path7_2_" class="st1" d="M232,57.5c0.6,8.8,0.6,11.2,0.6,19.2c0,5,0,16.8,0,16.8h-11.1v-66h11.1c0,0,5.1,19.5,6.3,23.6
				c1.2,4.1,2.1,7.4,2.7,10.3c-0.3-6.5-0.6-14.4-0.6-20.9c0-5,0-13,0-13h10.8v66h-9.9c0,0-6-20.3-7.2-24.5
				C233.8,65.7,232.9,62.2,232,57.5L232,57.5L232,57.5z"/>
			<polygon id="polygon9_2_" class="st1" points="274.1,83.4 288.8,83.4 288.8,93.4 262.5,93.4 262.5,27.4 287,27.4 287,37.4 
				274.1,37.4 274.1,55.1 285.5,55.1 285.5,64.2 274.1,64.2 			"/>
			<path id="path11_2_" class="st1" d="M306.1,78.1c0,7.4,1.8,8.6,4.5,8.6c2.1,0,3.6-1.2,3.6-8.6c0-6.5-4.5-11.2-9.3-17.1
				c-4.8-5.3-9.9-12.7-9.9-18.9c0-10,4.8-15.6,14.1-15.6c9.3,0,14.4,5,14.4,14.7c0,2.1-0.6,3.8-0.9,5.3h-9.9c0-1.2,0.3-2.7,0.3-4.7
				c0-6.2-0.9-8.3-3.6-8.3c-2.7,0-3,2.7-3,7.4c0,5.9,4.8,10.6,8.7,15.6c5.7,7.1,10.2,12.7,10.2,19.5c0,10.6-4.5,18.6-15,18.6
				c-9,0-15-4.7-15-16.2c0-2.7,0-5,0.6-7.1l10.8-0.3C306.4,73.7,306.1,75.1,306.1,78.1L306.1,78.1L306.1,78.1z"/>
			<path id="path13_2_" class="st1" d="M163.7,135.2c0.6,8.8,0.6,11.2,0.6,19.2c0,5,0,16.8,0,16.8h-11.1v-66h11.1
				c0,0,5.1,19.5,6.3,23.6c1.2,4.1,2.1,7.4,2.4,10.3c-0.3-6.5-0.3-14.4-0.3-20.9c0-5,0-13,0-13h10.8v66h-9.9c0,0-6-20.3-7.2-24.5
				C165.4,143.4,164.6,139.9,163.7,135.2L163.7,135.2z"/>
			<path id="path15_2_" class="st1" d="M223.8,138.1c0,28.3-4.8,34.2-15.9,34.2c-10.2,0-15.6-4.4-15.6-34.2
				c0-28.9,4.2-33.9,15.6-33.9C219.6,104.2,223.8,109.2,223.8,138.1L223.8,138.1z M211.2,138.1c0-10.3,0-16.8-0.3-21.5
				c-0.3-4.7-1.2-5.6-3-5.6c-1.8,0-2.7,0.9-3,5.6c-0.3,4.7-0.3,11.2-0.3,21.5c0,12.1,0,16.8,0.3,21.2c0.3,5,1.2,5.6,3,5.6
				c2.1,0,2.7-0.3,3-5.6C211.2,154.6,211.2,150.2,211.2,138.1L211.2,138.1z"/>
			<path id="path17_2_" class="st1" d="M264.4,152.3c0,13.9-6.3,18.9-16.7,18.9h-15v-66h15c11.7,0,14.7,6.8,14.7,18
				c0,8.3-3,12.7-8.1,13C259.9,136.1,264.4,141.7,264.4,152.3L264.4,152.3z M244.4,139.9v23.3h3c3.6,0,4.5-2.1,4.5-12.1
				c0-7.4-0.9-11.2-4.8-11.2H244.4L244.4,139.9z M244.4,112.8v19.2h3c3,0,3.6-2.9,3.6-8.5c0-7.7-0.9-10.6-4.5-10.6H244.4
				L244.4,112.8z"/>
			<polygon id="polygon19_2_" class="st1" points="285.1,161.1 299.1,161.1 299.1,171.1 272.8,171.1 272.8,105.1 285.1,105.1 			"/>
			<polygon id="polygon21_2_" class="st1" points="317.4,161.1 332,161.1 332,171.1 305.7,171.1 305.7,105.1 330.2,105.1 
				330.2,115.1 317.4,115.1 317.4,132.8 328.7,132.8 328.7,142 317.4,142 			"/>
			<path id="path23_2_" class="st1" d="M140.2,93.4l9.6-66.3h11.7l11.4,66.3h-12.6L159,82.8h-7.5l-1.2,10.6H140.2L140.2,93.4z
				 M152.4,75.4h6c0,0-0.9-7.7-1.5-12.7c-0.3-2.9-1.5-12.7-1.8-18.9c-0.3,6.5-1.2,15.9-1.5,18.9C153.3,67.8,152.4,75.4,152.4,75.4
				L152.4,75.4z"/>
			<path class="st2" d="M139.1,136.6c-4.8,0-8.1,2.9-10.2,7.4c-2.1,4.4-4.5,10-6,13c-5.1-8.8-9-15.6-11.4-21.8
				c3.9-2.4,10.8-5.6,15-9.1c3.9-3.5,5.7-7.1,6.6-10.9c1.2-7.4-3-13.9-12.6-13.9c-8.1,0-17.6,6.2-19.4,16.5
				c-0.9,5,0.3,11.8,2.4,17.4c-7.2,4.7-13.5,10-15.2,18.3c-2.1,13.9,6.6,20,16.4,20c6.6,0,11.7-2.9,15.9-7.4c3,3.2,6.9,7.4,11.7,7.4
				c3.9,0,8.1-2.4,11.4-6.5l-1.5-2.1c-3,2.9-5.1,4.1-6.9,4.1c-3.3,0-6.3-2.9-9.3-7.1c-0.3-0.9-0.6-1.5-0.9-2.1
				c1.8-3.5,3-7.4,4.8-10.9c3-6.5,4.8-8.8,7.5-8.8c4.8,0,0.9,7.7,6,7.7c2.4,0,3.6-1.8,3.9-3.8C147.5,141.4,145.7,136.6,139.1,136.6z
				 M109.2,116c0.6-4.7,4.8-9.7,11.1-9.7c4.8,0,8.1,3.5,6.9,9.1c-0.3,2.1-0.9,4.1-3,6.8c-2.4,2.7-10.2,7.4-13.8,9.4
				C108.6,126.3,108,121.3,109.2,116z M107.4,169.1c-9.3,0-12.6-7.7-11.7-13.6c1.2-7.4,4.8-11.8,9.3-15.9c3.3,8,7.5,15.9,13.5,24.2
				C115.2,167.6,112.2,169.1,107.4,169.1z M125.4,167c0,0-8.7-8.8-15.8-24.8c-9-19.2-2.7-28.9-2.7-28.9s-3.3,10.3,3.9,27.7
				C116.7,155.2,125.4,167,125.4,167z"/>
		</g>
	</g>
</g>
</svg>
