<?xml version="1.0" encoding="utf-8"?>
<!-- Generator: Adobe Illustrator 22.0.1, SVG Export Plug-In . SVG Version: 6.00 Build 0)  -->
<svg version="1.1" id="Capa_1" xmlns="http://www.w3.org/2000/svg" xmlns:xlink="http://www.w3.org/1999/xlink" x="0px" y="0px"
	 viewBox="0 0 1200 103.8" style="enable-background:new 0 0 1200 103.8;" xml:space="preserve">
<style type="text/css">
	.st0{fill:#57D9BA;}
</style>
<g>
	<path class="st0" d="M45.9,69.3c-0.3,3.5,0,7.1-0.1,10.6c-0.1,1.7,0.3,2.4,2.2,2.3c2.4-0.2,4.9-0.2,7.4,0c2.2,0.2,2.8-0.5,2.8-2.7
		c-0.1-8.9,0-17.8-0.1-26.6c0-2.4,0.4-4.6,1.1-6.8c4.4-14,8.7-28.1,13.1-42.4c-3.6,0-6.9,0.1-10.2,0c-1.9-0.1-2.4,0.6-2.8,2.3
		c-1.9,8.2-3.8,16.4-5.9,24.5c-0.4,1.5-0.2,3.2-1.6,4.5c-0.2-0.5-0.3-0.8-0.4-1.1c-1.7-6.5-3.3-13.1-5.1-19.6
		c-1-3.5-0.4-8.6-3.4-10.2C40,2.4,35.5,3.7,31.4,3.7c3.1,10,5.7,19.9,9.1,29.4C44.6,44.9,46.9,56.8,45.9,69.3z"/>
	<g>
		<path class="st0" d="M134.5,68.2c1.7-7.3,0.5-14.1-3.8-20.3c-2.4-3.5-5.3-6.5-8.3-9.5c-3.7-3.7-7.5-7.3-10.3-11.8
			c-1.8-2.9-3.1-5.9-2.5-9.4c0.5-3.2,2.7-5.3,5.7-5.5c3.2-0.2,5.3,1.4,6.4,4.7c0.6,1.7-0.3,4.3,1.5,5c1.5,0.6,3.7-0.3,5.6-0.6
			c1.3-0.2,2.6-0.4,4-0.6c1.2-0.1,1.7-0.6,1.6-1.9c-0.6-9.8-8.1-17.7-17.3-18c-10.2-0.3-18.4,7-19.5,17.1
			c-0.8,7.4,1.5,13.8,6.4,19.3c4.4,5,9.1,9.8,13.5,14.7c2.4,2.7,4.4,5.6,5.5,9c1.4,4.6-0.6,8.7-4.7,10c-4.2,1.3-7.7-0.7-9.4-5.1
			c-0.8-2,0.1-5.3-1.8-6c-1.9-0.7-4.5,0.5-6.8,0.8c-0.8,0.1-1.5,0.3-2.3,0.3c-1.5,0.1-1.8,0.9-1.6,2.2c1,10.7,7.3,19.5,19.9,19.5
			C125.3,82.2,132.6,76.7,134.5,68.2z"/>
		<path class="st0" d="M143.4,78.6c0,1.7,0.4,2.4,2.2,2.3c2.6-0.1,5.1-0.2,7.7,0c2.2,0.2,2.8-0.6,2.7-2.7
			c-0.1-12.2-0.1-24.4-0.1-36.6c0-9.9,0.1-19.7,0-29.6c0-3.2,1.4-7.6-0.6-9.2c-2.1-1.6-6.4-0.4-9.7-0.6c-1.8-0.1-2.3,0.5-2.3,2.2
			C143.4,29.2,143.4,53.9,143.4,78.6z"/>
	</g>
	<g>
		<path class="st0" d="M17.5,82.1c7.2-0.6,11.2-5.2,14-11.3c1.2-2.7,1.2-4.4-2.1-5.1c-1.9-0.4-3.8-2.1-5.6-1.9
			c-1.9,0.2-2,3.1-3.3,4.6c-1.8,2.2-3.7,4.1-6.8,2.6c-3-1.5-3-4.3-2.1-6.9c1-2.9,2.5-5.7,4-8.4c4.2-7.6,6.2-15.8,6.4-24.5
			c0.1-5,0.1-5-4.8-5c-0.9,0-1.8,0.1-2.7,0c-1.7-0.2-2,0.5-2,2.1c0.4,7.8-1.8,14.8-5.9,21.4C4.2,53.6,2.1,57.5,0.8,62
			C-2.6,74.1,4.9,83.2,17.5,82.1z"/>
		<path class="st0" d="M16.5,16.3c6.6,0,6.6,0,6.6-6.5c0-6.2,0-6.2-5.5-6.2c-6.3,0-6.3,0-6.3,7C11.2,16.3,11.2,16.3,16.5,16.3z"/>
	</g>
	<g>
		<path class="st0" d="M1190.6,2.7c-8.6-3.1-16.7,0.1-20.9,8.1c-3.1,5.8-3,5.6,2.9,8.3c3,1.4,5.2,2.1,6.2-2c0.2-0.8,0.9-1.5,1.4-2.2
			c1.5-1.8,3.2-3.2,5.7-2.2c2.6,1.1,3.1,3.3,2.8,5.8c-0.4,3-1.9,5.6-3.3,8.3c-4.3,8.2-7.1,16.7-7.2,25c-0.6,7.9-0.6,7.9,6.2,7.9
			c0.3,0,0.7,0,1,0c1.8,0.3,2.3-0.6,2.2-2.3c-0.7-8.7,2-16.6,6.6-23.9c2.5-4.1,4.6-8.4,5.5-13.1C1201.2,12.3,1197.5,5.1,1190.6,2.7z
			"/>
		<path class="st0" d="M1183.4,68.1c-6.3,0-6.3,0-6.3,7c0,5.6,0,5.6,5.4,5.6c6.2,0,6.2,0,6.2-6.2
			C1188.7,68.1,1188.7,68.1,1183.4,68.1z"/>
	</g>
	<g>
		<path class="st0" d="M493.7,73c-0.1-1.8-0.5-2.3-2.3-2.2c-5,0.1-10-0.1-15.1,0.1c-2,0.1-2.4-0.6-2.4-2.4c0.1-5.4,0-10.9,0-16.3
			c0-5.3,0-5.3,5.2-5.3c9.3,0,9.3,0,9-9.2c-0.1-1.8-0.6-2.2-2.3-2.2c-3.2,0.1-6.5,0-9.7,0.1c-1.5,0-2.2-0.2-2.1-2
			c0.1-5.5,0.1-11.1,0-16.6c0-1.6,0.4-2.1,2.1-2.1c3,0.1,6,0.1,9,0c2.8-0.1,6.3,1.2,8-0.5c1.7-1.7,0.2-5.3,0.5-8
			c0.3-2.5-0.8-2.9-3-2.8c-4.2,0.2-8.5,0-12.7,0c-4.6,0-9.2,0.1-13.7,0c-1.9-0.1-2.4,0.6-2.4,2.4c0.1,24.6,0.1,49.2,0,73.9
			c0,1.9,0.6,2.4,2.5,2.4c6.9-0.1,13.8,0,20.8,0C494,82.1,493.9,82.1,493.7,73z"/>
		<path class="st0" d="M451,65.4c0.7-8.6,0.3-17.3,0.3-25.9c0-6.5,0.3-13.1-0.3-19.6c-1-10.1-7.1-15.9-17.3-16.3
			c-5.5-0.2-10.9,0.1-16.4-0.1c-2.4-0.1-3.2,0.5-3.2,3c0.2,12.1,0.1,24.2,0.1,36.3c0,12.2,0,24.4,0,36.6c0,2.1,0.4,2.9,2.7,2.8
			c5.5-0.2,10.9,0,16.4-0.1C444.2,81.9,450,76.4,451,65.4z M438.8,62.1c0,7.4-4.1,10.5-11.3,8.7c-1.8-0.4-1.1-1.7-1.1-2.6
			c-0.1-8.4,0-16.8,0-25.3s0-16.8,0-25.3c0-2,0.2-2.9,2.7-2.9c6.8,0.1,9.8,2.9,9.9,9.7C438.8,37.1,438.8,49.6,438.8,62.1z"/>
	</g>
	<g>
		<path class="st0" d="M365.5,82.2c9.3,0,16.5-5.7,18.4-14.7c1.6-7.3,0.1-14.1-4.3-20.2c-2.4-3.3-5.3-6.3-8.2-9.2
			c-3.6-3.6-7.3-7.2-10-11.6c-1.8-2.9-3.1-5.9-2.5-9.4c0.5-3.2,2.7-5.3,5.8-5.5c3.3-0.2,5.2,1.5,6.3,4.4c0.7,1.8-0.2,4.6,1.6,5.3
			c1.8,0.6,4.1-0.4,6.2-0.7c1.1-0.2,2.2-0.3,3.3-0.4c1.3-0.1,1.6-0.7,1.5-2c-0.7-9.3-7.5-17-16-17.9c-9.5-1-18.2,5.1-20.4,14.5
			c-1.6,6.9-0.3,13.4,3.9,19.3c3.2,4.4,7,8.4,10.8,12.2c3,3,5.9,6.1,8.1,9.7c1.3,2.1,2.4,4.2,2.5,6.8c0.1,4.1-2,7.1-5.7,7.9
			c-3.9,0.8-7-1.1-8.6-5.1c-0.9-2.1,0.1-5.5-1.9-6.3c-2-0.8-4.7,0.5-7.2,0.9c-0.6,0.1-1.1,0.2-1.7,0.2c-1.4,0.1-2.1,0.7-1.9,2.3
			C346.6,73.6,353,82.2,365.5,82.2z"/>
		<path class="st0" d="M238.1,81c6.8-0.2,13.6,0,20.4-0.1c2.8,0,6.3,1.2,8-0.5c1.7-1.7,0.2-5.3,0.5-8c0.3-2.5-0.8-2.9-3-2.8
			c-4.7,0.2-9.4,0-14.1,0.1c-2,0.1-2.7-0.4-2.6-2.5c0.2-4.8,0.1-9.5,0.1-14.3c0-7.2,0-7.2,7.2-7.2c6.8,0,6.8,0,6.8-6.9
			c0-4.4,0-4.3-4.3-4.4c-3.2-0.1-7.5,1.4-9.3-0.6c-1.6-1.7-0.4-5.9-0.4-9c0-3.5-1.3-8.4,0.5-10.3c2.1-2.2,7-0.4,10.6-0.7
			c2.7-0.2,6.5,1.3,8-0.6c1.4-1.7,0.3-5.3,0.5-8c0.2-2.2-0.6-2.8-2.8-2.8c-8.7,0.1-17.4,0.2-26.1,0c-2.7-0.1-3.1,0.8-3,3.2
			c0.1,12.1,0.1,24.2,0.1,36.3c0,12.1,0.1,24.2-0.1,36.3C235.2,80.2,235.7,81,238.1,81z"/>
		<path class="st0" d="M273.3,74.5c0,6.5,0,6.5,6.6,6.4c7.2-0.1,11.5-3.4,13.3-10.3c0.5-1.9,0.9-3.9,0.9-5.9c0.1-9.8,0-19.5,0-29.3
			c0.1,0,0.1,0,0.2,0c0-10.2-0.1-20.4,0-30.6c0-2-0.4-2.8-2.5-2.6c-2.3,0.2-4.7,0.2-7,0c-2.1-0.2-2.9,0.4-2.8,2.7
			c0.2,4.3,0.1,8.6,0.1,13c0,15,0,29.9,0,44.9c0,4.3-1.9,6.8-5.7,6.6c-3.1-0.2-3.2,1.2-3,3.4C273.3,73.3,273.3,73.9,273.3,74.5z"/>
		<path class="st0" d="M191,41.5c0,12.2,0,24.4,0,36.6c0,2,0.3,2.9,2.7,2.8c5.7-0.2,11.4,0,17.1-0.1c10-0.3,16.1-5.5,16.8-15.3
			c1.1-15.8,1.1-31.7,0-47.5c-0.6-9-5.7-14.3-14.8-15.3c-6.1-0.7-12.3-0.2-18.4-0.4c-2.7-0.1-3.6,0.5-3.5,3.4
			C191.1,17.6,191,29.6,191,41.5z M203.1,41.2c0-8.3,0.1-16.6-0.1-24.9c0-2.3,0.7-2.7,2.8-2.7c6.6,0.1,9.7,2.9,9.7,9.5
			c0.1,12.7,0.1,25.5,0,38.2c0,6.9-4.8,10.2-11.5,8.2c-1.5-0.5-1-1.6-1-2.4C203.1,58.5,203.1,49.9,203.1,41.2z"/>
		<path class="st0" d="M309,80.9c0.3,0,0.7,0,1,0c1.5,0.2,2.1-0.3,2.3-1.9c0.4-3.5,1.5-7,1.6-10.5c0.1-3.7,1.6-4.8,5.1-4.3
			c2.5,0.3,5.9-0.8,7.4,0.5c1.5,1.2,1.2,4.7,1.6,7.2c0.5,2.9-0.3,7,1.8,8.5c2,1.5,5.8,0.3,8.7,0.6c3.1,0.3,3.3-0.8,2.8-3.5
			c-3.8-22.4-7.5-44.8-11.1-67.2c-1.3-8-1.2-8-9.2-8c-1.6,0-3.2,0.2-4.7,0c-2.6-0.4-3.5,0.5-4,3.2c-3.6,22.3-7.3,44.6-11,66.8
			c-0.5,2.8-2.4,6.6-0.8,8.1C302.1,81.9,306.1,80.8,309,80.9z M317.2,44.6c1.1-7.4,1.9-14.9,2.9-22.3c0.1-0.6-0.1-1.3,1.1-2.1
			c1.4,11,2.7,21.7,4.1,32.4c-0.2,0.1-0.4,0.3-0.6,0.3C315.9,53.3,316,53.3,317.2,44.6z"/>
	</g>
	<g>
		<path class="st0" d="M535.8,80.8c1.9,0.1,2.4-0.5,2.4-2.4c-0.1-8-0.1-16,0-24c0-2.9-1.2-6.6,0.5-8.3c1.9-1.9,5.7-0.3,8.7-0.7
			c2.7-0.4,3,0.8,3,3.2c-0.1,9.9,0,19.7-0.1,29.6c0,2.1,0.5,2.8,2.6,2.6c2.3-0.2,4.7-0.2,7,0c2.2,0.2,2.8-0.5,2.8-2.7
			c-0.1-12.2-0.1-24.4-0.1-36.6c0-10,0-20,0-30c0-3,1-7.1-0.5-8.6c-2-2-6.1-0.4-9.3-0.7c-2.1-0.2-2.6,0.6-2.6,2.6
			c0.1,6.7,0.1,13.3,0,20c0,3.1,1.4,7.3-0.6,8.9c-1.9,1.6-6,0.3-9,0.6c-2.2,0.2-2.6-0.7-2.5-2.7c0.1-6.8,0.1-13.5,0-20.3
			c0-2.9,1.3-6.9-0.6-8.5c-1.6-1.5-5.5-0.2-8.4-0.6c-2.9-0.3-3.2,1-3.1,3.4c0.1,22,0,43.9,0.1,65.9c0,3.1-1.4,7.3,0.6,8.9
			C528.7,81.8,532.7,80.6,535.8,80.8z"/>
		<path class="st0" d="M653.9,62.9c0.1-3.3,1.5-7.8-0.5-9.5c-1.9-1.7-6.3-0.4-9.7-0.6c-2-0.1-2.4,0.7-2.4,2.5
			c0.1,3.3,0.1,6.7-0.1,10c-0.2,4-2.5,6.2-6,6.2c-3.5,0-5.8-2.1-6.1-6.1c-0.1-1.2-0.1-2.4-0.1-3.7c0-6.8,0-13.5,0-20.3
			c0-7.4,0-14.9,0-22.3c0-5.6,2-8.2,6.1-8.2c4.2-0.1,6.2,2.5,6.3,8.3c0,1.3,0,2.7,0,4c0,4.3,0,4.4,4.5,4.3c2.6-0.1,6.2,1.2,7.6-0.5
			c1.3-1.6,0.5-5.1,0.5-7.7c-0.2-14.4-11.6-22.5-25.4-18.1c-7.6,2.4-12,8.8-12,18c-0.1,14.1-0.1,28.2,0,42.3c0,2.2,0.2,4.4,0.7,6.6
			c1.5,6.8,5.1,11.7,12.2,13.4C643.3,84.7,653.4,77.1,653.9,62.9z"/>
		<path class="st0" d="M820,72c0.3-2.4-0.9-2.7-2.9-2.6c-4.9,0.1-9.8,0-14.7,0.1c-1.6,0-2.1-0.4-2.1-2c0.1-6.7,0.1-13.3,0-20
			c0-1.6,0.5-2.1,2.1-2c3.2,0.1,6.5,0,9.7,0.1c1.7,0.1,2.5-0.3,2.3-2.2c-0.2-2.3-0.1-4.7,0-7c0.1-1.7-0.4-2.3-2.2-2.3
			c-3.2,0.1-6.5-0.1-9.7,0.1c-1.8,0.1-2.2-0.6-2.2-2.2c0.1-5.3,0.1-10.6,0-16c0-1.8,0.3-2.6,2.3-2.5c2.9,0.2,5.8,0.1,8.7,0
			c2.8-0.1,6.4,1.2,8.1-0.5c1.8-1.8,0.3-5.5,0.6-8.3c0.2-2.1-0.6-2.6-2.6-2.6c-8.6,0.1-17.2,0.2-25.8,0c-2.7-0.1-3.6,0.5-3.5,3.4
			c0.2,12,0.1,24,0.1,35.9c0,12.2,0,24.4,0,36.6c0,2.1,0.5,2.8,2.7,2.8c6.8-0.2,13.6,0,20.4-0.1c2.8,0,6.5,0.9,8.1-0.5
			C821.2,78.7,819.6,74.9,820,72z"/>
		<path class="st0" d="M696,71.8c0.1-2-0.7-2.4-2.5-2.3c-4.7,0.1-9.4-0.1-14.1,0.1c-2.4,0.1-3.3-0.3-3.2-3
			c0.3-5.2,0.1-10.4,0.1-15.6c0-5.4,0-5.3,5.4-5.4c2.8,0,6.5,1,8.1-0.4c1.8-1.6,0.3-5.4,0.6-8.3c0.2-2-0.3-2.8-2.5-2.6
			c-3.1,0.2-6.3,0-9.4,0.1c-1.8,0.1-2.3-0.5-2.2-2.2c0.1-5.4,0.1-10.9,0-16.3c0-1.8,0.6-2.2,2.3-2.2c4.9,0.1,9.8,0,14.7,0.1
			c1.9,0,2.9-0.3,2.7-2.5c-0.2-2.1-0.2-4.2,0-6.3c0.2-2.1-0.5-2.6-2.6-2.6c-8.8,0.1-17.6,0.1-26.5,0c-2.5,0-2.9,0.8-2.9,3
			c0.1,12.1,0.1,24.2,0.1,36.3c0,12,0.1,24-0.1,35.9c0,2.7,0.5,3.6,3.4,3.5c6.6-0.2,13.2,0,19.8-0.1c2.8,0,6.7,1.3,8.3-0.6
			C696.9,78.3,695.8,74.6,696,71.8z"/>
		<path class="st0" d="M767.3,80.8c2.1,0.2,2.6-0.5,2.6-2.5c-0.1-10.3-0.1-20.6-0.1-30.9c0-9.9,0.1-19.7-0.1-29.6
			c-0.1-3.3,0.6-4.7,4.2-4.3c2.7,0.3,6.4,1.3,8-0.4c1.7-1.8,0.3-5.5,0.6-8.3c0.2-2.1-0.5-2.6-2.6-2.6c-8.7,0.1-17.4,0-26.1,0
			c-9.5,0-9.4,0-8.9,9.5c0.1,1.5,0.4,1.9,1.9,1.9c2.4-0.1,4.9,0.2,7.4-0.1c2.7-0.3,3.5,0.5,3.5,3.4c-0.1,18.2-0.1,36.4-0.1,54.5
			c0,3.1-1.4,7.3,0.6,8.9C760.1,81.8,764.2,80.6,767.3,80.8z"/>
		<path class="st0" d="M707.9,2.1c-2.6-0.1-3.1,0.7-3.1,3.1c0.1,22.1,0.1,44.1,0.1,66.2c0,3-1,7,0.5,8.7c1.8,2,5.9,0.3,8.9,0.7
			c2.5,0.3,2.8-0.8,2.8-3c-0.1-9.6-0.1-19.3,0-28.9c0-1.2-1.2-3.4,1.7-3.4c2.1,0,4.2-0.6,4.8,2.8c1.2,7.3,3,14.5,4.6,21.8
			c0.8,3.5,0.2,8.5,2.7,10.2c2.5,1.7,7.1,0.5,10.8,0.5c0.3,0,0.7-0.1,1.4-0.1c-2.7-11.4-5.2-22.6-7.9-33.8c-0.7-2.9-1-5.3,1.9-7.4
			c2.4-1.8,3.4-4.9,4-7.8c1-5.1,1-10.1,0.1-15.2c-1.7-9.4-6.9-13.9-16.5-14.1C719.1,2.1,713.5,2.4,707.9,2.1z M717.1,23.8
			c0-2.8,0-5.5,0-8.3c0-0.7-0.3-1.5,0.8-1.9c4.8-2,10.6,1.3,11.2,6.5c0.2,1.8,0.3,3.5,0.2,5.3c-0.5,7.5-2.6,9.2-10.1,8.8
			c-1.6-0.1-2.1-0.5-2.1-2.1C717.2,29.3,717.1,26.6,717.1,23.8z"/>
		<path class="st0" d="M584.8,64.5c2.4-1.4,6.3-0.3,9.5-0.4c1.6-0.1,2.1,0.4,2.3,2c0.5,4.1,1.3,8.1,1.7,12.2
			c0.2,1.9,0.7,2.8,2.8,2.6c2.3-0.2,4.7-0.3,7,0c3.1,0.3,3.1-0.9,2.6-3.4c-3.8-22.5-7.5-45-11.1-67.5c-1.3-7.8-1.1-7.8-9-7.8
			c-1.8,0-3.6,0.2-5.3,0c-2.2-0.2-3,0.5-3.3,2.7c-2,12.7-4.2,25.3-6.3,38c-2,12-3.9,24-6,36c-0.3,1.5,0.1,2,1.6,1.9
			c0.8-0.1,1.6,0,2.3,0c2.5-0.1,5.8,0.7,7.4-0.5c1.4-1,1-4.5,1.6-6.8C583.3,70.4,582.2,66.1,584.8,64.5z M586.6,44.8
			c1.1-7.4,2-14.9,3-22.3c0.1-0.7-0.2-1.6,1.1-2.3c1.4,11,2.7,21.7,4.1,32.4c-0.1,0.1-0.2,0.1-0.3,0.2
			C585.3,53.6,585.3,53.6,586.6,44.8z"/>
	</g>
	<path class="st0" d="M1146,3c-4.2-1.4-8.5-1.7-12.9-1.5c-15.5,0.6-26.7,10.9-27.6,26.2c-1,16.3-0.9,32.6,0,48.9
		c0.7,12.9,9.5,22.8,21.9,25.9c4,1,8.2,1,12.3,1c4.6,0,4.3,0,4.6-4.5c0.3-3.4-0.9-4.3-4.1-3.9c-1.8,0.2-3.6,0-5.4-0.1
		c-12.2-0.7-20.3-8.4-20.6-20.5c-0.4-14.9-0.8-29.8,0.1-44.6c1.1-19.3,16.3-23,28.2-19.6c4.3,1.2,7.3,4.1,9.2,8.1
		c2.6,5.9,1.6,12.3,2.7,18.4c-1.9-1.7-2.7-3.9-4.9-5.3c-8.4-5.2-20.1-0.7-21.9,9c-1.5,8.4-1.4,17-0.1,25.5c1,6.9,5.6,10.7,12.6,11.3
		c6,0.5,11.1-1.1,13.9-7.8c0.4,1.1,0.6,1.3,0.7,1.6c0.4,5.3,0.4,5.3,5.8,5.1c0.1,0,0.2,0,0.3,0c1.5,0.2,1.9-0.4,1.9-1.9
		c-0.1-16.6,0.1-33.3-0.3-49.9C1162,14.3,1155.4,6.2,1146,3z M1153,64.3c-1.2,4.4-4,6.3-9,6.1c-4.5-0.2-7.3-2.3-7.8-6.7
		c-0.8-6.7-0.9-13.5,0-20.2c0.6-4.4,3.5-6.5,8.2-6.6c5.2-0.1,7.7,1.7,8.8,6.3c0.8,3.4,0.2,6.9,0.5,10.2
		C1153.5,57,1154,60.7,1153,64.3z"/>
	<g>
		<path class="st0" d="M976.3,2.4c-1.9-1.5-5.7-0.4-8.7-0.6c-1.8-0.1-2.2,0.6-2.2,2.3c0.1,15,0.1,29.9,0.1,44.9
			c-0.2,0.2-0.5,0.5-0.7,0.7c-4.5-13.5-8.9-27.1-13.4-40.6c-2.4-7.3-2.4-7.2-10.2-7.3c-2.8-0.1-3.2,0.8-3.2,3.3
			c0.1,22.2,0,44.3,0.1,66.5c0,2.8-1.3,6.6,0.5,8.3c1.8,1.7,5.5,0.3,8.4,0.5c1.8,0.2,2.5-0.4,2.4-2.3c-0.1-14.3-0.2-28.6-0.2-42.9
			c0.2-0.2,0.4-0.4,0.6-0.7c4.3,12.7,8.6,25.3,12.9,38c2.7,7.9,2.7,7.7,10.9,7.9c2.7,0.1,3.2-0.8,3.2-3.3c-0.1-22.2,0-44.4-0.1-66.6
			C976.8,7.8,978.1,3.8,976.3,2.4z"/>
		<path class="st0" d="M911.6,13.1c2.9,0.2,5.8,0.1,8.7,0c2.9-0.1,6.7,1.3,8.3-0.6c1.4-1.8,0.3-5.5,0.5-8.4c0.1-2-0.7-2.4-2.5-2.4
			c-8.9,0.1-17.9,0.1-26.8,0c-2.4,0-2.6,1-2.6,2.9c0.1,12.1,0,24.2,0,36.3c0,12.2,0.1,24.4-0.1,36.6c0,2.3,0.6,3,3,2.9
			c6.7-0.2,13.4,0,20.1-0.1c2.9,0,6.8,1.3,8.3-0.6c1.4-1.8,0.4-5.5,0.6-8.3c0.1-1.9-0.5-2.5-2.4-2.4c-5,0.1-10,0-15.1,0.1
			c-1.8,0-2.2-0.6-2.2-2.2c0.1-5.5,0-11.1,0-16.6c0-5.1,0-5.1,5.3-5.1c9.3,0,9.3,0,8.8-9.3c-0.1-1.6-0.5-2.1-2.1-2
			c-3.2,0.1-6.5,0-9.7,0.1c-1.6,0-2.4-0.2-2.3-2.1c0.1-5.4,0.1-10.9,0-16.3C909.4,13.7,909.7,13,911.6,13.1z"/>
		<path class="st0" d="M1049.4,12.9c3,0.1,6,0.1,9,0c2.8,0,6.5,0.9,8.1-0.5c1.9-1.6,0.3-5.4,0.7-8.3c0.3-2.4-0.9-2.7-2.9-2.6
			c-8.7,0.1-17.4,0.1-26.1,0c-2.4,0-2.9,0.7-2.9,3c0.1,12.1,0.1,24.2,0.1,36.3s0.1,24.2-0.1,36.3c0,2.7,0.8,3.3,3.4,3.2
			c6.6-0.2,13.2,0,19.8-0.1c2.9,0,6.7,1.3,8.3-0.6c1.4-1.8,0.3-5.5,0.5-8.4c0.1-2-0.6-2.4-2.5-2.4c-4.7,0.1-9.4-0.2-14.1,0.1
			c-2.8,0.2-3.3-0.9-3.2-3.3c0.2-5.1,0.1-10.2,0.1-15.3c0-5.4,0-5.4,5.3-5.4c2.8,0,6.6,1,8.1-0.4c1.9-1.8,0.4-5.7,0.7-8.6
			c0.2-2-0.7-2.4-2.5-2.3c-3.2,0.1-6.5,0-9.7,0.1c-1.4,0-2-0.3-1.9-1.8c0.1-5.7,0.1-11.3,0-17C1047.4,13.3,1047.9,12.8,1049.4,12.9z
			"/>
		<path class="st0" d="M1094.4,2.4c-1.8-1.8-5.7-0.2-8.7-0.6c-2.5-0.3-3.1,0.6-3.1,3.1c0.1,19.1,0.1,38.1,0.1,57.2
			c0,4.9-1.8,6.9-6.8,6.9c-1.8,0-2.1,0.6-1.9,2.1c0.1,0.9,0,1.8,0,2.7c0,6.8,0,6.8,7,6.7c6.4-0.1,10.4-3,12.5-9.1
			c0.8-2.3,1.3-4.7,1.3-7.2c0-9.9,0-19.7,0-29.6c0.1,0,0.1,0,0.2,0c0-7.9,0-15.7,0-23.6C1094.9,8,1096.2,4.1,1094.4,2.4z"/>
		<path class="st0" d="M1009.6,2.2c-6.3-0.9-12.7-0.1-19-0.4c-2.4-0.1-2.9,0.6-2.9,2.9c0.1,12.1,0.1,24.2,0.1,36.2
			c0,12.3,0,24.6,0,36.9c0,1.7,0.1,2.6,2.3,2.6c5.9-0.1,11.8,0.1,17.7-0.1c9.9-0.3,16-5.7,16.6-15.5c1-15.7,1-31.5,0-47.2
			C1023.7,8.7,1018.6,3.5,1009.6,2.2z M1012.3,60.8c0,6.9-4.7,10.2-11.5,8.3c-1.7-0.5-1-1.8-1-2.7c-0.1-8.5,0-17.1,0-25.6
			c0-8.3,0.1-16.6-0.1-24.9c0-2.2,0.6-2.8,2.8-2.7c6.6,0.1,9.7,2.9,9.7,9.5C1012.3,35.4,1012.3,48.1,1012.3,60.8z"/>
		<path class="st0" d="M873.4,1.9C867.7,1.7,862,2,856.3,1.8c-2.2-0.1-2.8,0.6-2.8,2.7c0.1,12.2,0.1,24.4,0.1,36.6c0,10,0,20,0,29.9
			c0,3-1,6.9,0.5,8.7c1.8,2,5.9,0.3,8.9,0.7c2.5,0.3,2.9-0.8,2.8-3c-0.1-8.3-0.1-16.6-0.1-25c0-7.3,0-7.3,7.4-7.4
			c8-0.1,13.2-3.7,15.7-11.4c1.9-5.8,2-11.8,1-17.8C888.2,6.6,883,2.2,873.4,1.9z M877.6,28.5c-0.7,4.2-7.5,7.3-11.2,5.2
			c-0.9-0.5-0.6-1.3-0.6-2c0-2.8,0-5.5,0-8.3s0-5.5,0-8.3c0-0.7-0.2-1.5,0.8-1.9c4.8-1.9,10.5,1.3,11.2,6.4
			C878.2,22.6,878.1,25.6,877.6,28.5z"/>
	</g>
</g>
</svg>
