<?xml version="1.0" encoding="utf-8"?>
<!-- Generator: Adobe Illustrator 22.0.1, SVG Export Plug-In . SVG Version: 6.00 Build 0)  -->
<svg version="1.1" id="Capa_1" xmlns="http://www.w3.org/2000/svg" xmlns:xlink="http://www.w3.org/1999/xlink" x="0px" y="0px"
	 viewBox="0 0 512 155.9" style="enable-background:new 0 0 512 155.9;" xml:space="preserve">
<style type="text/css">
	.st0{fill:#1B3537;}
</style>
<g>
	<path class="st0" d="M276.2,62.3c7,0,12.5-4.3,13.9-11.2c1.2-5.6,0.1-10.7-3.2-15.3c-1.8-2.5-4-4.8-6.2-7c-2.7-2.7-5.5-5.5-7.6-8.8
		c-1.4-2.2-2.3-4.5-1.9-7.2c0.4-2.4,2.1-4,4.4-4.2c2.5-0.2,3.9,1.1,4.7,3.3c0.5,1.4-0.2,3.5,1.2,4c1.3,0.5,3.1-0.3,4.7-0.5
		c0.8-0.1,1.7-0.2,2.5-0.3c1-0.1,1.2-0.5,1.2-1.5c-0.5-7.1-5.7-12.9-12.1-13.6c-7.2-0.7-13.7,3.9-15.4,11c-1.2,5.3-0.2,10.2,3,14.6
		c2.4,3.4,5.3,6.4,8.2,9.3c2.3,2.3,4.4,4.6,6.1,7.4c1,1.6,1.8,3.2,1.9,5.2c0.1,3.1-1.5,5.4-4.3,6c-2.9,0.6-5.3-0.8-6.5-3.9
		c-0.7-1.6,0.1-4.2-1.4-4.8c-1.5-0.6-3.6,0.4-5.4,0.6c-0.4,0.1-0.8,0.1-1.3,0.2c-1.1,0.1-1.6,0.5-1.5,1.8
		C262,55.8,266.8,62.3,276.2,62.3z"/>
	<path class="st0" d="M101.7,51.6c1.3-5.5,0.4-10.7-2.8-15.4c-1.8-2.7-4-5-6.3-7.2c-2.8-2.8-5.6-5.6-7.8-9c-1.4-2.2-2.3-4.5-1.9-7.1
		c0.4-2.4,2-4,4.3-4.2c2.4-0.2,4,1.1,4.8,3.6c0.4,1.3-0.2,3.3,1.1,3.8c1.2,0.5,2.8-0.2,4.2-0.4c1-0.1,2-0.3,3-0.4
		c0.9-0.1,1.2-0.5,1.2-1.5C101.1,6.2,95.4,0.2,88.5,0c-7.7-0.2-13.9,5.3-14.7,13c-0.6,5.6,1.2,10.5,4.8,14.7
		c3.3,3.8,6.8,7.5,10.2,11.2c1.8,2,3.4,4.2,4.1,6.9c1.1,3.5-0.5,6.6-3.5,7.6c-3.2,1-5.8-0.5-7.1-3.9c-0.6-1.6,0.1-4-1.3-4.6
		c-1.4-0.6-3.4,0.4-5.2,0.6c-0.6,0.1-1.2,0.2-1.8,0.2c-1.1,0.1-1.3,0.7-1.2,1.7c0.7,8.1,5.5,14.8,15,14.8
		C94.7,62.3,100.2,58.1,101.7,51.6z"/>
	<path class="st0" d="M183,61.4c5.1-0.1,10.3,0,15.4-0.1c2.1,0,4.8,0.9,6.1-0.4c1.3-1.3,0.2-4,0.4-6.1c0.2-1.9-0.6-2.2-2.3-2.2
		c-3.5,0.1-7.1,0-10.6,0.1c-1.5,0-2.1-0.3-2-1.9c0.1-3.6,0-7.3,0-10.9c0-5.5,0-5.5,5.5-5.5c5.2,0,5.2,0,5.2-5.3c0-3.4,0-3.3-3.3-3.4
		c-2.4-0.1-5.7,1.1-7-0.5c-1.2-1.3-0.3-4.5-0.3-6.9c0-2.7-1-6.4,0.4-7.8c1.6-1.7,5.3-0.3,8-0.5c2.1-0.1,4.9,1,6-0.5
		c1-1.3,0.2-4,0.4-6.1c0.1-1.7-0.4-2.1-2.1-2.1c-6.6,0.1-13.2,0.1-19.7,0c-2,0-2.3,0.6-2.3,2.4c0.1,9.2,0,18.4,0,27.6
		c0,9.2,0,18.4,0,27.6C180.8,60.8,181.1,61.4,183,61.4z"/>
	<path class="st0" d="M34.7,51.5c-0.2,2.7,0,5.4-0.1,8.1c0,1.3,0.3,1.8,1.6,1.7c1.8-0.1,3.7-0.1,5.6,0c1.7,0.1,2.1-0.4,2.1-2.1
		c-0.1-6.7,0-13.5-0.1-20.3c0-1.8,0.3-3.5,0.8-5.2c3.3-10.7,6.6-21.4,9.9-32.3c-2.7,0-5.2,0.1-7.7,0c-1.4-0.1-1.8,0.5-2.1,1.8
		c-1.4,6.2-2.9,12.5-4.5,18.7c-0.3,1.1-0.1,2.5-1.2,3.4c-0.1-0.4-0.2-0.6-0.3-0.8c-1.3-5-2.5-10-3.8-14.9c-0.7-2.7-0.3-6.5-2.6-7.8
		c-2.2-1.2-5.6-0.2-8.7-0.2C26,9.3,28,16.8,30.6,24C33.7,33,35.4,42,34.7,51.5z"/>
	<path class="st0" d="M206.5,56.4c0,5,0,5,5,4.9c5.4-0.1,8.7-2.6,10-7.8c0.4-1.5,0.7-3,0.7-4.5c0.1-7.4,0-14.8,0-22.3
		c0.1,0,0.1,0,0.2,0c0-7.8,0-15.5,0-23.3c0-1.5-0.3-2.1-1.9-2c-1.8,0.2-3.5,0.1-5.3,0c-1.6-0.1-2.2,0.3-2.1,2c0.2,3.3,0,6.6,0,9.9
		c0,11.4,0,22.8,0,34.2c0,3.3-1.5,5.2-4.3,5c-2.3-0.1-2.4,0.9-2.3,2.6C206.5,55.6,206.5,56,206.5,56.4z"/>
	<path class="st0" d="M108.3,59.6c0,1.3,0.3,1.8,1.7,1.7c1.9-0.1,3.9-0.1,5.8,0c1.7,0.1,2.1-0.5,2.1-2.1c-0.1-9.3,0-18.5,0-27.8
		c0-7.5,0-15,0-22.5c0-2.4,1.1-5.8-0.4-7c-1.6-1.2-4.8-0.3-7.3-0.5c-1.3-0.1-1.7,0.4-1.7,1.7C108.4,22,108.4,40.8,108.3,59.6z"/>
	<path class="st0" d="M13.2,62.3c5.4-0.5,8.5-3.9,10.5-8.6c0.9-2.1,0.9-3.3-1.6-3.9c-1.5-0.3-2.9-1.6-4.2-1.4
		c-1.5,0.2-1.5,2.3-2.5,3.5c-1.3,1.7-2.8,3.1-5.1,2c-2.3-1.1-2.3-3.3-1.6-5.3c0.8-2.2,1.9-4.3,3-6.4c3.2-5.8,4.7-12,4.9-18.6
		c0.1-3.8,0.1-3.8-3.6-3.8c-0.7,0-1.4,0.1-2,0c-1.3-0.2-1.5,0.4-1.5,1.6C9.8,27.2,8.1,32.6,5,37.6c-1.8,2.9-3.5,6-4.4,9.3
		C-1.9,56.2,3.7,63.1,13.2,62.3z"/>
	<path class="st0" d="M12.4,12.2c5,0,5,0,5-4.9c0-4.7,0-4.7-4.2-4.7c-4.8,0-4.8,0-4.8,5.3C8.5,12.2,8.5,12.2,12.4,12.2z"/>
	<path class="st0" d="M144.3,31.4c0,9.3,0,18.5,0,27.8c0,1.6,0.3,2.2,2,2.2c4.3-0.1,8.6,0,12.9-0.1c7.5-0.2,12.2-4.2,12.7-11.6
		c0.9-12,0.8-24.1,0-36.1c-0.4-6.8-4.3-10.8-11.2-11.7c-4.6-0.5-9.3-0.1-13.9-0.3c-2-0.1-2.7,0.4-2.7,2.6
		C144.4,13.2,144.3,22.3,144.3,31.4z M153.5,31.1c0-6.3,0.1-12.6,0-19c0-1.7,0.5-2.1,2.1-2.1c5,0.1,7.3,2.2,7.3,7.2
		c0,9.7,0.1,19.4,0,29.1c0,5.3-3.7,7.8-8.7,6.3c-1.1-0.3-0.7-1.2-0.7-1.8C153.5,44.3,153.5,37.7,153.5,31.1z"/>
	<path class="st0" d="M233.5,61.3c0.3,0,0.5,0,0.8,0c1.1,0.2,1.6-0.2,1.7-1.4c0.3-2.7,1.1-5.3,1.2-8c0.1-2.8,1.2-3.6,3.8-3.3
		c1.9,0.3,4.4-0.6,5.6,0.4c1.1,0.9,0.9,3.6,1.2,5.4c0.4,2.2-0.2,5.3,1.3,6.5c1.5,1.1,4.4,0.2,6.6,0.4c2.3,0.2,2.5-0.6,2.1-2.7
		c-2.9-17-5.7-34-8.4-51.1c-1-6.1-0.9-6.1-6.9-6.1c-1.2,0-2.4,0.1-3.5,0c-2-0.3-2.7,0.4-3,2.4c-2.7,17-5.5,33.9-8.3,50.8
		c-0.3,2.1-1.8,5-0.6,6.2C228.3,62.1,231.3,61.3,233.5,61.3z M239.8,33.7c0.8-5.7,1.5-11.3,2.2-17c0.1-0.5-0.1-1,0.8-1.6
		c1,8.3,2.1,16.5,3.1,24.6c-0.2,0.1-0.3,0.2-0.4,0.2C238.8,40.3,238.8,40.4,239.8,33.7z"/>
	<g>
		<path class="st0" d="M7.7,139.8c1.4,0.1,1.8-0.4,1.8-1.8c-0.1-6.1-0.1-12.2,0-18.2c0-2.2-0.9-5,0.4-6.3c1.4-1.4,4.3-0.2,6.5-0.5
			c2-0.3,2.3,0.6,2.3,2.4c-0.1,7.5,0,15-0.1,22.5c0,1.6,0.4,2.1,2,2c1.8-0.1,3.6-0.1,5.3,0c1.7,0.1,2.1-0.4,2.1-2.1
			c-0.1-9.3,0-18.6,0-27.8c0-7.6,0-15.2,0-22.8c0-2.3,0.8-5.4-0.4-6.6c-1.5-1.6-4.6-0.3-7-0.5c-1.6-0.2-2,0.4-2,2
			c0.1,5.1,0.1,10.1,0,15.2c0,2.3,1,5.5-0.4,6.7c-1.4,1.2-4.5,0.3-6.8,0.5c-1.7,0.1-1.9-0.5-1.9-2c0.1-5.1,0.1-10.3,0-15.4
			c0-2.2,1-5.2-0.4-6.5c-1.2-1.1-4.2-0.2-6.3-0.4c-2.2-0.3-2.4,0.8-2.4,2.6c0.1,16.7,0,33.4,0.1,50.1c0,2.3-1.1,5.5,0.5,6.7
			C2.3,140.5,5.4,139.6,7.7,139.8z"/>
		<path class="st0" d="M96.9,126.1c0.1-2.5,1.1-5.9-0.4-7.2c-1.5-1.3-4.8-0.3-7.3-0.5c-1.5-0.1-1.8,0.5-1.8,1.9
			c0.1,2.5,0.1,5.1-0.1,7.6c-0.2,3-1.9,4.7-4.5,4.7c-2.7,0-4.4-1.6-4.6-4.6c-0.1-0.9-0.1-1.9-0.1-2.8c0-5.1,0-10.3,0-15.4
			c0-5.7,0-11.3,0-17c0-4.3,1.5-6.2,4.6-6.3c3.2,0,4.7,1.9,4.8,6.3c0,1,0,2,0,3c0,3.3,0,3.3,3.4,3.3c2,0,4.7,0.9,5.8-0.4
			c1-1.2,0.4-3.8,0.3-5.9C96.8,82,88.2,75.9,77.7,79.2c-5.7,1.8-9,6.7-9.1,13.7c-0.1,10.7,0,21.4,0,32.1c0,1.7,0.2,3.4,0.5,5
			c1.1,5.1,3.8,8.9,9.2,10.2C88.9,142.7,96.6,136.9,96.9,126.1z"/>
		<path class="st0" d="M222.4,133.1c0.2-1.8-0.7-2-2.2-2c-3.7,0.1-7.4,0-11.1,0.1c-1.2,0-1.6-0.3-1.6-1.5c0.1-5.1,0.1-10.1,0-15.2
			c0-1.2,0.4-1.6,1.6-1.5c2.4,0.1,4.9,0,7.3,0.1c1.3,0,1.9-0.2,1.8-1.7c-0.1-1.8-0.1-3.5,0-5.3c0.1-1.3-0.3-1.8-1.7-1.7
			c-2.4,0.1-4.9-0.1-7.3,0.1c-1.4,0.1-1.7-0.4-1.7-1.7c0.1-4,0.1-8.1,0-12.1c0-1.3,0.2-2,1.8-1.9c2.2,0.1,4.4,0.1,6.6,0
			c2.1-0.1,4.9,0.9,6.1-0.4c1.3-1.4,0.2-4.2,0.4-6.3c0.2-1.6-0.5-2-2-1.9c-6.5,0.1-13,0.1-19.5,0c-2,0-2.7,0.4-2.7,2.6
			c0.1,9.1,0.1,18.2,0.1,27.3c0,9.3,0,18.6,0,27.8c0,1.6,0.4,2.2,2.1,2.1c5.1-0.1,10.3,0,15.4-0.1c2.1,0,4.9,0.7,6.1-0.4
			C223.3,138.1,222.2,135.2,222.4,133.1z"/>
		<path class="st0" d="M128.8,132.9c0.1-1.5-0.5-1.8-1.9-1.8c-3.5,0.1-7.1-0.1-10.6,0.1c-1.8,0.1-2.5-0.3-2.4-2.3
			c0.2-4,0.1-7.9,0.1-11.9c0-4.1,0-4.1,4.1-4.1c2.1,0,4.9,0.7,6.1-0.3c1.4-1.3,0.3-4.1,0.5-6.3c0.1-1.5-0.3-2.1-1.9-2
			c-2.4,0.2-4.7,0-7.1,0.1c-1.3,0.1-1.7-0.3-1.7-1.7c0.1-4.1,0.1-8.3,0-12.4c0-1.4,0.4-1.7,1.7-1.7c3.7,0.1,7.4,0,11.1,0.1
			c1.5,0,2.2-0.2,2-1.9c-0.2-1.6-0.1-3.2,0-4.8c0.1-1.6-0.4-2-1.9-2c-6.7,0.1-13.3,0.1-20,0c-1.9,0-2.2,0.6-2.2,2.3
			c0.1,9.2,0,18.4,0,27.6c0,9.1,0.1,18.2,0,27.3c0,2,0.4,2.8,2.6,2.7c5-0.2,10,0,14.9-0.1c2.2,0,5.1,1,6.2-0.5
			C129.4,137.8,128.6,135,128.8,132.9z"/>
		<path class="st0" d="M182.6,139.8c1.6,0.1,2-0.4,1.9-1.9c-0.1-7.8,0-15.7,0-23.5c0-7.5,0.1-15-0.1-22.5c-0.1-2.5,0.5-3.6,3.2-3.3
			c2,0.2,4.9,1,6.1-0.3c1.3-1.4,0.2-4.2,0.4-6.3c0.2-1.6-0.4-2-1.9-1.9c-6.6,0.1-13.1,0-19.7,0c-7.1,0-7.1,0-6.7,7.2
			c0.1,1.1,0.3,1.5,1.4,1.4c1.9-0.1,3.7,0.1,5.6-0.1c2.1-0.2,2.7,0.4,2.7,2.6c-0.1,13.8-0.1,27.6,0,41.5c0,2.3-1,5.5,0.4,6.7
			C177.2,140.5,180.3,139.6,182.6,139.8z"/>
		<path class="st0" d="M137.7,79.9c-2-0.1-2.3,0.5-2.3,2.4c0.1,16.8,0,33.6,0.1,50.4c0,2.3-0.8,5.3,0.4,6.6c1.3,1.5,4.4,0.2,6.8,0.5
			c1.9,0.2,2.1-0.6,2.1-2.3c-0.1-7.3-0.1-14.7,0-22c0-0.9-0.9-2.6,1.3-2.6c1.6,0,3.2-0.5,3.6,2.1c0.9,5.6,2.3,11,3.4,16.6
			c0.6,2.7,0.2,6.4,2.1,7.8c1.9,1.3,5.4,0.4,8.1,0.4c0.2,0,0.5,0,1.1-0.1c-2-8.7-3.9-17.2-6-25.7c-0.5-2.2-0.8-4,1.4-5.7
			c1.8-1.4,2.6-3.7,3-6c0.7-3.8,0.8-7.7,0.1-11.6c-1.3-7.1-5.2-10.5-12.5-10.7C146.2,79.9,142,80.1,137.7,79.9z M144.7,96.4
			c0-2.1,0-4.2,0-6.3c0-0.5-0.2-1.1,0.6-1.5c3.6-1.5,8,1,8.5,5c0.2,1.3,0.2,2.7,0.1,4c-0.4,5.7-1.9,7-7.7,6.7
			c-1.2-0.1-1.6-0.4-1.6-1.6C144.7,100.6,144.7,98.5,144.7,96.4z"/>
		<path class="st0" d="M44.7,127.4c1.8-1.1,4.7-0.2,7.2-0.3c1.2-0.1,1.6,0.3,1.7,1.5c0.4,3.1,1,6.2,1.3,9.2c0.2,1.4,0.6,2.1,2.1,2
			c1.8-0.1,3.6-0.2,5.3,0c2.3,0.3,2.3-0.7,2-2.6c-2.9-17.1-5.7-34.2-8.4-51.3C55,80,55.1,80,49.1,80c-1.3,0-2.7,0.1-4,0
			c-1.7-0.2-2.2,0.4-2.5,2.1c-1.5,9.6-3.2,19.3-4.8,28.9c-1.5,9.1-3,18.3-4.5,27.4c-0.2,1.2,0.1,1.5,1.2,1.4c0.6-0.1,1.2,0,1.8,0
			c1.9-0.1,4.4,0.6,5.6-0.4c1.1-0.8,0.8-3.4,1.2-5.2C43.6,131.8,42.8,128.5,44.7,127.4z M46.1,112.3c0.8-5.6,1.5-11.3,2.2-17
			c0.1-0.5-0.1-1.2,0.8-1.8c1,8.3,2.1,16.5,3.1,24.6c-0.1,0.1-0.2,0.1-0.3,0.1C45.1,119.1,45.1,119.1,46.1,112.3z"/>
	</g>
	<g>
		<path class="st0" d="M344.5,81.4c-1.4-1.1-4.3-0.3-6.6-0.5c-1.4-0.1-1.7,0.4-1.7,1.7c0.1,11.4,0.1,22.8,0.1,34.2
			c-0.2,0.2-0.3,0.4-0.5,0.6c-3.4-10.3-6.7-20.6-10.1-30.9c-1.8-5.6-1.8-5.4-7.7-5.6c-2.1,0-2.4,0.6-2.4,2.5
			c0.1,16.9,0,33.7,0.1,50.6c0,2.2-1,5,0.4,6.3c1.3,1.3,4.2,0.2,6.3,0.4c1.4,0.1,1.9-0.3,1.8-1.8c-0.1-10.9-0.1-21.7-0.2-32.6
			c0.2-0.2,0.3-0.3,0.5-0.5c3.3,9.6,6.5,19.3,9.8,28.9c2,6,2,5.9,8.3,6c2,0,2.4-0.6,2.4-2.5c-0.1-16.9,0-33.7-0.1-50.6
			C344.8,85.5,345.8,82.4,344.5,81.4z"/>
		<path class="st0" d="M295.6,89.5c2.2,0.1,4.4,0.1,6.6,0c2.2-0.1,5.1,1,6.2-0.5c1.1-1.4,0.2-4.2,0.4-6.4c0.1-1.5-0.5-1.8-1.9-1.8
			c-6.7,0.1-13.5,0.1-20.2,0c-1.8,0-2,0.7-2,2.2c0.1,9.2,0,18.4,0,27.6c0,9.3,0,18.6,0,27.8c0,1.8,0.5,2.3,2.2,2.2
			c5.1-0.1,10.1,0,15.2-0.1c2.2,0,5.1,1,6.3-0.4c1.1-1.3,0.3-4.2,0.4-6.3c0.1-1.4-0.4-1.9-1.8-1.8c-3.8,0.1-7.6,0-11.4,0.1
			c-1.4,0-1.7-0.4-1.7-1.7c0.1-4.2,0-8.4,0-12.7c0-3.9,0-3.9,4-3.9c7,0,7,0,6.7-7.1c-0.1-1.2-0.4-1.6-1.6-1.6c-2.4,0.1-4.9,0-7.3,0
			c-1.2,0-1.8-0.2-1.8-1.6c0.1-4.1,0.1-8.3,0-12.4C293.9,90,294.2,89.5,295.6,89.5z"/>
		<path class="st0" d="M401.2,89.5c2.3,0.1,4.6,0,6.8,0c2.1,0,4.9,0.7,6.1-0.4c1.4-1.2,0.2-4.1,0.5-6.3c0.2-1.8-0.7-2-2.2-2
			c-6.6,0.1-13.2,0.1-19.7,0c-1.8,0-2.2,0.5-2.2,2.2c0.1,9.2,0,18.4,0,27.6c0,9.2,0.1,18.4-0.1,27.6c0,2.1,0.6,2.5,2.5,2.4
			c5-0.1,10,0,14.9-0.1c2.2,0,5.1,1,6.3-0.5c1.1-1.4,0.2-4.2,0.4-6.4c0.1-1.5-0.5-1.8-1.9-1.8c-3.5,0.1-7.1-0.1-10.6,0.1
			c-2.1,0.1-2.5-0.7-2.4-2.5c0.1-3.9,0-7.8,0-11.6c0-4.1,0-4.1,4-4.1c2.1,0,5,0.7,6.1-0.3c1.4-1.4,0.3-4.3,0.5-6.6
			c0.2-1.5-0.5-1.8-1.9-1.8c-2.4,0.1-4.9,0-7.3,0c-1,0-1.5-0.2-1.5-1.4c0.1-4.3,0.1-8.6,0-12.9C399.7,89.9,400.1,89.5,401.2,89.5z"
			/>
		<path class="st0" d="M432.2,81.3c-1.4-1.3-4.3-0.2-6.6-0.4c-1.9-0.2-2.4,0.4-2.3,2.3c0.1,14.5,0.1,29,0,43.5
			c0,3.8-1.4,5.2-5.1,5.3c-1.4,0-1.6,0.5-1.5,1.6c0.1,0.7,0,1.3,0,2c0,5.2,0,5.2,5.3,5.1c4.9-0.1,7.9-2.3,9.4-6.9
			c0.6-1.8,1-3.6,1-5.4c0-7.5,0-15,0-22.5c0,0,0.1,0,0.1,0c0-6,0-12,0-18C432.6,85.6,433.6,82.7,432.2,81.3z"/>
		<path class="st0" d="M504.9,80.2c-6.5-2.3-12.6,0.1-15.8,6.2c-2.3,4.4-2.3,4.3,2.2,6.3c2.3,1,4,1.6,4.7-1.5
			c0.2-0.6,0.7-1.2,1.1-1.7c1.1-1.4,2.4-2.4,4.3-1.6c2,0.8,2.3,2.5,2.1,4.4c-0.3,2.3-1.4,4.3-2.5,6.3c-3.2,6.2-5.4,12.7-5.4,19
			c-0.4,6-0.4,6,4.7,6c0.3,0,0.5,0,0.8,0c1.4,0.2,1.7-0.4,1.6-1.7c-0.5-6.7,1.5-12.6,5-18.2c1.9-3.1,3.4-6.4,4.1-10
			C512.9,87.5,510.1,82.1,504.9,80.2z"/>
		<path class="st0" d="M499.5,131.1c-4.8,0-4.8,0-4.8,5.3c0,4.3,0,4.3,4.1,4.3c4.7,0,4.7,0,4.7-4.7
			C503.4,131.1,503.4,131.1,499.5,131.1z"/>
		<path class="st0" d="M471.2,79.5c-3.2-1.1-6.4-1.3-9.7-1.1c-11.7,0.5-20.2,8.3-20.9,19.9c-0.8,12.4-0.7,24.8,0,37.2
			c0.5,9.8,7.2,17.3,16.5,19.7c3.1,0.8,6.2,0.8,9.3,0.8c3.4,0,3.2,0,3.5-3.4c0.2-2.6-0.7-3.2-3.1-2.9c-1.3,0.2-2.7,0-4-0.1
			c-9.2-0.6-15.4-6.4-15.6-15.6c-0.3-11.3-0.6-22.6,0.1-33.9c0.8-14.7,12.3-17.5,21.3-14.9c3.3,0.9,5.5,3.1,6.9,6.2
			c2,4.5,1.2,9.3,2,14c-1.4-1.3-2.1-3-3.7-4c-6.4-4-15.2-0.5-16.5,6.9c-1.2,6.4-1,13-0.1,19.4c0.8,5.2,4.3,8.1,9.5,8.6
			c4.5,0.4,8.4-0.8,10.5-5.9c0.3,0.8,0.5,1,0.5,1.2c0.3,4,0.3,4,4.4,3.8c0.1,0,0.2,0,0.3,0c1.1,0.2,1.4-0.3,1.4-1.4
			c-0.1-12.7,0.1-25.3-0.2-38C483.3,88,478.3,81.9,471.2,79.5z M476.5,126c-0.9,3.3-3,4.8-6.8,4.6c-3.4-0.1-5.5-1.8-5.9-5.1
			c-0.6-5.1-0.6-10.3,0-15.4c0.4-3.4,2.6-5,6.2-5c3.9-0.1,5.8,1.3,6.7,4.8c0.6,2.6,0.2,5.2,0.3,7.7
			C476.9,120.5,477.3,123.3,476.5,126z"/>
		<path class="st0" d="M371.1,81.2c-4.8-0.7-9.6-0.1-14.4-0.3c-1.8-0.1-2.2,0.5-2.2,2.2c0.1,9.2,0,18.4,0,27.6c0,9.4,0,18.7,0,28.1
			c0,1.3,0.1,2,1.7,2c4.5-0.1,8.9,0.1,13.4-0.1c7.5-0.2,12.1-4.3,12.6-11.8c0.8-11.9,0.8-23.9,0-35.9
			C381.8,86.1,377.9,82.2,371.1,81.2z M373.1,125.8c0,5.3-3.6,7.8-8.7,6.3c-1.3-0.4-0.7-1.4-0.7-2.1c0-6.5,0-13,0-19.5
			c0-6.3,0.1-12.6,0-19c0-1.7,0.5-2.1,2.1-2.1c5,0.1,7.3,2.2,7.4,7.2C373.2,106.4,373.2,116.1,373.1,125.8z"/>
		<path class="st0" d="M265.1,81c-4.3-0.1-8.6,0-12.9-0.1c-1.7,0-2.1,0.4-2.1,2.1c0.1,9.3,0,18.6,0,27.8c0,7.6,0,15.2,0,22.8
			c0,2.3-0.8,5.3,0.4,6.6c1.3,1.5,4.4,0.2,6.7,0.5c1.9,0.2,2.2-0.6,2.1-2.3c-0.1-6.3,0-12.7,0-19c0-5.6,0-5.6,5.6-5.6
			c6.1-0.1,10-2.8,11.9-8.7c1.4-4.4,1.5-9,0.7-13.5C276.3,84.6,272.4,81.2,265.1,81z M268.3,101.2c-0.6,3.2-5.7,5.5-8.5,3.9
			c-0.7-0.4-0.4-1-0.4-1.6c0-2.1,0-4.2,0-6.3c0-2.1,0-4.2,0-6.3c0-0.5-0.2-1.1,0.6-1.4c3.6-1.5,7.9,1,8.5,4.9
			C268.8,96.8,268.7,99,268.3,101.2z"/>
	</g>
	<path class="st0" d="M374.5,55.3c0-1.3-0.4-1.7-1.7-1.7c-3.8,0.1-7.6,0-11.4,0.1c-1.5,0-1.8-0.5-1.8-1.9c0.1-4.1,0-8.3,0-12.4
		c0-4,0-4,3.9-4c7.1,0,7,0,6.8-7c0-1.4-0.5-1.7-1.8-1.7c-2.4,0.1-4.9,0-7.3,0c-1.1,0-1.6-0.2-1.6-1.5c0.1-4.2,0.1-8.4,0-12.7
		c0-1.2,0.3-1.6,1.6-1.6c2.3,0.1,4.6,0.1,6.8,0c2.1-0.1,4.8,0.9,6.1-0.4c1.3-1.3,0.2-4,0.4-6.1c0.2-1.9-0.6-2.2-2.3-2.1
		c-3.2,0.1-6.4,0-9.6,0c-3.5,0-6.9,0.1-10.4,0c-1.5,0-1.8,0.4-1.8,1.8c0,18.7,0,37.5,0,56.2c0,1.5,0.5,1.8,1.9,1.8
		c5.2-0.1,10.5,0,15.7,0C374.8,62.3,374.7,62.3,374.5,55.3z"/>
	<path class="st0" d="M342.2,49.6c0.5-6.6,0.2-13.1,0.2-19.7c0-5,0.2-9.9-0.3-14.9c-0.8-7.7-5.4-12.1-13-12.4
		c-4.1-0.1-8.3,0.1-12.4-0.1c-1.8-0.1-2.4,0.4-2.4,2.3c0.1,9.2,0.1,18.4,0.1,27.6c0,9.3,0,18.5,0,27.8c0,1.6,0.3,2.2,2,2.1
		c4.1-0.1,8.3,0,12.4-0.1C337.1,62.1,341.5,57.9,342.2,49.6z M333,47c0,5.7-3.1,7.9-8.6,6.6c-1.4-0.3-0.8-1.3-0.8-2
		c0-6.4,0-12.8,0-19.2s0-12.8,0-19.2c0-1.5,0.2-2.2,2-2.2c5.1,0.1,7.4,2.2,7.5,7.4C333.1,28,333.1,37.5,333,47z"/>
</g>
</svg>
