<?xml version="1.0" encoding="utf-8"?>
<!-- Generator: Adobe Illustrator 22.0.1, SVG Export Plug-In . SVG Version: 6.00 Build 0)  -->
<svg version="1.1" id="Capa_1" xmlns="http://www.w3.org/2000/svg" xmlns:xlink="http://www.w3.org/1999/xlink" x="0px" y="0px"
	 viewBox="0 0 512 44.2" style="enable-background:new 0 0 512 44.2;" xml:space="preserve">
<style type="text/css">
	.st0{fill:#DBE2E9;}
</style>
<g>
	<path class="st0" d="M19.6,29.6c-0.1,1.5,0,3,0,4.5c0,0.7,0.1,1,0.9,1c1-0.1,2.1-0.1,3.1,0c0.9,0.1,1.2-0.2,1.2-1.2
		c-0.1-3.8,0-7.6,0-11.4c0-1,0.2-2,0.5-2.9c1.9-6,3.7-12,5.6-18.1c-1.5,0-2.9,0-4.4,0c-0.8,0-1,0.3-1.2,1c-0.8,3.5-1.6,7-2.5,10.5
		c-0.2,0.6-0.1,1.4-0.7,1.9c-0.1-0.2-0.1-0.3-0.2-0.5c-0.7-2.8-1.4-5.6-2.2-8.4c-0.4-1.5-0.2-3.7-1.4-4.4C17,1,15.1,1.6,13.4,1.6
		c1.3,4.3,2.4,8.5,3.9,12.6C19,19.2,20,24.2,19.6,29.6z"/>
	<path class="st0" d="M57.4,29.1c0.7-3.1,0.2-6-1.6-8.7c-1-1.5-2.3-2.8-3.6-4.1c-1.6-1.6-3.2-3.1-4.4-5c-0.8-1.2-1.3-2.5-1.1-4
		C47,6,47.9,5.1,49.2,5c1.4-0.1,2.3,0.6,2.7,2c0.2,0.7-0.1,1.8,0.6,2.1C53.3,9.4,54.2,9,55,8.9c0.6-0.1,1.1-0.2,1.7-0.2
		c0.5-0.1,0.7-0.3,0.7-0.8c-0.3-4.2-3.5-7.6-7.4-7.7c-4.3-0.1-7.8,3-8.3,7.3c-0.4,3.2,0.7,5.9,2.7,8.2c1.9,2.1,3.9,4.2,5.8,6.3
		c1,1.1,1.9,2.4,2.3,3.9c0.6,2-0.3,3.7-2,4.3c-1.8,0.6-3.3-0.3-4-2.2c-0.3-0.9,0.1-2.2-0.8-2.6c-0.8-0.3-1.9,0.2-2.9,0.4
		c-0.3,0.1-0.7,0.1-1,0.1c-0.6,0-0.8,0.4-0.7,1c0.4,4.6,3.1,8.3,8.5,8.3C53.4,35.1,56.6,32.7,57.4,29.1z"/>
	<path class="st0" d="M61.2,33.6c0,0.7,0.2,1,0.9,1c1.1-0.1,2.2-0.1,3.3,0c1,0.1,1.2-0.3,1.2-1.2c0-5.2,0-10.4,0-15.6
		c0-4.2,0-8.4,0-12.6c0-1.4,0.6-3.3-0.2-3.9C65.4,0.5,63.5,1,62.1,1c-0.7,0-1,0.2-1,1C61.2,12.5,61.2,23,61.2,33.6z"/>
	<path class="st0" d="M7.4,35c3.1-0.3,4.8-2.2,6-4.8c0.5-1.2,0.5-1.9-0.9-2.2c-0.8-0.2-1.6-0.9-2.4-0.8c-0.8,0.1-0.9,1.3-1.4,2
		c-0.8,0.9-1.6,1.8-2.9,1.1c-1.3-0.6-1.3-1.8-0.9-3c0.4-1.2,1.1-2.4,1.7-3.6c1.8-3.3,2.7-6.7,2.8-10.4c0-2.1,0-2.1-2.1-2.1
		c-0.4,0-0.8,0-1.1,0c-0.7-0.1-0.9,0.2-0.8,0.9c0.2,3.3-0.8,6.3-2.5,9.1c-1,1.6-2,3.3-2.5,5.2C-1.1,31.6,2.1,35.5,7.4,35z"/>
	<path class="st0" d="M7,6.9c2.8,0,2.8,0,2.8-2.8c0-2.6,0-2.6-2.4-2.6c-2.7,0-2.7,0-2.7,3C4.8,6.9,4.8,6.9,7,6.9z"/>
	<path class="st0" d="M508,1.1c-3.7-1.3-7.1,0-8.9,3.5c-1.3,2.5-1.3,2.4,1.2,3.5c1.3,0.6,2.2,0.9,2.7-0.9c0.1-0.3,0.4-0.7,0.6-1
		c0.6-0.8,1.4-1.4,2.5-0.9c1.1,0.5,1.3,1.4,1.2,2.5c-0.2,1.3-0.8,2.4-1.4,3.5c-1.8,3.5-3,7.1-3.1,10.6c-0.2,3.4-0.2,3.4,2.6,3.4
		c0.1,0,0.3,0,0.4,0c0.8,0.1,1-0.2,0.9-1c-0.3-3.7,0.8-7.1,2.8-10.2c1.1-1.7,1.9-3.6,2.3-5.6C512.5,5.3,510.9,2.2,508,1.1z"/>
	<path class="st0" d="M504.9,29.7c-2.7,0-2.7,0-2.7,3c0,2.4,0,2.4,2.3,2.4c2.6,0,2.6,0,2.6-2.6C507.2,29.7,507.2,29.7,504.9,29.7z"
		/>
	<path class="st0" d="M210.6,31.1c0-0.8-0.2-1-1-0.9c-2.1,0-4.3,0-6.4,0c-0.8,0-1-0.3-1-1c0.1-2.3,0-4.6,0-7c0-2.2,0-2.2,2.2-2.2
		c4,0,4,0,3.8-3.9c0-0.8-0.3-1-1-0.9c-1.4,0-2.8,0-4.1,0c-0.6,0-0.9-0.1-0.9-0.8c0-2.4,0-4.7,0-7.1c0-0.7,0.2-0.9,0.9-0.9
		c1.3,0.1,2.6,0,3.9,0c1.2,0,2.7,0.5,3.4-0.2c0.7-0.7,0.1-2.3,0.2-3.4c0.1-1.1-0.3-1.2-1.3-1.2c-1.8,0.1-3.6,0-5.4,0
		c-2,0-3.9,0-5.9,0c-0.8,0-1,0.2-1,1c0,10.5,0,21,0,31.5c0,0.8,0.3,1,1.1,1c3,0,5.9,0,8.9,0C210.8,35,210.8,35,210.6,31.1z"/>
	<path class="st0" d="M192.4,27.9c0.3-3.7,0.1-7.4,0.1-11.1c0-2.8,0.1-5.6-0.1-8.4c-0.4-4.3-3-6.8-7.4-6.9c-2.3-0.1-4.7,0-7-0.1
		c-1,0-1.4,0.2-1.4,1.3c0.1,5.2,0,10.3,0,15.5c0,5.2,0,10.4,0,15.6c0,0.9,0.2,1.2,1.2,1.2c2.3-0.1,4.7,0,7,0
		C189.5,34.9,192,32.6,192.4,27.9z M187.2,26.5c0,3.2-1.7,4.5-4.8,3.7c-0.8-0.2-0.5-0.7-0.5-1.1c0-3.6,0-7.2,0-10.8s0-7.2,0-10.8
		c0-0.8,0.1-1.2,1.1-1.2c2.9,0.1,4.2,1.2,4.2,4.1C187.2,15.8,187.2,21.1,187.2,26.5z"/>
	<path class="st0" d="M155.9,35.1c4,0,7-2.4,7.9-6.3c0.7-3.1,0-6-1.8-8.6c-1-1.4-2.3-2.7-3.5-3.9c-1.5-1.5-3.1-3.1-4.3-4.9
		c-0.8-1.2-1.3-2.5-1.1-4c0.2-1.3,1.2-2.3,2.5-2.3c1.4-0.1,2.2,0.6,2.7,1.9c0.3,0.8-0.1,2,0.7,2.2c0.8,0.3,1.8-0.2,2.7-0.3
		c0.5-0.1,0.9-0.1,1.4-0.2c0.5,0,0.7-0.3,0.7-0.8c-0.3-4-3.2-7.3-6.8-7.6c-4.1-0.4-7.8,2.2-8.7,6.2c-0.7,3-0.1,5.7,1.7,8.2
		c1.4,1.9,3,3.6,4.6,5.2c1.3,1.3,2.5,2.6,3.5,4.1c0.5,0.9,1,1.8,1,2.9c0,1.7-0.9,3-2.4,3.4c-1.7,0.4-3-0.5-3.7-2.2
		c-0.4-0.9,0-2.3-0.8-2.7c-0.8-0.3-2,0.2-3.1,0.4c-0.2,0-0.5,0.1-0.7,0.1c-0.6,0.1-0.9,0.3-0.8,1C147.9,31.4,150.6,35.1,155.9,35.1z
		"/>
	<path class="st0" d="M103.3,34.5c2.9-0.1,5.8,0,8.7,0c1.2,0,2.7,0.5,3.4-0.2c0.7-0.7,0.1-2.3,0.2-3.4c0.1-1.1-0.3-1.2-1.3-1.2
		c-2,0.1-4,0-6,0c-0.8,0-1.2-0.2-1.1-1.1c0.1-2,0-4.1,0-6.1c0-3.1,0-3.1,3.1-3.1c2.9,0,2.9,0,2.9-3c0-1.9,0-1.8-1.9-1.9
		c-1.4,0-3.2,0.6-4-0.3c-0.7-0.7-0.2-2.5-0.2-3.9c0-1.5-0.5-3.6,0.2-4.4c0.9-0.9,3-0.2,4.5-0.3c1.2-0.1,2.8,0.5,3.4-0.3
		c0.6-0.7,0.1-2.3,0.2-3.4c0.1-0.9-0.2-1.2-1.2-1.2c-3.7,0.1-7.4,0.1-11.1,0c-1.1,0-1.3,0.4-1.3,1.4c0,5.2,0,10.3,0,15.5
		c0,5.2,0,10.3,0,15.5C102.1,34.2,102.3,34.6,103.3,34.5z"/>
	<path class="st0" d="M116.6,31.8c0,2.8,0,2.8,2.8,2.7c3.1-0.1,4.9-1.4,5.7-4.4c0.2-0.8,0.4-1.7,0.4-2.5c0-4.2,0-8.3,0-12.5
		c0,0,0.1,0,0.1,0c0-4.4,0-8.7,0-13.1c0-0.9-0.2-1.2-1.1-1.1c-1,0.1-2,0.1-3,0c-0.9-0.1-1.2,0.2-1.2,1.1c0.1,1.8,0,3.7,0,5.5
		c0,6.4,0,12.8,0,19.2c0,1.8-0.8,2.9-2.4,2.8c-1.3-0.1-1.4,0.5-1.3,1.5C116.6,31.3,116.6,31.5,116.6,31.8z"/>
	<path class="st0" d="M81.5,17.7c0,5.2,0,10.4,0,15.6c0,0.9,0.1,1.2,1.1,1.2c2.4-0.1,4.9,0,7.3-0.1c4.3-0.1,6.9-2.3,7.2-6.5
		c0.5-6.7,0.4-13.5,0-20.3c-0.2-3.8-2.4-6.1-6.3-6.5C88.2,0.8,85.6,1.1,83,1c-1.2-0.1-1.5,0.2-1.5,1.4C81.5,7.5,81.5,12.6,81.5,17.7
		z M86.6,17.6c0-3.5,0-7.1,0-10.6c0-1,0.3-1.2,1.2-1.2C90.7,5.9,92,7.1,92,9.9c0,5.4,0,10.9,0,16.3c0,3-2.1,4.4-4.9,3.5
		c-0.6-0.2-0.4-0.7-0.4-1C86.6,25,86.6,21.3,86.6,17.6z"/>
	<path class="st0" d="M131.8,34.5c0.1,0,0.3,0,0.4,0c0.6,0.1,0.9-0.1,1-0.8c0.2-1.5,0.6-3,0.7-4.5c0.1-1.6,0.7-2,2.2-1.8
		c1.1,0.1,2.5-0.3,3.2,0.2c0.6,0.5,0.5,2,0.7,3.1c0.2,1.2-0.1,3,0.7,3.6c0.8,0.6,2.5,0.1,3.7,0.2c1.3,0.1,1.4-0.3,1.2-1.5
		c-1.6-9.5-3.2-19.1-4.7-28.7C140.3,1,140.4,1,137,1c-0.7,0-1.3,0.1-2,0c-1.1-0.2-1.5,0.2-1.7,1.4c-1.5,9.5-3.1,19-4.7,28.5
		c-0.2,1.2-1,2.8-0.3,3.5C128.9,34.9,130.6,34.5,131.8,34.5z M135.4,19c0.5-3.2,0.8-6.4,1.2-9.5c0-0.3,0-0.6,0.4-0.9
		c0.6,4.7,1.2,9.2,1.7,13.8c-0.1,0.1-0.2,0.1-0.3,0.1C134.8,22.8,134.8,22.8,135.4,19z"/>
	<path class="st0" d="M228.6,34.5c0.8,0.1,1-0.2,1-1c0-3.4,0-6.8,0-10.2c0-1.2-0.5-2.8,0.2-3.6c0.8-0.8,2.4-0.1,3.7-0.3
		c1.2-0.2,1.3,0.4,1.3,1.3c-0.1,4.2,0,8.4,0,12.6c0,0.9,0.2,1.2,1.1,1.1c1-0.1,2-0.1,3,0c0.9,0.1,1.2-0.2,1.2-1.2
		c0-5.2,0-10.4,0-15.6c0-4.3,0-8.5,0-12.8c0-1.3,0.4-3-0.2-3.7c-0.8-0.9-2.6-0.2-4-0.3c-0.9-0.1-1.1,0.2-1.1,1.1
		c0.1,2.8,0,5.7,0,8.5c0,1.3,0.6,3.1-0.2,3.8c-0.8,0.7-2.5,0.1-3.9,0.3c-0.9,0.1-1.1-0.3-1.1-1.1c0-2.9,0-5.8,0-8.7
		c0-1.3,0.6-2.9-0.3-3.6c-0.7-0.6-2.4-0.1-3.6-0.2c-1.2-0.1-1.3,0.4-1.3,1.4c0,9.4,0,18.7,0,28.1c0,1.3-0.6,3.1,0.3,3.8
		C225.6,34.9,227.3,34.4,228.6,34.5z"/>
	<path class="st0" d="M279,26.8c0-1.4,0.6-3.3-0.2-4.1c-0.8-0.7-2.7-0.2-4.1-0.3c-0.9-0.1-1,0.3-1,1.1c0,1.4,0,2.8,0,4.3
		c-0.1,1.7-1.1,2.6-2.6,2.7c-1.5,0-2.5-0.9-2.6-2.6c0-0.5,0-1,0-1.6c0-2.9,0-5.8,0-8.7c0-3.2,0-6.3,0-9.5c0-2.4,0.8-3.5,2.6-3.5
		c1.8,0,2.6,1.1,2.7,3.6c0,0.6,0,1.1,0,1.7c0,1.8,0,1.9,1.9,1.8c1.1,0,2.7,0.5,3.3-0.2c0.6-0.7,0.2-2.2,0.2-3.3
		c-0.1-6.1-4.9-9.6-10.8-7.7c-3.2,1-5.1,3.8-5.1,7.7c0,6,0,12,0,18c0,0.9,0.1,1.9,0.3,2.8c0.6,2.9,2.2,5,5.2,5.7
		C274.5,36.1,278.8,32.9,279,26.8z"/>
	<path class="st0" d="M349.9,30.7c0.1-1-0.4-1.1-1.2-1.1c-2.1,0-4.2,0-6.3,0c-0.7,0-0.9-0.2-0.9-0.9c0-2.8,0-5.7,0-8.5
		c0-0.7,0.2-0.9,0.9-0.9c1.4,0,2.8,0,4.1,0c0.7,0,1-0.1,1-0.9c-0.1-1-0.1-2,0-3c0-0.7-0.2-1-1-1c-1.4,0.1-2.8,0-4.1,0
		c-0.8,0-0.9-0.2-0.9-1c0-2.3,0-4.5,0-6.8c0-0.8,0.1-1.1,1-1.1c1.2,0.1,2.5,0,3.7,0c1.2,0,2.7,0.5,3.4-0.2c0.8-0.8,0.1-2.3,0.3-3.6
		c0.1-0.9-0.3-1.1-1.1-1.1c-3.7,0-7.3,0.1-11,0c-1.2,0-1.5,0.2-1.5,1.4c0.1,5.1,0,10.2,0,15.3c0,5.2,0,10.4,0,15.6
		c0,0.9,0.2,1.2,1.2,1.2c2.9-0.1,5.8,0,8.7,0c1.2,0,2.8,0.4,3.4-0.2C350.4,33.6,349.7,31.9,349.9,30.7z"/>
	<path class="st0" d="M297,30.6c0.1-0.9-0.3-1-1.1-1c-2,0-4,0-6,0c-1,0-1.4-0.1-1.4-1.3c0.1-2.2,0-4.4,0-6.7c0-2.3,0-2.3,2.3-2.3
		c1.2,0,2.8,0.4,3.5-0.2c0.8-0.7,0.1-2.3,0.3-3.5c0.1-0.8-0.1-1.2-1.1-1.1c-1.3,0.1-2.7,0-4,0c-0.7,0-1-0.2-1-0.9c0-2.3,0-4.6,0-7
		c0-0.8,0.3-0.9,1-0.9c2.1,0,4.2,0,6.3,0c0.8,0,1.2-0.1,1.1-1.1c-0.1-0.9-0.1-1.8,0-2.7c0.1-0.9-0.2-1.1-1.1-1.1
		c-3.8,0-7.5,0.1-11.3,0c-1,0-1.2,0.3-1.2,1.3c0,5.2,0,10.3,0,15.5c0,5.1,0,10.2,0,15.3c0,1.1,0.2,1.5,1.4,1.5c2.8-0.1,5.6,0,8.4,0
		c1.2,0,2.9,0.6,3.5-0.3C297.4,33.4,296.9,31.8,297,30.6z"/>
	<path class="st0" d="M327.4,34.5c0.9,0.1,1.1-0.2,1.1-1.1c0-4.4,0-8.8,0-13.2c0-4.2,0.1-8.4,0-12.6c0-1.4,0.3-2,1.8-1.8
		c1.2,0.1,2.7,0.5,3.4-0.2c0.7-0.8,0.1-2.3,0.2-3.6c0.1-0.9-0.2-1.1-1.1-1.1c-3.7,0-7.4,0-11.1,0c-4,0-4,0-3.8,4.1
		c0,0.6,0.2,0.8,0.8,0.8c1,0,2.1,0.1,3.1,0c1.2-0.1,1.5,0.2,1.5,1.4c-0.1,7.8,0,15.5,0,23.3c0,1.3-0.6,3.1,0.2,3.8
		C324.3,34.9,326.1,34.4,327.4,34.5z"/>
	<path class="st0" d="M302,0.9c-1.1,0-1.3,0.3-1.3,1.3c0,9.4,0,18.8,0,28.2c0,1.3-0.4,3,0.2,3.7c0.8,0.9,2.5,0.1,3.8,0.3
		c1.1,0.1,1.2-0.4,1.2-1.3c0-4.1,0-8.2,0-12.3c0-0.5-0.5-1.5,0.7-1.4c0.9,0,1.8-0.3,2,1.2c0.5,3.1,1.3,6.2,1.9,9.3
		c0.3,1.5,0.1,3.6,1.2,4.4c1.1,0.7,3,0.2,4.6,0.2c0.1,0,0.3,0,0.6-0.1c-1.1-4.9-2.2-9.7-3.4-14.4c-0.3-1.3-0.4-2.2,0.8-3.2
		c1-0.8,1.5-2.1,1.7-3.3c0.4-2.2,0.4-4.3,0-6.5c-0.7-4-2.9-5.9-7-6C306.8,0.9,304.4,1,302,0.9z M306,10.2c0-1.2,0-2.4,0-3.5
		c0-0.3-0.1-0.6,0.3-0.8c2-0.8,4.5,0.6,4.8,2.8c0.1,0.7,0.1,1.5,0.1,2.3c-0.2,3.2-1.1,3.9-4.3,3.8c-0.7,0-0.9-0.2-0.9-0.9
		C306,12.5,306,11.3,306,10.2z"/>
	<path class="st0" d="M249.5,27.5c1-0.6,2.7-0.1,4.1-0.2c0.7,0,0.9,0.2,1,0.8c0.2,1.7,0.5,3.5,0.7,5.2c0.1,0.8,0.3,1.2,1.2,1.1
		c1-0.1,2-0.1,3,0c1.3,0.1,1.3-0.4,1.1-1.4c-1.6-9.6-3.2-19.2-4.8-28.8c-0.5-3.3-0.5-3.3-3.9-3.3c-0.8,0-1.5,0.1-2.3,0
		c-0.9-0.1-1.3,0.2-1.4,1.2c-0.8,5.4-1.8,10.8-2.7,16.2c-0.9,5.1-1.7,10.3-2.6,15.4c-0.1,0.6,0,0.9,0.7,0.8c0.3,0,0.7,0,1,0
		c1.1,0,2.5,0.3,3.2-0.2c0.6-0.4,0.4-1.9,0.7-2.9C248.9,30,248.4,28.2,249.5,27.5z M250.3,19.1c0.5-3.2,0.8-6.4,1.3-9.5
		c0-0.3-0.1-0.7,0.5-1c0.6,4.7,1.2,9.3,1.7,13.8c-0.1,0-0.1,0.1-0.1,0.1C249.7,22.9,249.7,22.9,250.3,19.1z"/>
	<path class="st0" d="M489,1.3c-1.8-0.6-3.6-0.7-5.5-0.6c-6.6,0.3-11.4,4.6-11.8,11.2c-0.4,6.9-0.4,13.9,0,20.9
		c0.3,5.5,4,9.7,9.3,11c1.7,0.4,3.5,0.4,5.3,0.4c1.9,0,1.8,0,2-1.9c0.1-1.4-0.4-1.8-1.7-1.7c-0.7,0.1-1.5,0-2.3,0
		c-5.2-0.3-8.7-3.6-8.8-8.8c-0.2-6.3-0.3-12.7,0-19c0.5-8.2,7-9.8,12-8.4c1.8,0.5,3.1,1.7,3.9,3.5c1.1,2.5,0.7,5.2,1.1,7.9
		c-0.8-0.7-1.2-1.7-2.1-2.2c-3.6-2.2-8.6-0.3-9.3,3.9c-0.7,3.6-0.6,7.3,0,10.9c0.4,2.9,2.4,4.6,5.4,4.8c2.6,0.2,4.7-0.5,5.9-3.3
		c0.2,0.5,0.3,0.6,0.3,0.7c0.2,2.2,0.2,2.2,2.5,2.2c0,0,0.1,0,0.1,0c0.6,0.1,0.8-0.2,0.8-0.8c0-7.1,0-14.2-0.1-21.3
		C495.8,6.1,493,2.6,489,1.3z M492,27.4c-0.5,1.9-1.7,2.7-3.8,2.6c-1.9-0.1-3.1-1-3.3-2.8c-0.4-2.9-0.4-5.8,0-8.6
		c0.2-1.9,1.5-2.8,3.5-2.8c2.2,0,3.3,0.7,3.8,2.7c0.4,1.4,0.1,2.9,0.2,4.3C492.2,24.3,492.4,25.9,492,27.4z"/>
	<path class="st0" d="M417.4,1c-0.8-0.6-2.4-0.2-3.7-0.3c-0.8-0.1-0.9,0.2-0.9,1c0,6.4,0,12.8,0,19.2c-0.1,0.1-0.2,0.2-0.3,0.3
		c-1.9-5.8-3.8-11.6-5.7-17.3c-1-3.1-1-3.1-4.4-3.1c-1.2,0-1.4,0.4-1.4,1.4c0,9.5,0,18.9,0,28.4c0,1.2-0.5,2.8,0.2,3.5
		c0.8,0.7,2.4,0.1,3.6,0.2c0.8,0.1,1.1-0.2,1-1c-0.1-6.1-0.1-12.2-0.1-18.3c0.1-0.1,0.2-0.2,0.3-0.3c1.8,5.4,3.7,10.8,5.5,16.2
		c1.1,3.4,1.1,3.3,4.7,3.4c1.2,0,1.4-0.3,1.4-1.4c0-9.5,0-18.9,0-28.4C417.6,3.3,418.2,1.6,417.4,1z"/>
	<path class="st0" d="M389.8,5.6c1.2,0.1,2.5,0.1,3.7,0c1.2,0,2.9,0.6,3.5-0.3c0.6-0.8,0.1-2.4,0.2-3.6c0.1-0.8-0.3-1-1.1-1
		c-3.8,0-7.6,0.1-11.4,0c-1,0-1.1,0.4-1.1,1.2c0,5.2,0,10.3,0,15.5c0,5.2,0,10.4,0,15.6c0,1,0.3,1.3,1.3,1.2c2.9-0.1,5.7,0,8.6,0
		c1.2,0,2.9,0.5,3.5-0.2c0.6-0.7,0.2-2.3,0.2-3.6c0.1-0.8-0.2-1.1-1-1c-2.1,0.1-4.3,0-6.4,0c-0.8,0-1-0.2-0.9-1c0-2.4,0-4.7,0-7.1
		c0-2.2,0-2.2,2.3-2.2c4,0,4,0,3.8-4c0-0.7-0.2-0.9-0.9-0.9c-1.4,0-2.8,0-4.1,0c-0.7,0-1-0.1-1-0.9c0.1-2.3,0-4.6,0-7
		C388.9,5.9,389,5.6,389.8,5.6z"/>
	<path class="st0" d="M449.4,5.6c1.3,0,2.6,0,3.9,0c1.2,0,2.8,0.4,3.4-0.2c0.8-0.7,0.1-2.3,0.3-3.5c0.1-1-0.4-1.1-1.2-1.1
		c-3.7,0-7.4,0.1-11.1,0c-1,0-1.3,0.3-1.2,1.3c0.1,5.2,0,10.3,0,15.5c0,5.2,0,10.3,0,15.5c0,1.2,0.4,1.4,1.4,1.4
		c2.8-0.1,5.6,0,8.4,0c1.2,0,2.9,0.6,3.5-0.3c0.6-0.8,0.1-2.3,0.2-3.6c0.1-0.8-0.3-1-1.1-1c-2,0.1-4-0.1-6,0
		c-1.2,0.1-1.4-0.4-1.4-1.4c0.1-2.2,0-4.4,0-6.5c0-2.3,0-2.3,2.3-2.3c1.2,0,2.8,0.4,3.4-0.2c0.8-0.8,0.2-2.4,0.3-3.7
		c0.1-0.9-0.3-1-1.1-1c-1.4,0.1-2.8,0-4.1,0c-0.6,0-0.8-0.1-0.8-0.8c0-2.4,0-4.8,0-7.2C448.6,5.8,448.8,5.6,449.4,5.6z"/>
	<path class="st0" d="M467,1c-0.8-0.8-2.4-0.1-3.7-0.2c-1.1-0.1-1.3,0.2-1.3,1.3c0,8.1,0,16.3,0,24.4c0,2.1-0.8,2.9-2.9,3
		c-0.8,0-0.9,0.3-0.8,0.9c0,0.4,0,0.8,0,1.1c0,2.9,0,2.9,3,2.9c2.8,0,4.4-1.3,5.3-3.9c0.3-1,0.6-2,0.6-3.1c0-4.2,0-8.4,0-12.6
		c0,0,0.1,0,0.1,0c0-3.4,0-6.7,0-10.1C467.2,3.4,467.7,1.8,467,1z"/>
	<path class="st0" d="M432.5,0.9c-2.7-0.4-5.4,0-8.1-0.2c-1,0-1.3,0.3-1.2,1.3c0.1,5.2,0,10.3,0,15.5c0,5.2,0,10.5,0,15.7
		c0,0.7,0.1,1.1,1,1.1c2.5-0.1,5,0,7.6,0c4.2-0.1,6.8-2.4,7.1-6.6c0.4-6.7,0.4-13.4,0-20.1C438.5,3.7,436.3,1.5,432.5,0.9z
		 M433.6,26c0,3-2,4.4-4.9,3.5c-0.7-0.2-0.4-0.8-0.4-1.2c0-3.6,0-7.3,0-10.9c0-3.5,0-7.1,0-10.6c0-0.9,0.3-1.2,1.2-1.2
		c2.8,0.1,4.1,1.2,4.2,4C433.6,15.1,433.6,20.5,433.6,26z"/>
	<path class="st0" d="M372.6,0.8c-2.4-0.1-4.9,0-7.3,0c-0.9,0-1.2,0.2-1.2,1.2c0,5.2,0,10.4,0,15.6c0,4.3,0,8.5,0,12.8
		c0,1.3-0.4,3,0.2,3.7c0.8,0.9,2.5,0.1,3.8,0.3c1.1,0.1,1.2-0.3,1.2-1.3c-0.1-3.5,0-7.1,0-10.6c0-3.1,0-3.1,3.2-3.1
		c3.4,0,5.6-1.6,6.7-4.9c0.8-2.5,0.9-5,0.4-7.6C378.9,2.8,376.8,0.9,372.6,0.8z M374.4,12.2c-0.3,1.8-3.2,3.1-4.8,2.2
		c-0.4-0.2-0.2-0.6-0.3-0.9c0-1.2,0-2.4,0-3.5s0-2.4,0-3.5c0-0.3-0.1-0.6,0.3-0.8c2.1-0.8,4.5,0.6,4.8,2.7
		C374.7,9.7,374.6,10.9,374.4,12.2z"/>
</g>
</svg>
