<?xml version="1.0" encoding="utf-8"?>
<!-- Generator: Adobe Illustrator 22.0.1, SVG Export Plug-In . SVG Version: 6.00 Build 0)  -->
<svg version="1.1" id="Capa_1" xmlns="http://www.w3.org/2000/svg" xmlns:xlink="http://www.w3.org/1999/xlink" x="0px" y="0px"
	 viewBox="0 0 1200 933.3" style="enable-background:new 0 0 1200 933.3;" xml:space="preserve">
<style type="text/css">
	.st0{fill:#57D9BA;}
</style>
<g>
	<g>
		<path class="st0" d="M1105.9,244.3c27.5,0,48.7-16.8,54.4-43.7c4.6-21.8,0.3-41.9-12.6-60c-7.1-9.9-15.6-18.7-24.2-27.4
			c-10.7-10.7-21.5-21.4-29.6-34.4c-5.3-8.6-9.1-17.5-7.4-28c1.5-9.4,8.1-15.8,17-16.3c9.7-0.6,15.3,4.3,18.5,13.1
			c1.9,5.3-0.6,13.7,4.8,15.6c5.2,1.8,12.2-1.2,18.4-2.1c3.3-0.5,6.5-1,9.8-1.2c3.7-0.3,4.8-1.9,4.5-5.8
			c-1.9-27.7-22.1-50.6-47.3-53.1c-28.2-2.8-53.7,15.1-60.2,43.1c-4.8,20.6-0.8,39.9,11.6,57.2c9.4,13.2,20.6,24.8,32,36.3
			c8.8,8.9,17.4,18.1,23.9,28.8c3.8,6.2,7,12.6,7.2,20.2c0.3,12.2-6,21.1-16.7,23.5c-11.5,2.5-20.6-3.3-25.4-15.1
			c-2.6-6.3,0.3-16.4-5.6-18.7c-5.8-2.3-14,1.4-21.2,2.5c-1.6,0.2-3.3,0.5-4.9,0.6c-4.2,0.4-6.2,2-5.8,6.9
			C1050.2,218.7,1069,244.3,1105.9,244.3z"/>
		<path class="st0" d="M423.5,202.6c4.9-21.6,1.5-41.9-11.1-60.3c-7.1-10.4-15.8-19.4-24.6-28.3c-10.9-11-22.1-21.8-30.3-35.1
			c-5.3-8.6-9.2-17.5-7.5-27.9c1.5-9.4,8-15.8,16.9-16.4c9.4-0.7,15.7,4.2,18.9,13.9c1.7,5.1-0.8,12.8,4.4,14.8
			c4.5,1.8,10.9-1,16.4-1.7c3.9-0.5,7.8-1.2,11.7-1.6c3.6-0.4,4.9-1.8,4.6-5.7C421.1,25,398.8,1.7,371.8,0.9
			c-30.1-0.8-54.3,20.8-57.7,50.9c-2.4,22.1,4.6,41,18.8,57.3c13,14.9,26.7,29.1,39.9,43.9c7.1,7.9,13.1,16.6,16.2,26.9
			c4.1,13.6-1.8,26-13.8,29.8c-12.4,4-22.6-2-27.6-15.3c-2.3-6.1,0.4-15.6-5.3-17.9c-5.6-2.2-13.4,1.4-20.2,2.5
			c-2.3,0.3-4.6,0.8-6.9,0.9c-4.3,0.3-5.2,2.6-4.8,6.6c2.9,31.9,21.5,57.9,58.7,57.9C396.1,244.3,417.7,227.8,423.5,202.6z"/>
		<path class="st0" d="M731.3,240.5c20.1-0.5,40.2,0,60.3-0.3c8.1-0.1,18.7,3.6,23.8-1.5c5-5.1,0.6-15.7,1.6-23.8
			c0.9-7.4-2.3-8.7-8.9-8.4c-13.8,0.5-27.7-0.1-41.5,0.3c-5.9,0.2-8-1.1-7.8-7.4c0.5-14.2,0.2-28.4,0.2-42.5
			c0-21.4,0-21.4,21.4-21.4c20.2,0,20.2,0,20.2-20.6c0-13.1,0-12.9-12.8-13.2c-9.5-0.2-22.1,4.2-27.5-1.8
			c-4.6-5.2-1.3-17.6-1.2-26.8c0-10.5-3.8-24.9,1.6-30.6c6.1-6.6,20.5-1.3,31.3-2c8.1-0.6,19.2,3.7,23.5-1.8
			c4.1-5.1,0.9-15.7,1.6-23.9c0.6-6.5-1.6-8.3-8.1-8.2c-25.7,0.4-51.5,0.5-77.2-0.1c-7.9-0.2-9,2.5-9,9.5
			c0.3,35.9,0.2,71.9,0.2,107.8s0.2,71.9-0.2,107.8C722.7,238.3,724.1,240.7,731.3,240.5z"/>
		<path class="st0" d="M161.7,202.1c-0.8,10.5,0.1,21.1-0.2,31.7c-0.2,5,1,7.1,6.4,6.7c7.2-0.5,14.5-0.6,21.8,0
			c6.5,0.5,8.2-1.6,8.2-8.1c-0.4-26.4,0-52.8-0.2-79.2c-0.1-7,1.1-13.6,3.1-20.3c12.9-41.7,25.7-83.5,38.8-126.2
			c-10.6,0-20.4,0.3-30.2-0.1c-5.5-0.3-7.1,1.9-8.2,6.9c-5.5,24.4-11.3,48.7-17.4,73c-1.1,4.4-0.5,9.7-4.9,13.4
			c-0.5-1.5-0.9-2.4-1.2-3.3c-5-19.4-9.6-39-15-58.3c-2.9-10.5-1-25.5-10-30.4c-8.6-4.7-21.8-0.9-34-0.8
			c9.1,29.8,16.9,59.1,26.9,87.6C157.9,129.6,164.6,165,161.7,202.1z"/>
		<path class="st0" d="M837.4,221.2c0,19.4,0,19.4,19.5,19.1c21.3-0.4,33.8-10,39.2-30.6c1.5-5.7,2.6-11.7,2.6-17.5
			c0.3-29,0.1-58,0.1-87c0.2,0,0.4,0,0.6,0c0-30.3-0.2-60.7,0.1-91c0.1-5.9-1.2-8.2-7.5-7.7c-6.9,0.6-13.9,0.5-20.8,0
			c-6.2-0.5-8.6,1.1-8.3,7.9c0.6,12.8,0.2,25.7,0.2,38.6c0,44.5,0.1,89-0.1,133.5c0,12.8-5.8,20.2-17,19.6
			c-9.1-0.5-9.5,3.5-8.8,10.1C837.6,217.9,837.4,219.6,837.4,221.2z"/>
		<path class="st0" d="M449.6,233.6c0,5,1.1,7.1,6.5,6.8c7.6-0.4,15.2-0.6,22.7,0c6.6,0.5,8.1-1.8,8.1-8.2
			c-0.3-36.2-0.1-72.5-0.1-108.7c0-29.3,0.2-58.6-0.1-88c-0.1-9.4,4.3-22.7-1.7-27.3c-6.3-4.8-18.9-1.2-28.7-1.8
			c-5.2-0.3-6.7,1.4-6.7,6.6C449.8,86.7,449.8,160.2,449.6,233.6z"/>
		<path class="st0" d="M77.6,244.1c21.1-1.9,33.1-15.3,41.2-33.7c3.5-8,3.7-13-6.3-15.2c-5.7-1.2-11.3-6.2-16.5-5.6
			c-5.7,0.7-6,9.1-9.6,13.6c-5.3,6.5-10.9,12.3-20,7.7c-8.8-4.5-9-12.8-6.2-20.6c3.1-8.6,7.3-16.9,11.7-24.9
			c12.4-22.7,18.4-47,19-72.8c0.2-14.7,0.2-14.7-14.2-14.7c-2.6,0-5.3,0.3-7.9-0.1c-5-0.7-6.1,1.4-5.8,6.1
			c1.3,23.1-5.2,44.1-17.3,63.7C38.6,159,32.2,170.9,28.5,184C18.4,220.3,40.4,247.4,77.6,244.1z"/>
		<path class="st0" d="M74.7,48.3c19.5,0,19.5,0,19.5-19.2c-0.1-18.5-0.1-18.5-16.3-18.5c-18.8,0-18.8,0-18.8,20.7
			C59.1,48.3,59.1,48.3,74.7,48.3z"/>
		<path class="st0" d="M590.3,123.3c0,36.3,0.1,72.5-0.1,108.8c0,6.1,1,8.7,7.9,8.5c16.8-0.6,33.6,0.1,50.4-0.4
			c29.5-0.8,47.7-16.3,49.8-45.5c3.3-47,3.1-94.2,0.1-141.3c-1.7-26.6-17-42.4-43.6-45.6c-17.9-2.1-36.2-0.5-54.3-1.3
			c-8-0.4-10.6,1.4-10.4,10C590.6,52.1,590.3,87.7,590.3,123.3z M626.1,122.4c0-24.7,0.2-49.4-0.2-74.1c-0.1-6.7,2.1-8.2,8.4-8.1
			c19.6,0.4,28.6,8.7,28.7,28.3c0.2,37.9,0.2,75.8,0,113.6c-0.1,20.6-14.3,30.5-33.9,24.5c-4.5-1.4-2.9-4.6-2.9-7.2
			C626,173.8,626.1,148.1,626.1,122.4z"/>
		<path class="st0" d="M941,240.4c1,0,2-0.1,3,0c4.4,0.6,6.2-0.8,6.8-5.6c1.2-10.4,4.3-20.8,4.7-31.2c0.4-10.9,4.6-14.2,15-12.8
			c7.4,1,17.4-2.3,21.9,1.5c4.4,3.7,3.5,13.9,4.8,21.3c1.5,8.7-0.8,20.8,5.2,25.2c5.8,4.3,17.1,0.8,25.8,1.7c9,0.9,9.7-2.4,8.4-10.4
			c-11.2-66.5-22.1-133.1-32.8-199.7c-3.8-23.7-3.4-23.7-27.1-23.7c-4.6,0-9.3,0.5-13.8-0.1c-7.7-1.1-10.5,1.6-11.7,9.5
			c-10.5,66.3-21.7,132.5-32.4,198.7c-1.3,8.3-7,19.6-2.4,24.1C920.7,243.2,932.4,240.2,941,240.4z M965.4,132.5
			c3.1-22.1,5.8-44.3,8.6-66.4c0.2-1.8-0.3-4,3.1-6.2c4.1,32.6,8.1,64.4,12,96.2c-0.7,0.4-1.2,0.9-1.8,0.9
			C961.5,158.4,961.7,158.4,965.4,132.5z"/>
	</g>
	<g>
		<path class="st0" d="M359.8,554.8c5.7,0.4,7.2-1.5,7.1-7.1c-0.3-23.7-0.2-47.5-0.1-71.3c0.1-8.5-3.7-19.7,1.4-24.8
			c5.5-5.6,16.9-0.8,25.6-2c8-1.1,9,2.5,8.9,9.4c-0.4,29.4,0,58.7-0.3,88.1c-0.1,6.1,1.5,8.2,7.7,7.7c6.9-0.5,13.9-0.6,20.8,0
			c6.5,0.5,8.3-1.6,8.2-8.1c-0.3-36.3-0.2-72.6-0.2-108.9c0-29.7,0-59.4,0-89.1c0-8.8,3-21-1.5-25.7c-5.8-6.1-18-1.1-27.4-2.1
			c-6.2-0.7-7.7,1.7-7.6,7.7c0.4,19.8,0.3,39.6,0.1,59.4c-0.1,9.1,4,21.6-1.7,26.4c-5.5,4.6-17.6,1-26.7,1.8
			c-6.5,0.5-7.6-2.1-7.5-7.9c0.3-20.1,0.3-40.2,0-60.4c-0.1-8.8,3.9-20.4-1.7-25.4c-4.8-4.3-16.4-0.7-24.8-1.6
			c-8.6-1-9.3,3-9.3,10.1c0.2,65.3,0,130.6,0.2,196c0,9.1-4.2,21.6,1.9,26.4C338.6,557.8,350.6,554.3,359.8,554.8z"/>
		<path class="st0" d="M708.4,501.6c0.3-9.8,4.4-23.2-1.6-28.3c-5.7-5-18.8-1.2-28.5-1.8c-5.9-0.4-7.2,2-7,7.3
			c0.3,9.9,0.3,19.8-0.3,29.7c-0.7,11.9-7.3,18.4-17.7,18.5c-10.5,0.1-17-6.3-18.1-18c-0.3-3.6-0.3-7.2-0.3-10.9
			c0-20.1,0-40.2,0-60.3c0-22.1-0.1-44.2,0-66.3c0.1-16.7,5.9-24.3,17.9-24.5c12.5-0.2,18.2,7.5,18.6,24.8c0.1,4,0,7.9,0,11.9
			c0,12.8,0,13,13.2,12.7c7.8-0.2,18.4,3.5,22.6-1.6c3.9-4.8,1.5-15,1.4-22.9c-0.6-42.8-34.2-66.8-75-53.8
			c-22.3,7.1-35.4,26.2-35.6,53.5c-0.3,41.9-0.2,83.8,0,125.6c0,6.6,0.7,13.2,2.1,19.6c4.4,20.1,14.9,34.9,36.2,39.9
			C677.4,566.4,707.1,543.8,708.4,501.6z"/>
		<path class="st0" d="M1199.3,528.7c0.9-7.2-2.5-8-8.5-7.8c-14.5,0.3-29-0.1-43.5,0.2c-4.7,0.1-6.2-1.1-6.2-6
			c0.3-19.8,0.3-39.6,0-59.4c-0.1-4.9,1.5-6.2,6.2-6c9.6,0.3,19.1-0.1,28.7,0.2c4.9,0.2,7.2-0.9,6.9-6.5c-0.5-6.9-0.4-13.9,0-20.8
			c0.3-5.1-1.3-6.9-6.6-6.7c-9.5,0.4-19.1-0.2-28.7,0.2c-5.4,0.3-6.6-1.7-6.5-6.7c0.3-15.8,0.3-31.7,0-47.5
			c-0.1-5.3,0.9-7.7,6.9-7.4c8.5,0.5,17.1,0.3,25.7,0.1c8.2-0.2,19,3.6,23.8-1.4c5.2-5.4,0.8-16.3,1.7-24.7c0.7-6.3-1.8-7.7-7.7-7.6
			c-25.4,0.3-50.8,0.5-76.2-0.1c-8-0.2-10.6,1.5-10.4,10c0.5,35.6,0.2,71.2,0.2,106.9c0,36.3,0.1,72.6-0.1,108.8
			c0,6.3,1.4,8.5,8.1,8.3c20.1-0.5,40.2-0.1,60.3-0.2c8.2,0,19.2,2.7,23.9-1.4C1202.8,548.4,1198.2,537.1,1199.3,528.7z"/>
		<path class="st0" d="M833,527.9c0.4-6-2-7.1-7.4-7c-13.8,0.3-27.7-0.3-41.5,0.3c-7,0.3-9.8-1-9.4-8.9c0.8-15.5,0.2-31,0.2-46.5
			c0-16,0-15.9,15.9-16c8.2,0,19.3,2.8,23.9-1.3c5.4-4.9,1-16.2,1.8-24.6c0.6-5.8-1-8.3-7.4-7.9c-9.2,0.6-18.5-0.1-27.7,0.3
			c-5.2,0.2-6.7-1.4-6.6-6.5c0.3-16.2,0.3-32.3,0-48.5c-0.1-5.4,1.8-6.6,6.8-6.5c14.5,0.3,29-0.1,43.5,0.2c5.8,0.1,8.5-1,7.9-7.5
			c-0.6-6.2-0.6-12.6,0-18.8c0.5-6.1-1.5-7.8-7.6-7.7c-26,0.3-52.1,0.4-78.2,0c-7.2-0.1-8.6,2.2-8.5,8.9
			c0.3,35.9,0.2,71.9,0.2,107.8c0,35.6,0.3,71.2-0.2,106.9c-0.1,7.9,1.4,10.8,10,10.5c19.4-0.7,38.9,0,58.4-0.3
			c8.4-0.1,19.9,3.9,24.4-1.9C835.7,547.4,832.4,536.4,833,527.9z"/>
		<path class="st0" d="M235.2,527.5c-0.2-5.2-1.6-6.7-6.7-6.6c-14.8,0.3-29.7-0.2-44.5,0.2c-5.8,0.2-7.1-1.8-7-7.2
			c0.4-16.2,0.1-32.3,0.1-48.5c0-15.6,0-15.6,15.2-15.6c27.6,0,27.4,0,26.5-27.3c-0.2-5.4-1.9-6.7-6.9-6.5
			c-9.6,0.3-19.1-0.1-28.7,0.2c-4.5,0.1-6.4-0.7-6.3-5.9c0.3-16.5,0.3-33,0-49.5c-0.1-4.7,1.2-6.4,6.1-6.2c8.9,0.4,17.8,0.3,26.7,0
			c8.1-0.3,18.7,3.6,23.7-1.6c5-5.1,0.6-15.7,1.6-23.8c0.9-7.4-2.4-8.6-8.9-8.4c-12.5,0.5-25.1,0.1-37.6,0.1
			c-13.5,0-27.1,0.3-40.6-0.1c-5.7-0.2-7.2,1.6-7.1,7.2c0.2,73.2,0.2,146.4,0,219.6c0,5.8,1.8,7.1,7.3,7.1
			c20.4-0.3,40.9-0.1,61.3-0.1C236.1,554.7,236,554.7,235.2,527.5z"/>
		<path class="st0" d="M1043.7,554.9c6.2,0.5,7.7-1.4,7.6-7.6c-0.3-30.6-0.2-61.3-0.2-91.9c0-29.3,0.4-58.7-0.2-88
			c-0.2-9.9,1.8-13.9,12.5-12.9c8,0.8,19,3.8,23.7-1.3c5.1-5.5,0.7-16.3,1.7-24.7c0.7-6.2-1.6-7.7-7.6-7.6
			c-25.7,0.3-51.4,0.1-77.1,0.1c-27.9,0-27.8,0-26.2,28.3c0.2,4.3,1.3,5.7,5.6,5.5c7.2-0.3,14.6,0.5,21.7-0.2
			c8-0.8,10.5,1.5,10.4,10c-0.4,54-0.3,108.1-0.1,162.1c0,9.1-4,21.6,1.7,26.4C1022.5,557.7,1034.6,554.2,1043.7,554.9z"/>
		<path class="st0" d="M108.9,505c2.1-25.7,0.8-51.4,0.9-77.1c0.1-19.4,0.9-38.9-1-58.3c-3-30-20.9-47.4-51-48.4
			c-16.1-0.6-32.3,0.2-48.4-0.4c-7.2-0.3-9.5,1.4-9.4,9.1c0.5,35.9,0.2,71.9,0.2,107.8c0,36.3,0.1,72.5-0.1,108.8
			c0,6.2,1.2,8.6,8,8.4c16.1-0.6,32.3,0,48.4-0.3C89,554,106.2,537.6,108.9,505z M73,495.1c-0.1,22.1-12,31.1-33.5,26
			c-5.3-1.3-3.3-5-3.3-7.8c-0.2-25-0.1-50.1-0.1-75.1s0.1-50.1-0.1-75.1c-0.1-5.9,0.7-8.7,7.8-8.6c20,0.4,29.1,8.7,29.2,28.9
			C73.2,420.7,73.2,457.9,73,495.1z"/>
		<path class="st0" d="M868.2,320.9c-7.6-0.3-9.1,2.1-9.1,9.3c0.3,65.6,0.2,131.2,0.2,196.9c0,8.8-3,20.7,1.4,25.8
			c5.2,5.9,17.4,0.9,26.4,2c7.5,0.9,8.4-2.5,8.3-8.9c-0.3-28.7-0.3-57.4,0-86.1c0-3.6-3.6-10.1,4.9-10.1c6.2,0.1,12.4-1.9,14.1,8.2
			c3.7,21.7,8.8,43.2,13.5,64.7c2.3,10.5,0.7,25.2,8.1,30.4c7.3,5.2,20.9,1.4,31.8,1.6c1,0,1.9-0.2,4.1-0.4
			c-7.8-33.9-15.4-67.3-23.4-100.5c-2.1-8.7-3-15.6,5.7-22.1c7.2-5.3,10.1-14.4,11.8-23.3c2.9-15,3-30.1,0.3-45.2
			c-5-27.8-20.3-41.2-48.7-42C901.2,320.8,884.6,321.5,868.2,320.9z M895.3,385.3c0-8.2-0.1-16.5,0-24.7c0-2.1-0.8-4.4,2.3-5.7
			c14.2-5.8,31.3,4,33,19.4c0.6,5.2,0.9,10.5,0.5,15.7c-1.5,22.2-7.6,27.2-30,26.2c-4.8-0.2-6.3-1.5-6.1-6.2
			C895.5,401.8,895.3,393.5,895.3,385.3z"/>
		<path class="st0" d="M504.3,506.4c7-4.2,18.6-0.8,28.1-1.3c4.7-0.2,6.2,1.3,6.7,5.9c1.5,12.1,3.8,24.1,5.1,36.2
			c0.6,5.6,2.2,8.2,8.4,7.7c6.9-0.6,13.9-0.8,20.7,0c9,1,9-2.8,7.8-10.1c-11.2-66.8-22.2-133.7-32.9-200.7
			c-3.7-23.1-3.3-23.1-26.7-23.1c-5.3,0-10.6,0.5-15.8-0.1c-6.6-0.7-8.7,1.4-9.8,8.2c-5.8,37.7-12.4,75.3-18.6,113
			c-5.9,35.7-11.6,71.4-17.7,107.1c-0.8,4.5,0.3,6,4.7,5.6c2.3-0.2,4.6,0,6.9,0c7.5-0.2,17,2.2,22-1.5c4.2-3.1,3.1-13.3,4.6-20.3
			C499.9,523.8,496.9,510.9,504.3,506.4z M509.9,447.6c3.2-22.1,5.8-44.3,8.7-66.4c0.3-2.1-0.5-4.6,3.2-7c4.1,32.6,8.1,64.5,12,96.3
			c-0.4,0.2-0.7,0.4-1,0.5C505.8,474,506,474,509.9,447.6z"/>
	</g>
	<g>
		<path class="st0" d="M453.7,631.4c-5.6-4.4-16.9-1.1-25.7-1.8c-5.5-0.4-6.5,1.7-6.5,6.7c0.2,44.5,0.2,89.1,0.3,133.6
			c-0.7,0.7-1.3,1.4-2,2.2c-13.2-40.3-26.4-80.5-39.5-120.8c-7.1-21.7-7.1-21.3-30.2-21.8c-8.2-0.2-9.5,2.5-9.5,9.9
			c0.3,65.9,0.1,131.8,0.2,197.7c0,8.5-3.7,19.6,1.6,24.7c5.3,5,16.3,0.9,24.8,1.6c5.4,0.5,7.3-1.1,7.2-6.9
			c-0.4-42.5-0.5-85-0.7-127.5c0.6-0.7,1.2-1.3,1.8-2c12.7,37.7,25.5,75.4,38.2,113c7.9,23.4,7.9,23,32.3,23.5
			c8,0.2,9.5-2.3,9.5-9.8c-0.3-66-0.1-131.9-0.2-197.9C455.2,647.4,459,635.5,453.7,631.4z"/>
		<path class="st0" d="M262.6,662.9c8.5,0.5,17.2,0.4,25.7,0.1c8.4-0.3,19.9,3.9,24.4-1.9c4.2-5.4,0.9-16.4,1.5-24.9
			c0.4-5.9-1.9-7-7.3-7c-26.4,0.2-52.8,0.4-79.1-0.1c-7.2-0.1-7.8,2.8-7.7,8.6c0.2,35.9,0.1,71.9,0.1,107.8
			c0,36.3,0.2,72.5-0.2,108.8c-0.1,7,1.8,8.8,8.7,8.7c19.8-0.5,39.6,0,59.4-0.2c8.4-0.1,20,3.8,24.5-1.7c4.3-5.2,1.1-16.3,1.7-24.8
			c0.4-5.6-1.5-7.3-7.1-7.2c-14.8,0.4-29.7-0.1-44.5,0.3c-5.3,0.1-6.6-1.6-6.5-6.7c0.3-16.5,0.1-33,0.1-49.5
			c0-15.2,0-15.2,15.6-15.2c27.5,0,27.4,0,26.1-27.7c-0.2-4.8-1.6-6.2-6.3-6.1c-9.6,0.3-19.1-0.1-28.7,0.2c-4.7,0.1-7-0.6-6.9-6.3
			c0.4-16.1,0.3-32.3,0.1-48.5C256.1,664.8,257.1,662.6,262.6,662.9z"/>
		<path class="st0" d="M669.5,662.9c8.9,0.3,17.8,0.2,26.7,0.1c8.2-0.1,19.2,2.7,23.9-1.4c5.5-4.9,0.9-16.2,1.9-24.5
			c0.9-7.2-2.5-7.9-8.5-7.8c-25.7,0.3-51.4,0.4-77.2-0.1c-7-0.1-8.7,1.9-8.6,8.8c0.3,35.9,0.2,71.9,0.2,107.8
			c0,35.9,0.3,71.9-0.2,107.8c-0.1,8.1,2.5,9.7,9.9,9.5c19.4-0.5,38.9,0,58.4-0.3c8.4-0.1,19.9,3.9,24.4-1.8
			c4.2-5.3,1-16.4,1.6-24.8c0.4-5.8-1.8-7.2-7.3-7c-13.8,0.4-27.7-0.5-41.5,0.3c-8.2,0.5-9.6-2.6-9.4-9.9
			c0.5-15.2,0.2-30.3,0.2-45.5c0-16,0-16,15.8-16.1c8.2,0,19.6,2.9,23.9-1.3c5.6-5.4,1.1-16.8,2-25.6c0.6-5.9-2-7.1-7.3-6.9
			c-9.5,0.4-19.1-0.1-28.7,0.2c-4.1,0.1-5.8-0.9-5.7-5.4c0.2-16.8,0.2-33.6,0-50.5C663.9,664.2,665.2,662.8,669.5,662.9z"/>
		<path class="st0" d="M804.9,631.7c-5.3-5.2-17-0.7-25.7-1.7c-7.5-0.8-9.2,1.7-9.2,9.1c0.3,56.7,0.2,113.4,0.1,170.1
			c0,14.7-5.5,20.5-20.1,20.6c-5.3,0-6.1,1.8-5.7,6.2c0.3,2.6,0,5.3,0,7.9c0,20.2,0,20.2,20.7,19.9c19-0.3,30.8-8.9,36.8-26.9
			c2.3-6.9,3.9-14,3.9-21.3c0.1-29.3,0-58.7,0-88c0.2,0,0.4,0,0.6,0c0-23.4,0.1-46.8-0.1-70.2C806.3,648.5,810.1,636.9,804.9,631.7z
			"/>
		<path class="st0" d="M1085,632.5c-25.4-9.1-49.3,0.2-61.9,24.2c-9.1,17.2-8.8,16.7,8.5,24.7c8.9,4.1,15.5,6.2,18.5-6
			c0.6-2.4,2.6-4.6,4.2-6.6c4.4-5.5,9.5-9.6,17-6.4c7.7,3.2,9.1,9.9,8.2,17.3c-1.2,9-5.6,16.8-9.7,24.7
			c-12.7,24.3-20.9,49.7-21.2,74.2c-1.7,23.5-1.7,23.5,18.3,23.4c1,0,2-0.1,3,0c5.4,0.8,6.8-1.7,6.4-6.7c-2-26,5.9-49.3,19.4-71.2
			c7.4-12.1,13.5-24.9,16.2-39C1116.4,661.2,1105.5,639.8,1085,632.5z"/>
		<path class="st0" d="M1063.8,826.2c-18.7,0-18.7,0-18.7,20.9c0,16.7,0,16.7,16,16.7c18.3,0,18.3,0,18.3-18.4
			C1079.3,826.2,1079.3,826.2,1063.8,826.2z"/>
		<path class="st0" d="M953.4,633.7c-12.4-4.2-25.1-5-38.1-4.5c-45.7,1.9-78.9,32.3-81.6,78c-3,48.4-2.7,97-0.1,145.4
			c2.1,38.3,28,67.7,64.7,77c12,3,24.1,3.1,36.4,3c13.5-0.1,12.7-0.1,13.7-13.4c0.7-10-2.7-12.7-12-11.5c-5.2,0.7-10.5,0.1-15.8-0.3
			c-36-2.2-60-25-61-61.1c-1.2-44.2-2.2-88.5,0.2-132.6c3.2-57.4,48.2-68.4,83.3-58.3c12.8,3.6,21.7,12.1,27.1,24.2
			c7.8,17.5,4.9,36.5,7.9,54.8c-5.6-5-8.1-11.7-14.4-15.6c-24.9-15.5-59.4-2-64.6,26.9c-4.5,25-4,50.7-0.2,75.8
			c3.1,20.4,16.6,31.8,37.1,33.5c17.7,1.4,32.7-3.2,41-23.2c1.3,3.2,1.9,4,2,4.8c1.3,15.7,1.3,15.7,17,15c0.3,0,0.7,0,1,0
			c4.3,0.6,5.6-1.3,5.6-5.5c-0.3-49.5,0.3-99-0.9-148.5C1000.6,667.2,981,643.1,953.4,633.7z M974,815.8
			c-3.6,13-11.8,18.7-26.7,18.1c-13.2-0.5-21.4-6.9-23-19.8c-2.5-20-2.5-40.2,0-60.1c1.7-13.1,10.3-19.5,24.2-19.7
			c15.3-0.3,22.8,5.1,26.1,18.6c2.4,10.1,0.6,20.4,1.3,30.3C975.4,794.1,977,805.1,974,815.8z"/>
		<path class="st0" d="M554,630.4c-18.6-2.7-37.5-0.3-56.3-1.2c-7-0.3-8.7,1.9-8.6,8.7c0.4,35.9,0.2,71.9,0.2,107.8
			c0,36.6,0.1,73.2-0.1,109.8c0,5,0.4,7.8,6.7,7.6c17.5-0.4,34.9,0.2,52.4-0.3c29.1-0.9,47.2-17,49.1-46.2c3.1-46.7,3-93.6,0-140.3
			C595.7,649.7,580.6,634.3,554,630.4z M561.9,804.8c-0.1,20.7-14,30.4-33.8,24.6c-5.1-1.5-2.9-5.3-2.9-8.1
			c-0.2-25.4-0.1-50.7-0.1-76.1c0-24.7,0.2-49.4-0.2-74.1c-0.1-6.6,1.8-8.3,8.3-8.1c19.6,0.4,28.7,8.7,28.8,28.2
			C562.1,729.1,562.1,766.9,561.9,804.8z"/>
		<path class="st0" d="M147.6,629.4c-16.8-0.5-33.6,0.2-50.5-0.3c-6.5-0.2-8.2,1.6-8.2,8.1c0.3,36.3,0.2,72.6,0.2,108.8
			c0,29.7,0,59.4,0,89c0,8.9-3.1,20.7,1.4,25.8c5.2,6,17.4,0.9,26.4,2.1c7.4,0.9,8.4-2.3,8.3-8.8c-0.4-24.7-0.2-49.5-0.2-74.2
			c0-21.8,0-21.8,21.9-21.9c23.7-0.2,39.1-11.1,46.4-33.9c5.6-17.3,6-35,2.8-52.8C191.4,643.4,176.2,630.2,147.6,629.4z
			 M160.1,708.6c-2.2,12.6-22.1,21.6-33.1,15.4c-2.7-1.5-1.7-4-1.7-6.1c-0.1-8.2,0-16.4,0-24.6c0-8.2-0.1-16.4,0-24.6
			c0-2.1-0.7-4.4,2.4-5.6c14.3-5.8,30.9,3.9,33.1,19.1C162,691.1,161.6,699.9,160.1,708.6z"/>
	</g>
</g>
</svg>
