<?xml version="1.0" encoding="utf-8"?>
<!-- Generator: Adobe Illustrator 22.0.1, SVG Export Plug-In . SVG Version: 6.00 Build 0)  -->
<svg version="1.1" id="Capa_1" xmlns="http://www.w3.org/2000/svg" xmlns:xlink="http://www.w3.org/1999/xlink" x="0px" y="0px"
	 viewBox="0 0 512 243.3" style="enable-background:new 0 0 512 243.3;" xml:space="preserve">
<style type="text/css">
	.st0{fill:#FBFBFB;}
	.st1{fill:#222221;}
</style>
<g>
	<path class="st0" d="M481.4,0H30.6c-16.5,0-30,13.5-30,30.2v183c0,16.5,13.5,30,30,30h450.7c16.5,0,30-13.5,30-30.2V30.2
		C511.4,13.5,497.9,0,481.4,0z"/>
	<path class="st1" d="M125.4,170.9v-17.6h2.2v17.6H125.4L125.4,170.9z M191.9,87.9h-19.6l-0.9,5.4c-1.1-1.6-2.6-2.9-4.3-4
		s-3.5-1.8-5.5-2.4c-2.1-0.5-4.1-0.7-6.2-0.7c-4.1,0-8,0.9-11.7,2.3c-3.6,1.6-6.9,3.6-9.7,6.4c-2.9,2.7-5.2,5.8-7.2,9.4
		c-1.8,3.5-3.2,7.3-3.8,11.3c-0.5,3.2-0.6,6.2-0.1,9.1c0.4,2.9,1.2,5.6,2.4,8c1.2,2.4,2.9,4.6,4.9,6.4c1.9,1.8,4.4,3.3,7.1,4.3
		c2.7,1,5.7,1.6,9,1.6c2.2,0,4.4-0.2,6.6-0.9c2.2-0.6,4.3-1.5,6.3-2.7c1.9-1.2,3.6-2.7,5.1-4.5h0.2l-1,6.1h19.6L191.9,87.9
		L191.9,87.9z M158,103.1c2.7,0,4.9,0.6,6.6,1.7c1.7,1.1,2.9,2.7,3.6,4.5c0.7,1.9,0.9,4,0.5,6.3s-1.2,4.5-2.6,6.3
		c-1.3,1.8-3,3.3-5,4.4c-2.1,1.1-4.4,1.6-7.1,1.7c-2.7,0-4.9-0.6-6.6-1.7c-1.7-1.1-2.9-2.6-3.5-4.4c-0.7-1.8-0.9-4-0.5-6.3
		s1.2-4.4,2.4-6.3c1.2-1.8,2.9-3.4,5-4.5S155.3,103.1,158,103.1L158,103.1z M224.5,87.9h-19.6l-8.8,55.2h19.6l4.5-28.7
		c0.2-1.7,0.7-3.4,1.2-4.9c0.6-1.6,1.3-2.9,2.3-4.1s2.2-2.1,3.6-2.8c1.5-0.6,3.2-1,5.1-1s3.4,0.4,4.5,1s1.8,1.5,2.2,2.6
		c0.5,1.1,0.6,2.3,0.6,3.5s-0.1,2.6-0.2,3.9c-0.1,1.2-0.4,2.4-0.5,3.5l-4.3,26.9h19.6l5.4-34.2c0.6-3.4,0.6-6.6,0.4-9.4
		c-0.4-2.8-1.2-5.2-2.6-7.3c-1.3-2.1-3.3-3.6-5.7-4.7s-5.5-1.7-9.2-1.7c-2.6,0-4.9,0.2-7.1,0.9c-2.2,0.6-4.3,1.5-6.2,2.8
		s-3.9,3-5.7,5.4h-0.2L224.5,87.9L224.5,87.9z M119.2,87.9H99.6l-0.9,5.8h-0.2c-1-1.8-2.3-3.3-3.8-4.4c-1.6-1.1-3.3-1.9-5.1-2.4
		c-1.9-0.5-3.9-0.7-6.1-0.7c-4.3,0-8.3,0.9-11.9,2.4c-3.8,1.6-7.1,3.8-10,6.4c-2.9,2.8-5.4,6-7.3,9.6c-1.9,3.6-3.2,7.4-3.9,11.4
		c-0.6,4-0.6,7.7,0.2,11.2c0.7,3.4,2.2,6.4,4.1,9c1.9,2.6,4.5,4.5,7.7,6s6.7,2.2,10.7,2.2c2.4,0,4.7-0.2,6.8-0.9
		c2.1-0.6,4.1-1.5,6.1-2.6c1.9-1.1,3.9-2.6,5.8-4.3l-0.5,2.6c-0.4,2.2-0.9,4.4-1.5,6.2c-0.6,1.9-1.6,3.6-2.7,5
		c-1.1,1.5-2.6,2.6-4.4,3.3c-1.8,0.9-4,1.2-6.6,1.2c-1,0-1.8-0.1-2.8-0.4s-1.8-0.5-2.7-1c-0.7-0.5-1.5-1-1.9-1.7
		c-0.5-0.7-0.9-1.6-1.1-2.6H46c-0.1,2.9,0.4,5.5,1.5,7.8s2.6,4.3,4.5,6s4.1,3,6.6,4.1c2.4,1.1,5,1.9,7.7,2.4s5.4,0.9,7.9,0.9
		c6.8,0,12.8-1.1,17.9-3.3s9.2-5.8,12.5-10.7s5.5-11.2,6.8-19L119.2,87.9L119.2,87.9z M85.4,102.8c2.7,0,4.9,0.6,6.6,1.7
		s2.9,2.7,3.5,4.5c0.7,1.8,0.9,4,0.5,6.3s-1.2,4.5-2.4,6.3c-1.2,1.8-2.9,3.3-5,4.4s-4.4,1.6-7.1,1.7c-2.7,0-4.9-0.6-6.6-1.7
		s-2.9-2.6-3.6-4.4s-0.9-4-0.5-6.3s1.2-4.4,2.6-6.3c1.3-1.8,3-3.4,5-4.5C80.3,103.4,82.7,102.8,85.4,102.8L85.4,102.8z M309,143.3
		h19.6l14.1-89.4h-19.6l-6.3,39.5c-1.1-1.6-2.6-2.9-4.3-4c-1.7-1.1-3.5-1.8-5.5-2.4c-2.1-0.5-4.1-0.7-6.2-0.7c-4.1,0-8,0.9-11.7,2.3
		c-3.6,1.6-6.9,3.6-9.7,6.4c-2.9,2.7-5.2,5.8-7.2,9.4c-1.8,3.5-3.2,7.3-3.8,11.3c-0.5,3.2-0.6,6.2-0.1,9.1c0.4,2.9,1.2,5.6,2.4,8
		c1.2,2.4,2.9,4.6,4.9,6.4c1.9,1.8,4.4,3.3,7.1,4.3s5.7,1.6,9,1.6c2.2,0,4.4-0.2,6.6-0.9s4.3-1.5,6.3-2.7c1.9-1.2,3.6-2.7,5.1-4.5
		h0.2L309,143.3L309,143.3z M303.4,103.1c2.7,0,4.9,0.6,6.6,1.7s2.9,2.7,3.6,4.5c0.7,1.9,0.9,4,0.5,6.3s-1.2,4.5-2.6,6.3
		c-1.3,1.8-3,3.3-5,4.4c-2.1,1.1-4.4,1.6-7.1,1.7c-2.7,0-4.9-0.6-6.6-1.7s-2.9-2.6-3.5-4.4c-0.7-1.8-0.9-4-0.5-6.3s1.2-4.4,2.4-6.3
		c1.2-1.8,2.9-3.4,5-4.5S300.8,103.1,303.4,103.1L303.4,103.1z M355,53.9l-14.1,89.4h19.6L365,115c0.2-1.6,0.6-3.3,1.2-4.7
		c0.6-1.6,1.3-2.9,2.3-4.3c1-1.2,2.2-2.3,3.6-3c1.5-0.7,3.2-1.1,5-1.1c1.9,0,3.4,0.4,4.5,1.1s1.8,1.7,2.2,3c0.4,1.2,0.6,2.7,0.5,4.3
		c0,1.6-0.1,3.2-0.5,4.7l-4.5,28.3h19.6l5.4-33.8c0.7-4.7,0.6-8.8-0.4-12.3c-1-3.4-2.8-6.2-5.6-8c-2.8-1.9-6.4-2.9-11.2-2.9
		c-3.8,0-7.2,0.7-10.3,2.2c-3,1.5-6,3.6-8.8,6.7h-0.2l6.4-41.1H355V53.9z M440.4,87.9h-19.6l-8.8,55.2h19.6L440.4,87.9L440.4,87.9z
		 M435.8,55.8c-2.1,0-4,0.5-5.8,1.5s-3.4,2.3-4.6,3.9c-1.2,1.7-2.1,3.5-2.4,5.5c-0.2,2.1,0,3.9,0.7,5.5c0.7,1.7,1.8,2.9,3.3,3.9
		s3.3,1.5,5.2,1.5c2.1,0,4-0.5,5.8-1.5s3.4-2.3,4.6-3.9c1.2-1.7,2.1-3.5,2.3-5.5c0.4-2.1,0.1-3.9-0.6-5.5c-0.7-1.7-1.8-2.9-3.3-3.9
		C439.5,56.3,437.8,55.8,435.8,55.8L435.8,55.8z M448.8,128.1c1.3,0,2.6,0.4,3.8,1c1.2,0.6,2.2,1.6,2.9,2.9c0.7,1.2,1.1,2.6,1.1,3.9
		c0,1.3-0.4,2.7-1,3.9c-0.7,1.2-1.7,2.2-2.9,2.9s-2.6,1-3.9,1s-2.7-0.4-3.9-1c-1.2-0.7-2.2-1.7-2.9-2.9c-0.7-1.2-1-2.6-1-3.9
		c0-1.3,0.4-2.7,1.1-3.9s1.7-2.2,2.9-2.9C446.1,128.4,447.4,128.1,448.8,128.1L448.8,128.1z M445.3,140v-8.3h1.7c1.6,0,2.4,0,2.7,0
		c0.6,0,1,0.1,1.3,0.4c0.4,0.1,0.6,0.5,0.7,0.7c0.2,0.4,0.4,0.7,0.4,1.2c0,0.6-0.2,1.1-0.6,1.6c-0.4,0.4-1,0.7-1.6,0.7
		c0.2,0.1,0.5,0.2,0.6,0.4c0.1,0.1,0.4,0.4,0.6,0.6c0.1,0.1,0.2,0.4,0.6,1l1,1.7h-2.1l-0.7-1.3c-0.5-0.9-0.9-1.5-1.1-1.7
		s-0.7-0.4-1.1-0.4H447v3.4L445.3,140L445.3,140z M447,135.3h0.7c1,0,1.6,0,1.8-0.1c0.2-0.1,0.4-0.2,0.6-0.4
		c0.1-0.2,0.2-0.4,0.2-0.6c0-0.2-0.1-0.5-0.2-0.6s-0.4-0.4-0.6-0.4c-0.2-0.1-0.9-0.1-1.8-0.1H447V135.3L447,135.3z M448.8,129.7
		c-1.1,0-2.1,0.2-3,0.9c-1,0.5-1.7,1.3-2.3,2.3s-0.9,2.1-0.9,3.2s0.2,2.1,0.9,3.2c0.6,1,1.3,1.7,2.3,2.3s2.1,0.9,3,0.9
		c1.1,0,2.1-0.2,3.2-0.9c1-0.6,1.7-1.3,2.3-2.3c0.6-1,0.9-2.1,0.9-3.2s-0.2-2.2-0.9-3.2s-1.3-1.8-2.3-2.3
		C450.8,129.9,449.9,129.7,448.8,129.7L448.8,129.7z M372.5,163.1h3v3h-3V163.1L372.5,163.1z M294.7,163.1h3v3h-3V163.1L294.7,163.1
		z M195.8,163.1h3v3h-3V163.1L195.8,163.1z M389.8,166.3l2.1,0.2c-0.2,1.5-0.9,2.6-1.8,3.4c-1,0.9-2.2,1.2-3.5,1.2
		c-1.7,0-3.2-0.6-4.3-1.7c-1.1-1.1-1.6-2.8-1.6-4.9c0-1.3,0.2-2.6,0.7-3.6s1.1-1.8,2.1-2.3s1.9-0.7,3-0.7c1.3,0,2.6,0.4,3.4,1.1
		c0.9,0.7,1.5,1.7,1.7,3l-2.1,0.4c-0.2-0.9-0.6-1.5-1.1-1.9c-0.5-0.5-1.1-0.6-1.8-0.6c-1.1,0-1.9,0.4-2.7,1.2c-0.7,0.7-1,2.1-1,3.6
		c0,1.7,0.4,2.9,1,3.8c0.6,0.7,1.5,1.2,2.6,1.2c0.9,0,1.6-0.2,2.1-0.7C389.3,168.2,389.7,167.4,389.8,166.3L389.8,166.3z
		 M404.5,169.3c-0.9,0.7-1.6,1.2-2.3,1.5c-0.7,0.2-1.6,0.4-2.4,0.4c-1.5,0-2.4-0.4-3.3-1c-0.7-0.7-1.1-1.6-1.1-2.6
		c0-0.6,0.1-1.2,0.4-1.7c0.2-0.5,0.6-1,1.1-1.2c0.5-0.4,1-0.6,1.6-0.7c0.5-0.1,1.1-0.2,1.9-0.4c1.7-0.2,3-0.5,3.9-0.7
		c0-0.2,0-0.5,0-0.6c0-0.9-0.2-1.5-0.6-1.8c-0.6-0.5-1.3-0.7-2.4-0.7c-1,0-1.8,0.1-2.3,0.5s-0.9,1-1.1,1.9l-2.1-0.2
		c0.2-0.9,0.5-1.6,1-2.2c0.5-0.6,1.1-1,1.9-1.3c0.9-0.2,1.8-0.5,2.9-0.5s1.9,0.1,2.7,0.4c0.7,0.2,1.2,0.6,1.5,1
		c0.4,0.4,0.5,0.9,0.7,1.5c0.1,0.4,0.1,1,0.1,1.9v2.9c0,1.9,0,3.3,0.1,3.8s0.2,1.1,0.5,1.6h-2.3
		C404.6,170.5,404.5,169.9,404.5,169.3L404.5,169.3z M404.3,164.6c-0.7,0.4-1.9,0.6-3.5,0.9c-0.9,0.1-1.6,0.2-1.9,0.5
		c-0.4,0.1-0.6,0.4-0.9,0.7c-0.2,0.4-0.4,0.6-0.4,1c0,0.6,0.2,1.1,0.6,1.5c0.5,0.4,1.1,0.6,1.9,0.6c0.9,0,1.6-0.1,2.2-0.5
		s1.1-0.9,1.5-1.5c0.2-0.5,0.4-1.2,0.4-2.2L404.3,164.6L404.3,164.6z M412.7,170.9v-11.1h-1.9v-1.7h1.9v-1.2c0-0.9,0.1-1.5,0.2-1.9
		c0.2-0.6,0.6-1,1.1-1.3c0.5-0.4,1.2-0.5,2.2-0.5c0.6,0,1.3,0.1,2.1,0.2l-0.4,1.9c-0.5-0.1-0.9-0.1-1.2-0.1c-0.6,0-1.1,0.1-1.3,0.4
		c-0.2,0.2-0.4,0.9-0.4,1.6v1.2h2.4v1.7H415v11.1h-2.3V170.9z M430,166.9l2.2,0.2c-0.4,1.3-1,2.3-1.9,3c-1,0.7-2.2,1.1-3.6,1.1
		c-1.8,0-3.3-0.6-4.4-1.7c-1.1-1.1-1.6-2.8-1.6-4.9c0-2.2,0.6-3.8,1.7-5s2.6-1.8,4.3-1.8s3,0.6,4.1,1.7c1.1,1.2,1.6,2.8,1.6,4.9
		c0,0.1,0,0.4,0,0.6h-9.5c0.1,1.3,0.5,2.4,1.2,3.2c0.7,0.7,1.6,1.1,2.7,1.1c0.7,0,1.5-0.2,2.1-0.6
		C429.3,168.5,429.8,167.7,430,166.9L430,166.9z M423,163.3h7.1c-0.1-1.1-0.4-1.8-0.9-2.4c-0.7-0.9-1.6-1.2-2.7-1.2
		c-1,0-1.8,0.4-2.6,1C423.5,161.4,423.1,162.3,423,163.3L423,163.3z M424.8,156.7l1.6-3.4h2.8l-2.7,3.4H424.8L424.8,156.7z
		 M307.3,170.9l-4.9-12.8h2.3l2.7,7.7c0.2,0.9,0.6,1.7,0.9,2.6c0.2-0.7,0.5-1.5,0.9-2.4l2.8-7.8h2.2l-4.9,12.8L307.3,170.9
		L307.3,170.9z M317.9,155.8v-2.4h2.2v2.4H317.9L317.9,155.8z M317.9,170.9v-12.8h2.2v12.8H317.9L317.9,170.9z M333.4,170.9v-1.6
		c-0.9,1.2-1.9,1.9-3.5,1.9c-1,0-1.9-0.2-2.8-0.9c-0.9-0.6-1.5-1.3-1.9-2.3c-0.5-1-0.7-2.2-0.7-3.4s0.2-2.4,0.6-3.4s1.1-1.8,1.9-2.4
		c0.9-0.6,1.8-0.9,2.8-0.9c0.7,0,1.5,0.1,2.1,0.5s1.1,0.7,1.5,1.2v-6.3h2.2V171h-2.1v-0.1H333.4z M326.4,164.6
		c0,1.6,0.4,2.8,1.1,3.6s1.5,1.2,2.4,1.2s1.7-0.4,2.4-1.1c0.6-0.7,1-1.9,1-3.5c0-1.7-0.4-3-1-3.8c-0.7-0.9-1.5-1.2-2.4-1.2
		s-1.8,0.4-2.4,1.2C326.8,161.6,326.4,162.9,326.4,164.6L326.4,164.6z M349.2,166.9l2.2,0.2c-0.4,1.3-1,2.3-1.9,3
		c-1,0.7-2.2,1.1-3.6,1.1c-1.8,0-3.3-0.6-4.4-1.7c-1.1-1.1-1.6-2.8-1.6-4.9c0-2.2,0.6-3.8,1.7-5s2.6-1.8,4.3-1.8s3,0.6,4.1,1.7
		c1.1,1.2,1.6,2.8,1.6,4.9c0,0.1,0,0.4,0,0.6H342c0.1,1.3,0.5,2.4,1.2,3.2c0.7,0.7,1.6,1.1,2.7,1.1c0.9,0,1.5-0.2,2.1-0.6
		C348.4,168.5,348.9,167.7,349.2,166.9L349.2,166.9z M342.1,163.3h7.1c-0.1-1.1-0.4-1.8-0.9-2.4c-0.7-0.9-1.6-1.2-2.7-1.2
		c-1,0-1.8,0.4-2.6,1C342.6,161.4,342.2,162.3,342.1,163.3L342.1,163.3z M355.1,164.6c0-2.3,0.6-4.1,1.9-5.2c1.1-1,2.4-1.5,4-1.5
		c1.7,0,3.2,0.6,4.3,1.7c1.1,1.1,1.7,2.7,1.7,4.7c0,1.6-0.2,2.9-0.7,3.9s-1.2,1.7-2.2,2.2s-1.9,0.7-3,0.7c-1.8,0-3.3-0.6-4.4-1.7
		C355.6,168.3,355.1,166.8,355.1,164.6L355.1,164.6z M357.3,164.6c0,1.6,0.4,2.8,1.1,3.6c0.7,0.9,1.6,1.2,2.7,1.2s1.9-0.4,2.7-1.2
		s1.1-2.1,1.1-3.8c0-1.6-0.4-2.8-1.1-3.5c-0.7-0.9-1.6-1.2-2.7-1.2s-1.9,0.4-2.7,1.2C357.7,161.8,357.3,163,357.3,164.6L357.3,164.6
		z M205.8,170.9v-12.8h1.9v1.8c0.4-0.6,1-1.1,1.6-1.5s1.5-0.6,2.3-0.6c1,0,1.7,0.2,2.3,0.6c0.6,0.4,1,1,1.2,1.6
		c1-1.5,2.3-2.2,3.9-2.2c1.2,0,2.2,0.4,2.9,1.1c0.7,0.7,1,1.8,1,3.3v8.8h-2.2v-8c0-0.9-0.1-1.5-0.2-1.8c-0.1-0.4-0.4-0.7-0.7-1
		c-0.4-0.2-0.9-0.4-1.3-0.4c-0.9,0-1.7,0.2-2.2,0.9c-0.6,0.6-0.9,1.6-0.9,2.9v7.4h-1.9v-8.3c0-1-0.1-1.7-0.5-2.2s-1-0.7-1.7-0.7
		c-0.6,0-1.2,0.1-1.7,0.5s-0.9,0.7-1.1,1.5c-0.2,0.6-0.4,1.5-0.4,2.7v6.6h-2.3L205.8,170.9L205.8,170.9z M236.4,170.9v-1.8
		c-1,1.5-2.3,2.2-4,2.2c-0.7,0-1.5-0.1-2.1-0.5c-0.6-0.2-1.1-0.6-1.5-1.1s-0.5-1-0.6-1.6c-0.1-0.4-0.1-1.1-0.1-2.1v-7.9h2.2v7.1
		c0,1.1,0,1.9,0.1,2.3c0.1,0.6,0.4,1,0.9,1.3s1,0.5,1.6,0.5s1.2-0.1,1.8-0.5s1-0.7,1.2-1.3s0.4-1.5,0.4-2.4v-6.8h2.2V171h-2.1
		L236.4,170.9L236.4,170.9z M231.7,156.7l1.6-3.4h2.8l-2.7,3.4H231.7L231.7,156.7z M242.6,167.1l2.2-0.4c0.1,0.9,0.5,1.5,1,1.9
		c0.6,0.5,1.3,0.7,2.3,0.7s1.7-0.2,2.2-0.6c0.5-0.4,0.7-0.9,0.7-1.5c0-0.5-0.2-0.9-0.6-1.1c-0.2-0.2-1.1-0.5-2.2-0.7
		c-1.6-0.4-2.7-0.7-3.3-1c-0.6-0.2-1.1-0.7-1.3-1.2c-0.4-0.5-0.5-1.1-0.5-1.7c0-0.6,0.1-1.1,0.4-1.6c0.2-0.5,0.6-0.9,1.1-1.2
		c0.4-0.2,0.9-0.5,1.3-0.6c0.6-0.1,1.2-0.2,1.8-0.2c1,0,1.8,0.1,2.7,0.5c0.7,0.2,1.3,0.7,1.7,1.2s0.6,1.1,0.7,1.9l-2.1,0.2
		c-0.1-0.6-0.4-1.2-0.9-1.6c-0.5-0.4-1.1-0.6-1.9-0.6c-1,0-1.7,0.1-2.1,0.5c-0.4,0.4-0.6,0.7-0.6,1.1c0,0.2,0.1,0.5,0.2,0.7
		c0.1,0.2,0.5,0.4,0.9,0.6c0.2,0.1,0.9,0.2,1.9,0.6c1.6,0.4,2.6,0.7,3.2,1c0.6,0.2,1.1,0.6,1.5,1.1s0.5,1.1,0.5,1.8
		s-0.2,1.3-0.6,2.1c-0.4,0.6-1,1.1-1.8,1.5s-1.7,0.5-2.7,0.5c-1.7,0-2.9-0.4-3.8-1C243.5,169.5,242.9,168.5,242.6,167.1L242.6,167.1
		z M257.6,155.8v-2.4h2.2v2.4H257.6L257.6,155.8z M257.6,170.9v-12.8h2.2v12.8H257.6L257.6,170.9z M273.1,166.3l2.1,0.2
		c-0.2,1.5-0.9,2.6-1.8,3.4c-1,0.9-2.2,1.2-3.5,1.2c-1.7,0-3.2-0.6-4.3-1.7c-1.1-1.1-1.6-2.8-1.6-4.9c0-1.3,0.2-2.6,0.7-3.6
		s1.1-1.8,2.1-2.3s1.9-0.7,3-0.7c1.3,0,2.6,0.4,3.4,1.1c0.9,0.7,1.5,1.7,1.7,3l-2.1,0.4c-0.2-0.9-0.6-1.5-1.1-1.9
		c-0.5-0.5-1.1-0.6-1.8-0.6c-1.1,0-1.9,0.4-2.7,1.2c-0.7,0.7-1,2.1-1,3.6c0,1.7,0.4,2.9,1,3.8c0.6,0.7,1.5,1.2,2.6,1.2
		c0.9,0,1.6-0.2,2.1-0.7C272.7,168.2,273,167.4,273.1,166.3L273.1,166.3z M287.3,169.3c-0.9,0.7-1.6,1.2-2.3,1.5
		c-0.7,0.2-1.6,0.4-2.4,0.4c-1.5,0-2.4-0.4-3.3-1c-0.7-0.7-1.1-1.6-1.1-2.6c0-0.6,0.1-1.2,0.4-1.7c0.2-0.5,0.6-1,1.1-1.2
		c0.5-0.4,1-0.6,1.6-0.7c0.5-0.1,1.1-0.2,1.9-0.4c1.7-0.2,3-0.5,3.9-0.7c0-0.2,0-0.5,0-0.6c0-0.9-0.2-1.5-0.6-1.8
		c-0.6-0.5-1.3-0.7-2.4-0.7c-1,0-1.8,0.1-2.3,0.5s-0.9,1-1.1,1.9l-2.1-0.2c0.2-0.9,0.5-1.6,1-2.2c0.5-0.6,1.1-1,1.9-1.3
		c0.9-0.2,1.8-0.5,2.9-0.5s1.9,0.1,2.7,0.4c0.7,0.2,1.2,0.6,1.5,1c0.4,0.4,0.5,0.9,0.7,1.5c0.1,0.4,0.1,1,0.1,1.9v2.9
		c0,1.9,0,3.3,0.1,3.8s0.2,1.1,0.5,1.6h-2.3C287.5,170.5,287.3,169.9,287.3,169.3L287.3,169.3z M287,164.6c-0.7,0.4-1.9,0.6-3.5,0.9
		c-0.9,0.1-1.6,0.2-1.9,0.5c-0.4,0.1-0.6,0.4-0.9,0.7s-0.2,0.6-0.2,1c0,0.6,0.2,1.1,0.6,1.5c0.5,0.4,1.1,0.6,1.9,0.6
		c0.9,0,1.6-0.1,2.2-0.5s1.1-0.9,1.5-1.5c0.2-0.5,0.4-1.2,0.4-2.2v-1H287z M132.5,155.8v-2.4h2.2v2.4H132.5L132.5,155.8z
		 M132.5,170.9v-12.8h2.2v12.8H132.5L132.5,170.9z M141.5,170.9h-2.1v-17.6h2.2v6.3c1-1.1,2.1-1.7,3.5-1.7c0.7,0,1.6,0.1,2.2,0.5
		c0.7,0.4,1.2,0.7,1.7,1.3s0.9,1.2,1.1,2.1c0.2,0.9,0.4,1.7,0.4,2.6c0,2.2-0.5,3.9-1.6,5.1c-1.1,1.2-2.4,1.8-3.9,1.8
		s-2.7-0.6-3.5-1.8L141.5,170.9L141.5,170.9z M141.5,164.4c0,1.6,0.2,2.7,0.6,3.3c0.7,1.1,1.6,1.7,2.8,1.7c1,0,1.7-0.4,2.4-1.2
		c0.7-0.9,1-2.1,1-3.6c0-1.7-0.4-2.9-1-3.6c-0.6-0.9-1.5-1.2-2.4-1.2s-1.7,0.4-2.4,1.2C141.9,161.8,141.5,163,141.5,164.4
		L141.5,164.4z M154.9,170.9v-12.8h1.9v1.9c0.5-0.9,1-1.5,1.3-1.8c0.4-0.2,0.9-0.5,1.3-0.5c0.7,0,1.5,0.2,2.2,0.7l-0.7,1.9
		c-0.5-0.2-1.1-0.5-1.6-0.5s-0.9,0.1-1.2,0.5c-0.4,0.2-0.6,0.7-0.9,1.2c-0.2,0.7-0.4,1.6-0.4,2.6v6.7L154.9,170.9L154.9,170.9z
		 M163.9,164.6c0-2.3,0.6-4.1,1.9-5.2c1.1-1,2.4-1.5,4-1.5c1.7,0,3.2,0.6,4.3,1.7c1.1,1.1,1.7,2.7,1.7,4.7c0,1.6-0.2,2.9-0.7,3.9
		s-1.2,1.7-2.2,2.2s-1.9,0.7-3,0.7c-1.8,0-3.3-0.6-4.4-1.7C164.4,168.3,163.9,166.8,163.9,164.6L163.9,164.6z M166.1,164.6
		c0,1.6,0.4,2.8,1.1,3.6c0.7,0.9,1.6,1.2,2.7,1.2s1.9-0.4,2.7-1.2c0.7-0.9,1.1-2.1,1.1-3.8c0-1.6-0.4-2.8-1.1-3.5
		c-0.7-0.9-1.6-1.2-2.7-1.2s-1.9,0.4-2.7,1.2C166.5,161.8,166.1,163,166.1,164.6L166.1,164.6z M179.1,167.1l2.2-0.4
		c0.1,0.9,0.5,1.5,1,1.9c0.6,0.5,1.3,0.7,2.3,0.7s1.7-0.2,2.2-0.6c0.5-0.4,0.7-0.9,0.7-1.5c0-0.5-0.2-0.9-0.6-1.1
		c-0.2-0.2-1.1-0.5-2.2-0.7c-1.6-0.4-2.7-0.7-3.3-1c-0.6-0.2-1.1-0.7-1.3-1.2c-0.4-0.5-0.5-1.1-0.5-1.7c0-0.6,0.1-1.1,0.4-1.6
		c0.2-0.5,0.6-0.9,1.1-1.2c0.4-0.2,0.9-0.5,1.3-0.6c0.6-0.1,1.2-0.2,1.8-0.2c1,0,1.8,0.1,2.7,0.5c0.7,0.2,1.3,0.7,1.7,1.2
		s0.6,1.1,0.7,1.9l-2.1,0.2c-0.1-0.6-0.4-1.2-0.9-1.6c-0.5-0.4-1.1-0.6-1.9-0.6c-1,0-1.7,0.1-2.1,0.5c-0.4,0.4-0.6,0.7-0.6,1.1
		c0,0.2,0.1,0.5,0.2,0.7c0.1,0.2,0.5,0.4,0.9,0.6c0.2,0.1,0.9,0.2,1.9,0.6c1.6,0.4,2.6,0.7,3.2,1c0.6,0.2,1.1,0.6,1.5,1.1
		s0.5,1.1,0.5,1.8s-0.2,1.3-0.6,2.1c-0.4,0.6-1,1.1-1.8,1.5s-1.7,0.5-2.7,0.5c-1.7,0-2.9-0.4-3.8-1
		C180,169.5,179.4,168.5,179.1,167.1L179.1,167.1z"/>
</g>
</svg>
