<?xml version="1.0" encoding="utf-8"?>
<!-- Generator: Adobe Illustrator 22.0.1, SVG Export Plug-In . SVG Version: 6.00 Build 0)  -->
<svg version="1.1" id="Capa_1" xmlns="http://www.w3.org/2000/svg" xmlns:xlink="http://www.w3.org/1999/xlink" x="0px" y="0px"
	 viewBox="0 0 420 200" style="enable-background:new 0 0 420 200;" xml:space="preserve">
<style type="text/css">
	.st0{fill:#222222;}
	.st1{fill:#FBFBFB;}
</style>
<g>
	<g>
		<path class="st0" d="M395.3,0H24.7C11.1,0,0,11.1,0,24.8v150.5C0,188.9,11.1,200,24.7,200h370.6c13.6,0,24.7-11.1,24.7-24.8V24.8
			C420,11.1,408.9,0,395.3,0z"/>
		<path class="st1" d="M102.6,140.5v-14.5h1.8v14.5H102.6L102.6,140.5z M157.3,72.3h-16.1l-0.7,4.4c-0.9-1.3-2.1-2.4-3.5-3.3
			c-1.4-0.9-2.9-1.5-4.5-2c-1.7-0.4-3.4-0.6-5.1-0.6c-3.4,0-6.6,0.7-9.6,1.9c-3,1.3-5.7,3-8,5.3c-2.4,2.2-4.3,4.8-5.9,7.7
			c-1.5,2.9-2.6,6-3.1,9.3c-0.4,2.6-0.5,5.1-0.1,7.5c0.3,2.4,1,4.6,2,6.6c1,2,2.4,3.8,4,5.3c1.6,1.5,3.6,2.7,5.8,3.5
			c2.2,0.8,4.7,1.3,7.4,1.3c1.8,0,3.6-0.2,5.4-0.7c1.8-0.5,3.5-1.2,5.2-2.2c1.6-1,3-2.2,4.2-3.7h0.2l-0.8,5h16.1L157.3,72.3
			L157.3,72.3z M129.4,84.8c2.2,0,4,0.5,5.4,1.4c1.4,0.9,2.4,2.2,3,3.7c0.6,1.6,0.7,3.3,0.4,5.2c-0.3,1.9-1,3.7-2.1,5.2
			c-1.1,1.5-2.5,2.7-4.1,3.6c-1.7,0.9-3.6,1.3-5.8,1.4c-2.2,0-4-0.5-5.4-1.4c-1.4-0.9-2.4-2.1-2.9-3.6c-0.6-1.5-0.7-3.3-0.4-5.2
			c0.3-1.9,1-3.6,2-5.2c1-1.5,2.4-2.8,4.1-3.7C125.2,85.3,127.2,84.8,129.4,84.8L129.4,84.8z M184.1,72.3H168l-7.2,45.4h16.1
			l3.7-23.6c0.2-1.4,0.6-2.8,1-4c0.5-1.3,1.1-2.4,1.9-3.4c0.8-1,1.8-1.7,3-2.3c1.2-0.5,2.6-0.8,4.2-0.8c1.6,0,2.8,0.3,3.7,0.8
			c0.9,0.5,1.5,1.2,1.8,2.1c0.4,0.9,0.5,1.9,0.5,2.9c0,1-0.1,2.1-0.2,3.2c-0.1,1-0.3,2-0.4,2.9l-3.5,22.1h16.1l4.4-28.1
			c0.5-2.8,0.5-5.4,0.3-7.7c-0.3-2.3-1-4.3-2.1-6c-1.1-1.7-2.7-3-4.7-3.9c-2-0.9-4.5-1.4-7.6-1.4c-2.1,0-4,0.2-5.8,0.7
			c-1.8,0.5-3.5,1.2-5.1,2.3c-1.6,1.1-3.2,2.5-4.7,4.4h-0.2L184.1,72.3L184.1,72.3z M97.5,72.3H81.4l-0.7,4.8h-0.2
			c-0.8-1.5-1.9-2.7-3.1-3.6c-1.3-0.9-2.7-1.6-4.2-2c-1.6-0.4-3.2-0.6-5-0.6c-3.5,0-6.8,0.7-9.8,2c-3.1,1.3-5.8,3.1-8.2,5.3
			c-2.4,2.3-4.4,4.9-6,7.9c-1.6,3-2.6,6.1-3.2,9.4c-0.5,3.3-0.5,6.3,0.2,9.2c0.6,2.8,1.8,5.3,3.4,7.4c1.6,2.1,3.7,3.7,6.3,4.9
			c2.6,1.2,5.5,1.8,8.8,1.8c2,0,3.9-0.2,5.6-0.7c1.7-0.5,3.4-1.2,5-2.1c1.6-0.9,3.2-2.1,4.8-3.5l-0.4,2.1c-0.3,1.8-0.7,3.6-1.2,5.1
			c-0.5,1.6-1.3,3-2.2,4.1c-0.9,1.2-2.1,2.1-3.6,2.7c-1.5,0.7-3.3,1-5.4,1c-0.8,0-1.5-0.1-2.3-0.3c-0.8-0.2-1.5-0.4-2.2-0.8
			c-0.6-0.4-1.2-0.8-1.6-1.4c-0.4-0.6-0.7-1.3-0.9-2.1H37.3c-0.1,2.4,0.3,4.5,1.2,6.4c0.9,1.9,2.1,3.5,3.7,4.9
			c1.6,1.4,3.4,2.5,5.4,3.4c2,0.9,4.1,1.6,6.3,2c2.2,0.4,4.4,0.7,6.5,0.7c5.6,0,10.5-0.9,14.7-2.7c4.2-1.8,7.6-4.8,10.3-8.8
			c2.7-4,4.5-9.2,5.6-15.6L97.5,72.3L97.5,72.3z M69.7,84.5c2.2,0,4,0.5,5.4,1.4c1.4,0.9,2.4,2.2,2.9,3.7c0.6,1.5,0.7,3.3,0.4,5.2
			c-0.3,1.9-1,3.7-2,5.2c-1,1.5-2.4,2.7-4.1,3.6c-1.7,0.9-3.6,1.3-5.8,1.4c-2.2,0-4-0.5-5.4-1.4c-1.4-0.9-2.4-2.1-3-3.6
			c-0.6-1.5-0.7-3.3-0.4-5.2c0.3-1.9,1-3.6,2.1-5.2c1.1-1.5,2.5-2.8,4.1-3.7C65.5,85,67.5,84.5,69.7,84.5L69.7,84.5z M253.6,117.8
			h16.1l11.6-73.5h-16.1L260,76.8c-0.9-1.3-2.1-2.4-3.5-3.3c-1.4-0.9-2.9-1.5-4.5-2c-1.7-0.4-3.4-0.6-5.1-0.6
			c-3.4,0-6.6,0.7-9.6,1.9c-3,1.3-5.7,3-8,5.3c-2.4,2.2-4.3,4.8-5.9,7.7c-1.5,2.9-2.6,6-3.1,9.3c-0.4,2.6-0.5,5.1-0.1,7.5
			c0.3,2.4,1,4.6,2,6.6c1,2,2.4,3.8,4,5.3c1.6,1.5,3.6,2.7,5.8,3.5c2.2,0.8,4.7,1.3,7.4,1.3c1.8,0,3.6-0.2,5.4-0.7
			c1.8-0.5,3.5-1.2,5.2-2.2c1.6-1,3-2.2,4.2-3.7h0.2L253.6,117.8L253.6,117.8z M249,84.8c2.2,0,4,0.5,5.4,1.4c1.4,0.9,2.4,2.2,3,3.7
			c0.6,1.6,0.7,3.3,0.4,5.2c-0.3,1.9-1,3.7-2.1,5.2c-1.1,1.5-2.5,2.7-4.1,3.6c-1.7,0.9-3.6,1.3-5.8,1.4c-2.2,0-4-0.5-5.4-1.4
			c-1.4-0.9-2.4-2.1-2.9-3.6c-0.6-1.5-0.7-3.3-0.4-5.2c0.3-1.9,1-3.6,2-5.2c1-1.5,2.4-2.8,4.1-3.7C244.8,85.3,246.8,84.8,249,84.8
			L249,84.8z M291.4,44.3l-11.6,73.5h16.1l3.7-23.3c0.2-1.3,0.5-2.7,1-3.9c0.5-1.3,1.1-2.4,1.9-3.5c0.8-1,1.8-1.9,3-2.5
			c1.2-0.6,2.6-0.9,4.1-0.9c1.6,0,2.8,0.3,3.7,0.9c0.9,0.6,1.5,1.4,1.8,2.5c0.3,1,0.5,2.2,0.4,3.5c0,1.3-0.1,2.6-0.4,3.9l-3.7,23.3
			h16.1l4.4-27.8c0.6-3.9,0.5-7.2-0.3-10.1c-0.8-2.8-2.3-5.1-4.6-6.6c-2.3-1.6-5.3-2.4-9.2-2.4c-3.1,0-5.9,0.6-8.5,1.8
			c-2.5,1.2-4.9,3-7.2,5.5h-0.2l5.3-33.8H291.4L291.4,44.3z M361.6,72.3h-16.1l-7.2,45.4h16.1L361.6,72.3L361.6,72.3z M357.8,45.9
			c-1.7,0-3.3,0.4-4.8,1.2c-1.5,0.8-2.8,1.9-3.8,3.2c-1,1.4-1.7,2.9-2,4.5c-0.2,1.7,0,3.2,0.6,4.5c0.6,1.4,1.5,2.4,2.7,3.2
			c1.2,0.8,2.7,1.2,4.3,1.2c1.7,0,3.3-0.4,4.8-1.2c1.5-0.8,2.8-1.9,3.8-3.2c1-1.4,1.7-2.9,1.9-4.5c0.3-1.7,0.1-3.2-0.5-4.5
			c-0.6-1.4-1.5-2.4-2.7-3.2C360.9,46.3,359.5,45.9,357.8,45.9L357.8,45.9z M368.5,105.3c1.1,0,2.1,0.3,3.1,0.8
			c1,0.5,1.8,1.3,2.4,2.4c0.6,1,0.9,2.1,0.9,3.2c0,1.1-0.3,2.2-0.8,3.2c-0.6,1-1.4,1.8-2.4,2.4c-1,0.6-2.1,0.8-3.2,0.8
			c-1.1,0-2.2-0.3-3.2-0.8c-1-0.6-1.8-1.4-2.4-2.4c-0.6-1-0.8-2.1-0.8-3.2c0-1.1,0.3-2.2,0.9-3.2c0.6-1,1.4-1.8,2.4-2.4
			C366.3,105.6,367.4,105.3,368.5,105.3L368.5,105.3z M365.6,115.1v-6.8h1.4c1.3,0,2,0,2.2,0c0.5,0,0.8,0.1,1.1,0.3
			c0.3,0.1,0.5,0.4,0.6,0.6c0.2,0.3,0.3,0.6,0.3,1c0,0.5-0.2,0.9-0.5,1.3c-0.3,0.3-0.8,0.6-1.3,0.6c0.2,0.1,0.4,0.2,0.5,0.3
			c0.1,0.1,0.3,0.3,0.5,0.5c0.1,0.1,0.2,0.3,0.5,0.8l0.8,1.4h-1.7l-0.6-1.1c-0.4-0.7-0.7-1.2-0.9-1.4c-0.2-0.2-0.6-0.3-0.9-0.3H367
			v2.8H365.6L365.6,115.1z M367,111.2h0.6c0.8,0,1.3,0,1.5-0.1c0.2-0.1,0.3-0.2,0.5-0.3c0.1-0.2,0.2-0.3,0.2-0.5
			c0-0.2-0.1-0.4-0.2-0.5c-0.1-0.1-0.3-0.3-0.5-0.3c-0.2-0.1-0.7-0.1-1.5-0.1H367V111.2L367,111.2z M368.5,106.6
			c-0.9,0-1.7,0.2-2.5,0.7c-0.8,0.4-1.4,1.1-1.9,1.9c-0.5,0.8-0.7,1.7-0.7,2.6c0,0.9,0.2,1.7,0.7,2.6c0.5,0.8,1.1,1.4,1.9,1.9
			c0.8,0.5,1.7,0.7,2.5,0.7c0.9,0,1.7-0.2,2.6-0.7c0.8-0.5,1.4-1.1,1.9-1.9c0.5-0.8,0.7-1.7,0.7-2.6c0-0.9-0.2-1.8-0.7-2.6
			c-0.5-0.8-1.1-1.5-1.9-1.9C370.2,106.8,369.4,106.6,368.5,106.6L368.5,106.6z M305.8,134.1h2.5v2.5h-2.5V134.1L305.8,134.1z
			 M241.8,134.1h2.5v2.5h-2.5V134.1L241.8,134.1z M160.5,134.1h2.5v2.5h-2.5V134.1L160.5,134.1z M320,136.7l1.7,0.2
			c-0.2,1.2-0.7,2.1-1.5,2.8c-0.8,0.7-1.8,1-2.9,1c-1.4,0-2.6-0.5-3.5-1.4c-0.9-0.9-1.3-2.3-1.3-4c0-1.1,0.2-2.1,0.6-3
			c0.4-0.8,0.9-1.5,1.7-1.9c0.8-0.4,1.6-0.6,2.5-0.6c1.1,0,2.1,0.3,2.8,0.9c0.7,0.6,1.2,1.4,1.4,2.5l-1.7,0.3
			c-0.2-0.7-0.5-1.2-0.9-1.6c-0.4-0.4-0.9-0.5-1.5-0.5c-0.9,0-1.6,0.3-2.2,1c-0.6,0.6-0.8,1.7-0.8,3c0,1.4,0.3,2.4,0.8,3.1
			c0.5,0.6,1.2,1,2.1,1c0.7,0,1.3-0.2,1.7-0.6C319.6,138.3,319.9,137.6,320,136.7L320,136.7z M332.1,139.2c-0.7,0.6-1.3,1-1.9,1.2
			c-0.6,0.2-1.3,0.3-2,0.3c-1.2,0-2-0.3-2.7-0.8c-0.6-0.6-0.9-1.3-0.9-2.1c0-0.5,0.1-1,0.3-1.4c0.2-0.4,0.5-0.8,0.9-1
			c0.4-0.3,0.8-0.5,1.3-0.6c0.4-0.1,0.9-0.2,1.6-0.3c1.4-0.2,2.5-0.4,3.2-0.6c0-0.2,0-0.4,0-0.5c0-0.7-0.2-1.2-0.5-1.5
			c-0.5-0.4-1.1-0.6-2-0.6c-0.8,0-1.5,0.1-1.9,0.4c-0.4,0.3-0.7,0.8-0.9,1.6l-1.7-0.2c0.2-0.7,0.4-1.3,0.8-1.8
			c0.4-0.5,0.9-0.8,1.6-1.1c0.7-0.2,1.5-0.4,2.4-0.4c0.9,0,1.6,0.1,2.2,0.3c0.6,0.2,1,0.5,1.2,0.8c0.3,0.3,0.4,0.7,0.6,1.2
			c0.1,0.3,0.1,0.8,0.1,1.6v2.4c0,1.6,0,2.7,0.1,3.1c0.1,0.4,0.2,0.9,0.4,1.3h-1.9C332.2,140.2,332.1,139.7,332.1,139.2L332.1,139.2
			z M331.9,135.3c-0.6,0.3-1.6,0.5-2.9,0.7c-0.7,0.1-1.3,0.2-1.6,0.4c-0.3,0.1-0.5,0.3-0.7,0.6c-0.2,0.3-0.3,0.5-0.3,0.8
			c0,0.5,0.2,0.9,0.5,1.2c0.4,0.3,0.9,0.5,1.6,0.5c0.7,0,1.3-0.1,1.8-0.4c0.5-0.3,0.9-0.7,1.2-1.2c0.2-0.4,0.3-1,0.3-1.8
			L331.9,135.3L331.9,135.3z M338.8,140.5v-9.1h-1.6v-1.4h1.6V129c0-0.7,0.1-1.2,0.2-1.6c0.2-0.5,0.5-0.8,0.9-1.1
			c0.4-0.3,1-0.4,1.8-0.4c0.5,0,1.1,0.1,1.7,0.2l-0.3,1.6c-0.4-0.1-0.7-0.1-1-0.1c-0.5,0-0.9,0.1-1.1,0.3c-0.2,0.2-0.3,0.7-0.3,1.3
			v1h2v1.4h-2v9.1H338.8L338.8,140.5z M353.1,137.2l1.8,0.2c-0.3,1.1-0.8,1.9-1.6,2.5c-0.8,0.6-1.8,0.9-3,0.9
			c-1.5,0-2.7-0.5-3.6-1.4c-0.9-0.9-1.3-2.3-1.3-4c0-1.8,0.5-3.1,1.4-4.1c0.9-1,2.1-1.5,3.5-1.5c1.4,0,2.5,0.5,3.4,1.4
			c0.9,1,1.3,2.3,1.3,4c0,0.1,0,0.3,0,0.5h-7.8c0.1,1.1,0.4,2,1,2.6c0.6,0.6,1.3,0.9,2.2,0.9c0.6,0,1.2-0.2,1.7-0.5
			C352.5,138.5,352.9,137.9,353.1,137.2L353.1,137.2z M347.3,134.3h5.8c-0.1-0.9-0.3-1.5-0.7-2c-0.6-0.7-1.3-1-2.2-1
			c-0.8,0-1.5,0.3-2.1,0.8C347.7,132.7,347.4,133.4,347.3,134.3L347.3,134.3z M348.8,128.8l1.3-2.8h2.3l-2.2,2.8H348.8L348.8,128.8z
			 M252.2,140.5l-4-10.5h1.9l2.2,6.3c0.2,0.7,0.5,1.4,0.7,2.1c0.2-0.6,0.4-1.2,0.7-2l2.3-6.4h1.8l-4,10.5H252.2L252.2,140.5z
			 M260.9,128.1v-2h1.8v2H260.9L260.9,128.1z M260.9,140.5v-10.5h1.8v10.5H260.9L260.9,140.5z M273.6,140.5v-1.3
			c-0.7,1-1.6,1.6-2.9,1.6c-0.8,0-1.6-0.2-2.3-0.7c-0.7-0.5-1.2-1.1-1.6-1.9c-0.4-0.8-0.6-1.8-0.6-2.8c0-1,0.2-2,0.5-2.8
			c0.3-0.8,0.9-1.5,1.6-2c0.7-0.5,1.5-0.7,2.3-0.7c0.6,0,1.2,0.1,1.7,0.4c0.5,0.3,0.9,0.6,1.2,1v-5.2h1.8v14.5H273.6L273.6,140.5z
			 M267.9,135.3c0,1.3,0.3,2.3,0.9,3c0.6,0.7,1.2,1,2,1c0.8,0,1.4-0.3,2-0.9c0.5-0.6,0.8-1.6,0.8-2.9c0-1.4-0.3-2.5-0.8-3.1
			c-0.6-0.7-1.2-1-2-1c-0.8,0-1.5,0.3-2,1C268.2,132.9,267.9,133.9,267.9,135.3L267.9,135.3z M286.6,137.2l1.8,0.2
			c-0.3,1.1-0.8,1.9-1.6,2.5c-0.8,0.6-1.8,0.9-3,0.9c-1.5,0-2.7-0.5-3.6-1.4c-0.9-0.9-1.3-2.3-1.3-4c0-1.8,0.5-3.1,1.4-4.1
			c0.9-1,2.1-1.5,3.5-1.5c1.4,0,2.5,0.5,3.4,1.4c0.9,1,1.3,2.3,1.3,4c0,0.1,0,0.3,0,0.5h-7.8c0.1,1.1,0.4,2,1,2.6
			c0.6,0.6,1.3,0.9,2.2,0.9c0.7,0,1.2-0.2,1.7-0.5C286,138.5,286.4,137.9,286.6,137.2L286.6,137.2z M280.8,134.3h5.8
			c-0.1-0.9-0.3-1.5-0.7-2c-0.6-0.7-1.3-1-2.2-1c-0.8,0-1.5,0.3-2.1,0.8C281.2,132.7,280.9,133.4,280.8,134.3L280.8,134.3z
			 M291.5,135.3c0-1.9,0.5-3.4,1.6-4.3c0.9-0.8,2-1.2,3.3-1.2c1.4,0,2.6,0.5,3.5,1.4c0.9,0.9,1.4,2.2,1.4,3.9c0,1.3-0.2,2.4-0.6,3.2
			c-0.4,0.8-1,1.4-1.8,1.8c-0.8,0.4-1.6,0.6-2.5,0.6c-1.5,0-2.7-0.5-3.6-1.4C291.9,138.4,291.5,137.1,291.5,135.3L291.5,135.3z
			 M293.3,135.3c0,1.3,0.3,2.3,0.9,3c0.6,0.7,1.3,1,2.2,1c0.9,0,1.6-0.3,2.2-1c0.6-0.7,0.9-1.7,0.9-3.1c0-1.3-0.3-2.3-0.9-2.9
			c-0.6-0.7-1.3-1-2.2-1c-0.9,0-1.6,0.3-2.2,1C293.6,133,293.3,134,293.3,135.3L293.3,135.3z M168.7,140.5v-10.5h1.6v1.5
			c0.3-0.5,0.8-0.9,1.3-1.2c0.5-0.3,1.2-0.5,1.9-0.5c0.8,0,1.4,0.2,1.9,0.5c0.5,0.3,0.8,0.8,1,1.3c0.8-1.2,1.9-1.8,3.2-1.8
			c1,0,1.8,0.3,2.4,0.9c0.6,0.6,0.8,1.5,0.8,2.7v7.2h-1.8v-6.6c0-0.7-0.1-1.2-0.2-1.5c-0.1-0.3-0.3-0.6-0.6-0.8
			c-0.3-0.2-0.7-0.3-1.1-0.3c-0.7,0-1.4,0.2-1.8,0.7c-0.5,0.5-0.7,1.3-0.7,2.4v6.1H175v-6.8c0-0.8-0.1-1.4-0.4-1.8
			c-0.3-0.4-0.8-0.6-1.4-0.6c-0.5,0-1,0.1-1.4,0.4c-0.4,0.3-0.7,0.6-0.9,1.2c-0.2,0.5-0.3,1.2-0.3,2.2v5.4H168.7L168.7,140.5z
			 M193.9,140.5V139c-0.8,1.2-1.9,1.8-3.3,1.8c-0.6,0-1.2-0.1-1.7-0.4c-0.5-0.2-0.9-0.5-1.2-0.9c-0.3-0.4-0.4-0.8-0.5-1.3
			c-0.1-0.3-0.1-0.9-0.1-1.7v-6.5h1.8v5.8c0,0.9,0,1.6,0.1,1.9c0.1,0.5,0.3,0.8,0.7,1.1c0.4,0.3,0.8,0.4,1.3,0.4
			c0.5,0,1-0.1,1.5-0.4c0.5-0.3,0.8-0.6,1-1.1c0.2-0.5,0.3-1.2,0.3-2v-5.6h1.8v10.5H193.9L193.9,140.5z M190,128.8l1.3-2.8h2.3
			l-2.2,2.8H190L190,128.8z M199,137.4l1.8-0.3c0.1,0.7,0.4,1.2,0.8,1.6c0.5,0.4,1.1,0.6,1.9,0.6c0.8,0,1.4-0.2,1.8-0.5
			c0.4-0.3,0.6-0.7,0.6-1.2c0-0.4-0.2-0.7-0.5-0.9c-0.2-0.2-0.9-0.4-1.8-0.6c-1.3-0.3-2.2-0.6-2.7-0.8c-0.5-0.2-0.9-0.6-1.1-1
			c-0.3-0.4-0.4-0.9-0.4-1.4c0-0.5,0.1-0.9,0.3-1.3c0.2-0.4,0.5-0.7,0.9-1c0.3-0.2,0.7-0.4,1.1-0.5c0.5-0.1,1-0.2,1.5-0.2
			c0.8,0,1.5,0.1,2.2,0.4c0.6,0.2,1.1,0.6,1.4,1c0.3,0.4,0.5,0.9,0.6,1.6l-1.7,0.2c-0.1-0.5-0.3-1-0.7-1.3c-0.4-0.3-0.9-0.5-1.6-0.5
			c-0.8,0-1.4,0.1-1.7,0.4c-0.3,0.3-0.5,0.6-0.5,0.9c0,0.2,0.1,0.4,0.2,0.6c0.1,0.2,0.4,0.3,0.7,0.5c0.2,0.1,0.7,0.2,1.6,0.5
			c1.3,0.3,2.1,0.6,2.6,0.8c0.5,0.2,0.9,0.5,1.2,0.9c0.3,0.4,0.4,0.9,0.4,1.5c0,0.6-0.2,1.1-0.5,1.7c-0.3,0.5-0.8,0.9-1.5,1.2
			c-0.7,0.3-1.4,0.4-2.2,0.4c-1.4,0-2.4-0.3-3.1-0.8C199.7,139.4,199.2,138.5,199,137.4L199,137.4z M211.3,128.1v-2h1.8v2H211.3
			L211.3,128.1z M211.3,140.5v-10.5h1.8v10.5H211.3L211.3,140.5z M224.1,136.7l1.7,0.2c-0.2,1.2-0.7,2.1-1.5,2.8
			c-0.8,0.7-1.8,1-2.9,1c-1.4,0-2.6-0.5-3.5-1.4c-0.9-0.9-1.3-2.3-1.3-4c0-1.1,0.2-2.1,0.6-3c0.4-0.8,0.9-1.5,1.7-1.9
			c0.8-0.4,1.6-0.6,2.5-0.6c1.1,0,2.1,0.3,2.8,0.9c0.7,0.6,1.2,1.4,1.4,2.5l-1.7,0.3c-0.2-0.7-0.5-1.2-0.9-1.6
			c-0.4-0.4-0.9-0.5-1.5-0.5c-0.9,0-1.6,0.3-2.2,1c-0.6,0.6-0.8,1.7-0.8,3c0,1.4,0.3,2.4,0.8,3.1c0.5,0.6,1.2,1,2.1,1
			c0.7,0,1.3-0.2,1.7-0.6C223.7,138.3,224,137.6,224.1,136.7L224.1,136.7z M235.7,139.2c-0.7,0.6-1.3,1-1.9,1.2
			c-0.6,0.2-1.3,0.3-2,0.3c-1.2,0-2-0.3-2.7-0.8c-0.6-0.6-0.9-1.3-0.9-2.1c0-0.5,0.1-1,0.3-1.4c0.2-0.4,0.5-0.8,0.9-1
			c0.4-0.3,0.8-0.5,1.3-0.6c0.4-0.1,0.9-0.2,1.6-0.3c1.4-0.2,2.5-0.4,3.2-0.6c0-0.2,0-0.4,0-0.5c0-0.7-0.2-1.2-0.5-1.5
			c-0.5-0.4-1.1-0.6-2-0.6c-0.8,0-1.5,0.1-1.9,0.4c-0.4,0.3-0.7,0.8-0.9,1.6l-1.7-0.2c0.2-0.7,0.4-1.3,0.8-1.8
			c0.4-0.5,0.9-0.8,1.6-1.1c0.7-0.2,1.5-0.4,2.4-0.4c0.9,0,1.6,0.1,2.2,0.3c0.6,0.2,1,0.5,1.2,0.8c0.3,0.3,0.4,0.7,0.6,1.2
			c0.1,0.3,0.1,0.8,0.1,1.6v2.4c0,1.6,0,2.7,0.1,3.1c0.1,0.4,0.2,0.9,0.4,1.3H236C235.9,140.2,235.7,139.7,235.7,139.2L235.7,139.2z
			 M235.5,135.3c-0.6,0.3-1.6,0.5-2.9,0.7c-0.7,0.1-1.3,0.2-1.6,0.4c-0.3,0.1-0.5,0.3-0.7,0.6c-0.2,0.3-0.2,0.5-0.2,0.8
			c0,0.5,0.2,0.9,0.5,1.2c0.4,0.3,0.9,0.5,1.6,0.5c0.7,0,1.3-0.1,1.8-0.4c0.5-0.3,0.9-0.7,1.2-1.2c0.2-0.4,0.3-1,0.3-1.8
			L235.5,135.3L235.5,135.3z M108.5,128.1v-2h1.8v2H108.5L108.5,128.1z M108.5,140.5v-10.5h1.8v10.5H108.5L108.5,140.5z
			 M115.9,140.5h-1.7v-14.5h1.8v5.2c0.8-0.9,1.7-1.4,2.9-1.4c0.6,0,1.3,0.1,1.8,0.4c0.6,0.3,1,0.6,1.4,1.1c0.4,0.5,0.7,1,0.9,1.7
			c0.2,0.7,0.3,1.4,0.3,2.1c0,1.8-0.4,3.2-1.3,4.2c-0.9,1-2,1.5-3.2,1.5c-1.2,0-2.2-0.5-2.9-1.5V140.5L115.9,140.5z M115.9,135.2
			c0,1.3,0.2,2.2,0.5,2.7c0.6,0.9,1.3,1.4,2.3,1.4c0.8,0,1.4-0.3,2-1c0.6-0.7,0.8-1.7,0.8-3c0-1.4-0.3-2.4-0.8-3c-0.5-0.7-1.2-1-2-1
			c-0.8,0-1.4,0.3-2,1C116.2,133,115.9,134,115.9,135.2L115.9,135.2z M126.9,140.5v-10.5h1.6v1.6c0.4-0.7,0.8-1.2,1.1-1.5
			c0.3-0.2,0.7-0.4,1.1-0.4c0.6,0,1.2,0.2,1.8,0.6l-0.6,1.6c-0.4-0.2-0.9-0.4-1.3-0.4c-0.4,0-0.7,0.1-1,0.4c-0.3,0.2-0.5,0.6-0.7,1
			c-0.2,0.6-0.3,1.3-0.3,2.1v5.5H126.9L126.9,140.5z M134.3,135.3c0-1.9,0.5-3.4,1.6-4.3c0.9-0.8,2-1.2,3.3-1.2
			c1.4,0,2.6,0.5,3.5,1.4c0.9,0.9,1.4,2.2,1.4,3.9c0,1.3-0.2,2.4-0.6,3.2c-0.4,0.8-1,1.4-1.8,1.8c-0.8,0.4-1.6,0.6-2.5,0.6
			c-1.5,0-2.7-0.5-3.6-1.4C134.7,138.4,134.3,137.1,134.3,135.3L134.3,135.3z M136.1,135.3c0,1.3,0.3,2.3,0.9,3c0.6,0.7,1.3,1,2.2,1
			c0.9,0,1.6-0.3,2.2-1c0.6-0.7,0.9-1.7,0.9-3.1c0-1.3-0.3-2.3-0.9-2.9c-0.6-0.7-1.3-1-2.2-1c-0.9,0-1.6,0.3-2.2,1
			C136.4,133,136.1,134,136.1,135.3L136.1,135.3z M146.8,137.4l1.8-0.3c0.1,0.7,0.4,1.2,0.8,1.6c0.5,0.4,1.1,0.6,1.9,0.6
			c0.8,0,1.4-0.2,1.8-0.5c0.4-0.3,0.6-0.7,0.6-1.2c0-0.4-0.2-0.7-0.5-0.9c-0.2-0.2-0.9-0.4-1.8-0.6c-1.3-0.3-2.2-0.6-2.7-0.8
			c-0.5-0.2-0.9-0.6-1.1-1c-0.3-0.4-0.4-0.9-0.4-1.4c0-0.5,0.1-0.9,0.3-1.3c0.2-0.4,0.5-0.7,0.9-1c0.3-0.2,0.7-0.4,1.1-0.5
			c0.5-0.1,1-0.2,1.5-0.2c0.8,0,1.5,0.1,2.2,0.4c0.6,0.2,1.1,0.6,1.4,1c0.3,0.4,0.5,0.9,0.6,1.6l-1.7,0.2c-0.1-0.5-0.3-1-0.7-1.3
			c-0.4-0.3-0.9-0.5-1.6-0.5c-0.8,0-1.4,0.1-1.7,0.4c-0.3,0.3-0.5,0.6-0.5,0.9c0,0.2,0.1,0.4,0.2,0.6c0.1,0.2,0.4,0.3,0.7,0.5
			c0.2,0.1,0.7,0.2,1.6,0.5c1.3,0.3,2.1,0.6,2.6,0.8c0.5,0.2,0.9,0.5,1.2,0.9c0.3,0.4,0.4,0.9,0.4,1.5c0,0.6-0.2,1.1-0.5,1.7
			c-0.3,0.5-0.8,0.9-1.5,1.2c-0.7,0.3-1.4,0.4-2.2,0.4c-1.4,0-2.4-0.3-3.1-0.8C147.5,139.4,147,138.5,146.8,137.4L146.8,137.4z"/>
	</g>
</g>
</svg>
