<?xml version="1.0" encoding="utf-8"?>
<!-- Generator: Adobe Illustrator 22.0.1, SVG Export Plug-In . SVG Version: 6.00 Build 0)  -->
<svg version="1.1" id="Capa_1" xmlns="http://www.w3.org/2000/svg" xmlns:xlink="http://www.w3.org/1999/xlink" x="0px" y="0px"
	 viewBox="0 0 512 243.3" style="enable-background:new 0 0 512 243.3;" xml:space="preserve">
<style type="text/css">
	.st0{fill:#FBFBFB;}
	.st1{display:none;}
	.st2{display:inline;}
	.st3{fill:#FFFFFF;}
	.st4{display:inline;fill:url(#SVGID_1_);}
	.st5{display:inline;fill:url(#SVGID_2_);}
	.st6{display:inline;fill:#FFFFFF;}
	.st7{fill:#222221;stroke:#222221;stroke-width:2.126;stroke-miterlimit:10;}
	.st8{fill:url(#SVGID_3_);}
	.st9{fill:url(#SVGID_4_);}
</style>
<g>
	<g>
		<path class="st0" d="M481.9,0H30.1C13.5,0,0,13.5,0,30.1v183c0,16.6,13.5,30.1,30.1,30.1h451.8c16.6,0,30.1-13.5,30.1-30.1v-183
			C512,13.5,498.5,0,481.9,0z"/>
		<g class="st1">
			<g class="st2">
				<path class="st3" d="M183,91.8c-0.1-3.1,2.3-5.7,5.4-5.8c0.1,0,0.2,0,0.2,0c3.2,0,5.8,2.6,5.8,5.8l0,0c0,3.1-2.5,5.7-5.7,5.7
					h-0.1c-3,0.1-5.6-2.3-5.7-5.3C183,92,183,91.9,183,91.8z M183.9,108.4l9.7-0.4v52.9h-9.7V108.4z"/>
				<path class="st3" d="M209.2,160.4V87.8c5.4-0.5,12.2-1,19.1-1c15.5,0,25,5.7,25,18.5c0,7.4-4.8,14-11.9,16.3v0.1
					c7.2,1.9,14.5,8.2,14.5,18.2c0,16.2-12.4,20.9-32.1,20.9C217.7,160.9,212.8,160.5,209.2,160.4z M228.7,118.5
					c9.1,0,14.7-4.6,14.7-12.2c0-8-5.4-11.6-14.4-11.6c-4.4,0-7.6,0.2-10.2,0.3v23.6L228.7,118.5z M245.6,139.5
					c0-8.9-7-13.5-16.4-13.5h-10.4v26.9c2,0.1,4.6,0.2,7.5,0.2C236.8,153.2,245.6,150.6,245.6,139.5L245.6,139.5z"/>
				<path class="st3" d="M264.8,133.9c0-18.6,11.3-27.6,25-27.6s24.9,9.1,24.9,27.6c0,17.9-11.2,27.2-24.9,27.2
					C276,160.9,264.8,151.9,264.8,133.9z M304.9,133.6c0-11.5-4.9-20-15.1-20s-15.1,8.5-15.1,20s4.8,19.9,15.1,19.9
					S304.9,145.1,304.9,133.6L304.9,133.6z"/>
				<path class="st3" d="M323.3,133.9c0-18.6,11.3-27.6,25-27.6s24.9,9.1,24.9,27.6c0,17.9-11.2,27.2-24.9,27.2
					S323.3,151.9,323.3,133.9z M363.4,133.6c0-11.5-4.9-20-15.1-20s-15.1,8.5-15.1,20s4.8,19.9,15.1,19.9S363.5,145.1,363.4,133.6
					L363.4,133.6z"/>
				<path class="st3" d="M385.1,82.8l9.6-0.4v49.1l21.6-23.1h10.8l-19.5,22.5l21.7,29.9h-11.8l-17-24.9l-5.7,5.7v19.2h-9.6
					L385.1,82.8z"/>
				<path class="st3" d="M438.7,157.6l1.5-7.4c4.5,2,9.3,3.2,14.2,3.4c6.6,0,10.2-3,10.2-7.6c0-11.5-24.8-8.8-24.8-24.7
					c0-9.3,7.5-15.3,18.4-15.3c4.8,0,9.6,1,14,3l-1.6,7.3c-3.9-1.9-8.1-2.9-12.5-3c-5.6,0-8.9,2.7-8.9,6.9
					c0,10.4,24.8,7.5,24.8,24.8c0,10.1-8,15.8-19.9,15.8C448.8,160.9,443.5,159.9,438.7,157.6z"/>
			</g>
			
				<linearGradient id="SVGID_1_" gradientUnits="userSpaceOnUse" x1="91" y1="-68.9243" x2="91" y2="35.1444" gradientTransform="matrix(1 0 0 1 0 138.586)">
				<stop  offset="0" style="stop-color:#EABB2C"/>
				<stop  offset="1" style="stop-color:#CA4F22"/>
			</linearGradient>
			<path class="st4" d="M144,121.6c0,29.3-23.7,53-53,53s-53-23.7-53-53s23.7-53,53-53S144,92.4,144,121.6L144,121.6z"/>
			
				<linearGradient id="SVGID_2_" gradientUnits="userSpaceOnUse" x1="91" y1="155.5835" x2="91" y2="96.4986" gradientTransform="matrix(1 0 0 -1 0 248)">
				<stop  offset="0" style="stop-color:#EDEDED"/>
				<stop  offset="1" style="stop-color:#CFCFCC"/>
			</linearGradient>
			<path class="st5" d="M89.7,103.7c0-2.3-2.1-5.4-3.9-7.2c-2.9-2.8-6.7-4.4-11.6-4.9c-5-0.5-11.3,1.1-15.6,3.9
				c-2.4,1.6-3.3,2.8-3.6,4.7c-0.1,0.5-0.1,9.5-0.1,22.3c0,12.1,0.1,18.4,0.1,21.3c0,0.9,1,1.4,1.7,0.9c0.5-0.4,6.1-3.9,9.1-4.5
				c2.2-0.6,4.1-0.8,6.4-0.8c5.6,0,10.3,1.9,13.8,5.7c2.3,2.4,3.7,6.6,3.7,6.6S89.7,110.8,89.7,103.7z M92.3,151.9
				c0,0,1.4-4.2,3.7-6.6c3.6-3.7,8.3-5.7,13.8-5.7c2.3,0,4.2,0.2,6.4,0.8c3.1,0.6,8.6,4.2,9.1,4.5c0.7,0.5,1.7,0,1.7-0.9
				c0-2.9,0.1-9.2,0.1-21.3c0-12.8,0-21.8-0.1-22.3c-0.3-1.9-1.2-3.1-3.6-4.7c-4.3-2.9-10.6-4.4-15.6-3.9c-4.8,0.5-8.7,2.1-11.6,4.9
				c-1.8,1.7-3.9,4.9-3.9,7.2C92.3,110.8,92.3,151.9,92.3,151.9z"/>
		</g>
	</g>
	<g id="Capa_1-2">
		<g class="st1">
			<path class="st6" d="M108.1,77.6H46.2c-10.4,0-18.9,8.5-18.9,18.9V159c0,10.4,8.5,18.9,18.9,18.9l0,0h61.9
				c10.4,0,18.9-8.5,18.9-18.9l0,0V96.5C127,86.1,118.6,77.6,108.1,77.6L108.1,77.6z M123.3,159.5c0,8.1-6.6,14.7-14.7,14.7H45.7
				c-8.1,0-14.7-6.6-14.7-14.7V96.1c0-8.1,6.6-14.7,14.7-14.7h62.9c8.1,0,14.7,6.6,14.7,14.7l0,0V159.5z"/>
			<path class="st6" d="M76.7,151v-42.9c-6.1-6.5-15.4-8.8-26.4-9v43.4C58.6,142.4,67.2,143.1,76.7,151z"/>
			<path class="st6" d="M104.1,142.6V99.1c-11,0.2-20.3,2.5-26.4,9V151C87.1,143.1,95.7,142.4,104.1,142.6z"/>
			<path class="st6" d="M77.2,154c0,0,9.8-8,30.5-8l0.4-42.4h-2.5V144c0,0-16.4-0.9-28.4,9c-12-9.8-28.4-9-28.4-9v-40.4h-2.5
				l0.4,42.4C67.4,146,77.2,154,77.2,154z"/>
			<path class="st6" d="M109.5,109.1l0.1,39.4c-24.6,0-32.5,6.1-32.5,6.1l0,0c0,0-7.9-6.1-32.5-6.1l0.1-39.4h-2v41.4
				c0,0,25.3,0,32.4,5.5h4c7.2-5.5,32.4-5.5,32.4-5.5v-41.4H109.5z"/>
		</g>
		<g>
			<path class="st7" d="M152.1,106.1c-0.1-2.2,1.7-4.1,3.9-4.1c0.1,0,0.1,0,0.2,0c2.3,0,4.1,1.8,4.1,4.1l0,0c0,2.2-1.8,4-4,4h-0.1
				c-2.2,0.1-4-1.6-4-3.8C152.1,106.3,152.1,106.2,152.1,106.1z M152.7,118l6.9-0.3v37.6h-6.9V118z"/>
			<path class="st7" d="M170.7,155.2v-51.6c3.8-0.4,8.7-0.7,13.6-0.7c11,0,17.8,4,17.8,13.1c0,5.3-3.4,10-8.5,11.6v0.1
				c5.1,1.4,10.3,5.8,10.3,13c0,11.5-8.8,14.9-22.8,14.9C176.8,155.6,173.3,155.4,170.7,155.2z M184.6,125.4
				c6.4,0,10.5-3.3,10.5-8.7c0-5.7-3.8-8.3-10.2-8.3c-3.1,0-5.4,0.1-7.2,0.2v16.8L184.6,125.4z M196.6,140.4c0-6.3-5-9.6-11.7-9.6
				h-7.4V150c1.4,0.1,3.3,0.2,5.3,0.2C190.3,150.1,196.6,148.4,196.6,140.4L196.6,140.4z"/>
			<path class="st7" d="M210.2,136.8c0-13.2,8-19.6,17.8-19.6s17.7,6.4,17.7,19.6c0,12.7-7.9,19.3-17.7,19.3
				C218.3,156,210.2,149.6,210.2,136.8z M238.7,136.8c0-8.2-3.5-14.2-10.8-14.2s-10.8,6-10.8,14.2c0,8.2,3.4,14.1,10.8,14.1
				S238.8,144.9,238.7,136.8L238.7,136.8z"/>
			<path class="st7" d="M251.9,136.8c0-13.2,8-19.6,17.8-19.6s17.7,6.4,17.7,19.6c0,12.7-7.9,19.3-17.7,19.3
				S251.9,149.6,251.9,136.8z M280.4,136.8c0-8.2-3.5-14.2-10.8-14.2s-10.8,6-10.8,14.2c0,8.2,3.4,14.1,10.8,14.1
				S280.4,144.9,280.4,136.8L280.4,136.8z"/>
			<path class="st7" d="M295.8,99.5h6.8v34.4l14.7-15.9h8.3l-14.1,15.8l14.6,21.5h-6.8l-12.7-18.2l-4,4.2v14h-6.9V99.5H295.8z"/>
			<path class="st7" d="M330.5,153.8l1.1-5.3c3.2,1.4,6.6,2.3,10.1,2.4c4.7,0,7.3-2.1,7.3-5.4c0-8.2-17.6-6.3-17.6-17.6
				c0-6.6,5.3-10.8,13-10.8c3.4,0,6.8,0.7,9.9,2.1l-1.1,5.2c-2.8-1.3-5.8-2-8.8-2.1c-4,0-6.3,1.9-6.3,4.9c0,7.4,17.6,5.3,17.6,17.6
				c0,7.2-5.6,11.2-14.1,11.2C337.6,156.1,333.9,155.4,330.5,153.8z"/>
			<path class="st7" d="M365.8,143.9V123h-5.4l0.4-4.8l5.2-0.3l0.6-8.5l6-1.4v9.8h9.5l-0.3,5.1h-9.2v20c0,6.1,2.4,7.3,5.3,7.3
				c1.4,0,2.8-0.2,4.1-0.5l0.2,5.2c-2.3,0.7-4.7,1.1-7.1,1.1C368.5,156,365.8,152.1,365.8,143.9z"/>
			<path class="st7" d="M387.7,136.8c0-13.2,8-19.6,17.8-19.6s17.7,6.4,17.7,19.6c0,12.7-7.9,19.3-17.7,19.3
				S387.7,149.6,387.7,136.8z M416.2,136.8c0-8.2-3.5-14.2-10.8-14.2s-10.8,6-10.8,14.2c0,8.2,3.4,14.1,10.8,14.1
				C412.8,150.9,416.2,144.9,416.2,136.8z"/>
			<path class="st7" d="M431.7,129.6c0-4.3-0.1-8.1-0.2-11.7l6.1-0.3l0.4,6.6h0.1c2.6-4.4,6.7-7.5,12.4-7v6.4c-5.2-0.8-9.4,1-12,6.3
				v25.3h-6.8V129.6z"/>
			<path class="st7" d="M455.1,137.2c0-11.8,6.4-20.1,17.4-20.1c11.5,0,16.1,9.9,14.3,20.6h-24.9c0.1,8.9,4.9,13,12.1,13
				c3.7,0,7.3-0.7,10.7-2.1l0.8,5.1c-4,1.6-8.3,2.4-12.6,2.3C461.4,156,455.1,148.6,455.1,137.2z M480.6,132.9
				c0.1-0.4,0.1-0.8,0.1-1.2c0-4.3-2.1-9.3-8.7-9.3c-6.2,0-9.3,5.1-9.9,10.5H480.6z"/>
		</g>
		<g>
			
				<linearGradient id="SVGID_3_" gradientUnits="userSpaceOnUse" x1="77.2" y1="-60.4822" x2="77.2" y2="37.7751" gradientTransform="matrix(1 0 0 1 0 138.586)">
				<stop  offset="0" style="stop-color:#EABB2C"/>
				<stop  offset="1" style="stop-color:#CA4F22"/>
			</linearGradient>
			<path class="st8" d="M127.2,127.2c0,27.7-22.4,50-50,50s-50-22.4-50-50s22.4-50,50-50S127.2,99.6,127.2,127.2L127.2,127.2z"/>
			
				<linearGradient id="SVGID_4_" gradientUnits="userSpaceOnUse" x1="77.15" y1="148.412" x2="77.15" y2="92.6266" gradientTransform="matrix(1 0 0 -1 0 248)">
				<stop  offset="0" style="stop-color:#EDEDED"/>
				<stop  offset="1" style="stop-color:#CFCFCC"/>
			</linearGradient>
			<path class="st9" d="M76,110.3c0-2.2-2-5.1-3.7-6.8c-2.7-2.6-6.3-4.2-11-4.6c-4.7-0.5-10.7,1-14.7,3.7c-2.3,1.5-3.1,2.6-3.4,4.4
				c-0.1,0.5-0.1,9-0.1,21.1c0,11.4,0.1,17.4,0.1,20.1c0,0.8,0.9,1.3,1.6,0.8c0.5-0.4,5.8-3.7,8.6-4.2c2.1-0.6,3.9-0.8,6-0.8
				c5.3,0,9.7,1.8,13,5.4c2.2,2.3,3.5,6.2,3.5,6.2S76,117,76,110.3z M78.4,155.6c0,0,1.3-4,3.5-6.2c3.4-3.5,7.8-5.4,13-5.4
				c2.2,0,4,0.2,6,0.8c2.9,0.6,8.1,4,8.6,4.2c0.7,0.5,1.6,0,1.6-0.8c0-2.7,0.1-8.7,0.1-20.1c0-12.1,0-20.6-0.1-21.1
				c-0.3-1.8-1.1-2.9-3.4-4.4c-4.1-2.7-10-4.2-14.7-3.7c-4.5,0.5-8.2,2-11,4.6c-1.7,1.6-3.7,4.6-3.7,6.8
				C78.4,117,78.4,155.6,78.4,155.6z"/>
		</g>
	</g>
</g>
</svg>
