<?xml version="1.0" encoding="utf-8"?>
<!-- Generator: Adobe Illustrator 22.0.1, SVG Export Plug-In . SVG Version: 6.00 Build 0)  -->
<svg version="1.1" id="Capa_1" xmlns="http://www.w3.org/2000/svg" xmlns:xlink="http://www.w3.org/1999/xlink" x="0px" y="0px"
	 viewBox="0 0 512 397.6" style="enable-background:new 0 0 512 397.6;" xml:space="preserve">
<style type="text/css">
	.st0{fill:#DBE2E9;}
</style>
<g>
	<path class="st0" d="M471.8,103.9c11.8,0,20.8-7.2,23.2-18.7c2-9.3,0.1-17.9-5.4-25.6c-3-4.2-6.7-8-10.3-11.7
		c-4.6-4.6-9.2-9.1-12.6-14.7c-2.3-3.7-3.9-7.5-3.2-11.9c0.7-4,3.4-6.7,7.3-7c4.1-0.3,6.5,1.9,7.9,5.6c0.8,2.3-0.3,5.9,2,6.7
		c2.2,0.8,5.2-0.5,7.8-0.9c1.4-0.2,2.8-0.4,4.2-0.5c1.6-0.1,2-0.8,1.9-2.5c-0.8-11.8-9.5-21.6-20.2-22.7c-12-1.2-22.9,6.4-25.7,18.4
		c-2,8.8-0.4,17,4.9,24.4c4,5.6,8.8,10.6,13.6,15.5c3.8,3.8,7.4,7.7,10.2,12.3c1.6,2.6,3,5.4,3.1,8.6c0.1,5.2-2.5,9-7.1,10
		c-4.9,1.1-8.8-1.4-10.9-6.4c-1.1-2.7,0.1-7-2.4-8c-2.5-1-6,0.6-9,1.1c-0.7,0.1-1.4,0.2-2.1,0.3c-1.8,0.2-2.7,0.9-2.5,3
		C448,93.1,456.1,104,471.8,103.9z"/>
	<path class="st0" d="M180.7,86.2c2.1-9.2,0.6-17.9-4.7-25.7c-3-4.4-6.7-8.3-10.5-12.1c-4.6-4.7-9.4-9.3-12.9-15
		c-2.3-3.7-3.9-7.5-3.2-11.9c0.6-4,3.4-6.7,7.2-7c4-0.3,6.7,1.8,8.1,5.9c0.7,2.2-0.3,5.5,1.9,6.3c1.9,0.8,4.6-0.4,7-0.7
		c1.7-0.2,3.3-0.5,5-0.7c1.5-0.2,2.1-0.8,2-2.4c-0.8-12.5-10.3-22.5-21.8-22.8c-12.8-0.4-23.2,8.9-24.6,21.7c-1,9.4,1.9,17.5,8,24.5
		c5.6,6.3,11.4,12.4,17,18.7c3,3.4,5.6,7.1,6.9,11.5c1.8,5.8-0.8,11.1-5.9,12.7c-5.3,1.7-9.7-0.9-11.8-6.5c-1-2.6,0.2-6.7-2.2-7.6
		c-2.4-0.9-5.7,0.6-8.6,1.1c-1,0.1-1.9,0.3-2.9,0.4c-1.8,0.1-2.2,1.1-2.1,2.8c1.2,13.6,9.2,24.7,25.1,24.7
		C169,104,178.2,96.9,180.7,86.2z"/>
	<path class="st0" d="M316.3,102.4c8.6-0.2,17.2,0,25.7-0.1c3.5,0,8,1.5,10.1-0.7c2.1-2.2,0.3-6.7,0.7-10.2c0.4-3.1-1-3.7-3.8-3.6
		c-5.9,0.2-11.8-0.1-17.7,0.1c-2.5,0.1-3.4-0.5-3.3-3.2c0.2-6,0.1-12.1,0.1-18.1c0-9.1,0-9.1,9.1-9.1c8.6,0,8.6,0,8.6-8.8
		c0-5.6,0-5.5-5.5-5.6c-4-0.1-9.4,1.8-11.7-0.8c-2-2.2-0.5-7.5-0.5-11.5c0-4.5-1.6-10.6,0.7-13c2.6-2.8,8.8-0.6,13.4-0.9
		c3.5-0.2,8.2,1.6,10-0.8c1.7-2.2,0.4-6.7,0.7-10.2c0.2-2.8-0.7-3.5-3.5-3.5c-11,0.2-22,0.2-32.9,0c-3.4-0.1-3.8,1.1-3.8,4
		c0.1,15.3,0.1,30.7,0.1,46c0,15.3,0.1,30.7-0.1,46C312.6,101.4,313.2,102.4,316.3,102.4z"/>
	<path class="st0" d="M69,85.9c-0.3,4.5,0.1,9-0.1,13.5c-0.1,2.1,0.4,3,2.8,2.9c3.1-0.2,6.2-0.2,9.3,0c2.8,0.2,3.5-0.7,3.5-3.5
		c-0.2-11.3,0-22.5-0.1-33.8c0-3,0.5-5.8,1.3-8.7c5.5-17.8,11-35.6,16.5-53.8c-4.5,0-8.7,0.1-12.9-0.1c-2.3-0.1-3,0.8-3.5,3
		c-2.3,10.4-4.8,20.8-7.4,31.1c-0.5,1.9-0.2,4.1-2.1,5.7c-0.2-0.6-0.4-1-0.5-1.4c-2.1-8.3-4.1-16.6-6.4-24.9
		c-1.2-4.5-0.4-10.9-4.3-13c-3.7-2-9.3-0.4-14.5-0.3c3.9,12.7,7.2,25.2,11.5,37.4C67.3,55,70.2,70.1,69,85.9z"/>
	<path class="st0" d="M355.5,94.1c0,8.3,0,8.3,8.3,8.1c9.1-0.2,14.4-4.3,16.7-13c0.6-2.4,1.1-5,1.1-7.5c0.1-12.4,0.1-24.8,0.1-37.1
		c0.1,0,0.2,0,0.3,0c0-12.9-0.1-25.9,0.1-38.8c0-2.5-0.5-3.5-3.2-3.3c-2.9,0.3-5.9,0.2-8.9,0c-2.7-0.2-3.7,0.5-3.5,3.4
		c0.3,5.5,0.1,11,0.1,16.5c0,19,0,38,0,57c0,5.4-2.5,8.6-7.2,8.4c-3.9-0.2-4.1,1.5-3.8,4.3C355.6,92.7,355.5,93.4,355.5,94.1z"/>
	<path class="st0" d="M191.8,99.4c0,2.1,0.5,3,2.8,2.9c3.2-0.2,6.5-0.2,9.7,0c2.8,0.2,3.5-0.8,3.4-3.5c-0.1-15.5-0.1-30.9-0.1-46.4
		c0-12.5,0.1-25,0-37.5c0-4,1.8-9.7-0.7-11.6c-2.7-2.1-8.1-0.5-12.2-0.8c-2.2-0.1-2.8,0.6-2.8,2.8C191.9,36.7,191.9,68.1,191.8,99.4
		z"/>
	<path class="st0" d="M33.1,103.9c9-0.8,14.1-6.5,17.6-14.4c1.5-3.4,1.6-5.5-2.7-6.5c-2.4-0.5-4.8-2.6-7.1-2.4
		c-2.4,0.3-2.6,3.9-4.1,5.8c-2.2,2.8-4.7,5.2-8.5,3.3c-3.8-1.9-3.8-5.5-2.7-8.8c1.3-3.7,3.1-7.2,5-10.6c5.3-9.7,7.8-20.1,8.1-31
		c0.1-6.3,0.1-6.3-6.1-6.3c-1.1,0-2.3,0.1-3.4,0c-2.1-0.3-2.6,0.6-2.5,2.6c0.6,9.9-2.2,18.8-7.4,27.2c-3,4.9-5.8,9.9-7.3,15.5
		C7.8,93.7,17.2,105.3,33.1,103.9z"/>
	<path class="st0" d="M31.8,20.3c8.3,0,8.3,0,8.3-8.2c0-7.9,0-7.9-6.9-7.9c-8,0-8,0-8,8.8C25.2,20.3,25.2,20.3,31.8,20.3z"/>
	<path class="st0" d="M251.8,52.3c0,15.5,0.1,30.9-0.1,46.4c0,2.6,0.4,3.7,3.4,3.6c7.2-0.2,14.3,0,21.5-0.2
		c12.6-0.4,20.4-7,21.2-19.4c1.4-20.1,1.3-40.2,0.1-60.3c-0.7-11.4-7.2-18.1-18.6-19.4c-7.6-0.9-15.4-0.2-23.2-0.6
		c-3.4-0.2-4.5,0.6-4.5,4.3C251.9,22,251.8,37.1,251.8,52.3z M267.1,52c0-10.5,0.1-21.1-0.1-31.6c0-2.9,0.9-3.5,3.6-3.4
		c8.4,0.2,12.2,3.7,12.2,12.1c0.1,16.2,0.1,32.3,0,48.5c-0.1,8.8-6.1,13-14.5,10.5c-1.9-0.6-1.2-2-1.2-3.1
		C267.1,73.9,267.1,62.9,267.1,52z"/>
	<path class="st0" d="M400.6,102.3c0.4,0,0.9,0,1.3,0c1.9,0.3,2.7-0.3,2.9-2.4c0.5-4.5,1.8-8.9,2-13.3c0.2-4.6,2-6.1,6.4-5.5
		c3.2,0.4,7.4-1,9.4,0.7c1.9,1.6,1.5,5.9,2,9.1c0.7,3.7-0.3,8.9,2.2,10.8c2.5,1.8,7.3,0.4,11,0.7c3.9,0.4,4.2-1,3.6-4.4
		c-4.8-28.4-9.4-56.8-14-85.2c-1.6-10.1-1.5-10.1-11.6-10.1c-2,0-4,0.2-5.9-0.1c-3.3-0.5-4.5,0.7-5,4c-4.5,28.3-9.2,56.5-13.8,84.8
		c-0.6,3.5-3,8.4-1,10.3C391.9,103.5,396.9,102.2,400.6,102.3z M411,56.2c1.3-9.4,2.5-18.9,3.7-28.3c0.1-0.8-0.1-1.7,1.3-2.7
		c1.7,13.9,3.4,27.5,5.1,41.1c-0.3,0.2-0.5,0.4-0.7,0.4C409.4,67.3,409.4,67.3,411,56.2z"/>
	<path class="st0" d="M153.5,236.5c2.4,0.2,3.1-0.6,3-3c-0.1-10.1-0.1-20.3,0-30.4c0-3.6-1.6-8.4,0.6-10.6c2.4-2.4,7.2-0.3,10.9-0.8
		c3.4-0.5,3.8,1.1,3.8,4c-0.2,12.5,0,25.1-0.1,37.6c0,2.6,0.7,3.5,3.3,3.3c2.9-0.2,5.9-0.2,8.9,0c2.8,0.2,3.5-0.7,3.5-3.5
		c-0.1-15.5-0.1-31-0.1-46.5c0-12.7,0-25.3,0-38c0-3.8,1.3-8.9-0.6-11c-2.5-2.6-7.7-0.5-11.7-0.9c-2.7-0.3-3.3,0.7-3.3,3.3
		c0.2,8.4,0.1,16.9,0,25.3c0,3.9,1.7,9.2-0.7,11.3c-2.3,2-7.5,0.4-11.4,0.8c-2.8,0.2-3.2-0.9-3.2-3.4c0.1-8.6,0.1-17.2,0-25.8
		c0-3.7,1.6-8.7-0.7-10.8c-2.1-1.8-7-0.3-10.6-0.7c-3.7-0.4-4,1.3-4,4.3c0.1,27.9,0,55.7,0.1,83.6c0,3.9-1.8,9.2,0.8,11.3
		C144.4,237.7,149.5,236.2,153.5,236.5z"/>
	<path class="st0" d="M302.2,213.7c0.1-4.2,1.9-9.9-0.7-12.1c-2.4-2.1-8-0.5-12.2-0.8c-2.5-0.2-3.1,0.8-3,3.1
		c0.1,4.2,0.1,8.4-0.1,12.7c-0.3,5.1-3.1,7.8-7.5,7.9c-4.5,0-7.3-2.7-7.7-7.7c-0.1-1.5-0.1-3.1-0.1-4.6c0-8.6,0-17.2,0-25.7
		c0-9.4-0.1-18.9,0-28.3c0.1-7.1,2.5-10.4,7.6-10.4c5.3-0.1,7.8,3.2,7.9,10.6c0,1.7,0,3.4,0,5.1c0,5.5,0,5.5,5.6,5.4
		c3.3-0.1,7.9,1.5,9.6-0.7c1.7-2,0.6-6.4,0.6-9.8c-0.3-18.2-14.6-28.5-32-23c-9.5,3-15.1,11.2-15.2,22.8c-0.1,17.9-0.1,35.7,0,53.6
		c0,2.8,0.3,5.6,0.9,8.4c1.9,8.6,6.4,14.9,15.4,17C289,241.4,301.7,231.7,302.2,213.7z"/>
	<path class="st0" d="M511.6,225.3c0.4-3.1-1.1-3.4-3.6-3.3c-6.2,0.1-12.4,0-18.6,0.1c-2,0-2.7-0.5-2.6-2.6c0.1-8.4,0.1-16.9,0-25.3
		c0-2.1,0.7-2.6,2.7-2.6c4.1,0.1,8.2-0.1,12.2,0.1c2.1,0.1,3.1-0.4,2.9-2.8c-0.2-2.9-0.2-5.9,0-8.9c0.1-2.2-0.6-3-2.8-2.9
		c-4.1,0.2-8.2-0.1-12.2,0.1c-2.3,0.1-2.8-0.7-2.8-2.9c0.1-6.8,0.1-13.5,0-20.3c0-2.3,0.4-3.3,2.9-3.2c3.6,0.2,7.3,0.1,11,0
		c3.5-0.1,8.1,1.5,10.2-0.6c2.2-2.3,0.3-7,0.7-10.6c0.3-2.7-0.8-3.3-3.3-3.2c-10.8,0.1-21.7,0.2-32.5,0c-3.4-0.1-4.5,0.6-4.4,4.3
		c0.2,15.2,0.1,30.4,0.1,45.6c0,15.5,0.1,31-0.1,46.4c0,2.7,0.6,3.6,3.5,3.5c8.6-0.2,17.2,0,25.7-0.1c3.5,0,8.2,1.2,10.2-0.6
		C513.2,233.7,511.2,228.9,511.6,225.3z"/>
	<path class="st0" d="M355.4,224.9c0.2-2.5-0.9-3-3.1-3c-5.9,0.1-11.8-0.1-17.7,0.1c-3,0.1-4.2-0.4-4-3.8c0.3-6.6,0.1-13.2,0.1-19.8
		c0-6.8,0-6.8,6.8-6.8c3.5,0,8.2,1.2,10.2-0.6c2.3-2.1,0.4-6.9,0.8-10.5c0.2-2.5-0.4-3.5-3.2-3.4c-3.9,0.3-7.9-0.1-11.8,0.1
		c-2.2,0.1-2.9-0.6-2.8-2.8c0.1-6.9,0.1-13.8,0-20.7c0-2.3,0.7-2.8,2.9-2.8c6.2,0.1,12.4-0.1,18.6,0.1c2.5,0.1,3.6-0.4,3.4-3.2
		c-0.3-2.6-0.2-5.4,0-8c0.2-2.6-0.6-3.3-3.2-3.3c-11.1,0.1-22.2,0.2-33.3,0c-3.1-0.1-3.7,1-3.6,3.8c0.1,15.3,0.1,30.7,0.1,46
		c0,15.2,0.1,30.4-0.1,45.6c0,3.4,0.6,4.6,4.3,4.5c8.3-0.3,16.6,0,24.9-0.1c3.6-0.1,8.5,1.7,10.4-0.8
		C356.5,233.3,355.1,228.6,355.4,224.9z"/>
	<path class="st0" d="M100.3,224.8c-0.1-2.2-0.7-2.9-2.9-2.8c-6.3,0.1-12.7-0.1-19,0.1c-2.5,0.1-3-0.8-3-3.1
		c0.2-6.9,0.1-13.8,0.1-20.7c0-6.7,0-6.7,6.5-6.7c11.8,0,11.7,0,11.3-11.7c-0.1-2.3-0.8-2.8-2.9-2.8c-4.1,0.1-8.2,0-12.2,0.1
		c-1.9,0.1-2.7-0.3-2.7-2.5c0.1-7,0.1-14.1,0-21.1c0-2,0.5-2.7,2.6-2.6c3.8,0.2,7.6,0.1,11.4,0c3.5-0.1,8,1.5,10.1-0.7
		c2.1-2.2,0.3-6.7,0.7-10.2c0.4-3.2-1-3.7-3.8-3.6c-5.3,0.2-10.7,0.1-16,0.1c-5.8,0-11.5,0.1-17.3-0.1c-2.4-0.1-3.1,0.7-3,3.1
		c0.1,31.2,0.1,62.5,0,93.7c0,2.5,0.8,3.1,3.1,3c8.7-0.1,17.4-0.1,26.2-0.1C100.7,236.4,100.6,236.4,100.3,224.8z"/>
	<path class="st0" d="M445.3,236.5c2.6,0.2,3.3-0.6,3.2-3.2c-0.1-13.1-0.1-26.2-0.1-39.2c0-12.5,0.2-25-0.1-37.5
		c-0.1-4.2,0.8-5.9,5.3-5.5c3.4,0.3,8.1,1.6,10.1-0.5c2.2-2.3,0.3-7,0.7-10.6c0.3-2.7-0.7-3.3-3.2-3.2c-11,0.1-21.9,0.1-32.9,0.1
		c-11.9,0-11.9,0-11.2,12.1c0.1,1.8,0.6,2.4,2.4,2.4c3.1-0.1,6.2,0.2,9.3-0.1c3.4-0.3,4.5,0.6,4.4,4.3c-0.2,23.1-0.1,46.1-0.1,69.2
		c0,3.9-1.7,9.2,0.7,11.3C436.2,237.7,441.4,236.2,445.3,236.5z"/>
	<path class="st0" d="M46.4,215.2c0.9-11,0.4-21.9,0.4-32.9c0-8.3,0.4-16.6-0.4-24.9c-1.3-12.8-8.9-20.2-21.8-20.7
		c-6.9-0.2-13.8,0.1-20.7-0.2c-3.1-0.1-4,0.6-4,3.9c0.2,15.3,0.1,30.7,0.1,46c0,15.5,0.1,30.9-0.1,46.4c0,2.6,0.5,3.7,3.4,3.6
		c6.9-0.2,13.8,0,20.7-0.1C37.9,236.1,45.3,229.1,46.4,215.2z M31.1,211c0,9.4-5.1,13.3-14.3,11.1c-2.3-0.5-1.4-2.1-1.4-3.3
		c-0.1-10.7,0-21.4,0-32s0.1-21.4,0-32c0-2.5,0.3-3.7,3.3-3.7c8.5,0.2,12.4,3.7,12.4,12.3C31.2,179.2,31.2,195.1,31.1,211z"/>
	<path class="st0" d="M370.4,136.6c-3.3-0.1-3.9,0.9-3.9,4c0.1,28,0.1,56,0.1,84c0,3.8-1.3,8.8,0.6,11c2.2,2.5,7.4,0.4,11.3,0.9
		c3.2,0.4,3.6-1,3.5-3.8c-0.1-12.2-0.1-24.5,0-36.7c0-1.5-1.5-4.3,2.1-4.3c2.6,0,5.3-0.8,6,3.5c1.6,9.3,3.8,18.4,5.8,27.6
		c1,4.5,0.3,10.8,3.4,13c3.1,2.2,8.9,0.6,13.6,0.7c0.4,0,0.8-0.1,1.8-0.2c-3.3-14.5-6.6-28.7-10-42.9c-0.9-3.7-1.3-6.7,2.4-9.4
		c3.1-2.3,4.3-6.2,5-10c1.2-6.4,1.3-12.9,0.1-19.3c-2.1-11.9-8.7-17.6-20.8-17.9C384.5,136.6,377.4,136.9,370.4,136.6z M382,164.1
		c0-3.5,0-7,0-10.5c0-0.9-0.3-1.9,1-2.4c6.1-2.5,13.3,1.7,14.1,8.3c0.3,2.2,0.4,4.5,0.2,6.7c-0.6,9.5-3.2,11.6-12.8,11.2
		c-2-0.1-2.7-0.7-2.6-2.7C382.1,171.1,382,167.6,382,164.1z"/>
	<path class="st0" d="M215.1,215.8c3-1.8,7.9-0.3,12-0.5c2-0.1,2.6,0.6,2.9,2.5c0.6,5.2,1.6,10.3,2.2,15.4c0.3,2.4,0.9,3.5,3.6,3.3
		c2.9-0.2,5.9-0.3,8.8,0c3.8,0.4,3.9-1.2,3.3-4.3c-4.8-28.5-9.5-57.1-14-85.6c-1.6-9.8-1.4-9.9-11.4-9.9c-2.2,0-4.5,0.2-6.7-0.1
		c-2.8-0.3-3.7,0.6-4.2,3.5c-2.5,16.1-5.3,32.1-7.9,48.2c-2.5,15.2-5,30.5-7.5,45.7c-0.3,1.9,0.1,2.6,2,2.4c1-0.1,2,0,3,0
		c3.2-0.1,7.3,0.9,9.4-0.6c1.8-1.3,1.3-5.7,2-8.7C213.3,223.2,211.9,217.7,215.1,215.8z M217.5,190.7c1.4-9.4,2.5-18.9,3.7-28.3
		c0.1-0.9-0.2-2,1.4-3c1.7,13.9,3.4,27.5,5.1,41.1c-0.2,0.1-0.3,0.2-0.4,0.2C215.8,201.9,215.9,202,217.5,190.7z"/>
	<path class="st0" d="M195.3,273.3c-2.4-1.9-7.2-0.5-11-0.8c-2.3-0.2-2.8,0.7-2.8,2.9c0.1,19,0.1,38,0.1,57
		c-0.3,0.3-0.6,0.6-0.9,0.9c-5.6-17.2-11.2-34.4-16.9-51.5c-3-9.3-3-9.1-12.9-9.3c-3.5-0.1-4.1,1.1-4.1,4.2
		c0.1,28.1,0,56.2,0.1,84.4c0,3.6-1.6,8.4,0.7,10.5c2.2,2.2,7,0.4,10.6,0.7c2.3,0.2,3.1-0.5,3.1-2.9c-0.2-18.1-0.2-36.3-0.3-54.4
		c0.3-0.3,0.5-0.6,0.8-0.8c5.4,16.1,10.9,32.2,16.3,48.2c3.4,10,3.4,9.8,13.8,10c3.4,0.1,4.1-1,4-4.2c-0.1-28.1,0-56.3-0.1-84.4
		C195.9,280.1,197.5,275,195.3,273.3z"/>
	<path class="st0" d="M113.7,286.9c3.6,0.2,7.3,0.2,11,0c3.6-0.1,8.5,1.7,10.4-0.8c1.8-2.3,0.4-7,0.7-10.6c0.2-2.5-0.8-3-3.1-3
		c-11.3,0.1-22.5,0.2-33.8,0c-3.1-0.1-3.3,1.2-3.3,3.7c0.1,15.3,0,30.7,0,46c0,15.5,0.1,31-0.1,46.4c0,3,0.8,3.8,3.7,3.7
		c8.4-0.2,16.9,0,25.3-0.1c3.6,0,8.5,1.6,10.5-0.7c1.8-2.2,0.5-7,0.7-10.6c0.2-2.4-0.6-3.1-3-3.1c-6.3,0.2-12.7-0.1-19,0.1
		c-2.3,0.1-2.8-0.7-2.8-2.8c0.1-7,0-14.1,0-21.1c0-6.5,0-6.5,6.7-6.5c11.7,0,11.7,0,11.1-11.8c-0.1-2-0.7-2.7-2.7-2.6
		c-4.1,0.1-8.2,0-12.2,0.1c-2,0.1-3-0.3-2.9-2.7c0.2-6.9,0.1-13.8,0-20.7C110.9,287.7,111.3,286.8,113.7,286.9z"/>
	<path class="st0" d="M289.9,286.9c3.8,0.1,7.6,0.1,11.4,0c3.5,0,8.2,1.2,10.2-0.6c2.4-2.1,0.4-6.9,0.8-10.5
		c0.4-3.1-1.1-3.4-3.6-3.3c-11,0.1-22,0.2-32.9,0c-3-0.1-3.7,0.8-3.7,3.7c0.1,15.3,0.1,30.7,0.1,46c0,15.3,0.1,30.7-0.1,46
		c0,3.5,1.1,4.1,4.2,4.1c8.3-0.2,16.6,0,24.9-0.1c3.6-0.1,8.5,1.6,10.4-0.8c1.8-2.3,0.4-7,0.7-10.6c0.2-2.5-0.8-3.1-3.1-3
		c-5.9,0.2-11.8-0.2-17.7,0.1c-3.5,0.2-4.1-1.1-4-4.2c0.2-6.5,0.1-12.9,0.1-19.4c0-6.8,0-6.8,6.7-6.9c3.5,0,8.4,1.2,10.2-0.5
		c2.4-2.3,0.5-7.2,0.8-10.9c0.3-2.5-0.9-3-3.1-3c-4.1,0.2-8.2,0-12.2,0.1c-1.7,0-2.5-0.4-2.4-2.3c0.1-7.2,0.1-14.4,0-21.5
		C287.5,287.5,288.1,286.9,289.9,286.9z"/>
	<path class="st0" d="M341.7,273.2c-2.3-2.2-7.2-0.3-11-0.7c-3.2-0.4-3.9,0.7-3.9,3.9c0.1,24.2,0.1,48.4,0.1,72.6
		c0,6.3-2.3,8.7-8.6,8.8c-2.3,0-2.6,0.8-2.4,2.6c0.1,1.1,0,2.2,0,3.4c0,8.6,0,8.6,8.8,8.5c8.1-0.1,13.1-3.8,15.7-11.5
		c1-2.9,1.7-6,1.7-9.1c0-12.5,0-25,0-37.5c0.1,0,0.2,0,0.2,0c0-10,0.1-20,0-30C342.3,280.4,343.9,275.5,341.7,273.2z"/>
	<path class="st0" d="M462.9,271.3c-10.8-3.9-21,0.1-26.4,10.3c-3.9,7.3-3.8,7.1,3.6,10.5c3.8,1.7,6.6,2.7,7.9-2.6
		c0.3-1,1.1-2,1.8-2.8c1.9-2.3,4.1-4.1,7.2-2.7c3.3,1.4,3.9,4.2,3.5,7.4c-0.5,3.8-2.4,7.2-4.1,10.5c-5.4,10.4-8.9,21.2-9,31.7
		c-0.7,10-0.7,10,7.8,10c0.4,0,0.9-0.1,1.3,0c2.3,0.4,2.9-0.7,2.7-2.9c-0.9-11.1,2.5-21,8.3-30.4c3.2-5.2,5.7-10.6,6.9-16.6
		C476.3,283.6,471.6,274.4,462.9,271.3z"/>
	<path class="st0" d="M453.8,356.2c-8,0-8,0-8,8.9c0,7.1,0,7.1,6.8,7.1c7.8,0,7.8,0,7.8-7.9C460.5,356.2,460.5,356.2,453.8,356.2z"
		/>
	<path class="st0" d="M406.7,270.1c-5.3-1.8-10.7-2.1-16.2-1.9c-19.5,0.8-33.6,13.8-34.8,33.3c-1.3,20.7-1.2,41.4,0,62
		c0.9,16.3,11.9,28.9,27.6,32.8c5.1,1.3,10.3,1.3,15.5,1.3c5.7,0,5.4,0,5.8-5.7c0.3-4.3-1.2-5.4-5.1-4.9c-2.2,0.3-4.5,0-6.7-0.1
		c-15.3-0.9-25.6-10.7-26-26.1c-0.5-18.8-1-37.8,0.1-56.6c1.4-24.5,20.6-29.2,35.5-24.9c5.4,1.6,9.3,5.2,11.6,10.3
		c3.3,7.5,2.1,15.6,3.4,23.4c-2.4-2.1-3.5-5-6.2-6.7c-10.6-6.6-25.4-0.8-27.6,11.5c-1.9,10.7-1.7,21.6-0.1,32.3
		c1.3,8.7,7.1,13.6,15.8,14.3c7.5,0.6,13.9-1.4,17.5-9.9c0.6,1.4,0.8,1.7,0.8,2.1c0.6,6.7,0.5,6.7,7.3,6.4c0.1,0,0.3,0,0.4,0
		c1.9,0.3,2.4-0.5,2.4-2.4c-0.1-21.1,0.1-42.2-0.4-63.3C426.9,284.4,418.5,274.1,406.7,270.1z M415.5,347.8c-1.5,5.6-5,8-11.4,7.7
		c-5.6-0.2-9.1-2.9-9.8-8.5c-1.1-8.5-1.1-17.1,0-25.7c0.7-5.6,4.4-8.3,10.3-8.4c6.5-0.1,9.7,2.2,11.1,7.9c1,4.3,0.3,8.7,0.6,12.9
		C416.1,338.6,416.8,343.2,415.5,347.8z"/>
	<path class="st0" d="M239.7,273c-7.9-1.2-16-0.1-24-0.5c-3-0.1-3.7,0.8-3.7,3.7c0.2,15.3,0.1,30.7,0.1,46c0,15.6,0,31.2,0,46.8
		c0,2.1,0.2,3.3,2.9,3.3c7.4-0.2,14.9,0.1,22.4-0.1c12.4-0.4,20.1-7.2,21-19.7c1.3-19.9,1.3-39.9,0-59.9
		C257.5,281.2,251.1,274.7,239.7,273z M243.1,347.4c-0.1,8.8-6,13-14.4,10.5c-2.2-0.6-1.2-2.3-1.2-3.5c-0.1-10.8,0-21.6,0-32.5
		c0-10.5,0.1-21.1-0.1-31.6c0-2.8,0.8-3.5,3.5-3.5c8.4,0.2,12.2,3.7,12.3,12C243.2,315.1,243.2,331.3,243.1,347.4z"/>
	<path class="st0" d="M62.9,272.6c-7.2-0.2-14.4,0.1-21.5-0.1c-2.8-0.1-3.5,0.7-3.5,3.5c0.1,15.5,0.1,31,0.1,46.4
		c0,12.7,0,25.3,0,38c0,3.8-1.3,8.8,0.6,11c2.2,2.5,7.4,0.4,11.3,0.9c3.1,0.4,3.6-1,3.6-3.8c-0.2-10.6-0.1-21.1-0.1-31.7
		c0-9.3,0-9.3,9.3-9.4c10.1-0.1,16.7-4.7,19.8-14.5c2.4-7.4,2.6-14.9,1.2-22.5C81.6,278.6,75.1,273,62.9,272.6z M68.3,306.5
		c-0.9,5.4-9.4,9.2-14.1,6.6c-1.1-0.6-0.7-1.7-0.7-2.6c-0.1-3.5,0-7,0-10.5c0-3.5,0-7,0-10.5c0-0.9-0.3-1.9,1-2.4
		c6.1-2.5,13.2,1.7,14.1,8.2C69.1,299,68.9,302.7,68.3,306.5z"/>
</g>
</svg>
