<?xml version="1.0" encoding="utf-8"?>
<!-- Generator: Adobe Illustrator 22.0.1, SVG Export Plug-In . SVG Version: 6.00 Build 0)  -->
<svg version="1.1" id="Capa_1" xmlns="http://www.w3.org/2000/svg" xmlns:xlink="http://www.w3.org/1999/xlink" x="0px" y="0px"
	 viewBox="0 0 420 512" style="enable-background:new 0 0 420 512;" xml:space="preserve">
<style type="text/css">
	.st0{fill:#00C1A1;}
</style>
<path class="st0" d="M419.3,220.7c-1.6-5.9-7.1-12.6-13.6-13.6c-26.9-4-53.5-9.9-79.5-17.6c-13-3.9-25.9-8.2-38.6-12.9
	c-6.4-2.4-12.7-4.9-19-7.4c-0.5-0.2-1.2-0.5-1.7-0.7c0.2,0.1,0.4,0.1,0.6,0.2c-1.5-0.6-2.9-1.2-4.3-1.9c-3.1-1.4-6.2-2.7-9.3-4.1
	c-24.7-11.3-48.7-24.2-71.6-38.8c-11.5-7.3-22.7-15-33.6-23c-2.5-1.9-5-3.7-7.5-5.6c-0.2-0.2-0.9-0.7-1.4-1.1
	c-0.1-0.1-0.2-0.2-0.3-0.2c-1.4-1.1-2.9-2.3-4.3-3.4c-5.2-4.2-10.3-8.4-15.4-12.7c-5.5-4.8-10.8-9.7-16-14.8c-2.5-2.5-4.9-5-7.2-7.6
	c-1.3-1.5-2.6-3-3.9-4.5c-0.5-0.6-0.9-1.1-1.4-1.7c-0.1-0.2-0.6-0.8-1-1.2c0-0.1-0.1-0.1-0.1-0.1c-0.6-0.8-1.2-1.6-1.7-2.4
	c-1-1.4-2-2.8-2.9-4.3c-2-3.1-3.9-6.2-5.6-9.5c-0.8-1.5-1.6-3-2.3-4.6c0-0.1-0.2-0.4-0.4-0.8c-0.1-0.2-0.1-0.3-0.2-0.6
	c-1.4-3.7-2.6-7.4-3.6-11.2c-2.6-9.8-14-16.8-23.9-13.6C39.4,4.1,33.2,14.2,36,24.7c7.4,28.1,25.5,51.9,46.3,71.6
	c6.9,6.5,14,12.7,21.3,18.7c-7.7-0.8-15.6-0.2-23.2,1.8c-9.8,2.6-16.8,14-13.6,23.9c1.8,5.6,5.8,10.1,10.7,12.4
	c-0.5,0.5-1.1,1-1.6,1.5c-6,5.6-7.6,16.5-3,23.5c2.2,3.4,5.1,5.9,8.4,7.5c-7.9,3.9-15.7,7.7-23.6,11.6c-8.7,4.3-11.4,15.9-7.9,24.3
	c3.4,8.1,13.9,14.8,22.9,11.2c24-9.4,49-16.3,74.4-20.6c-4.9,2.4-9.8,4.9-14.7,7.2c-0.7,0.4-1.5,0.7-2.2,1.1
	c-14,4.7-27.8,10-41.5,15.7c-16.7,7.1-33.2,14.8-49.3,23.2c-8.6,4.5-11.5,15.8-7.9,24.3c3.5,8.2,13.8,14.7,22.9,11.2
	c6.4-2.5,12.9-5,19.3-7.5C60,297,46.9,307.4,34.4,318.4c-6.2,5.4-7.5,16.7-3,23.5c4.3,6.6,13.9,12.2,21.9,8.9c3.2-1.3,6.5-2.7,9.7-4
	c-5.4,6.8-5.1,16.9,0.1,23.7c6.1,7.9,16.3,9.5,25,5c9.2-4.8,18.4-9.8,27.4-14.9c-22.7,23.3-45.1,46.9-67.1,70.9
	c-14.4,15.7-28.7,31.4-42.8,47.3c-6.5,7.3-7.6,17.6-1.5,25.5c5.6,7.2,17,10.4,25,5c52-34.8,104-69.6,156-104.4
	C236.7,370.3,288.6,336,340,301.1c26.6-18.1,53-37.3,74.3-61.6C419,234.3,421.2,227.7,419.3,220.7z M349.6,246.7
	c-0.4,0.3-0.9,0.7-1.3,1c-1.5,1.1-3,2.3-4.6,3.4c-5.5,4-11,8-16.6,11.8c-24.8,17.2-50.1,33.7-75.2,50.5
	c-34.8,23.3-69.7,46.6-104.5,69.9c12.9-13.2,26-26.4,39.1-39.4c15.1-15,30.3-29.8,45.7-44.5c6-5.7,7.6-16.5,3-23.5
	c-0.1-0.1-0.2-0.3-0.3-0.4c0.8-0.7,1.7-1.4,2.5-2.1c12.6-11,24.8-22.5,36.5-34.3c2.7-2.7,4.5-6.4,5.3-10.3c1.1-0.7,2.1-1.4,3.2-2.2
	c3-2.1,5.6-4.9,7.3-8.1c4.5,1.5,8.9,3.1,13.4,4.5c18.7,6,37.7,11.1,56.9,15.1c-1,0.9-2,1.7-3,2.5
	C354.6,242.8,352.1,244.7,349.6,246.7z"/>
</svg>
