<?xml version="1.0" encoding="utf-8"?>
<!-- Generator: Adobe Illustrator 22.0.1, SVG Export Plug-In . SVG Version: 6.00 Build 0)  -->
<svg version="1.1" id="Capa_1" xmlns="http://www.w3.org/2000/svg" xmlns:xlink="http://www.w3.org/1999/xlink" x="0px" y="0px"
	 viewBox="0 0 512 365.4" style="enable-background:new 0 0 512 365.4;" xml:space="preserve">
<style type="text/css">
	.st0{fill:#FBFBFB;stroke:#FBFBFB;stroke-width:2.6363;stroke-miterlimit:10;}
</style>
<g>
	<path class="st0" d="M16.5,110.8H0V1.6h22.9c9.5,0,16.4,2.5,20.8,7.6c4.4,5.1,6.5,13.1,6.5,24c0,7.1-0.8,12.7-2.5,16.9
		c-1.7,4.1-4.5,7.7-8.6,10.6l12.7,50.1H34.4L24.2,65.1h-7.7V110.8z M21.7,49.8c3,0,5.2-0.3,6.6-0.9s2.5-1.8,3.4-3.6
		c1.4-3,2.1-7,2.1-11.8s-0.7-8.8-2.1-11.8c-0.9-1.8-2-3.1-3.4-3.6c-1.4-0.6-3.6-0.9-6.6-0.9h-5.1v32.7H21.7z"/>
	<path class="st0" d="M108.4,17H80.2v29.5h20.3v15.4H80.2v33.6h28.2v15.4H63.7V1.6h44.7V17z"/>
	<path class="st0" d="M148.3,110.8h-16.5V17h-17.4V1.6H166V17h-17.7V110.8z"/>
	<path class="st0" d="M227,75.3c0,4-0.1,7.5-0.3,10.4c-0.2,2.9-0.6,5.4-1.1,7.5c-0.5,2.1-1.1,4-2,5.6c-0.8,1.6-1.9,3.3-3.2,4.9
		c-2.2,2.7-5,4.9-8.3,6.4c-3.4,1.5-7,2.3-10.8,2.3c-3.8,0-7.4-0.8-10.7-2.3c-3.3-1.5-6.1-3.7-8.3-6.4c-1.3-1.6-2.4-3.3-3.3-4.9
		c-0.9-1.6-1.6-3.5-2-5.7c-0.5-2.2-0.8-4.7-1-7.5c-0.2-2.8-0.2-6.3-0.2-10.3V37.2c0-4,0.1-7.5,0.2-10.3c0.2-2.8,0.5-5.3,1-7.5
		s1.2-4.1,2-5.7c0.9-1.6,2-3.3,3.3-4.9c2.2-2.7,4.9-4.9,8.3-6.4c3.3-1.5,6.9-2.3,10.7-2.3c3.8,0,7.4,0.8,10.8,2.3
		c3.4,1.5,6.2,3.7,8.3,6.4c1.3,1.6,2.4,3.3,3.2,4.9c0.8,1.6,1.5,3.5,2,5.6s0.8,4.6,1.1,7.5c0.2,2.9,0.3,6.4,0.3,10.4V75.3z
		 M192.3,73.4c0,5.4,0.1,9.5,0.2,12.1s0.5,4.5,0.9,5.7c1.5,3.9,4.2,5.9,8,5.9c4.4,0,7.2-2.5,8.3-7.5c0.4-1.8,0.7-7.2,0.7-16.1V39
		c0-5.5-0.1-9.6-0.2-12.1c-0.2-2.6-0.5-4.4-0.9-5.6c-1.5-3.9-4.1-5.9-7.9-5.9c-4.5,0-7.3,2.5-8.5,7.5c-0.2,1-0.4,2.9-0.5,5.7
		c-0.1,2.8-0.2,6.3-0.2,10.4V73.4z"/>
	<path class="st0" d="M296.1,110.8V35.4l-15.7,75.5H273l-16.5-75.5v75.5h-15.2V1.6h21.9l13.6,66.5l12.4-66.5h22.1v109.2H296.1z"/>
	<path class="st0" d="M342.9,86.8l-3.8,24.1h-16.2L340.8,1.6h21.3l19,109.2h-16.9l-3.8-24.1H342.9z M351.4,27.8l-6.2,43.5H358
		L351.4,27.8z"/>
	<path class="st0" d="M44.7,143.5H16.5V173h20.3v15.4H16.5v33.6h28.2v15.4H0V128.1h44.7V143.5z"/>
	<path class="st0" d="M100.7,237.3H57V128h16.5v94h27.2V237.3z"/>
	<path class="st0" d="M173.3,164.5c0-3.2,0-5.9-0.1-8.3c-0.1-2.4-0.1-4.3-0.2-5.6c-0.3-2.6-1.3-4.7-2.9-6.3c-1.6-1.6-3.6-2.4-6-2.4
		c-4.5,0-7.3,2.5-8.5,7.5c-0.4,1.8-0.7,7.2-0.7,16.1v34.6c0,5.4,0.1,9.4,0.2,12c0.2,2.6,0.5,4.4,0.9,5.6c1.5,3.9,4.2,5.9,8,5.9
		c2.4,0,4.4-0.8,6-2.5c1.6-1.6,2.5-3.9,2.7-6.7c0.2-1.5,0.4-3.9,0.4-7.2c0.1-3.3,0.1-6.2,0.1-8.7h16.5v7.2c0,2.5-0.1,4.7-0.2,6.6
		c-0.1,1.9-0.3,3.7-0.6,5.2c-0.3,1.6-0.7,3-1.1,4.3c-0.5,1.3-1.1,2.7-1.9,4.1c-2.1,4.1-5,7.3-8.8,9.5c-3.8,2.3-8.1,3.4-13,3.4
		c-3.8,0-7.4-0.7-10.8-2.2c-3.4-1.5-6.2-3.6-8.4-6.5c-1.3-1.6-2.4-3.3-3.3-4.9c-0.9-1.6-1.6-3.5-2.1-5.6c-0.5-2.1-0.8-4.7-1-7.6
		c-0.2-2.9-0.3-6.5-0.3-10.8v-37c0-4.3,0.1-7.9,0.3-10.9c0.2-3,0.5-5.6,1-7.7c0.5-2.1,1.2-4,2.1-5.6c0.9-1.6,2-3.3,3.3-4.9
		c2.2-2.8,5-5,8.4-6.5c3.4-1.5,7-2.2,10.8-2.2c4.8,0,9.1,1,12.8,3.1c3.8,2.1,6.7,5.1,8.9,8.9c1.4,2.6,2.4,5.3,2.9,8
		c0.5,2.7,0.8,6.4,0.8,11.2v6.7H173.3z"/>
	<path class="st0" d="M253.9,201.8c0,4-0.1,7.5-0.3,10.4c-0.2,2.9-0.6,5.4-1.1,7.5c-0.5,2.1-1.1,4-2,5.6c-0.8,1.6-1.9,3.3-3.2,4.9
		c-2.2,2.7-5,4.9-8.3,6.4c-3.4,1.5-7,2.3-10.8,2.3c-3.8,0-7.4-0.8-10.7-2.3c-3.3-1.5-6.1-3.7-8.3-6.4c-1.3-1.6-2.4-3.3-3.3-4.9
		c-0.9-1.6-1.6-3.5-2-5.7c-0.5-2.2-0.8-4.7-1-7.5c-0.2-2.8-0.2-6.3-0.2-10.3v-38.1c0-4,0.1-7.5,0.2-10.3c0.2-2.8,0.5-5.3,1-7.5
		c0.5-2.2,1.2-4.1,2-5.7c0.9-1.6,2-3.3,3.3-4.9c2.2-2.7,4.9-4.9,8.3-6.4c3.3-1.5,6.9-2.3,10.7-2.3c3.8,0,7.4,0.8,10.8,2.3
		c3.4,1.5,6.2,3.7,8.3,6.4c1.3,1.6,2.4,3.3,3.2,4.9c0.8,1.6,1.5,3.5,2,5.6s0.8,4.6,1.1,7.5c0.2,2.9,0.3,6.4,0.3,10.4V201.8z
		 M219.2,199.9c0,5.4,0.1,9.5,0.2,12.1c0.2,2.6,0.5,4.5,0.9,5.7c1.5,3.9,4.2,5.9,8,5.9c4.4,0,7.2-2.5,8.3-7.5
		c0.4-1.8,0.7-7.2,0.7-16.1v-34.4c0-5.5-0.1-9.6-0.2-12.1c-0.2-2.6-0.5-4.4-0.9-5.6c-1.5-3.9-4.1-5.9-7.9-5.9
		c-4.5,0-7.3,2.5-8.5,7.5c-0.2,1-0.4,2.9-0.5,5.7c-0.1,2.8-0.2,6.3-0.2,10.4V199.9z"/>
	<path class="st0" d="M307.1,237.3l-23.7-67.4v67.4h-15.2V128.1h16.5l22.4,64.8v-64.8h15.2v109.2H307.1z"/>
	<path class="st0" d="M364.5,237.3H348v-93.8h-17.4v-15.4h51.6v15.4h-17.7V237.3z"/>
	<path class="st0" d="M407.1,237.3h-16.5V128.1h22.9c9.5,0,16.4,2.5,20.8,7.6c4.4,5.1,6.6,13.1,6.6,24c0,7.1-0.8,12.7-2.5,16.9
		c-1.7,4.1-4.5,7.7-8.6,10.6l12.7,50.1h-17.5l-10.1-45.7h-7.7V237.3z M412.2,176.2c3,0,5.2-0.3,6.6-0.9s2.5-1.8,3.4-3.6
		c1.4-3,2.1-7,2.1-11.8s-0.7-8.8-2.1-11.8c-0.9-1.8-2-3.1-3.4-3.6c-1.4-0.6-3.6-0.9-6.6-0.9h-5.1v32.7H412.2z"/>
	<path class="st0" d="M505.3,201.8c0,4-0.1,7.5-0.3,10.4c-0.2,2.9-0.6,5.4-1.1,7.5c-0.5,2.1-1.1,4-2,5.6c-0.8,1.6-1.9,3.3-3.2,4.9
		c-2.2,2.7-5,4.9-8.3,6.4c-3.4,1.5-7,2.3-10.8,2.3c-3.8,0-7.4-0.8-10.7-2.3c-3.3-1.5-6.1-3.7-8.3-6.4c-1.3-1.6-2.4-3.3-3.3-4.9
		c-0.9-1.6-1.6-3.5-2-5.7c-0.5-2.2-0.8-4.7-1-7.5c-0.2-2.8-0.2-6.3-0.2-10.3v-38.1c0-4,0.1-7.5,0.2-10.3c0.2-2.8,0.5-5.3,1-7.5
		c0.5-2.2,1.2-4.1,2-5.7c0.9-1.6,2-3.3,3.3-4.9c2.2-2.7,4.9-4.9,8.3-6.4c3.3-1.5,6.9-2.3,10.7-2.3c3.8,0,7.4,0.8,10.8,2.3
		c3.4,1.5,6.2,3.7,8.3,6.4c1.3,1.6,2.4,3.3,3.2,4.9c0.8,1.6,1.5,3.5,2,5.6s0.8,4.6,1.1,7.5c0.2,2.9,0.3,6.4,0.3,10.4V201.8z
		 M470.6,199.9c0,5.4,0.1,9.5,0.2,12.1s0.5,4.5,0.9,5.7c1.5,3.9,4.2,5.9,8,5.9c4.4,0,7.2-2.5,8.3-7.5c0.4-1.8,0.7-7.2,0.7-16.1
		v-34.4c0-5.5-0.1-9.6-0.2-12.1c-0.2-2.6-0.5-4.4-0.9-5.6c-1.5-3.9-4.1-5.9-7.9-5.9c-4.5,0-7.3,2.5-8.5,7.5c-0.2,1-0.4,2.9-0.5,5.7
		s-0.2,6.3-0.2,10.4V199.9z"/>
	<path class="st0" d="M0,254.6h23.2c9.5,0,16.5,2.5,21,7.4c4.5,5,6.7,12.7,6.7,23.3V333c0,10.6-2.2,18.4-6.7,23.3
		c-4.5,5-11.5,7.4-21,7.4H0V254.6z M21.5,348.4c4.6,0,8-1.4,10.1-4.2c1.1-1.5,1.8-3.3,2.2-5.2c0.4-2,0.6-5,0.6-9.1v-41.2
		c0-4.1-0.2-7.2-0.6-9.1c-0.4-2-1.1-3.7-2.2-5.2c-2.1-2.8-5.5-4.2-10.1-4.2h-5v78.4H21.5z"/>
	<path class="st0" d="M109.7,270H81.5v29.5h20.3v15.4H81.5v33.6h28.2v15.4H65V254.6h44.7V270z"/>
	<path class="st0" d="M178.6,363.8H162V270h-17.4v-15.4h51.6V270h-17.7V363.8z"/>
	<path class="st0" d="M255.8,254.4v73.7c0,4-0.1,7.5-0.3,10.4c-0.2,2.9-0.6,5.4-1.1,7.5c-0.5,2.1-1.1,4-2,5.7
		c-0.8,1.7-1.9,3.3-3.2,5c-2.2,2.8-5,4.9-8.3,6.5s-7,2.3-10.8,2.3c-3.8,0-7.4-0.8-10.7-2.3c-3.3-1.5-6.1-3.7-8.3-6.5
		c-1.3-1.7-2.4-3.3-3.3-5c-0.9-1.7-1.6-3.6-2-5.8c-0.5-2.2-0.8-4.7-1-7.5c-0.2-2.8-0.2-6.3-0.2-10.3v-73.7h16.5v71.9
		c0,5.5,0.1,9.5,0.2,12.1s0.5,4.5,0.9,5.7c1.5,3.9,4.2,5.9,8,5.9c4.4,0,7.2-2.5,8.3-7.5c0.4-1.9,0.7-7.3,0.7-16.2v-71.9H255.8z"/>
	<path class="st0" d="M315.9,363.8l-21-109.2h16.7l12.6,69.9l11.1-69.9h16.2l-18.7,109.2H315.9z"/>
	<path class="st0" d="M378.1,363.8h-16.5V254.6h16.5V363.8z"/>
	<path class="st0" d="M392.5,254.6h23.2c9.5,0,16.5,2.5,21,7.4c4.5,5,6.7,12.7,6.7,23.3V333c0,10.6-2.2,18.4-6.7,23.3
		c-4.5,5-11.5,7.4-21,7.4h-23.2V254.6z M414,348.4c4.6,0,8-1.4,10.1-4.2c1.1-1.5,1.8-3.3,2.2-5.2c0.4-2,0.6-5,0.6-9.1v-41.2
		c0-4.1-0.2-7.2-0.6-9.1c-0.4-2-1.1-3.7-2.2-5.2c-2.1-2.8-5.5-4.2-10.1-4.2h-5v78.4H414z"/>
	<path class="st0" d="M473.9,339.7l-3.8,24.1h-16.2l17.8-109.2H493l19,109.2h-16.9l-3.8-24.1H473.9z M482.4,280.8l-6.2,43.5h12.8
		L482.4,280.8z"/>
</g>
</svg>
