<?xml version="1.0" encoding="utf-8"?>
<!-- Generator: Adobe Illustrator 22.0.1, SVG Export Plug-In . SVG Version: 6.00 Build 0)  -->
<svg version="1.1" id="Capa_1" xmlns="http://www.w3.org/2000/svg" xmlns:xlink="http://www.w3.org/1999/xlink" x="0px" y="0px"
	 viewBox="0 0 512 466.3" style="enable-background:new 0 0 512 466.3;" xml:space="preserve">
<style type="text/css">
	.st0{fill:#FBFBFB;stroke:#FBFBFB;stroke-width:2.3499;stroke-miterlimit:10;}
	.st1{fill:#1B2728;stroke:#1B2728;stroke-width:2.3499;stroke-miterlimit:10;}
</style>
<g>
	<g>
		<polygon class="st0" points="150,40.4 136.4,1 126.3,1 126.3,67.3 135.6,67.3 135.6,26.4 150,67.3 159.3,67.3 159.3,1 150,1 		"/>
		<path class="st0" d="M198.2,11.7c-0.3-1.3-0.7-2.4-1.2-3.4c-0.5-1-1.1-2-1.9-3c-1.3-1.7-3-3-5.1-3.9c-2.1-0.9-4.2-1.4-6.6-1.4
			c-2.3,0-4.5,0.5-6.5,1.4s-3.7,2.2-5,3.9c-0.8,1-1.5,2-2,3c-0.5,1-0.9,2.2-1.2,3.5c-0.3,1.3-0.5,2.8-0.6,4.6
			c-0.1,1.7-0.1,3.8-0.1,6.3v23.2c0,2.5,0,4.5,0.1,6.3c0.1,1.7,0.3,3.3,0.6,4.6c0.3,1.3,0.7,2.5,1.2,3.5c0.5,1,1.2,2,2,3
			c1.3,1.7,3,3,5,3.9c2,0.9,4.2,1.4,6.5,1.4c2.3,0,4.5-0.5,6.6-1.4c2.1-0.9,3.7-2.2,5.1-3.9c0.8-1,1.4-2,1.9-3
			c0.5-1,0.9-2.1,1.2-3.4c0.3-1.3,0.5-2.8,0.6-4.6c0.1-1.8,0.2-3.9,0.2-6.3V22.6c0-2.5-0.1-4.6-0.2-6.3
			C198.7,14.5,198.5,13,198.2,11.7z M189,44.6c0,5.4-0.1,8.7-0.4,9.8c-0.7,3-2.4,4.6-5.1,4.6c-2.3,0-4-1.2-4.9-3.6
			c-0.3-0.7-0.4-1.9-0.5-3.5c-0.1-1.6-0.1-4-0.1-7.3V23.7c0-2.5,0-4.6,0.1-6.3c0.1-1.7,0.2-2.9,0.3-3.5c0.7-3,2.4-4.6,5.2-4.6
			c2.3,0,3.9,1.2,4.8,3.6c0.3,0.7,0.4,1.9,0.5,3.4c0.1,1.6,0.1,4,0.1,7.4V44.6z"/>
		<polygon class="st0" points="225.3,67.3 252.5,67.3 252.5,58 235.4,58 235.4,37.6 247.7,37.6 247.7,28.3 235.4,28.3 235.4,10.3 
			252.5,10.3 252.5,1 225.3,1 		"/>
		<path class="st0" d="M287.4,41.1c-1-1.6-2.3-3.3-3.9-5.1c-1.7-1.8-3.8-3.9-6.4-6.3c-1.8-1.7-3.3-3.1-4.4-4.3
			c-1.1-1.2-2-2.3-2.7-3.4c-0.7-1.1-1.1-2.1-1.4-3c-0.3-1-0.4-2-0.4-3.1c0-2,0.5-3.6,1.5-4.8c1-1.2,2.4-1.8,4.1-1.8
			c1.9,0,3.2,0.6,4,1.8c0.8,1.2,1.4,3.3,1.7,6.3l9.6-1.4c-1.2-10.7-6.2-16-15-16c-4.8,0-8.6,1.5-11.4,4.5c-2.8,3-4.2,7-4.2,11.9
			c0,1.9,0.2,3.6,0.6,5.2c0.4,1.6,1,3.2,1.9,4.8c0.9,1.6,2.1,3.2,3.5,4.9c1.4,1.7,3.2,3.5,5.3,5.4c1.4,1.3,2.5,2.3,3.3,3.1
			c0.8,0.8,1.5,1.5,2,2c0.5,0.5,1,1,1.3,1.4c0.3,0.4,0.7,0.9,1.1,1.4c1.7,2.3,2.6,4.7,2.6,7.2c0,2.2-0.5,3.9-1.6,5.3s-2.6,2-4.4,2
			c-4.4,0-6.8-3.4-7.1-10.3l-9.5,1.7c0.1,2.7,0.5,5.2,1.3,7.4c0.8,2.2,2,4.1,3.4,5.7c1.4,1.6,3.1,2.8,5.1,3.7c2,0.9,4.2,1.3,6.7,1.3
			c2.3,0,4.4-0.4,6.4-1.2c1.9-0.8,3.6-2,5-3.5c1.4-1.5,2.5-3.3,3.2-5.4c0.8-2.1,1.1-4.4,1.1-6.9c0-2-0.2-3.8-0.5-5.4
			C289.1,44.3,288.4,42.7,287.4,41.1z"/>
		<polygon class="st0" points="324.5,0.9 314.4,0.9 314.4,67.3 341,67.3 341,58 324.5,58 		"/>
		<path class="st0" d="M377.6,11.7c-0.3-1.3-0.7-2.4-1.2-3.4c-0.5-1-1.1-2-1.9-3c-1.3-1.7-3-3-5.1-3.9S365.1,0,362.8,0
			c-2.3,0-4.5,0.5-6.5,1.4c-2,0.9-3.7,2.2-5,3.9c-0.8,1-1.5,2-2,3c-0.5,1-0.9,2.2-1.2,3.5c-0.3,1.3-0.5,2.8-0.6,4.6
			c-0.1,1.7-0.2,3.8-0.2,6.3v23.2c0,2.5,0.1,4.5,0.2,6.3c0.1,1.7,0.3,3.3,0.6,4.6c0.3,1.3,0.7,2.5,1.2,3.5c0.5,1,1.2,2,2,3
			c1.3,1.7,3,3,5,3.9c2,0.9,4.2,1.4,6.5,1.4c2.3,0,4.5-0.5,6.6-1.4c2.1-0.9,3.7-2.2,5.1-3.9c0.8-1,1.4-2,1.9-3
			c0.5-1,0.9-2.1,1.2-3.4c0.3-1.3,0.5-2.8,0.6-4.6c0.1-1.8,0.2-3.9,0.2-6.3V22.6c0-2.5-0.1-4.6-0.2-6.3
			C378.1,14.5,377.9,13,377.6,11.7z M368.4,44.6c0,5.4-0.1,8.7-0.4,9.8c-0.7,3-2.4,4.6-5.1,4.6c-2.3,0-4-1.2-4.9-3.6
			c-0.3-0.7-0.4-1.9-0.5-3.5c-0.1-1.6-0.1-4-0.1-7.3V23.7c0-2.5,0-4.6,0.1-6.3c0.1-1.7,0.2-2.9,0.3-3.5c0.7-3,2.4-4.6,5.2-4.6
			c2.3,0,3.9,1.2,4.8,3.6c0.3,0.7,0.4,1.9,0.5,3.4c0.1,1.6,0.1,4,0.1,7.4V44.6z"/>
		<path class="st0" d="M433.3,60.5c0.4-0.8,0.7-1.6,1-2.5c0.3-0.9,0.5-1.9,0.7-3c0.2-1.1,0.3-2.4,0.3-3.9c0.1-1.5,0.1-3.3,0.1-5.3
			V22.6c0-2.5-0.1-4.6-0.2-6.3c-0.1-1.8-0.3-3.3-0.6-4.6c-0.3-1.3-0.7-2.4-1.2-3.4c-0.5-1-1.1-2-1.9-3c-1.3-1.7-3-3-5.1-3.9
			c-2.1-0.9-4.2-1.4-6.6-1.4c-2.3,0-4.5,0.5-6.5,1.4s-3.7,2.2-5,3.9c-0.8,1-1.5,2-2,3c-0.5,1-0.9,2.2-1.2,3.5
			c-0.3,1.3-0.5,2.8-0.6,4.6c-0.1,1.7-0.1,3.8-0.1,6.3v23.2c0,2.5,0,4.5,0.1,6.3c0.1,1.7,0.3,3.3,0.6,4.6c0.3,1.3,0.7,2.5,1.2,3.5
			c0.5,1,1.2,2,2,3c1.3,1.7,3,3,5.1,3.9c2.1,0.9,4.2,1.3,6.6,1.3c1.2,0,2.3-0.1,3.3-0.3s2.1-0.6,3.3-1.1c1.1,1.9,2.5,3.3,4.2,4.1
			c1.7,0.8,3.9,1.3,6.9,1.3v-9.9c-1.1-0.1-2-0.3-2.6-0.6C434.4,61.6,433.8,61.1,433.3,60.5z M425.5,44.6c0,5.4-0.1,8.7-0.4,9.8
			c-0.7,3-2.4,4.6-5.1,4.6c-2.3,0-4-1.2-4.9-3.6c-0.3-0.7-0.4-1.9-0.5-3.5c-0.1-1.6-0.1-4-0.1-7.3V23.7c0-2.5,0-4.6,0.1-6.3
			c0.1-1.7,0.2-2.9,0.3-3.5c0.7-3,2.4-4.6,5.2-4.6c2.3,0,3.9,1.2,4.8,3.6c0.3,0.7,0.4,1.9,0.5,3.4c0.1,1.6,0.1,4,0.1,7.4V44.6z"/>
		<path class="st0" d="M465.2,44.6c0,5.4-0.1,8.7-0.4,9.8c-0.7,3.1-2.4,4.6-5.1,4.6c-2.3,0-4-1.2-4.9-3.6c-0.3-0.7-0.4-1.9-0.5-3.5
			c-0.1-1.6-0.1-4-0.1-7.4V0.9h-10v44.8c0,2.5,0,4.5,0.1,6.3c0.1,1.7,0.3,3.3,0.6,4.6c0.3,1.3,0.7,2.5,1.2,3.5c0.5,1,1.2,2,2,3
			c1.3,1.7,3,3,5,3.9c2,0.9,4.2,1.4,6.5,1.4c2.3,0,4.5-0.5,6.6-1.4c2.1-0.9,3.7-2.2,5.1-3.9c0.8-1,1.4-2,1.9-3
			c0.5-1,0.9-2.2,1.2-3.4s0.5-2.8,0.6-4.6c0.1-1.8,0.2-3.9,0.2-6.3V0.9h-10V44.6z"/>
		<polygon class="st0" points="511.4,10.3 511.4,1 484.2,1 484.2,67.3 511.4,67.3 511.4,58 494.3,58 494.3,37.6 506.6,37.6 
			506.6,28.3 494.3,28.3 494.3,10.3 		"/>
	</g>
	<g>
		<polygon class="st0" points="0,146.9 27.2,146.9 27.2,137.6 10,137.6 10,117.2 22.4,117.2 22.4,107.8 10,107.8 10,89.9 27.2,89.9 
			27.2,80.6 0,80.6 		"/>
		<path class="st0" d="M62.1,120.7c-1-1.6-2.3-3.3-3.9-5.1c-1.7-1.8-3.8-3.9-6.4-6.3c-1.8-1.7-3.3-3.1-4.4-4.3
			c-1.1-1.2-2-2.3-2.7-3.4c-0.7-1.1-1.1-2.1-1.4-3c-0.3-1-0.4-2-0.4-3.1c0-2,0.5-3.6,1.5-4.8c1-1.2,2.4-1.8,4.1-1.8
			c1.9,0,3.2,0.6,4,1.8c0.8,1.2,1.4,3.3,1.7,6.3l9.6-1.4c-1.2-10.7-6.2-16-15-16c-4.8,0-8.6,1.5-11.4,4.5c-2.8,3-4.2,7-4.2,11.9
			c0,1.9,0.2,3.6,0.6,5.2c0.4,1.6,1,3.2,1.9,4.8c0.9,1.6,2.1,3.2,3.5,4.9c1.4,1.7,3.2,3.5,5.3,5.4c1.4,1.3,2.5,2.3,3.3,3.1
			c0.8,0.8,1.5,1.5,2,2c0.5,0.5,1,1,1.3,1.4c0.3,0.4,0.7,0.9,1.1,1.4c1.7,2.3,2.6,4.7,2.6,7.2c0,2.2-0.5,3.9-1.6,5.3
			c-1.1,1.3-2.6,2-4.4,2c-4.4,0-6.8-3.4-7.1-10.3l-9.5,1.7c0.1,2.7,0.5,5.2,1.3,7.4c0.8,2.2,2,4.1,3.4,5.7c1.4,1.6,3.1,2.8,5.1,3.7
			c2,0.9,4.2,1.3,6.7,1.3c2.3,0,4.4-0.4,6.4-1.2c1.9-0.8,3.6-2,5-3.5c1.4-1.5,2.5-3.3,3.2-5.4c0.8-2.1,1.1-4.4,1.1-6.9
			c0-2-0.2-3.8-0.5-5.4C63.7,123.9,63.1,122.3,62.1,120.7z"/>
		<polygon class="st0" points="69.5,89.9 80.1,89.9 80.1,146.9 90.1,146.9 90.1,89.9 100.9,89.9 100.9,80.6 69.5,80.6 		"/>
		<path class="st0" d="M112.8,80.6L102,146.9h9.8l2.3-14.6h10.6l2.3,14.6h10.2l-11.5-66.4H112.8z M115.5,123l3.8-26.5l4,26.5H115.5z
			"/>
		<polygon class="st0" points="128.8,67.3 119.3,67.3 114.7,75.3 121.7,75.3 		"/>
		<path class="st0" d="M171.5,120.7c-1-1.6-2.3-3.3-3.9-5.1c-1.7-1.8-3.8-3.9-6.4-6.3c-1.8-1.7-3.3-3.1-4.4-4.3
			c-1.1-1.2-2-2.3-2.7-3.4c-0.7-1.1-1.1-2.1-1.4-3c-0.3-1-0.4-2-0.4-3.1c0-2,0.5-3.6,1.5-4.8c1-1.2,2.4-1.8,4.1-1.8
			c1.9,0,3.2,0.6,4,1.8c0.8,1.2,1.4,3.3,1.7,6.3l9.6-1.4c-1.2-10.7-6.2-16-15-16c-4.8,0-8.6,1.5-11.4,4.5c-2.8,3-4.2,7-4.2,11.9
			c0,1.9,0.2,3.6,0.6,5.2s1,3.2,1.9,4.8c0.9,1.6,2.1,3.2,3.5,4.9c1.4,1.7,3.2,3.5,5.3,5.4c1.4,1.3,2.5,2.3,3.3,3.1
			c0.8,0.8,1.5,1.5,2,2c0.5,0.5,1,1,1.3,1.4c0.3,0.4,0.7,0.9,1.1,1.4c1.7,2.3,2.6,4.7,2.6,7.2c0,2.2-0.5,3.9-1.6,5.3
			c-1.1,1.3-2.6,2-4.4,2c-4.4,0-6.8-3.4-7.1-10.3l-9.5,1.7c0.1,2.7,0.5,5.2,1.3,7.4c0.8,2.2,2,4.1,3.4,5.7c1.4,1.6,3.1,2.8,5.1,3.7
			c2,0.9,4.2,1.3,6.7,1.3c2.3,0,4.4-0.4,6.4-1.2c1.9-0.8,3.6-2,5-3.5c1.4-1.5,2.5-3.3,3.2-5.4c0.8-2.1,1.1-4.4,1.1-6.9
			c0-2-0.2-3.8-0.5-5.4C173.2,123.9,172.5,122.3,171.5,120.7z"/>
		<path class="st0" d="M212.7,80.6h-14.1v66.4h14.1c5.8,0,10-1.5,12.7-4.5c2.7-3,4.1-7.7,4.1-14.2V99.3c0-6.4-1.4-11.2-4.1-14.2
			C222.7,82.1,218.4,80.6,212.7,80.6z M219.4,126.3c0,2.5-0.1,4.4-0.3,5.5c-0.2,1.2-0.7,2.2-1.3,3.2c-1.3,1.7-3.4,2.6-6.2,2.6h-3
			V89.9h3c2.8,0,4.9,0.9,6.2,2.6c0.7,0.9,1.1,2,1.3,3.2c0.2,1.2,0.3,3,0.3,5.5V126.3z"/>
		<rect x="238" y="80.6" class="st0" width="10" height="66.4"/>
		<path class="st0" d="M284.3,120.7c-1-1.6-2.3-3.3-3.9-5.1c-1.7-1.8-3.8-3.9-6.4-6.3c-1.8-1.7-3.3-3.1-4.4-4.3
			c-1.1-1.2-2-2.3-2.7-3.4c-0.7-1.1-1.1-2.1-1.4-3c-0.3-1-0.4-2-0.4-3.1c0-2,0.5-3.6,1.5-4.8c1-1.2,2.4-1.8,4.1-1.8
			c1.9,0,3.2,0.6,4,1.8c0.8,1.2,1.4,3.3,1.7,6.3l9.6-1.4c-1.2-10.7-6.2-16-15-16c-4.8,0-8.6,1.5-11.4,4.5c-2.8,3-4.2,7-4.2,11.9
			c0,1.9,0.2,3.6,0.6,5.2c0.4,1.6,1,3.2,1.9,4.8c0.9,1.6,2.1,3.2,3.5,4.9c1.4,1.7,3.2,3.5,5.3,5.4c1.4,1.3,2.5,2.3,3.3,3.1
			c0.8,0.8,1.5,1.5,2,2c0.5,0.5,1,1,1.3,1.4c0.3,0.4,0.7,0.9,1.1,1.4c1.7,2.3,2.6,4.7,2.6,7.2c0,2.2-0.5,3.9-1.6,5.3s-2.6,2-4.4,2
			c-4.4,0-6.8-3.4-7.1-10.3l-9.5,1.7c0.1,2.7,0.5,5.2,1.3,7.4c0.8,2.2,2,4.1,3.4,5.7c1.4,1.6,3.1,2.8,5.1,3.7c2,0.9,4.2,1.3,6.7,1.3
			c2.3,0,4.4-0.4,6.4-1.2c1.9-0.8,3.6-2,5-3.5c1.4-1.5,2.5-3.3,3.2-5.4c0.8-2.1,1.1-4.4,1.1-6.9c0-2-0.2-3.8-0.5-5.4
			C286,123.9,285.3,122.3,284.3,120.7z"/>
		<path class="st0" d="M321.1,84.9c-1.4-1.6-3.1-2.7-5.3-3.3c-2.2-0.7-4.9-1-8.1-1h-13.9v66.4h10v-27.5h4c3.2,0,5.8-0.3,8-1
			c2.2-0.7,3.9-1.8,5.3-3.3c1.4-1.6,2.3-3.6,2.9-6.1c0.6-2.5,0.9-5.5,0.9-9.1s-0.3-6.6-0.9-9.1C323.4,88.5,322.4,86.5,321.1,84.9z
			 M314.5,105c-0.2,1.3-0.6,2.3-1.2,3.1s-1.4,1.3-2.4,1.6c-1,0.3-2.3,0.4-3.9,0.4h-3.1V89.9h3.1c1.6,0,2.9,0.1,3.9,0.4
			c1,0.3,1.9,0.8,2.4,1.6s1,1.8,1.2,3.1c0.2,1.3,0.3,3,0.3,4.9C314.8,102,314.7,103.7,314.5,105z"/>
		<path class="st0" d="M353.2,124.1c0,5.4-0.1,8.7-0.4,9.8c-0.7,3.1-2.4,4.6-5.1,4.6c-2.3,0-4-1.2-4.9-3.6c-0.3-0.7-0.4-1.9-0.5-3.5
			c-0.1-1.6-0.1-4-0.1-7.4V80.5h-10v44.8c0,2.5,0.1,4.5,0.1,6.3c0.1,1.7,0.3,3.3,0.6,4.6c0.3,1.3,0.7,2.5,1.2,3.5c0.5,1,1.2,2,2,3
			c1.3,1.7,3,3,5,3.9c2,0.9,4.2,1.4,6.5,1.4s4.5-0.5,6.6-1.4c2.1-0.9,3.7-2.2,5.1-3.9c0.8-1,1.4-2,1.9-3c0.5-1,0.9-2.2,1.2-3.4
			c0.3-1.3,0.5-2.8,0.6-4.6c0.1-1.8,0.2-3.9,0.2-6.3V80.5h-10V124.1z"/>
		<polygon class="st0" points="372.2,146.9 399.4,146.9 399.4,137.6 382.3,137.6 382.3,117.2 394.6,117.2 394.6,107.8 382.3,107.8 
			382.3,89.9 399.4,89.9 399.4,80.6 372.2,80.6 		"/>
		<path class="st0" d="M434.4,120.7c-1-1.6-2.3-3.3-3.9-5.1c-1.7-1.8-3.8-3.9-6.4-6.3c-1.8-1.7-3.2-3.1-4.4-4.3
			c-1.1-1.2-2-2.3-2.7-3.4c-0.7-1.1-1.1-2.1-1.4-3c-0.3-1-0.4-2-0.4-3.1c0-2,0.5-3.6,1.5-4.8c1-1.2,2.4-1.8,4.1-1.8
			c1.9,0,3.2,0.6,4,1.8c0.8,1.2,1.4,3.3,1.7,6.3l9.6-1.4c-1.2-10.7-6.2-16-15-16c-4.8,0-8.6,1.5-11.4,4.5c-2.8,3-4.2,7-4.2,11.9
			c0,1.9,0.2,3.6,0.6,5.2c0.4,1.6,1,3.2,1.9,4.8c0.9,1.6,2.1,3.2,3.5,4.9c1.4,1.7,3.2,3.5,5.3,5.4c1.4,1.3,2.5,2.3,3.3,3.1
			c0.8,0.8,1.5,1.5,2,2c0.5,0.5,1,1,1.3,1.4c0.3,0.4,0.7,0.9,1.1,1.4c1.7,2.3,2.6,4.7,2.6,7.2c0,2.2-0.5,3.9-1.6,5.3
			c-1.1,1.3-2.6,2-4.4,2c-4.4,0-6.8-3.4-7.1-10.3l-9.4,1.7c0.1,2.7,0.5,5.2,1.3,7.4c0.8,2.2,2,4.1,3.4,5.7c1.4,1.6,3.1,2.8,5.1,3.7
			c2,0.9,4.2,1.3,6.7,1.3c2.3,0,4.4-0.4,6.4-1.2c1.9-0.8,3.6-2,5-3.5c1.4-1.5,2.5-3.3,3.2-5.4c0.8-2.1,1.1-4.4,1.1-6.9
			c0-2-0.2-3.8-0.5-5.4C436,123.9,435.3,122.3,434.4,120.7z"/>
		<polygon class="st0" points="441.8,89.9 452.3,89.9 452.3,146.9 462.4,146.9 462.4,89.9 473.1,89.9 473.1,80.6 441.8,80.6 		"/>
		<path class="st0" d="M510,95.8c-0.1-1.8-0.3-3.3-0.6-4.6c-0.3-1.3-0.7-2.4-1.2-3.4c-0.5-1-1.1-2-1.9-3c-1.3-1.7-3-3-5.1-3.9
			s-4.2-1.4-6.6-1.4c-2.3,0-4.5,0.5-6.5,1.4c-2,0.9-3.7,2.2-5,3.9c-0.8,1-1.5,2-2,3c-0.5,1-0.9,2.2-1.2,3.5
			c-0.3,1.3-0.5,2.8-0.6,4.6c-0.1,1.7-0.2,3.8-0.2,6.3v23.2c0,2.5,0.1,4.5,0.2,6.3c0.1,1.7,0.3,3.3,0.6,4.6c0.3,1.3,0.7,2.5,1.2,3.5
			c0.5,1,1.2,2,2,3c1.3,1.7,3,3,5,3.9c2,0.9,4.2,1.4,6.5,1.4c2.3,0,4.5-0.5,6.6-1.4c2.1-0.9,3.7-2.2,5.1-3.9c0.8-1,1.4-2,1.9-3
			c0.5-1,0.9-2.1,1.2-3.4c0.3-1.3,0.5-2.8,0.6-4.6c0.1-1.8,0.2-3.9,0.2-6.3v-23.2C510.2,99.7,510.1,97.6,510,95.8z M500.2,124.2
			c0,5.4-0.1,8.7-0.4,9.8c-0.7,3-2.4,4.6-5.1,4.6c-2.3,0-4-1.2-4.9-3.6c-0.3-0.7-0.4-1.9-0.5-3.5c-0.1-1.6-0.1-4-0.1-7.3v-20.9
			c0-2.5,0-4.6,0.1-6.3c0.1-1.7,0.2-2.9,0.3-3.5c0.7-3,2.4-4.6,5.2-4.6c2.3,0,3.9,1.2,4.8,3.6c0.3,0.7,0.4,1.9,0.5,3.4
			c0.1,1.6,0.1,4,0.1,7.4V124.2z"/>
	</g>
	<g>
		<path class="st0" d="M105.6,160.2l-10.8,66.4h9.8l2.3-14.6h10.6l2.3,14.6h10.2l-11.5-66.4H105.6z M108.3,202.5l3.8-26.5l4,26.5
			H108.3z"/>
		<polygon class="st0" points="175.4,187.2 164.5,187.2 164.5,160.1 154.5,160.1 154.5,226.5 164.5,226.5 164.5,196.6 175.4,196.6 
			175.4,226.5 185.4,226.5 185.4,160.1 175.4,160.1 		"/>
		<path class="st0" d="M203.3,160.2l-10.8,66.4h9.8l2.3-14.6h10.6l2.3,14.6h10.2l-11.5-66.4H203.3z M206,202.5l3.8-26.5l4,26.5H206z
			"/>
		<path class="st0" d="M263,166.5c-1.3-2.3-3.1-4.2-5.4-5.4c-2.3-1.3-4.9-1.9-7.8-1.9c-2.3,0-4.5,0.4-6.6,1.3
			c-2.1,0.9-3.8,2.2-5.1,3.9c-0.8,1-1.5,2-2,3c-0.5,1-1,2.1-1.3,3.4c-0.3,1.3-0.5,2.9-0.6,4.7c-0.1,1.8-0.2,4-0.2,6.6v22.5
			c0,2.6,0.1,4.8,0.2,6.6s0.3,3.3,0.6,4.6c0.3,1.3,0.7,2.4,1.3,3.4c0.5,1,1.2,2,2,3c1.3,1.7,3,3,5.1,3.9c2.1,0.9,4.3,1.3,6.6,1.3
			c3,0,5.6-0.7,7.9-2.1c2.3-1.4,4.1-3.3,5.3-5.8c0.5-0.9,0.8-1.7,1.1-2.5c0.3-0.8,0.5-1.7,0.7-2.6c0.2-1,0.3-2,0.3-3.2
			c0.1-1.2,0.1-2.5,0.1-4v-4.4h-10c0,1.5,0,3.3-0.1,5.3c0,2-0.1,3.4-0.2,4.4c-0.1,1.7-0.7,3.1-1.6,4.1c-1,1-2.2,1.5-3.6,1.5
			c-2.3,0-3.9-1.2-4.9-3.6c-0.3-0.7-0.4-1.9-0.5-3.4c-0.1-1.6-0.1-4-0.1-7.3v-21c0-5.4,0.1-8.7,0.4-9.8c0.7-3,2.5-4.6,5.2-4.6
			c1.5,0,2.7,0.5,3.6,1.4c1,1,1.5,2.2,1.7,3.8c0.1,0.8,0.1,1.9,0.1,3.4c0,1.5,0.1,3.2,0.1,5.1h10v-4.1c0-2.9-0.2-5.2-0.5-6.8
			C264.5,169.7,263.9,168.1,263,166.5z"/>
		<polygon class="st0" points="273,226.5 300.1,226.5 300.1,217.2 283,217.2 283,196.8 295.3,196.8 295.3,187.4 283,187.4 
			283,169.5 300.1,169.5 300.1,160.2 273,160.2 		"/>
		<path class="st0" d="M336.6,189.6c1-2.5,1.5-5.9,1.5-10.2c0-6.6-1.3-11.5-4-14.6c-2.7-3.1-6.9-4.6-12.6-4.6h-13.9v66.4h10v-27.8
			h4.7l6.2,27.8h10.6l-7.7-30.4C333.9,194.3,335.6,192.1,336.6,189.6z M326.8,186.6c-0.5,1.1-1.2,1.9-2.1,2.2
			c-0.8,0.4-2.2,0.5-4,0.5h-3.1v-19.9h3.1c1.8,0,3.2,0.2,4,0.5c0.8,0.4,1.5,1.1,2.1,2.2c0.8,1.8,1.3,4.2,1.3,7.2
			C328.1,182.4,327.6,184.8,326.8,186.6z"/>
		<polygon class="st0" points="346,226.5 349.5,226.5 346,238.1 350.5,238.1 355.6,226.5 355.6,216.3 346,216.3 		"/>
		<path class="st0" d="M409.3,200.2c-1-1.6-2.3-3.3-3.9-5.1c-1.7-1.8-3.8-3.9-6.4-6.3c-1.8-1.7-3.2-3.1-4.4-4.3
			c-1.1-1.2-2-2.3-2.7-3.4c-0.7-1.1-1.1-2.1-1.4-3c-0.3-1-0.4-2-0.4-3.1c0-2,0.5-3.6,1.5-4.8c1-1.2,2.4-1.8,4.1-1.8
			c1.9,0,3.2,0.6,4,1.8c0.8,1.2,1.4,3.3,1.7,6.3l9.6-1.4c-1.2-10.7-6.2-16-15-16c-4.8,0-8.6,1.5-11.4,4.5c-2.8,3-4.2,7-4.2,11.9
			c0,1.9,0.2,3.6,0.6,5.2c0.4,1.6,1,3.2,1.9,4.8c0.9,1.6,2.1,3.2,3.5,4.9c1.4,1.7,3.2,3.5,5.3,5.4c1.4,1.3,2.5,2.3,3.3,3.1
			c0.8,0.8,1.5,1.5,2,2c0.5,0.5,1,1,1.3,1.4c0.3,0.4,0.7,0.9,1.1,1.4c1.7,2.3,2.6,4.7,2.6,7.2c0,2.2-0.5,3.9-1.6,5.3s-2.6,2-4.4,2
			c-4.4,0-6.8-3.4-7.1-10.3l-9.4,1.7c0.1,2.7,0.5,5.2,1.3,7.4c0.8,2.2,2,4.1,3.4,5.7c1.4,1.6,3.1,2.8,5.1,3.7c2,0.9,4.2,1.3,6.7,1.3
			c2.3,0,4.4-0.4,6.4-1.2c1.9-0.8,3.6-2,5-3.5c1.4-1.5,2.5-3.3,3.2-5.4c0.8-2.1,1.1-4.4,1.1-6.9c0-2-0.2-3.8-0.5-5.4
			C410.9,203.5,410.3,201.9,409.3,200.2z"/>
		<rect x="418.7" y="160.2" class="st0" width="10" height="66.4"/>
		<polygon class="st0" points="461.2,199.6 447.5,160.2 437.5,160.2 437.5,226.5 446.7,226.5 446.7,185.5 461.2,226.5 470.4,226.5 
			470.4,160.2 461.2,160.2 		"/>
		<path class="st0" d="M510,175.4c-0.1-1.8-0.3-3.3-0.6-4.6c-0.3-1.3-0.7-2.4-1.2-3.4c-0.5-1-1.1-2-1.9-3c-1.3-1.7-3-3-5.1-3.9
			c-2.1-0.9-4.2-1.4-6.6-1.4s-4.5,0.5-6.5,1.4c-2,0.9-3.7,2.2-5,3.9c-0.8,1-1.5,2-2,3c-0.5,1-0.9,2.2-1.2,3.5
			c-0.3,1.3-0.5,2.8-0.6,4.6c-0.1,1.7-0.1,3.8-0.1,6.3v23.2c0,2.5,0,4.5,0.1,6.3c0.1,1.7,0.3,3.3,0.6,4.6c0.3,1.3,0.7,2.5,1.2,3.5
			c0.5,1,1.2,2,2,3c1.3,1.7,3,3,5,3.9c2,0.9,4.2,1.4,6.5,1.4s4.5-0.5,6.6-1.4c2.1-0.9,3.7-2.2,5.1-3.9c0.8-1,1.4-2,1.9-3
			c0.5-1,0.9-2.1,1.2-3.4c0.3-1.3,0.5-2.8,0.6-4.6c0.1-1.8,0.2-3.9,0.2-6.3v-23.2C510.2,179.3,510.1,177.2,510,175.4z M500.2,203.8
			c0,5.4-0.1,8.7-0.4,9.8c-0.7,3-2.4,4.6-5.1,4.6c-2.3,0-4-1.2-4.9-3.6c-0.3-0.7-0.4-1.9-0.5-3.5c-0.1-1.6-0.1-4-0.1-7.3v-20.9
			c0-2.5,0-4.6,0.1-6.3c0.1-1.7,0.2-2.9,0.3-3.5c0.7-3,2.4-4.6,5.2-4.6c2.3,0,3.9,1.2,4.8,3.6c0.3,0.7,0.4,1.9,0.5,3.4
			c0.1,1.6,0.1,4,0.1,7.4V203.8z"/>
	</g>
	<g>
		<polygon class="st0" points="125.9,239.6 115.9,239.6 115.9,306.1 142.4,306.1 142.4,296.7 125.9,296.7 		"/>
		<path class="st0" d="M179,250.4c-0.3-1.3-0.7-2.4-1.2-3.4c-0.5-1-1.1-2-1.9-3c-1.3-1.7-3-3-5.1-3.9c-2.1-0.9-4.2-1.4-6.6-1.4
			c-2.3,0-4.5,0.5-6.5,1.4c-2,0.9-3.7,2.2-5,3.9c-0.8,1-1.5,2-2,3c-0.5,1-0.9,2.2-1.2,3.5c-0.3,1.3-0.5,2.8-0.6,4.6
			c-0.1,1.7-0.1,3.8-0.1,6.3v23.2c0,2.5,0,4.5,0.1,6.3c0.1,1.7,0.3,3.3,0.6,4.6c0.3,1.3,0.7,2.5,1.2,3.5c0.5,1,1.2,2,2,3
			c1.3,1.7,3,3,5,3.9c2,0.9,4.2,1.4,6.5,1.4c2.3,0,4.5-0.5,6.6-1.4c2.1-0.9,3.7-2.2,5.1-3.9c0.8-1,1.4-2,1.9-3
			c0.5-1,0.9-2.1,1.2-3.4c0.3-1.3,0.5-2.8,0.6-4.6c0.1-1.8,0.2-3.9,0.2-6.3v-23.2c0-2.5-0.1-4.6-0.2-6.3
			C179.5,253.3,179.3,251.7,179,250.4z M169.8,283.4c0,5.4-0.1,8.7-0.4,9.8c-0.7,3-2.4,4.6-5.1,4.6c-2.3,0-4-1.2-4.9-3.6
			c-0.3-0.7-0.4-1.9-0.5-3.5s-0.1-4-0.1-7.3v-20.9c0-2.5,0-4.6,0.1-6.3c0.1-1.7,0.2-2.9,0.3-3.5c0.7-3,2.4-4.6,5.2-4.6
			c2.3,0,3.9,1.2,4.8,3.6c0.3,0.7,0.4,1.9,0.5,3.4c0.1,1.6,0.1,4,0.1,7.4V283.4z"/>
		<path class="st0" d="M234.8,299.2c0.4-0.8,0.7-1.6,1-2.5c0.3-0.9,0.5-1.9,0.7-3c0.2-1.1,0.3-2.4,0.3-3.9c0.1-1.5,0.1-3.3,0.1-5.3
			v-23.2c0-2.5-0.1-4.6-0.2-6.3c-0.1-1.8-0.3-3.3-0.6-4.6c-0.3-1.3-0.7-2.4-1.2-3.4c-0.5-1-1.1-2-1.9-3c-1.3-1.7-3-3-5.1-3.9
			s-4.2-1.4-6.6-1.4c-2.3,0-4.5,0.5-6.5,1.4c-2,0.9-3.7,2.2-5,3.9c-0.8,1-1.5,2-2,3c-0.5,1-0.9,2.2-1.2,3.5
			c-0.3,1.3-0.5,2.8-0.6,4.6c-0.1,1.7-0.2,3.8-0.2,6.3v23.2c0,2.5,0.1,4.5,0.2,6.3c0.1,1.7,0.3,3.3,0.6,4.6c0.3,1.3,0.7,2.5,1.2,3.5
			c0.5,1,1.2,2,2,3c1.3,1.7,3,3,5.1,3.9c2.1,0.9,4.2,1.3,6.6,1.3c1.2,0,2.3-0.1,3.3-0.3s2.1-0.6,3.3-1.1c1.1,1.9,2.5,3.3,4.2,4.1
			c1.7,0.8,3.9,1.3,6.9,1.3v-9.9c-1.1-0.1-2-0.3-2.6-0.6C235.9,300.4,235.3,299.9,234.8,299.2z M226.9,283.4c0,5.4-0.1,8.7-0.4,9.8
			c-0.7,3-2.4,4.6-5.1,4.6c-2.3,0-4-1.2-4.9-3.6c-0.3-0.7-0.4-1.9-0.5-3.5c-0.1-1.6-0.1-4-0.1-7.3v-20.9c0-2.5,0-4.6,0.1-6.3
			c0.1-1.7,0.2-2.9,0.3-3.5c0.7-3,2.4-4.6,5.2-4.6c2.3,0,3.9,1.2,4.8,3.6c0.3,0.7,0.4,1.9,0.5,3.4c0.1,1.6,0.1,4,0.1,7.4V283.4z"/>
		<path class="st0" d="M266.7,283.3c0,5.4-0.1,8.7-0.4,9.8c-0.7,3.1-2.4,4.6-5.1,4.6c-2.3,0-4-1.2-4.9-3.6c-0.3-0.7-0.4-1.9-0.5-3.5
			c-0.1-1.6-0.1-4-0.1-7.4v-43.7h-10v44.8c0,2.5,0.1,4.5,0.1,6.3c0.1,1.7,0.3,3.3,0.6,4.6c0.3,1.3,0.7,2.5,1.2,3.5c0.5,1,1.2,2,2,3
			c1.3,1.7,3,3,5,3.9c2,0.9,4.2,1.4,6.5,1.4c2.3,0,4.5-0.5,6.6-1.4c2.1-0.9,3.7-2.2,5.1-3.9c0.8-1,1.4-2,1.9-3
			c0.5-1,0.9-2.2,1.2-3.4c0.3-1.3,0.5-2.8,0.6-4.6c0.1-1.8,0.2-3.9,0.2-6.3v-44.8h-10V283.3z"/>
		<polygon class="st0" points="285.7,306.1 312.8,306.1 312.8,296.7 295.7,296.7 295.7,276.4 308.1,276.4 308.1,267 295.7,267 
			295.7,249.1 312.8,249.1 312.8,239.7 285.7,239.7 		"/>
		<polygon class="st0" points="337.9,306.1 365.1,306.1 365.1,296.7 348,296.7 348,276.4 360.3,276.4 360.3,267 348,267 348,249.1 
			365.1,249.1 365.1,239.7 337.9,239.7 		"/>
		<path class="st0" d="M400,279.8c-1-1.6-2.3-3.3-3.9-5.1c-1.7-1.8-3.8-3.9-6.4-6.3c-1.8-1.7-3.3-3.1-4.4-4.3s-2-2.3-2.7-3.4
			c-0.7-1.1-1.1-2.1-1.4-3c-0.3-1-0.4-2-0.4-3.1c0-2,0.5-3.6,1.5-4.8c1-1.2,2.4-1.8,4.1-1.8c1.9,0,3.2,0.6,4,1.8
			c0.8,1.2,1.4,3.3,1.7,6.3l9.6-1.4c-1.2-10.7-6.2-16-15-16c-4.8,0-8.6,1.5-11.4,4.5c-2.8,3-4.2,7-4.2,11.9c0,1.9,0.2,3.6,0.6,5.2
			s1,3.2,1.9,4.8c0.9,1.6,2.1,3.2,3.5,4.9c1.4,1.7,3.2,3.5,5.3,5.4c1.4,1.3,2.5,2.3,3.3,3.1c0.8,0.8,1.5,1.5,2,2
			c0.5,0.5,1,1,1.3,1.4c0.3,0.4,0.7,0.9,1.1,1.4c1.7,2.3,2.6,4.7,2.6,7.1c0,2.2-0.5,3.9-1.6,5.3c-1.1,1.3-2.6,2-4.4,2
			c-4.4,0-6.8-3.4-7.1-10.3l-9.5,1.7c0.1,2.7,0.5,5.2,1.3,7.4s2,4.1,3.4,5.7c1.4,1.6,3.1,2.8,5.1,3.7c2,0.9,4.2,1.3,6.7,1.3
			c2.3,0,4.4-0.4,6.4-1.2c1.9-0.8,3.6-2,5-3.5c1.4-1.5,2.5-3.3,3.2-5.4c0.8-2.1,1.1-4.4,1.1-6.9c0-2-0.2-3.8-0.5-5.4
			C401.7,283.1,401,281.5,400,279.8z"/>
		<polygon class="st0" points="407.4,249.1 418,249.1 418,306.1 428,306.1 428,249.1 438.8,249.1 438.8,239.7 407.4,239.7 		"/>
		<polygon class="st0" points="466.7,226.5 457.2,226.5 452.6,234.5 459.6,234.5 		"/>
		<path class="st0" d="M450.7,239.7l-10.8,66.4h9.8l2.3-14.6h10.6l2.3,14.6h10.2l-11.5-66.4H450.7z M453.4,282.1l3.8-26.5l4,26.5
			H453.4z"/>
		<path class="st0" d="M511.5,284.7c-0.4-1.6-1-3.2-2-4.9c-1-1.6-2.3-3.3-3.9-5.1c-1.7-1.8-3.8-3.9-6.4-6.3
			c-1.8-1.7-3.2-3.1-4.4-4.3c-1.1-1.2-2-2.3-2.7-3.4s-1.1-2.1-1.4-3c-0.3-1-0.4-2-0.4-3.1c0-2,0.5-3.6,1.5-4.8
			c1-1.2,2.4-1.8,4.1-1.8c1.9,0,3.2,0.6,4,1.8c0.8,1.2,1.4,3.3,1.7,6.3l9.6-1.4c-1.2-10.7-6.2-16-15-16c-4.8,0-8.6,1.5-11.4,4.5
			c-2.8,3-4.2,7-4.2,11.9c0,1.9,0.2,3.6,0.6,5.2c0.4,1.6,1,3.2,1.9,4.8c0.9,1.6,2.1,3.2,3.5,4.9c1.4,1.7,3.2,3.5,5.3,5.4
			c1.4,1.3,2.5,2.3,3.3,3.1c0.8,0.8,1.5,1.5,2,2c0.5,0.5,1,1,1.3,1.4c0.3,0.4,0.7,0.9,1.1,1.4c1.7,2.3,2.6,4.7,2.6,7.1
			c0,2.2-0.5,3.9-1.6,5.3s-2.6,2-4.4,2c-4.4,0-6.8-3.4-7.1-10.3l-9.4,1.7c0.1,2.7,0.5,5.2,1.3,7.4c0.8,2.2,2,4.1,3.4,5.7
			c1.4,1.6,3.1,2.8,5.1,3.7c2,0.9,4.2,1.3,6.7,1.3c2.3,0,4.4-0.4,6.4-1.2c1.9-0.8,3.6-2,5-3.5c1.4-1.5,2.5-3.3,3.2-5.4
			c0.8-2.1,1.1-4.4,1.1-6.9C512,288.1,511.8,286.3,511.5,284.7z"/>
	</g>
	<g>
		<path class="st1" d="M79.2,325.7c-1.3-2.3-3.1-4.2-5.4-5.4c-2.3-1.3-4.9-1.9-7.8-1.9c-2.3,0-4.5,0.4-6.6,1.3
			c-2.1,0.9-3.8,2.2-5.1,3.9c-0.8,1-1.5,2-2,3c-0.5,1-1,2.1-1.3,3.4c-0.3,1.3-0.5,2.9-0.6,4.7c-0.1,1.8-0.2,4-0.2,6.6v22.5
			c0,2.6,0.1,4.8,0.2,6.6c0.1,1.8,0.3,3.3,0.6,4.6c0.3,1.3,0.7,2.4,1.3,3.4c0.5,1,1.2,2,2,3c1.3,1.7,3,3,5.1,3.9
			c2.1,0.9,4.3,1.3,6.6,1.3c3,0,5.6-0.7,7.9-2.1c2.3-1.4,4.1-3.3,5.3-5.8c0.5-0.9,0.8-1.7,1.1-2.5s0.5-1.7,0.7-2.6
			c0.2-1,0.3-2,0.3-3.2c0.1-1.2,0.1-2.5,0.1-4v-4.4h-10c0,1.5,0,3.3-0.1,5.3c0,2-0.1,3.4-0.2,4.4c-0.1,1.7-0.7,3.1-1.6,4.1
			c-1,1-2.2,1.5-3.6,1.5c-2.3,0-3.9-1.2-4.9-3.6c-0.3-0.7-0.4-1.9-0.5-3.4c-0.1-1.6-0.1-4-0.1-7.3v-21c0-5.4,0.1-8.7,0.4-9.8
			c0.7-3,2.5-4.6,5.2-4.6c1.5,0,2.7,0.5,3.6,1.4c1,1,1.5,2.2,1.7,3.8c0.1,0.8,0.1,1.9,0.1,3.4c0,1.5,0.1,3.2,0.1,5.1h10v-4.1
			c0-2.9-0.2-5.2-0.5-6.8C80.6,328.9,80,327.3,79.2,325.7z"/>
		<path class="st1" d="M119.5,330c-0.3-1.3-0.7-2.4-1.2-3.4c-0.5-1-1.1-2-1.9-3c-1.3-1.7-3-3-5.1-3.9c-2.1-0.9-4.2-1.4-6.6-1.4
			c-2.3,0-4.5,0.5-6.5,1.4c-2,0.9-3.7,2.2-5,3.9c-0.8,1-1.5,2-2,3c-0.5,1-0.9,2.2-1.2,3.5c-0.3,1.3-0.5,2.8-0.6,4.6
			c-0.1,1.7-0.2,3.8-0.2,6.3v23.2c0,2.5,0.1,4.5,0.2,6.3c0.1,1.7,0.3,3.3,0.6,4.6c0.3,1.3,0.7,2.5,1.2,3.5c0.5,1,1.2,2,2,3
			c1.3,1.7,3,3,5,3.9c2,0.9,4.2,1.4,6.5,1.4c2.3,0,4.5-0.5,6.6-1.4c2.1-0.9,3.7-2.2,5.1-3.9c0.8-1,1.4-2,1.9-3
			c0.5-1,0.9-2.1,1.2-3.4c0.3-1.3,0.5-2.8,0.6-4.6c0.1-1.8,0.2-3.9,0.2-6.3v-23.2c0-2.5-0.1-4.6-0.2-6.3
			C120,332.8,119.8,331.3,119.5,330z M110.3,363c0,5.4-0.1,8.7-0.4,9.8c-0.7,3-2.4,4.6-5.1,4.6c-2.3,0-4-1.2-4.9-3.6
			c-0.3-0.7-0.4-1.9-0.5-3.5c-0.1-1.6-0.1-4-0.1-7.3V342c0-2.5,0-4.6,0.1-6.3c0.1-1.7,0.2-2.9,0.3-3.5c0.7-3,2.4-4.6,5.2-4.6
			c2.3,0,3.9,1.2,4.8,3.6c0.3,0.7,0.4,1.9,0.5,3.4c0.1,1.6,0.1,4,0.1,7.4V363z"/>
		<polygon class="st1" points="150.6,359.7 142.3,319.3 129,319.3 129,385.7 138.3,385.7 138.3,339.8 148.3,385.7 152.8,385.7 
			162.3,339.8 162.3,385.7 171.6,385.7 171.6,319.3 158.2,319.3 		"/>
		<path class="st1" d="M207.8,323.7c-1.4-1.6-3.1-2.7-5.3-3.3c-2.2-0.7-4.9-1-8.1-1h-13.9v66.4h10v-27.5h4c3.2,0,5.8-0.3,8-1
			c2.2-0.7,3.9-1.8,5.3-3.3c1.4-1.6,2.3-3.6,2.9-6.1c0.6-2.5,0.9-5.5,0.9-9.1s-0.3-6.6-0.9-9.1C210.1,327.2,209.1,325.2,207.8,323.7
			z M201.2,343.7c-0.2,1.3-0.6,2.3-1.2,3.1c-0.6,0.8-1.4,1.3-2.4,1.6c-1,0.3-2.3,0.4-3.9,0.4h-3.1v-20.2h3.1c1.6,0,2.9,0.1,3.9,0.4
			c1,0.3,1.9,0.8,2.4,1.6c0.6,0.8,1,1.8,1.2,3.1c0.2,1.3,0.3,3,0.3,4.9C201.5,340.8,201.4,342.4,201.2,343.7z"/>
		<path class="st1" d="M247.9,348.8c1-2.5,1.5-5.9,1.5-10.2c0-6.6-1.3-11.5-4-14.6c-2.7-3.1-6.9-4.6-12.6-4.6h-13.9v66.4h10v-27.8
			h4.7l6.2,27.8h10.6l-7.7-30.4C245.1,353.4,246.9,351.3,247.9,348.8z M238.1,345.8c-0.5,1.1-1.2,1.9-2,2.2c-0.8,0.4-2.2,0.5-4,0.5
			h-3.1v-19.9h3.1c1.8,0,3.2,0.2,4,0.5c0.8,0.4,1.5,1.1,2,2.2c0.8,1.8,1.3,4.2,1.3,7.2C239.3,341.6,238.9,344,238.1,345.8z"/>
		<path class="st1" d="M287.7,330c-0.3-1.3-0.7-2.4-1.2-3.4c-0.5-1-1.1-2-1.9-3c-1.3-1.7-3-3-5.1-3.9s-4.2-1.4-6.6-1.4
			c-2.3,0-4.5,0.5-6.5,1.4c-2,0.9-3.7,2.2-5,3.9c-0.8,1-1.5,2-2,3c-0.5,1-0.9,2.2-1.2,3.5c-0.3,1.3-0.5,2.8-0.6,4.6
			c-0.1,1.7-0.2,3.8-0.2,6.3v23.2c0,2.5,0.1,4.5,0.2,6.3c0.1,1.7,0.3,3.3,0.6,4.6c0.3,1.3,0.7,2.5,1.2,3.5c0.5,1,1.2,2,2,3
			c1.3,1.7,3,3,5,3.9c2,0.9,4.2,1.4,6.5,1.4c2.3,0,4.5-0.5,6.6-1.4c2.1-0.9,3.7-2.2,5.1-3.9c0.8-1,1.4-2,1.9-3
			c0.5-1,0.9-2.1,1.2-3.4c0.3-1.3,0.5-2.8,0.6-4.6c0.1-1.8,0.2-3.9,0.2-6.3v-23.2c0-2.5-0.1-4.6-0.2-6.3
			C288.2,332.8,288,331.3,287.7,330z M278.5,363c0,5.4-0.1,8.7-0.4,9.8c-0.7,3-2.4,4.6-5.1,4.6c-2.3,0-4-1.2-4.9-3.6
			c-0.3-0.7-0.4-1.9-0.5-3.5c-0.1-1.6-0.1-4-0.1-7.3V342c0-2.5,0-4.6,0.1-6.3c0.1-1.7,0.2-2.9,0.3-3.5c0.7-3,2.4-4.6,5.2-4.6
			c2.3,0,3.9,1.2,4.8,3.6c0.3,0.7,0.4,1.9,0.5,3.4c0.1,1.6,0.1,4,0.1,7.4V363z"/>
		<polygon class="st1" points="318.8,359.7 310.6,319.3 297.2,319.3 297.2,385.7 306.5,385.7 306.5,339.8 316.5,385.7 321,385.7 
			330.6,339.8 330.6,385.7 339.8,385.7 339.8,319.3 326.4,319.3 		"/>
		<polygon class="st1" points="348.7,385.7 375.8,385.7 375.8,376.3 358.7,376.3 358.7,355.9 371,355.9 371,346.6 358.7,346.6 
			358.7,328.7 375.8,328.7 375.8,319.3 348.7,319.3 		"/>
		<polygon class="st1" points="379.5,328.7 390,328.7 390,385.7 400.1,385.7 400.1,328.7 410.8,328.7 410.8,319.3 379.5,319.3 		"/>
		<rect x="415.9" y="319.3" class="st1" width="10" height="66.4"/>
		<path class="st1" d="M448.8,319.3h-14.1v66.4h14.1c5.8,0,10-1.5,12.7-4.5c2.7-3,4.1-7.7,4.1-14.2V338c0-6.4-1.4-11.2-4.1-14.2
			C458.8,320.8,454.6,319.3,448.8,319.3z M455.6,365c0,2.5-0.1,4.4-0.3,5.5c-0.2,1.2-0.7,2.2-1.3,3.2c-1.3,1.7-3.4,2.6-6.2,2.6h-3
			v-47.7h3c2.8,0,4.9,0.9,6.2,2.6c0.7,0.9,1.1,2,1.3,3.2c0.2,1.2,0.3,3,0.3,5.5V365z"/>
		<path class="st1" d="M499.7,333.5c-0.8-0.4-1.8-0.5-2.9-0.5c-2.6,0-4.6,0.8-6.1,2.4c-1.5,1.6-2.2,3.8-2.2,6.7v18.7
			c0,2.9,0.6,5,1.9,6.4c1.3,1.3,3.2,2,5.9,2c1.5,0,2.7-0.3,3.7-0.8c1-0.6,2.1-1.5,3.2-2.9l1.2,2.8h6.1v-33.7c0-5-1.6-9-4.7-11.8
			c-3.2-2.8-7.6-4.2-13.3-4.2c-5.8,0-10.3,1.4-13.4,4.3c-3.1,2.8-4.7,6.9-4.7,12.2v34.7c0,2.6,0.5,5.1,1.4,7.4
			c1,2.4,2.3,4.2,3.9,5.6c1.5,1.3,3.4,2.3,5.8,3c2.4,0.7,4.9,1.1,7.5,1.1c6,0,10.7-2,14.2-5.9l-4.8-4.6c-2.8,2.3-6,3.5-9.4,3.5
			c-3.9,0-6.9-1.4-8.9-4.2c-0.7-0.9-1.2-2-1.5-3.2c-0.3-1.2-0.4-2.9-0.4-4.9v-30.9c0-2.4,0.2-4.2,0.5-5.4c0.4-1.2,1.1-2.3,2.2-3.2
			c0.9-0.8,2-1.4,3.3-1.9c1.3-0.5,2.7-0.7,4.1-0.7c3,0,5.4,0.7,7.2,2.2c1.8,1.5,2.7,3.4,2.7,6v2.1
			C501.5,334.5,500.5,333.9,499.7,333.5z M502.5,358.6c0,1.4-0.2,2.4-0.6,2.9c-0.4,0.6-1.2,0.8-2.3,0.8c-1.1,0-1.9-0.3-2.4-0.8
			c-0.5-0.6-0.7-1.5-0.7-2.9v-15.2c0-1.4,0.2-2.4,0.7-2.9c0.5-0.6,1.3-0.8,2.4-0.8c1.1,0,1.9,0.3,2.3,0.8c0.4,0.5,0.6,1.5,0.6,3
			V358.6z"/>
	</g>
	<g>
		<path class="st1" d="M253.5,398.9l-10.8,66.4h9.8l2.3-14.6h10.6l2.3,14.6h10.2l-11.5-66.4H253.5z M256.1,441.3l3.8-26.5l4,26.5
			H256.1z"/>
		<polygon class="st1" points="302.3,465.3 329.5,465.3 329.5,455.9 312.4,455.9 312.4,435.5 324.7,435.5 324.7,426.2 312.4,426.2 
			312.4,408.3 329.5,408.3 329.5,398.9 302.3,398.9 		"/>
		<polygon class="st1" points="347,398.8 336.9,398.8 336.9,465.3 363.5,465.3 363.5,455.9 347,455.9 		"/>
		<polygon class="st1" points="369.2,465.3 396.3,465.3 396.3,455.9 379.2,455.9 379.2,435.5 391.5,435.5 391.5,426.2 379.2,426.2 
			379.2,408.3 396.3,408.3 396.3,398.9 369.2,398.9 		"/>
		<path class="st1" d="M434.3,411.2c-0.1-0.5-0.2-1-0.3-1.5c-0.8-3.6-2.5-6.5-5.2-8.6c-2.7-2.1-5.9-3.1-9.7-3.1
			c-2.3,0-4.5,0.4-6.6,1.3c-2.1,0.9-3.7,2.2-5.1,3.9c-0.8,1-1.5,2-2,3c-0.5,1-0.9,2.2-1.2,3.5c-0.3,1.3-0.5,2.9-0.6,4.7
			c-0.1,1.8-0.2,4-0.2,6.6v23.2c0,4.2,0.2,7.5,0.6,9.9s1.2,4.6,2.3,6.6c1.1,1.8,2.6,3.2,4.5,4.2c1.9,1,4,1.5,6.4,1.5
			c2.5,0,4.5-0.5,6-1.4c1.6-0.9,3-2.6,4.4-4.9l1.9,5.3h4.9v-33.6h-16v8.3h6v2.7c0,2.6,0,4.7-0.1,6.3c-0.1,1.6-0.2,2.8-0.4,3.5
			c-0.3,1.4-0.9,2.5-1.8,3.3c-0.8,0.8-1.9,1.2-3.2,1.2c-1.1,0-2.1-0.3-3-0.9c-0.9-0.6-1.5-1.5-1.8-2.6c-0.3-0.7-0.5-2-0.6-3.9
			c-0.1-1.9-0.2-4.2-0.2-6.9v-21c0-2.5,0-4.6,0.1-6.3c0.1-1.7,0.2-2.8,0.3-3.4c0.7-3,2.4-4.6,5.1-4.6c1.4,0,2.6,0.5,3.6,1.4
			c0.9,1,1.5,2.2,1.7,3.8c0.1,0.7,0.1,1.8,0.1,3.1c0,1.3,0,3,0,5h10.1c0-1.9,0-3.5,0-4.6c0-1.2,0-2.1-0.1-2.9
			C434.4,412.3,434.4,411.7,434.3,411.2z"/>
		<rect x="443.5" y="398.9" class="st1" width="10" height="66.4"/>
		<path class="st1" d="M491.3,428.4c1-2.5,1.5-5.9,1.5-10.2c0-6.6-1.3-11.5-4-14.6c-2.7-3.1-6.9-4.6-12.6-4.6h-13.9v66.4h10v-27.8
			h4.7l6.2,27.8h10.6l-7.7-30.4C488.5,433,490.3,430.9,491.3,428.4z M481.5,425.4c-0.5,1.1-1.2,1.9-2,2.2c-0.8,0.4-2.2,0.5-4,0.5
			h-3.1v-19.9h3.1c1.8,0,3.2,0.2,4,0.5s1.5,1.1,2,2.2c0.8,1.8,1.3,4.2,1.3,7.2C482.8,421.2,482.3,423.6,481.5,425.4z"/>
		<rect x="500.7" y="455" class="st1" width="9.6" height="10.2"/>
	</g>
</g>
</svg>
