<?xml version="1.0" encoding="utf-8"?>
<!-- Generator: Adobe Illustrator 22.0.1, SVG Export Plug-In . SVG Version: 6.00 Build 0)  -->
<svg version="1.1" id="Capa_1" xmlns="http://www.w3.org/2000/svg" xmlns:xlink="http://www.w3.org/1999/xlink" x="0px" y="0px"
	 viewBox="0 0 512 466.3" style="enable-background:new 0 0 512 466.3;" xml:space="preserve">
<style type="text/css">
	.st0{fill:#FBFBFB;stroke:#FBFBFB;stroke-width:2.3499;stroke-miterlimit:10;}
	.st1{fill:#1B2728;stroke:#1B2728;stroke-width:2.3499;stroke-miterlimit:10;}
</style>
<g>
	<g>
		<polygon class="st0" points="23.7,40.4 10,1 0,1 0,67.3 9.3,67.3 9.3,26.4 23.7,67.3 32.9,67.3 32.9,1 23.7,1 		"/>
		<path class="st0" d="M71.9,11.7c-0.3-1.3-0.7-2.4-1.2-3.4c-0.5-1-1.1-2-1.9-3c-1.3-1.7-3-3-5.1-3.9C61.6,0.5,59.4,0,57.1,0
			s-4.5,0.5-6.5,1.4s-3.7,2.2-5,3.9c-0.8,1-1.5,2-2,3c-0.5,1-0.9,2.2-1.2,3.5c-0.3,1.3-0.5,2.8-0.6,4.6c-0.1,1.7-0.1,3.8-0.1,6.3
			v23.2c0,2.5,0,4.5,0.1,6.3c0.1,1.7,0.3,3.3,0.6,4.6c0.3,1.3,0.7,2.5,1.2,3.5c0.5,1,1.2,2,2,3c1.3,1.7,3,3,5,3.9
			c2,0.9,4.2,1.4,6.5,1.4s4.5-0.5,6.6-1.4c2.1-0.9,3.7-2.2,5.1-3.9c0.8-1,1.4-2,1.9-3c0.5-1,0.9-2.1,1.2-3.4
			c0.3-1.3,0.5-2.8,0.6-4.6c0.1-1.8,0.2-3.9,0.2-6.3V22.6c0-2.5-0.1-4.6-0.2-6.3C72.4,14.5,72.2,13,71.9,11.7z M62.7,44.6
			c0,5.4-0.1,8.7-0.4,9.8c-0.7,3-2.4,4.6-5.1,4.6c-2.3,0-4-1.2-4.9-3.6c-0.3-0.7-0.4-1.9-0.5-3.5c-0.1-1.6-0.1-4-0.1-7.3V23.7
			c0-2.5,0-4.6,0.1-6.3c0.1-1.7,0.2-2.9,0.3-3.5c0.7-3,2.4-4.6,5.2-4.6c2.3,0,3.9,1.2,4.8,3.6c0.3,0.7,0.4,1.9,0.5,3.4
			c0.1,1.6,0.1,4,0.1,7.4V44.6z"/>
		<polygon class="st0" points="99,67.3 126.1,67.3 126.1,58 109,58 109,37.6 121.4,37.6 121.4,28.3 109,28.3 109,10.3 126.1,10.3 
			126.1,1 99,1 		"/>
		<path class="st0" d="M161.1,41.1c-1-1.6-2.3-3.3-3.9-5.1c-1.7-1.8-3.8-3.9-6.4-6.3c-1.8-1.7-3.3-3.1-4.4-4.3s-2-2.3-2.7-3.4
			c-0.7-1.1-1.1-2.1-1.4-3c-0.3-1-0.4-2-0.4-3.1c0-2,0.5-3.6,1.5-4.8c1-1.2,2.4-1.8,4.1-1.8c1.9,0,3.2,0.6,4,1.8
			c0.8,1.2,1.4,3.3,1.7,6.3l9.6-1.4c-1.2-10.7-6.2-16-15-16c-4.8,0-8.6,1.5-11.4,4.5c-2.8,3-4.2,7-4.2,11.9c0,1.9,0.2,3.6,0.6,5.2
			c0.4,1.6,1,3.2,1.9,4.8c0.9,1.6,2.1,3.2,3.5,4.9c1.4,1.7,3.2,3.5,5.3,5.4c1.4,1.3,2.5,2.3,3.3,3.1c0.8,0.8,1.5,1.5,2,2
			c0.5,0.5,1,1,1.3,1.4c0.3,0.4,0.7,0.9,1.1,1.4c1.7,2.3,2.6,4.7,2.6,7.2c0,2.2-0.5,3.9-1.6,5.3c-1.1,1.3-2.6,2-4.4,2
			c-4.4,0-6.8-3.4-7.1-10.3l-9.5,1.7c0.1,2.7,0.5,5.2,1.3,7.4c0.8,2.2,2,4.1,3.4,5.7c1.4,1.6,3.1,2.8,5.1,3.7c2,0.9,4.2,1.3,6.7,1.3
			c2.3,0,4.4-0.4,6.4-1.2c1.9-0.8,3.6-2,5-3.5c1.4-1.5,2.5-3.3,3.2-5.4c0.8-2.1,1.1-4.4,1.1-6.9c0-2-0.2-3.8-0.5-5.4
			C162.7,44.3,162.1,42.7,161.1,41.1z"/>
		<polygon class="st0" points="198.2,0.9 188.1,0.9 188.1,67.3 214.7,67.3 214.7,58 198.2,58 		"/>
		<path class="st0" d="M251.2,11.7c-0.3-1.3-0.7-2.4-1.2-3.4c-0.5-1-1.1-2-1.9-3c-1.3-1.7-3-3-5.1-3.9S238.8,0,236.5,0
			c-2.3,0-4.5,0.5-6.5,1.4c-2,0.9-3.7,2.2-5,3.9c-0.8,1-1.5,2-2,3c-0.5,1-0.9,2.2-1.2,3.5c-0.3,1.3-0.5,2.8-0.6,4.6
			c-0.1,1.7-0.2,3.8-0.2,6.3v23.2c0,2.5,0.1,4.5,0.2,6.3c0.1,1.7,0.3,3.3,0.6,4.6c0.3,1.3,0.7,2.5,1.2,3.5c0.5,1,1.2,2,2,3
			c1.3,1.7,3,3,5,3.9c2,0.9,4.2,1.4,6.5,1.4c2.3,0,4.5-0.5,6.6-1.4c2.1-0.9,3.7-2.2,5.1-3.9c0.8-1,1.4-2,1.9-3
			c0.5-1,0.9-2.1,1.2-3.4c0.3-1.3,0.5-2.8,0.6-4.6c0.1-1.8,0.2-3.9,0.2-6.3V22.6c0-2.5-0.1-4.6-0.2-6.3
			C251.7,14.5,251.5,13,251.2,11.7z M242,44.6c0,5.4-0.1,8.7-0.4,9.8c-0.7,3-2.4,4.6-5.1,4.6c-2.3,0-4-1.2-4.9-3.6
			c-0.3-0.7-0.4-1.9-0.5-3.5c-0.1-1.6-0.1-4-0.1-7.3V23.7c0-2.5,0-4.6,0.1-6.3c0.1-1.7,0.2-2.9,0.3-3.5c0.7-3,2.4-4.6,5.2-4.6
			c2.3,0,3.9,1.2,4.8,3.6c0.3,0.7,0.4,1.9,0.5,3.4c0.1,1.6,0.1,4,0.1,7.4V44.6z"/>
		<path class="st0" d="M307,60.5c0.4-0.8,0.7-1.6,1-2.5c0.3-0.9,0.5-1.9,0.7-3c0.2-1.1,0.3-2.4,0.3-3.9c0.1-1.5,0.1-3.3,0.1-5.3
			V22.6c0-2.5-0.1-4.6-0.2-6.3c-0.1-1.8-0.3-3.3-0.6-4.6c-0.3-1.3-0.7-2.4-1.2-3.4c-0.5-1-1.1-2-1.9-3c-1.3-1.7-3-3-5.1-3.9
			c-2.1-0.9-4.2-1.4-6.6-1.4s-4.5,0.5-6.5,1.4s-3.7,2.2-5,3.9c-0.8,1-1.5,2-2,3c-0.5,1-0.9,2.2-1.2,3.5c-0.3,1.3-0.5,2.8-0.6,4.6
			c-0.1,1.7-0.1,3.8-0.1,6.3v23.2c0,2.5,0,4.5,0.1,6.3c0.1,1.7,0.3,3.3,0.6,4.6c0.3,1.3,0.7,2.5,1.2,3.5c0.5,1,1.2,2,2,3
			c1.3,1.7,3,3,5.1,3.9c2.1,0.9,4.2,1.3,6.6,1.3c1.2,0,2.3-0.1,3.3-0.3s2.1-0.6,3.3-1.1c1.1,1.9,2.5,3.3,4.2,4.1
			c1.7,0.8,3.9,1.3,6.9,1.3v-9.9c-1.1-0.1-2-0.3-2.6-0.6C308.1,61.6,307.5,61.1,307,60.5z M299.1,44.6c0,5.4-0.1,8.7-0.4,9.8
			c-0.7,3-2.4,4.6-5.1,4.6c-2.3,0-4-1.2-4.9-3.6c-0.3-0.7-0.4-1.9-0.5-3.5c-0.1-1.6-0.1-4-0.1-7.3V23.7c0-2.5,0-4.6,0.1-6.3
			c0.1-1.7,0.2-2.9,0.3-3.5c0.7-3,2.4-4.6,5.2-4.6c2.3,0,3.9,1.2,4.8,3.6c0.3,0.7,0.4,1.9,0.5,3.4c0.1,1.6,0.1,4,0.1,7.4V44.6z"/>
		<path class="st0" d="M338.9,44.6c0,5.4-0.1,8.7-0.4,9.8c-0.7,3.1-2.4,4.6-5.1,4.6c-2.3,0-4-1.2-4.9-3.6c-0.3-0.7-0.4-1.9-0.5-3.5
			c-0.1-1.6-0.1-4-0.1-7.4V0.9h-10v44.8c0,2.5,0,4.5,0.1,6.3c0.1,1.7,0.3,3.3,0.6,4.6c0.3,1.3,0.7,2.5,1.2,3.5c0.5,1,1.2,2,2,3
			c1.3,1.7,3,3,5,3.9c2,0.9,4.2,1.4,6.5,1.4s4.5-0.5,6.6-1.4c2.1-0.9,3.7-2.2,5.1-3.9c0.8-1,1.4-2,1.9-3c0.5-1,0.9-2.2,1.2-3.4
			c0.3-1.3,0.5-2.8,0.6-4.6c0.1-1.8,0.2-3.9,0.2-6.3V0.9h-10V44.6z"/>
		<polygon class="st0" points="385.1,10.3 385.1,1 357.9,1 357.9,67.3 385.1,67.3 385.1,58 368,58 368,37.6 380.3,37.6 380.3,28.3 
			368,28.3 368,10.3 		"/>
	</g>
	<g>
		<polygon class="st0" points="0,146.9 27.2,146.9 27.2,137.6 10,137.6 10,117.2 22.4,117.2 22.4,107.8 10,107.8 10,89.9 27.2,89.9 
			27.2,80.6 0,80.6 		"/>
		<path class="st0" d="M62.1,120.7c-1-1.6-2.3-3.3-3.9-5.1c-1.7-1.8-3.8-3.9-6.4-6.3c-1.8-1.7-3.3-3.1-4.4-4.3
			c-1.1-1.2-2-2.3-2.7-3.4c-0.7-1.1-1.1-2.1-1.4-3c-0.3-1-0.4-2-0.4-3.1c0-2,0.5-3.6,1.5-4.8c1-1.2,2.4-1.8,4.1-1.8
			c1.9,0,3.2,0.6,4,1.8c0.8,1.2,1.4,3.3,1.7,6.3l9.6-1.4c-1.2-10.7-6.2-16-15-16c-4.8,0-8.6,1.5-11.4,4.5c-2.8,3-4.2,7-4.2,11.9
			c0,1.9,0.2,3.6,0.6,5.2c0.4,1.6,1,3.2,1.9,4.8c0.9,1.6,2.1,3.2,3.5,4.9c1.4,1.7,3.2,3.5,5.3,5.4c1.4,1.3,2.5,2.3,3.3,3.1
			c0.8,0.8,1.5,1.5,2,2c0.5,0.5,1,1,1.3,1.4c0.3,0.4,0.7,0.9,1.1,1.4c1.7,2.3,2.6,4.7,2.6,7.2c0,2.2-0.5,3.9-1.6,5.3
			c-1.1,1.3-2.6,2-4.4,2c-4.4,0-6.8-3.4-7.1-10.3l-9.5,1.7c0.1,2.7,0.5,5.2,1.3,7.4c0.8,2.2,2,4.1,3.4,5.7c1.4,1.6,3.1,2.8,5.1,3.7
			c2,0.9,4.2,1.3,6.7,1.3c2.3,0,4.4-0.4,6.4-1.2c1.9-0.8,3.6-2,5-3.5c1.4-1.5,2.5-3.3,3.2-5.4c0.8-2.1,1.1-4.4,1.1-6.9
			c0-2-0.2-3.8-0.5-5.4C63.7,123.9,63.1,122.3,62.1,120.7z"/>
		<polygon class="st0" points="69.5,89.9 80.1,89.9 80.1,146.9 90.1,146.9 90.1,89.9 100.9,89.9 100.9,80.6 69.5,80.6 		"/>
		<path class="st0" d="M112.8,80.6L102,146.9h9.8l2.3-14.6h10.6l2.3,14.6h10.2l-11.5-66.4H112.8z M115.5,123l3.8-26.5l4,26.5H115.5z
			"/>
		<polygon class="st0" points="128.8,67.3 119.3,67.3 114.7,75.3 121.7,75.3 		"/>
		<path class="st0" d="M171.5,120.7c-1-1.6-2.3-3.3-3.9-5.1c-1.7-1.8-3.8-3.9-6.4-6.3c-1.8-1.7-3.3-3.1-4.4-4.3
			c-1.1-1.2-2-2.3-2.7-3.4c-0.7-1.1-1.1-2.1-1.4-3c-0.3-1-0.4-2-0.4-3.1c0-2,0.5-3.6,1.5-4.8c1-1.2,2.4-1.8,4.1-1.8
			c1.9,0,3.2,0.6,4,1.8c0.8,1.2,1.4,3.3,1.7,6.3l9.6-1.4c-1.2-10.7-6.2-16-15-16c-4.8,0-8.6,1.5-11.4,4.5c-2.8,3-4.2,7-4.2,11.9
			c0,1.9,0.2,3.6,0.6,5.2s1,3.2,1.9,4.8c0.9,1.6,2.1,3.2,3.5,4.9c1.4,1.7,3.2,3.5,5.3,5.4c1.4,1.3,2.5,2.3,3.3,3.1
			c0.8,0.8,1.5,1.5,2,2c0.5,0.5,1,1,1.3,1.4c0.3,0.4,0.7,0.9,1.1,1.4c1.7,2.3,2.6,4.7,2.6,7.2c0,2.2-0.5,3.9-1.6,5.3
			c-1.1,1.3-2.6,2-4.4,2c-4.4,0-6.8-3.4-7.1-10.3l-9.5,1.7c0.1,2.7,0.5,5.2,1.3,7.4c0.8,2.2,2,4.1,3.4,5.7c1.4,1.6,3.1,2.8,5.1,3.7
			c2,0.9,4.2,1.3,6.7,1.3c2.3,0,4.4-0.4,6.4-1.2c1.9-0.8,3.6-2,5-3.5c1.4-1.5,2.5-3.3,3.2-5.4c0.8-2.1,1.1-4.4,1.1-6.9
			c0-2-0.2-3.8-0.5-5.4C173.2,123.9,172.5,122.3,171.5,120.7z"/>
		<path class="st0" d="M212.7,80.6h-14.1v66.4h14.1c5.8,0,10-1.5,12.7-4.5c2.7-3,4.1-7.7,4.1-14.2V99.3c0-6.4-1.4-11.2-4.1-14.2
			C222.7,82.1,218.4,80.6,212.7,80.6z M219.4,126.3c0,2.5-0.1,4.4-0.3,5.5c-0.2,1.2-0.7,2.2-1.3,3.2c-1.3,1.7-3.4,2.6-6.2,2.6h-3
			V89.9h3c2.8,0,4.9,0.9,6.2,2.6c0.7,0.9,1.1,2,1.3,3.2c0.2,1.2,0.3,3,0.3,5.5V126.3z"/>
		<rect x="238" y="80.6" class="st0" width="10" height="66.4"/>
		<path class="st0" d="M284.3,120.7c-1-1.6-2.3-3.3-3.9-5.1c-1.7-1.8-3.8-3.9-6.4-6.3c-1.8-1.7-3.3-3.1-4.4-4.3
			c-1.1-1.2-2-2.3-2.7-3.4c-0.7-1.1-1.1-2.1-1.4-3c-0.3-1-0.4-2-0.4-3.1c0-2,0.5-3.6,1.5-4.8c1-1.2,2.4-1.8,4.1-1.8
			c1.9,0,3.2,0.6,4,1.8c0.8,1.2,1.4,3.3,1.7,6.3l9.6-1.4c-1.2-10.7-6.2-16-15-16c-4.8,0-8.6,1.5-11.4,4.5c-2.8,3-4.2,7-4.2,11.9
			c0,1.9,0.2,3.6,0.6,5.2c0.4,1.6,1,3.2,1.9,4.8c0.9,1.6,2.1,3.2,3.5,4.9c1.4,1.7,3.2,3.5,5.3,5.4c1.4,1.3,2.5,2.3,3.3,3.1
			c0.8,0.8,1.5,1.5,2,2c0.5,0.5,1,1,1.3,1.4c0.3,0.4,0.7,0.9,1.1,1.4c1.7,2.3,2.6,4.7,2.6,7.2c0,2.2-0.5,3.9-1.6,5.3s-2.6,2-4.4,2
			c-4.4,0-6.8-3.4-7.1-10.3l-9.5,1.7c0.1,2.7,0.5,5.2,1.3,7.4c0.8,2.2,2,4.1,3.4,5.7c1.4,1.6,3.1,2.8,5.1,3.7c2,0.9,4.2,1.3,6.7,1.3
			c2.3,0,4.4-0.4,6.4-1.2c1.9-0.8,3.6-2,5-3.5c1.4-1.5,2.5-3.3,3.2-5.4c0.8-2.1,1.1-4.4,1.1-6.9c0-2-0.2-3.8-0.5-5.4
			C286,123.9,285.3,122.3,284.3,120.7z"/>
		<path class="st0" d="M321.1,84.9c-1.4-1.6-3.1-2.7-5.3-3.3c-2.2-0.7-4.9-1-8.1-1h-13.9v66.4h10v-27.5h4c3.2,0,5.8-0.3,8-1
			c2.2-0.7,3.9-1.8,5.3-3.3c1.4-1.6,2.3-3.6,2.9-6.1c0.6-2.5,0.9-5.5,0.9-9.1s-0.3-6.6-0.9-9.1C323.4,88.5,322.4,86.5,321.1,84.9z
			 M314.5,105c-0.2,1.3-0.6,2.3-1.2,3.1s-1.4,1.3-2.4,1.6c-1,0.3-2.3,0.4-3.9,0.4h-3.1V89.9h3.1c1.6,0,2.9,0.1,3.9,0.4
			c1,0.3,1.9,0.8,2.4,1.6s1,1.8,1.2,3.1c0.2,1.3,0.3,3,0.3,4.9C314.8,102,314.7,103.7,314.5,105z"/>
		<path class="st0" d="M353.2,124.1c0,5.4-0.1,8.7-0.4,9.8c-0.7,3.1-2.4,4.6-5.1,4.6c-2.3,0-4-1.2-4.9-3.6c-0.3-0.7-0.4-1.9-0.5-3.5
			c-0.1-1.6-0.1-4-0.1-7.4V80.5h-10v44.8c0,2.5,0.1,4.5,0.1,6.3c0.1,1.7,0.3,3.3,0.6,4.6c0.3,1.3,0.7,2.5,1.2,3.5c0.5,1,1.2,2,2,3
			c1.3,1.7,3,3,5,3.9c2,0.9,4.2,1.4,6.5,1.4s4.5-0.5,6.6-1.4c2.1-0.9,3.7-2.2,5.1-3.9c0.8-1,1.4-2,1.9-3c0.5-1,0.9-2.2,1.2-3.4
			c0.3-1.3,0.5-2.8,0.6-4.6c0.1-1.8,0.2-3.9,0.2-6.3V80.5h-10V124.1z"/>
		<polygon class="st0" points="372.2,146.9 399.4,146.9 399.4,137.6 382.3,137.6 382.3,117.2 394.6,117.2 394.6,107.8 382.3,107.8 
			382.3,89.9 399.4,89.9 399.4,80.6 372.2,80.6 		"/>
		<path class="st0" d="M434.4,120.7c-1-1.6-2.3-3.3-3.9-5.1c-1.7-1.8-3.8-3.9-6.4-6.3c-1.8-1.7-3.2-3.1-4.4-4.3
			c-1.1-1.2-2-2.3-2.7-3.4c-0.7-1.1-1.1-2.1-1.4-3c-0.3-1-0.4-2-0.4-3.1c0-2,0.5-3.6,1.5-4.8c1-1.2,2.4-1.8,4.1-1.8
			c1.9,0,3.2,0.6,4,1.8c0.8,1.2,1.4,3.3,1.7,6.3l9.6-1.4c-1.2-10.7-6.2-16-15-16c-4.8,0-8.6,1.5-11.4,4.5c-2.8,3-4.2,7-4.2,11.9
			c0,1.9,0.2,3.6,0.6,5.2c0.4,1.6,1,3.2,1.9,4.8c0.9,1.6,2.1,3.2,3.5,4.9c1.4,1.7,3.2,3.5,5.3,5.4c1.4,1.3,2.5,2.3,3.3,3.1
			c0.8,0.8,1.5,1.5,2,2c0.5,0.5,1,1,1.3,1.4c0.3,0.4,0.7,0.9,1.1,1.4c1.7,2.3,2.6,4.7,2.6,7.2c0,2.2-0.5,3.9-1.6,5.3
			c-1.1,1.3-2.6,2-4.4,2c-4.4,0-6.8-3.4-7.1-10.3l-9.4,1.7c0.1,2.7,0.5,5.2,1.3,7.4c0.8,2.2,2,4.1,3.4,5.7c1.4,1.6,3.1,2.8,5.1,3.7
			c2,0.9,4.2,1.3,6.7,1.3c2.3,0,4.4-0.4,6.4-1.2c1.9-0.8,3.6-2,5-3.5c1.4-1.5,2.5-3.3,3.2-5.4c0.8-2.1,1.1-4.4,1.1-6.9
			c0-2-0.2-3.8-0.5-5.4C436,123.9,435.3,122.3,434.4,120.7z"/>
		<polygon class="st0" points="441.8,89.9 452.3,89.9 452.3,146.9 462.4,146.9 462.4,89.9 473.1,89.9 473.1,80.6 441.8,80.6 		"/>
		<path class="st0" d="M510,95.8c-0.1-1.8-0.3-3.3-0.6-4.6c-0.3-1.3-0.7-2.4-1.2-3.4c-0.5-1-1.1-2-1.9-3c-1.3-1.7-3-3-5.1-3.9
			s-4.2-1.4-6.6-1.4c-2.3,0-4.5,0.5-6.5,1.4c-2,0.9-3.7,2.2-5,3.9c-0.8,1-1.5,2-2,3c-0.5,1-0.9,2.2-1.2,3.5
			c-0.3,1.3-0.5,2.8-0.6,4.6c-0.1,1.7-0.2,3.8-0.2,6.3v23.2c0,2.5,0.1,4.5,0.2,6.3c0.1,1.7,0.3,3.3,0.6,4.6c0.3,1.3,0.7,2.5,1.2,3.5
			c0.5,1,1.2,2,2,3c1.3,1.7,3,3,5,3.9c2,0.9,4.2,1.4,6.5,1.4c2.3,0,4.5-0.5,6.6-1.4c2.1-0.9,3.7-2.2,5.1-3.9c0.8-1,1.4-2,1.9-3
			c0.5-1,0.9-2.1,1.2-3.4c0.3-1.3,0.5-2.8,0.6-4.6c0.1-1.8,0.2-3.9,0.2-6.3v-23.2C510.2,99.7,510.1,97.6,510,95.8z M500.2,124.2
			c0,5.4-0.1,8.7-0.4,9.8c-0.7,3-2.4,4.6-5.1,4.6c-2.3,0-4-1.2-4.9-3.6c-0.3-0.7-0.4-1.9-0.5-3.5c-0.1-1.6-0.1-4-0.1-7.3v-20.9
			c0-2.5,0-4.6,0.1-6.3c0.1-1.7,0.2-2.9,0.3-3.5c0.7-3,2.4-4.6,5.2-4.6c2.3,0,3.9,1.2,4.8,3.6c0.3,0.7,0.4,1.9,0.5,3.4
			c0.1,1.6,0.1,4,0.1,7.4V124.2z"/>
	</g>
	<g>
		<path class="st0" d="M10.8,160.2L0,226.5h9.8l2.3-14.6h10.6l2.3,14.6h10.2l-11.5-66.4H10.8z M13.5,202.5l3.8-26.5l4,26.5H13.5z"/>
		<polygon class="st0" points="80.6,187.2 69.7,187.2 69.7,160.1 59.7,160.1 59.7,226.5 69.7,226.5 69.7,196.6 80.6,196.6 
			80.6,226.5 90.6,226.5 90.6,160.1 80.6,160.1 		"/>
		<path class="st0" d="M108.5,160.2l-10.8,66.4h9.8l2.3-14.6h10.6l2.3,14.6H133l-11.5-66.4H108.5z M111.2,202.5l3.8-26.5l4,26.5
			H111.2z"/>
		<path class="st0" d="M168.2,166.5c-1.3-2.3-3.1-4.2-5.4-5.4c-2.3-1.3-4.9-1.9-7.8-1.9c-2.3,0-4.5,0.4-6.6,1.3
			c-2.1,0.9-3.8,2.2-5.1,3.9c-0.8,1-1.5,2-2,3c-0.5,1-1,2.1-1.3,3.4c-0.3,1.3-0.5,2.9-0.6,4.7c-0.1,1.8-0.2,4-0.2,6.6v22.5
			c0,2.6,0.1,4.8,0.2,6.6c0.1,1.8,0.3,3.3,0.6,4.6c0.3,1.3,0.7,2.4,1.3,3.4c0.5,1,1.2,2,2,3c1.3,1.7,3,3,5.1,3.9
			c2.1,0.9,4.3,1.3,6.6,1.3c3,0,5.6-0.7,7.9-2.1c2.3-1.4,4.1-3.3,5.3-5.8c0.5-0.9,0.8-1.7,1.1-2.5c0.3-0.8,0.5-1.7,0.7-2.6
			c0.2-1,0.3-2,0.3-3.2c0.1-1.2,0.1-2.5,0.1-4v-4.4h-10c0,1.5,0,3.3-0.1,5.3c0,2-0.1,3.4-0.2,4.4c-0.1,1.7-0.7,3.1-1.6,4.1
			c-1,1-2.2,1.5-3.6,1.5c-2.3,0-3.9-1.2-4.9-3.6c-0.3-0.7-0.4-1.9-0.5-3.4c-0.1-1.6-0.1-4-0.1-7.3v-21c0-5.4,0.1-8.7,0.4-9.8
			c0.7-3,2.5-4.6,5.2-4.6c1.5,0,2.7,0.5,3.6,1.4c1,1,1.5,2.2,1.7,3.8c0.1,0.8,0.1,1.9,0.1,3.4c0,1.5,0.1,3.2,0.1,5.1h10v-4.1
			c0-2.9-0.2-5.2-0.5-6.8C169.7,169.7,169.1,168.1,168.2,166.5z"/>
		<polygon class="st0" points="178.2,226.5 205.3,226.5 205.3,217.2 188.2,217.2 188.2,196.8 200.5,196.8 200.5,187.4 188.2,187.4 
			188.2,169.5 205.3,169.5 205.3,160.2 178.2,160.2 		"/>
		<path class="st0" d="M241.8,189.6c1-2.5,1.5-5.9,1.5-10.2c0-6.6-1.3-11.5-4-14.6c-2.7-3.1-6.9-4.6-12.6-4.6h-13.9v66.4h10v-27.8
			h4.7l6.2,27.8h10.6l-7.7-30.4C239.1,194.3,240.8,192.1,241.8,189.6z M232,186.6c-0.5,1.1-1.2,1.9-2.1,2.2c-0.8,0.4-2.2,0.5-4,0.5
			h-3.1v-19.9h3.1c1.8,0,3.2,0.2,4,0.5c0.8,0.4,1.5,1.1,2.1,2.2c0.8,1.8,1.3,4.2,1.3,7.2C233.3,182.4,232.9,184.8,232,186.6z"/>
		<polygon class="st0" points="251.2,226.5 254.7,226.5 251.2,238.1 255.7,238.1 260.8,226.5 260.8,216.3 251.2,216.3 		"/>
		<path class="st0" d="M314.5,200.2c-1-1.6-2.3-3.3-3.9-5.1c-1.7-1.8-3.8-3.9-6.4-6.3c-1.8-1.7-3.2-3.1-4.4-4.3
			c-1.1-1.2-2-2.3-2.7-3.4s-1.1-2.1-1.4-3c-0.3-1-0.4-2-0.4-3.1c0-2,0.5-3.6,1.5-4.8c1-1.2,2.4-1.8,4.1-1.8c1.9,0,3.2,0.6,4,1.8
			c0.8,1.2,1.4,3.3,1.7,6.3l9.6-1.4c-1.2-10.7-6.2-16-15-16c-4.8,0-8.6,1.5-11.4,4.5c-2.8,3-4.2,7-4.2,11.9c0,1.9,0.2,3.6,0.6,5.2
			c0.4,1.6,1,3.2,1.9,4.8c0.9,1.6,2.1,3.2,3.5,4.9c1.4,1.7,3.2,3.5,5.3,5.4c1.4,1.3,2.5,2.3,3.3,3.1c0.8,0.8,1.5,1.5,2,2
			c0.5,0.5,1,1,1.3,1.4c0.3,0.4,0.7,0.9,1.1,1.4c1.7,2.3,2.6,4.7,2.6,7.2c0,2.2-0.5,3.9-1.6,5.3c-1.1,1.3-2.6,2-4.4,2
			c-4.4,0-6.8-3.4-7.1-10.3l-9.4,1.7c0.1,2.7,0.5,5.2,1.3,7.4c0.8,2.2,2,4.1,3.4,5.7c1.4,1.6,3.1,2.8,5.1,3.7c2,0.9,4.2,1.3,6.7,1.3
			c2.3,0,4.4-0.4,6.4-1.2c1.9-0.8,3.6-2,5-3.5c1.4-1.5,2.5-3.3,3.2-5.4c0.8-2.1,1.1-4.4,1.1-6.9c0-2-0.2-3.8-0.5-5.4
			C316.1,203.5,315.5,201.9,314.5,200.2z"/>
		<rect x="323.9" y="160.2" class="st0" width="10" height="66.4"/>
		<polygon class="st0" points="366.4,199.6 352.7,160.2 342.7,160.2 342.7,226.5 351.9,226.5 351.9,185.5 366.4,226.5 375.6,226.5 
			375.6,160.2 366.4,160.2 		"/>
		<path class="st0" d="M415.2,175.4c-0.1-1.8-0.3-3.3-0.6-4.6c-0.3-1.3-0.7-2.4-1.2-3.4c-0.5-1-1.1-2-1.9-3c-1.3-1.7-3-3-5.1-3.9
			c-2.1-0.9-4.2-1.4-6.6-1.4s-4.5,0.5-6.5,1.4c-2,0.9-3.7,2.2-5,3.9c-0.8,1-1.5,2-2,3c-0.5,1-0.9,2.2-1.2,3.5
			c-0.3,1.3-0.5,2.8-0.6,4.6c-0.1,1.7-0.1,3.8-0.1,6.3v23.2c0,2.5,0,4.5,0.1,6.3c0.1,1.7,0.3,3.3,0.6,4.6c0.3,1.3,0.7,2.5,1.2,3.5
			c0.5,1,1.2,2,2,3c1.3,1.7,3,3,5,3.9c2,0.9,4.2,1.4,6.5,1.4s4.5-0.5,6.6-1.4c2.1-0.9,3.7-2.2,5.1-3.9c0.8-1,1.4-2,1.9-3
			c0.5-1,0.9-2.1,1.2-3.4c0.3-1.3,0.5-2.8,0.6-4.6c0.1-1.8,0.2-3.9,0.2-6.3v-23.2C415.4,179.3,415.3,177.2,415.2,175.4z
			 M405.4,203.8c0,5.4-0.1,8.7-0.4,9.8c-0.7,3-2.4,4.6-5.1,4.6c-2.3,0-4-1.2-4.9-3.6c-0.3-0.7-0.4-1.9-0.5-3.5
			c-0.1-1.6-0.1-4-0.1-7.3v-20.9c0-2.5,0-4.6,0.1-6.3c0.1-1.7,0.2-2.9,0.3-3.5c0.7-3,2.4-4.6,5.2-4.6c2.3,0,3.9,1.2,4.8,3.6
			c0.3,0.7,0.4,1.9,0.5,3.4c0.1,1.6,0.1,4,0.1,7.4V203.8z"/>
	</g>
	<g>
		<polygon class="st0" points="10,239.6 0,239.6 0,306.1 26.6,306.1 26.6,296.7 10,296.7 		"/>
		<path class="st0" d="M63.1,250.4c-0.3-1.3-0.7-2.4-1.2-3.4c-0.5-1-1.1-2-1.9-3c-1.3-1.7-3-3-5.1-3.9c-2.1-0.9-4.2-1.4-6.6-1.4
			s-4.5,0.5-6.5,1.4s-3.7,2.2-5,3.9c-0.8,1-1.5,2-2,3c-0.5,1-0.9,2.2-1.2,3.5c-0.3,1.3-0.5,2.8-0.6,4.6c-0.1,1.7-0.1,3.8-0.1,6.3
			v23.2c0,2.5,0,4.5,0.1,6.3c0.1,1.7,0.3,3.3,0.6,4.6c0.3,1.3,0.7,2.5,1.2,3.5c0.5,1,1.2,2,2,3c1.3,1.7,3,3,5,3.9
			c2,0.9,4.2,1.4,6.5,1.4s4.5-0.5,6.6-1.4c2.1-0.9,3.7-2.2,5.1-3.9c0.8-1,1.4-2,1.9-3c0.5-1,0.9-2.1,1.2-3.4
			c0.3-1.3,0.5-2.8,0.6-4.6c0.1-1.8,0.2-3.9,0.2-6.3v-23.2c0-2.5-0.1-4.6-0.2-6.3C63.6,253.3,63.4,251.7,63.1,250.4z M53.9,283.4
			c0,5.4-0.1,8.7-0.4,9.8c-0.7,3-2.4,4.6-5.1,4.6c-2.3,0-4-1.2-4.9-3.6c-0.3-0.7-0.4-1.9-0.5-3.5c-0.1-1.6-0.1-4-0.1-7.3v-20.9
			c0-2.5,0-4.6,0.1-6.3c0.1-1.7,0.2-2.9,0.3-3.5c0.7-3,2.4-4.6,5.2-4.6c2.3,0,3.9,1.2,4.8,3.6c0.3,0.7,0.4,1.9,0.5,3.4
			c0.1,1.6,0.1,4,0.1,7.4V283.4z"/>
		<path class="st0" d="M118.9,299.2c0.4-0.8,0.7-1.6,1-2.5c0.3-0.9,0.5-1.9,0.7-3c0.2-1.1,0.3-2.4,0.3-3.9c0.1-1.5,0.1-3.3,0.1-5.3
			v-23.2c0-2.5-0.1-4.6-0.2-6.3c-0.1-1.8-0.3-3.3-0.6-4.6c-0.3-1.3-0.7-2.4-1.2-3.4c-0.5-1-1.1-2-1.9-3c-1.3-1.7-3-3-5.1-3.9
			c-2.1-0.9-4.2-1.4-6.6-1.4c-2.3,0-4.5,0.5-6.5,1.4c-2,0.9-3.7,2.2-5,3.9c-0.8,1-1.5,2-2,3c-0.5,1-0.9,2.2-1.2,3.5
			c-0.3,1.3-0.5,2.8-0.6,4.6c-0.1,1.7-0.2,3.8-0.2,6.3v23.2c0,2.5,0.1,4.5,0.2,6.3c0.1,1.7,0.3,3.3,0.6,4.6c0.3,1.3,0.7,2.5,1.2,3.5
			c0.5,1,1.2,2,2,3c1.3,1.7,3,3,5.1,3.9c2.1,0.9,4.2,1.3,6.6,1.3c1.2,0,2.3-0.1,3.3-0.3c1-0.2,2.1-0.6,3.3-1.1
			c1.1,1.9,2.5,3.3,4.2,4.1c1.7,0.8,3.9,1.3,6.9,1.3v-9.9c-1.1-0.1-2-0.3-2.6-0.6C120,300.4,119.4,299.9,118.9,299.2z M111,283.4
			c0,5.4-0.1,8.7-0.4,9.8c-0.7,3-2.4,4.6-5.1,4.6c-2.3,0-4-1.2-4.9-3.6c-0.3-0.7-0.4-1.9-0.5-3.5c-0.1-1.6-0.1-4-0.1-7.3v-20.9
			c0-2.5,0-4.6,0.1-6.3c0.1-1.7,0.2-2.9,0.3-3.5c0.7-3,2.4-4.6,5.2-4.6c2.3,0,3.9,1.2,4.8,3.6c0.3,0.7,0.4,1.9,0.5,3.4
			c0.1,1.6,0.1,4,0.1,7.4V283.4z"/>
		<path class="st0" d="M150.8,283.3c0,5.4-0.1,8.7-0.4,9.8c-0.7,3.1-2.4,4.6-5.1,4.6c-2.3,0-4-1.2-4.9-3.6c-0.3-0.7-0.4-1.9-0.5-3.5
			c-0.1-1.6-0.1-4-0.1-7.4v-43.7h-10v44.8c0,2.5,0.1,4.5,0.1,6.3c0.1,1.7,0.3,3.3,0.6,4.6c0.3,1.3,0.7,2.5,1.2,3.5c0.5,1,1.2,2,2,3
			c1.3,1.7,3,3,5,3.9c2,0.9,4.2,1.4,6.5,1.4c2.3,0,4.5-0.5,6.6-1.4c2.1-0.9,3.7-2.2,5.1-3.9c0.8-1,1.4-2,1.9-3
			c0.5-1,0.9-2.2,1.2-3.4c0.3-1.3,0.5-2.8,0.6-4.6c0.1-1.8,0.2-3.9,0.2-6.3v-44.8h-10V283.3z"/>
		<polygon class="st0" points="169.8,306.1 197,306.1 197,296.7 179.9,296.7 179.9,276.4 192.2,276.4 192.2,267 179.9,267 
			179.9,249.1 197,249.1 197,239.7 169.8,239.7 		"/>
		<polygon class="st0" points="222,306.1 249.2,306.1 249.2,296.7 232.1,296.7 232.1,276.4 244.4,276.4 244.4,267 232.1,267 
			232.1,249.1 249.2,249.1 249.2,239.7 222,239.7 		"/>
		<path class="st0" d="M284.2,279.8c-1-1.6-2.3-3.3-3.9-5.1c-1.7-1.8-3.8-3.9-6.4-6.3c-1.8-1.7-3.3-3.1-4.4-4.3
			c-1.1-1.2-2-2.3-2.7-3.4c-0.7-1.1-1.1-2.1-1.4-3c-0.3-1-0.4-2-0.4-3.1c0-2,0.5-3.6,1.5-4.8c1-1.2,2.4-1.8,4.1-1.8
			c1.9,0,3.2,0.6,4,1.8c0.8,1.2,1.4,3.3,1.7,6.3l9.6-1.4c-1.2-10.7-6.2-16-15-16c-4.8,0-8.6,1.5-11.4,4.5c-2.8,3-4.2,7-4.2,11.9
			c0,1.9,0.2,3.6,0.6,5.2c0.4,1.6,1,3.2,1.9,4.8c0.9,1.6,2.1,3.2,3.5,4.9c1.4,1.7,3.2,3.5,5.3,5.4c1.4,1.3,2.5,2.3,3.3,3.1
			c0.8,0.8,1.5,1.5,2,2c0.5,0.5,1,1,1.3,1.4c0.3,0.4,0.7,0.9,1.1,1.4c1.7,2.3,2.6,4.7,2.6,7.1c0,2.2-0.5,3.9-1.6,5.3s-2.6,2-4.4,2
			c-4.4,0-6.8-3.4-7.1-10.3l-9.5,1.7c0.1,2.7,0.5,5.2,1.3,7.4s2,4.1,3.4,5.7c1.4,1.6,3.1,2.8,5.1,3.7c2,0.9,4.2,1.3,6.7,1.3
			c2.3,0,4.4-0.4,6.4-1.2c1.9-0.8,3.6-2,5-3.5c1.4-1.5,2.5-3.3,3.2-5.4c0.8-2.1,1.1-4.4,1.1-6.9c0-2-0.2-3.8-0.5-5.4
			C285.8,283.1,285.1,281.5,284.2,279.8z"/>
		<polygon class="st0" points="291.6,249.1 302.1,249.1 302.1,306.1 312.2,306.1 312.2,249.1 322.9,249.1 322.9,239.7 291.6,239.7 
					"/>
		<polygon class="st0" points="350.9,226.5 341.3,226.5 336.7,234.5 343.7,234.5 		"/>
		<path class="st0" d="M334.8,239.7L324,306.1h9.8l2.3-14.6h10.6l2.3,14.6h10.2l-11.5-66.4H334.8z M337.5,282.1l3.8-26.5l4,26.5
			H337.5z"/>
		<path class="st0" d="M395.6,284.7c-0.4-1.6-1-3.2-2-4.9c-1-1.6-2.3-3.3-3.9-5.1c-1.7-1.8-3.8-3.9-6.4-6.3
			c-1.8-1.7-3.2-3.1-4.4-4.3c-1.1-1.2-2-2.3-2.7-3.4c-0.7-1.1-1.1-2.1-1.4-3c-0.3-1-0.4-2-0.4-3.1c0-2,0.5-3.6,1.5-4.8
			c1-1.2,2.4-1.8,4.1-1.8c1.9,0,3.2,0.6,4,1.8c0.8,1.2,1.4,3.3,1.7,6.3l9.6-1.4c-1.2-10.7-6.2-16-15-16c-4.8,0-8.6,1.5-11.4,4.5
			c-2.8,3-4.2,7-4.2,11.9c0,1.9,0.2,3.6,0.6,5.2c0.4,1.6,1,3.2,1.9,4.8c0.9,1.6,2.1,3.2,3.5,4.9c1.4,1.7,3.2,3.5,5.3,5.4
			c1.4,1.3,2.5,2.3,3.3,3.1c0.8,0.8,1.5,1.5,2,2c0.5,0.5,1,1,1.3,1.4c0.3,0.4,0.7,0.9,1.1,1.4c1.7,2.3,2.6,4.7,2.6,7.1
			c0,2.2-0.5,3.9-1.6,5.3c-1.1,1.3-2.6,2-4.4,2c-4.4,0-6.8-3.4-7.1-10.3l-9.4,1.7c0.1,2.7,0.5,5.2,1.3,7.4c0.8,2.2,2,4.1,3.4,5.7
			c1.4,1.6,3.1,2.8,5.1,3.7c2,0.9,4.2,1.3,6.7,1.3c2.3,0,4.4-0.4,6.4-1.2c1.9-0.8,3.6-2,5-3.5c1.4-1.5,2.5-3.3,3.2-5.4
			c0.8-2.1,1.1-4.4,1.1-6.9C396.1,288.1,395.9,286.3,395.6,284.7z"/>
	</g>
	<g>
		<path class="st1" d="M28.9,325.7c-1.3-2.3-3.1-4.2-5.4-5.4c-2.3-1.3-4.9-1.9-7.8-1.9c-2.3,0-4.5,0.4-6.6,1.3
			c-2.1,0.9-3.8,2.2-5.1,3.9c-0.8,1-1.5,2-2,3c-0.5,1-1,2.1-1.3,3.4c-0.3,1.3-0.5,2.9-0.6,4.7c-0.1,1.8-0.2,4-0.2,6.6v22.5
			c0,2.6,0.1,4.8,0.2,6.6c0.1,1.8,0.3,3.3,0.6,4.6c0.3,1.3,0.7,2.4,1.3,3.4c0.5,1,1.2,2,2,3c1.3,1.7,3,3,5.1,3.9
			c2.1,0.9,4.3,1.3,6.6,1.3c3,0,5.6-0.7,7.9-2.1c2.3-1.4,4.1-3.3,5.3-5.8c0.5-0.9,0.8-1.7,1.1-2.5s0.5-1.7,0.7-2.6
			c0.2-1,0.3-2,0.3-3.2c0.1-1.2,0.1-2.5,0.1-4v-4.4h-10c0,1.5,0,3.3-0.1,5.3c0,2-0.1,3.4-0.2,4.4c-0.1,1.7-0.7,3.1-1.6,4.1
			c-1,1-2.2,1.5-3.6,1.5c-2.3,0-3.9-1.2-4.9-3.6c-0.3-0.7-0.4-1.9-0.5-3.4c-0.1-1.6-0.1-4-0.1-7.3v-21c0-5.4,0.1-8.7,0.4-9.8
			c0.7-3,2.5-4.6,5.2-4.6c1.5,0,2.7,0.5,3.6,1.4c1,1,1.5,2.2,1.7,3.8c0.1,0.8,0.1,1.9,0.1,3.4c0,1.5,0.1,3.2,0.1,5.1h10v-4.1
			c0-2.9-0.2-5.2-0.5-6.8C30.4,328.9,29.8,327.3,28.9,325.7z"/>
		<path class="st1" d="M69.3,330c-0.3-1.3-0.7-2.4-1.2-3.4c-0.5-1-1.1-2-1.9-3c-1.3-1.7-3-3-5.1-3.9c-2.1-0.9-4.2-1.4-6.6-1.4
			c-2.3,0-4.5,0.5-6.5,1.4c-2,0.9-3.7,2.2-5,3.9c-0.8,1-1.5,2-2,3c-0.5,1-0.9,2.2-1.2,3.5c-0.3,1.3-0.5,2.8-0.6,4.6
			c-0.1,1.7-0.2,3.8-0.2,6.3v23.2c0,2.5,0.1,4.5,0.2,6.3c0.1,1.7,0.3,3.3,0.6,4.6c0.3,1.3,0.7,2.5,1.2,3.5c0.5,1,1.2,2,2,3
			c1.3,1.7,3,3,5,3.9c2,0.9,4.2,1.4,6.5,1.4c2.3,0,4.5-0.5,6.6-1.4c2.1-0.9,3.7-2.2,5.1-3.9c0.8-1,1.4-2,1.9-3
			c0.5-1,0.9-2.1,1.2-3.4c0.3-1.3,0.5-2.8,0.6-4.6c0.1-1.8,0.2-3.9,0.2-6.3v-23.2c0-2.5-0.1-4.6-0.2-6.3
			C69.8,332.8,69.6,331.3,69.3,330z M60.1,363c0,5.4-0.1,8.7-0.4,9.8c-0.7,3-2.4,4.6-5.1,4.6c-2.3,0-4-1.2-4.9-3.6
			c-0.3-0.7-0.4-1.9-0.5-3.5c-0.1-1.6-0.1-4-0.1-7.3V342c0-2.5,0-4.6,0.1-6.3c0.1-1.7,0.2-2.9,0.3-3.5c0.7-3,2.4-4.6,5.2-4.6
			c2.3,0,3.9,1.2,4.8,3.6c0.3,0.7,0.4,1.9,0.5,3.4c0.1,1.6,0.1,4,0.1,7.4V363z"/>
		<polygon class="st1" points="100.4,359.7 92.1,319.3 78.8,319.3 78.8,385.7 88,385.7 88,339.8 98.1,385.7 102.6,385.7 
			112.1,339.8 112.1,385.7 121.4,385.7 121.4,319.3 107.9,319.3 		"/>
		<path class="st1" d="M157.5,323.7c-1.4-1.6-3.1-2.7-5.3-3.3c-2.2-0.7-4.9-1-8.1-1h-13.9v66.4h10v-27.5h4c3.2,0,5.8-0.3,8-1
			c2.2-0.7,3.9-1.8,5.3-3.3c1.4-1.6,2.3-3.6,2.9-6.1c0.6-2.5,0.9-5.5,0.9-9.1s-0.3-6.6-0.9-9.1C159.9,327.2,158.9,325.2,157.5,323.7
			z M151,343.7c-0.2,1.3-0.6,2.3-1.2,3.1c-0.6,0.8-1.4,1.3-2.4,1.6c-1,0.3-2.3,0.4-3.9,0.4h-3.1v-20.2h3.1c1.6,0,2.9,0.1,3.9,0.4
			c1,0.3,1.9,0.8,2.4,1.6c0.6,0.8,1,1.8,1.2,3.1c0.2,1.3,0.3,3,0.3,4.9C151.3,340.8,151.2,342.4,151,343.7z"/>
		<path class="st1" d="M197.6,348.8c1-2.5,1.5-5.9,1.5-10.2c0-6.6-1.3-11.5-4-14.6c-2.7-3.1-6.9-4.6-12.6-4.6h-13.9v66.4h10v-27.8
			h4.7l6.2,27.8h10.6l-7.7-30.4C194.9,353.4,196.6,351.3,197.6,348.8z M187.8,345.8c-0.5,1.1-1.2,1.9-2,2.2c-0.8,0.4-2.2,0.5-4,0.5
			h-3.1v-19.9h3.1c1.8,0,3.2,0.2,4,0.5c0.8,0.4,1.5,1.1,2,2.2c0.8,1.8,1.3,4.2,1.3,7.2C189.1,341.6,188.7,344,187.8,345.8z"/>
		<path class="st1" d="M237.5,330c-0.3-1.3-0.7-2.4-1.2-3.4c-0.5-1-1.1-2-1.9-3c-1.3-1.7-3-3-5.1-3.9c-2.1-0.9-4.2-1.4-6.6-1.4
			c-2.3,0-4.5,0.5-6.5,1.4c-2,0.9-3.7,2.2-5,3.9c-0.8,1-1.5,2-2,3c-0.5,1-0.9,2.2-1.2,3.5c-0.3,1.3-0.5,2.8-0.6,4.6
			c-0.1,1.7-0.2,3.8-0.2,6.3v23.2c0,2.5,0.1,4.5,0.2,6.3c0.1,1.7,0.3,3.3,0.6,4.6c0.3,1.3,0.7,2.5,1.2,3.5c0.5,1,1.2,2,2,3
			c1.3,1.7,3,3,5,3.9c2,0.9,4.2,1.4,6.5,1.4c2.3,0,4.5-0.5,6.6-1.4c2.1-0.9,3.7-2.2,5.1-3.9c0.8-1,1.4-2,1.9-3
			c0.5-1,0.9-2.1,1.2-3.4c0.3-1.3,0.5-2.8,0.6-4.6c0.1-1.8,0.2-3.9,0.2-6.3v-23.2c0-2.5-0.1-4.6-0.2-6.3
			C238,332.8,237.8,331.3,237.5,330z M228.3,363c0,5.4-0.1,8.7-0.4,9.8c-0.7,3-2.4,4.6-5.1,4.6c-2.3,0-4-1.2-4.9-3.6
			c-0.3-0.7-0.4-1.9-0.5-3.5c-0.1-1.6-0.1-4-0.1-7.3V342c0-2.5,0-4.6,0.1-6.3c0.1-1.7,0.2-2.9,0.3-3.5c0.7-3,2.4-4.6,5.2-4.6
			c2.3,0,3.9,1.2,4.8,3.6c0.3,0.7,0.4,1.9,0.5,3.4c0.1,1.6,0.1,4,0.1,7.4V363z"/>
		<polygon class="st1" points="268.6,359.7 260.3,319.3 247,319.3 247,385.7 256.3,385.7 256.3,339.8 266.3,385.7 270.8,385.7 
			280.3,339.8 280.3,385.7 289.6,385.7 289.6,319.3 276.1,319.3 		"/>
		<polygon class="st1" points="298.4,385.7 325.6,385.7 325.6,376.3 308.5,376.3 308.5,355.9 320.8,355.9 320.8,346.6 308.5,346.6 
			308.5,328.7 325.6,328.7 325.6,319.3 298.4,319.3 		"/>
		<polygon class="st1" points="329.3,328.7 339.8,328.7 339.8,385.7 349.9,385.7 349.9,328.7 360.6,328.7 360.6,319.3 329.3,319.3 
					"/>
		<rect x="365.7" y="319.3" class="st1" width="10" height="66.4"/>
		<path class="st1" d="M398.6,319.3h-14.1v66.4h14.1c5.8,0,10-1.5,12.7-4.5c2.7-3,4.1-7.7,4.1-14.2V338c0-6.4-1.4-11.2-4.1-14.2
			C408.6,320.8,404.4,319.3,398.6,319.3z M405.4,365c0,2.5-0.1,4.4-0.3,5.5c-0.2,1.2-0.7,2.2-1.3,3.2c-1.3,1.7-3.4,2.6-6.2,2.6h-3
			v-47.7h3c2.8,0,4.9,0.9,6.2,2.6c0.7,0.9,1.1,2,1.3,3.2c0.2,1.2,0.3,3,0.3,5.5V365z"/>
		<path class="st1" d="M449.5,333.5c-0.8-0.4-1.8-0.5-2.9-0.5c-2.6,0-4.6,0.8-6.1,2.4c-1.5,1.6-2.2,3.8-2.2,6.7v18.7
			c0,2.9,0.6,5,1.9,6.4c1.3,1.3,3.2,2,5.9,2c1.5,0,2.7-0.3,3.7-0.8c1-0.6,2.1-1.5,3.2-2.9l1.2,2.8h6.1v-33.7c0-5-1.6-9-4.7-11.8
			c-3.2-2.8-7.6-4.2-13.3-4.2c-5.8,0-10.3,1.4-13.4,4.3c-3.1,2.8-4.7,6.9-4.7,12.2v34.7c0,2.6,0.5,5.1,1.4,7.4
			c1,2.4,2.3,4.2,3.9,5.6c1.5,1.3,3.4,2.3,5.8,3c2.4,0.7,4.9,1.1,7.5,1.1c6,0,10.7-2,14.2-5.9l-4.8-4.6c-2.8,2.3-6,3.5-9.4,3.5
			c-3.9,0-6.9-1.4-8.9-4.2c-0.7-0.9-1.2-2-1.5-3.2c-0.3-1.2-0.4-2.9-0.4-4.9v-30.9c0-2.4,0.2-4.2,0.5-5.4c0.4-1.2,1.1-2.3,2.2-3.2
			c0.9-0.8,2-1.4,3.3-1.9c1.3-0.5,2.7-0.7,4.1-0.7c3,0,5.4,0.7,7.2,2.2c1.8,1.5,2.7,3.4,2.7,6v2.1
			C451.3,334.5,450.3,333.9,449.5,333.5z M452.3,358.6c0,1.4-0.2,2.4-0.6,2.9c-0.4,0.6-1.2,0.8-2.3,0.8c-1.1,0-1.9-0.3-2.4-0.8
			c-0.5-0.6-0.7-1.5-0.7-2.9v-15.2c0-1.4,0.2-2.4,0.7-2.9c0.5-0.6,1.3-0.8,2.4-0.8c1.1,0,1.9,0.3,2.3,0.8c0.4,0.5,0.6,1.5,0.6,3
			V358.6z"/>
	</g>
	<g>
		<path class="st1" d="M10.8,398.9L0,465.3h9.8l2.3-14.6h10.6l2.3,14.6h10.2l-11.5-66.4H10.8z M13.5,441.3l3.8-26.5l4,26.5H13.5z"/>
		<polygon class="st1" points="59.7,465.3 86.8,465.3 86.8,455.9 69.7,455.9 69.7,435.5 82.1,435.5 82.1,426.2 69.7,426.2 
			69.7,408.3 86.8,408.3 86.8,398.9 59.7,398.9 		"/>
		<polygon class="st1" points="104.4,398.8 94.3,398.8 94.3,465.3 120.9,465.3 120.9,455.9 104.4,455.9 		"/>
		<polygon class="st1" points="126.5,465.3 153.7,465.3 153.7,455.9 136.6,455.9 136.6,435.5 148.9,435.5 148.9,426.2 136.6,426.2 
			136.6,408.3 153.7,408.3 153.7,398.9 126.5,398.9 		"/>
		<path class="st1" d="M191.7,411.2c-0.1-0.5-0.2-1-0.3-1.5c-0.8-3.6-2.5-6.5-5.2-8.6c-2.7-2.1-5.9-3.1-9.7-3.1
			c-2.3,0-4.5,0.4-6.6,1.3c-2.1,0.9-3.7,2.2-5.1,3.9c-0.8,1-1.5,2-2,3c-0.5,1-0.9,2.2-1.2,3.5c-0.3,1.3-0.5,2.9-0.6,4.7
			c-0.1,1.8-0.2,4-0.2,6.6v23.2c0,4.2,0.2,7.5,0.6,9.9c0.4,2.5,1.2,4.6,2.3,6.6c1.1,1.8,2.6,3.2,4.5,4.2c1.9,1,4,1.5,6.4,1.5
			c2.5,0,4.5-0.5,6-1.4c1.6-0.9,3-2.6,4.4-4.9l1.9,5.3h4.9v-33.6h-16v8.3h6v2.7c0,2.6,0,4.7-0.1,6.3c-0.1,1.6-0.2,2.8-0.4,3.5
			c-0.3,1.4-0.9,2.5-1.8,3.3c-0.8,0.8-1.9,1.2-3.2,1.2c-1.1,0-2.1-0.3-3-0.9c-0.9-0.6-1.5-1.5-1.8-2.6c-0.3-0.7-0.5-2-0.6-3.9
			c-0.1-1.9-0.2-4.2-0.2-6.9v-21c0-2.5,0-4.6,0.1-6.3c0.1-1.7,0.2-2.8,0.3-3.4c0.7-3,2.4-4.6,5.1-4.6c1.4,0,2.6,0.5,3.6,1.4
			c0.9,1,1.5,2.2,1.7,3.8c0.1,0.7,0.1,1.8,0.1,3.1c0,1.3,0,3,0,5H192c0-1.9,0-3.5,0-4.6c0-1.2,0-2.1-0.1-2.9
			C191.8,412.3,191.8,411.7,191.7,411.2z"/>
		<rect x="200.8" y="398.9" class="st1" width="10" height="66.4"/>
		<path class="st1" d="M248.7,428.4c1-2.5,1.5-5.9,1.5-10.2c0-6.6-1.3-11.5-4-14.6c-2.7-3.1-6.9-4.6-12.6-4.6h-13.9v66.4h10v-27.8
			h4.7l6.2,27.8h10.6l-7.7-30.4C245.9,433,247.7,430.9,248.7,428.4z M238.9,425.4c-0.5,1.1-1.2,1.9-2,2.2c-0.8,0.4-2.2,0.5-4,0.5
			h-3.1v-19.9h3.1c1.8,0,3.2,0.2,4,0.5c0.8,0.4,1.5,1.1,2,2.2c0.8,1.8,1.3,4.2,1.3,7.2C240.1,421.2,239.7,423.6,238.9,425.4z"/>
		<rect x="258" y="455" class="st1" width="9.6" height="10.2"/>
	</g>
</g>
</svg>
